M48
; DRILL file {KiCad (6.0.9)} date Tue Jan 31 14:43:02 2023
; FORMAT={-:-/ absolute / metric / decimal}
; #@! TF.CreationDate,2023-01-31T14:43:02+01:00
; #@! TF.GenerationSoftware,Kicad,Pcbnew,(6.0.9)
; #@! TF.FileFunction,MixedPlating,1,2
FMAT,2
METRIC
; #@! TA.AperFunction,Plated,PTH,ViaDrill
T1C0.300
; #@! TA.AperFunction,NonPlated,NPTH,ComponentDrill
T2C0.650
; #@! TA.AperFunction,NonPlated,NPTH,ComponentDrill
T3C0.900
%
G90
G05
T1
X140.7Y-117.0
X140.8Y-107.8
X142.058Y-107.786
X142.182Y-112.52
X142.35Y-110.489
X142.9Y-107.9
X144.6Y-107.8
X144.6Y-104.4
X145.0Y-119.3
X145.4Y-115.5
X145.5Y-108.149
X146.391Y-115.491
X146.565Y-108.149
X147.8Y-108.7
X148.69Y-106.51
X150.3Y-116.9
X150.9Y-112.5
X151.3Y-103.0
X151.6Y-113.25
X151.7Y-107.3
X151.8Y-108.9
X152.399Y-109.556
X152.4Y-103.0
X152.5Y-110.4
X152.605Y-111.243
X153.5Y-103.0
X156.5Y-109.7
X157.283Y-117.795
X157.5Y-119.3
T2
X143.645Y-115.35
X149.425Y-115.35
T3
X143.06Y-104.31
X146.06Y-104.31
T0
M30
