%TF.GenerationSoftware,KiCad,Pcbnew,(6.0.9)*%
%TF.CreationDate,2023-01-31T14:43:12+01:00*%
%TF.ProjectId,keyring_beerclock,6b657972-696e-4675-9f62-656572636c6f,rev?*%
%TF.SameCoordinates,Original*%
%TF.FileFunction,Copper,L1,Top*%
%TF.FilePolarity,Positive*%
%FSLAX46Y46*%
G04 Gerber Fmt 4.6, Leading zero omitted, Abs format (unit mm)*
G04 Created by KiCad (PCBNEW (6.0.9)) date 2023-01-31 14:43:12*
%MOMM*%
%LPD*%
G01*
G04 APERTURE LIST*
G04 Aperture macros list*
%AMRoundRect*
0 Rectangle with rounded corners*
0 $1 Rounding radius*
0 $2 $3 $4 $5 $6 $7 $8 $9 X,Y pos of 4 corners*
0 Add a 4 corners polygon primitive as box body*
4,1,4,$2,$3,$4,$5,$6,$7,$8,$9,$2,$3,0*
0 Add four circle primitives for the rounded corners*
1,1,$1+$1,$2,$3*
1,1,$1+$1,$4,$5*
1,1,$1+$1,$6,$7*
1,1,$1+$1,$8,$9*
0 Add four rect primitives between the rounded corners*
20,1,$1+$1,$2,$3,$4,$5,0*
20,1,$1+$1,$4,$5,$6,$7,0*
20,1,$1+$1,$6,$7,$8,$9,0*
20,1,$1+$1,$8,$9,$2,$3,0*%
%AMFreePoly0*
4,1,14,0.085355,0.385355,0.100000,0.350000,0.100000,-0.350000,0.085355,-0.385355,0.050000,-0.400000,0.000711,-0.400000,-0.034644,-0.385355,-0.085355,-0.334644,-0.100000,-0.299289,-0.100000,0.350000,-0.085355,0.385355,-0.050000,0.400000,0.050000,0.400000,0.085355,0.385355,0.085355,0.385355,$1*%
%AMFreePoly1*
4,1,14,0.085355,0.385355,0.100000,0.350000,0.100000,-0.299289,0.085355,-0.334644,0.034644,-0.385355,-0.000711,-0.400000,-0.050000,-0.400000,-0.085355,-0.385355,-0.100000,-0.350000,-0.100000,0.350000,-0.085355,0.385355,-0.050000,0.400000,0.050000,0.400000,0.085355,0.385355,0.085355,0.385355,$1*%
%AMFreePoly2*
4,1,14,0.385355,0.085355,0.400000,0.050000,0.400000,-0.050000,0.385355,-0.085355,0.350000,-0.100000,-0.350000,-0.100000,-0.385355,-0.085355,-0.400000,-0.050000,-0.400000,-0.000711,-0.385355,0.034644,-0.334644,0.085355,-0.299289,0.100000,0.350000,0.100000,0.385355,0.085355,0.385355,0.085355,$1*%
%AMFreePoly3*
4,1,14,0.385355,0.085355,0.400000,0.050000,0.400000,-0.050000,0.385355,-0.085355,0.350000,-0.100000,-0.299289,-0.100000,-0.334644,-0.085355,-0.385355,-0.034644,-0.400000,0.000711,-0.400000,0.050000,-0.385355,0.085355,-0.350000,0.100000,0.350000,0.100000,0.385355,0.085355,0.385355,0.085355,$1*%
%AMFreePoly4*
4,1,14,0.034644,0.385355,0.085355,0.334644,0.100000,0.299289,0.100000,-0.350000,0.085355,-0.385355,0.050000,-0.400000,-0.050000,-0.400000,-0.085355,-0.385355,-0.100000,-0.350000,-0.100000,0.350000,-0.085355,0.385355,-0.050000,0.400000,-0.000711,0.400000,0.034644,0.385355,0.034644,0.385355,$1*%
%AMFreePoly5*
4,1,14,0.085355,0.385355,0.100000,0.350000,0.100000,-0.350000,0.085355,-0.385355,0.050000,-0.400000,-0.050000,-0.400000,-0.085355,-0.385355,-0.100000,-0.350000,-0.100000,0.299289,-0.085355,0.334644,-0.034644,0.385355,0.000711,0.400000,0.050000,0.400000,0.085355,0.385355,0.085355,0.385355,$1*%
%AMFreePoly6*
4,1,14,0.385355,0.085355,0.400000,0.050000,0.400000,0.000711,0.385355,-0.034644,0.334644,-0.085355,0.299289,-0.100000,-0.350000,-0.100000,-0.385355,-0.085355,-0.400000,-0.050000,-0.400000,0.050000,-0.385355,0.085355,-0.350000,0.100000,0.350000,0.100000,0.385355,0.085355,0.385355,0.085355,$1*%
%AMFreePoly7*
4,1,14,0.334644,0.085355,0.385355,0.034644,0.400000,-0.000711,0.400000,-0.050000,0.385355,-0.085355,0.350000,-0.100000,-0.350000,-0.100000,-0.385355,-0.085355,-0.400000,-0.050000,-0.400000,0.050000,-0.385355,0.085355,-0.350000,0.100000,0.299289,0.100000,0.334644,0.085355,0.334644,0.085355,$1*%
G04 Aperture macros list end*
%TA.AperFunction,SMDPad,CuDef*%
%ADD10R,0.700000X1.500000*%
%TD*%
%TA.AperFunction,SMDPad,CuDef*%
%ADD11R,1.000000X0.800000*%
%TD*%
%TA.AperFunction,SMDPad,CuDef*%
%ADD12R,1.700000X1.700000*%
%TD*%
%TA.AperFunction,SMDPad,CuDef*%
%ADD13FreePoly0,270.000000*%
%TD*%
%TA.AperFunction,SMDPad,CuDef*%
%ADD14RoundRect,0.050000X-0.350000X0.050000X-0.350000X-0.050000X0.350000X-0.050000X0.350000X0.050000X0*%
%TD*%
%TA.AperFunction,SMDPad,CuDef*%
%ADD15FreePoly1,270.000000*%
%TD*%
%TA.AperFunction,SMDPad,CuDef*%
%ADD16FreePoly2,270.000000*%
%TD*%
%TA.AperFunction,SMDPad,CuDef*%
%ADD17RoundRect,0.050000X-0.050000X0.350000X-0.050000X-0.350000X0.050000X-0.350000X0.050000X0.350000X0*%
%TD*%
%TA.AperFunction,SMDPad,CuDef*%
%ADD18FreePoly3,270.000000*%
%TD*%
%TA.AperFunction,SMDPad,CuDef*%
%ADD19FreePoly4,270.000000*%
%TD*%
%TA.AperFunction,SMDPad,CuDef*%
%ADD20FreePoly5,270.000000*%
%TD*%
%TA.AperFunction,SMDPad,CuDef*%
%ADD21FreePoly6,270.000000*%
%TD*%
%TA.AperFunction,SMDPad,CuDef*%
%ADD22FreePoly7,270.000000*%
%TD*%
%TA.AperFunction,SMDPad,CuDef*%
%ADD23RoundRect,0.150000X0.150000X-0.512500X0.150000X0.512500X-0.150000X0.512500X-0.150000X-0.512500X0*%
%TD*%
%TA.AperFunction,SMDPad,CuDef*%
%ADD24R,2.000000X0.350000*%
%TD*%
%TA.AperFunction,SMDPad,CuDef*%
%ADD25RoundRect,0.160000X-0.160000X0.197500X-0.160000X-0.197500X0.160000X-0.197500X0.160000X0.197500X0*%
%TD*%
%TA.AperFunction,SMDPad,CuDef*%
%ADD26R,2.180000X2.000000*%
%TD*%
%TA.AperFunction,SMDPad,CuDef*%
%ADD27R,0.300000X1.150000*%
%TD*%
%TA.AperFunction,SMDPad,CuDef*%
%ADD28R,0.600000X1.150000*%
%TD*%
%TA.AperFunction,SMDPad,CuDef*%
%ADD29RoundRect,0.250000X-0.750000X0.250000X-0.750000X-0.250000X0.750000X-0.250000X0.750000X0.250000X0*%
%TD*%
%TA.AperFunction,SMDPad,CuDef*%
%ADD30RoundRect,0.250000X0.750000X-0.250000X0.750000X0.250000X-0.750000X0.250000X-0.750000X-0.250000X0*%
%TD*%
%TA.AperFunction,SMDPad,CuDef*%
%ADD31RoundRect,0.155000X-0.212500X-0.155000X0.212500X-0.155000X0.212500X0.155000X-0.212500X0.155000X0*%
%TD*%
%TA.AperFunction,SMDPad,CuDef*%
%ADD32RoundRect,0.155000X0.212500X0.155000X-0.212500X0.155000X-0.212500X-0.155000X0.212500X-0.155000X0*%
%TD*%
%TA.AperFunction,SMDPad,CuDef*%
%ADD33RoundRect,0.155000X-0.155000X0.212500X-0.155000X-0.212500X0.155000X-0.212500X0.155000X0.212500X0*%
%TD*%
%TA.AperFunction,SMDPad,CuDef*%
%ADD34RoundRect,0.155000X0.155000X-0.212500X0.155000X0.212500X-0.155000X0.212500X-0.155000X-0.212500X0*%
%TD*%
%TA.AperFunction,ViaPad*%
%ADD35C,0.700000*%
%TD*%
%TA.AperFunction,Conductor*%
%ADD36C,0.300000*%
%TD*%
%TA.AperFunction,Conductor*%
%ADD37C,0.200000*%
%TD*%
%TA.AperFunction,Conductor*%
%ADD38C,0.500000*%
%TD*%
G04 APERTURE END LIST*
D10*
%TO.P,SW1,3,C*%
%TO.N,/BAT+*%
X142310000Y-106070000D03*
%TO.P,SW1,2,B*%
%TO.N,/PWR_IN*%
X143810000Y-106070000D03*
%TO.P,SW1,1,A*%
%TO.N,VCC*%
X146810000Y-106070000D03*
D11*
%TO.P,SW1,*%
%TO.N,*%
X148210000Y-105420000D03*
X140910000Y-103210000D03*
X148210000Y-103210000D03*
X140910000Y-105420000D03*
%TD*%
D12*
%TO.P,U4,21,GND*%
%TO.N,GND*%
X149308476Y-110640000D03*
D13*
%TO.P,U4,20,PA1*%
%TO.N,unconnected-(U4-Pad20)*%
X150758476Y-109840000D03*
D14*
%TO.P,U4,19,~{RESET}/PA0*%
%TO.N,UDPI*%
X150758476Y-110240000D03*
%TO.P,U4,18,PC3*%
%TO.N,BTN_LEFT*%
X150758476Y-110640000D03*
%TO.P,U4,17,PC2*%
%TO.N,BTN_MID*%
X150758476Y-111040000D03*
D15*
%TO.P,U4,16,PC1*%
%TO.N,BTN_RIGHT*%
X150758476Y-111440000D03*
D16*
%TO.P,U4,15,PC0*%
%TO.N,~{RES}*%
X150108476Y-112090000D03*
D17*
%TO.P,U4,14,PB0*%
%TO.N,SCL*%
X149708476Y-112090000D03*
%TO.P,U4,13,PB1*%
%TO.N,SDA*%
X149308476Y-112090000D03*
%TO.P,U4,12,PB2*%
%TO.N,unconnected-(U4-Pad12)*%
X148908476Y-112090000D03*
D18*
%TO.P,U4,11,PB3*%
%TO.N,unconnected-(U4-Pad11)*%
X148508476Y-112090000D03*
D19*
%TO.P,U4,10,PB4*%
%TO.N,unconnected-(U4-Pad10)*%
X147858476Y-111440000D03*
D14*
%TO.P,U4,9,PB5*%
%TO.N,unconnected-(U4-Pad9)*%
X147858476Y-111040000D03*
%TO.P,U4,8,PA7*%
%TO.N,unconnected-(U4-Pad8)*%
X147858476Y-110640000D03*
%TO.P,U4,7,PA6*%
%TO.N,unconnected-(U4-Pad7)*%
X147858476Y-110240000D03*
D20*
%TO.P,U4,6,PA5*%
%TO.N,SENSE*%
X147858476Y-109840000D03*
D21*
%TO.P,U4,5,PA4*%
%TO.N,unconnected-(U4-Pad5)*%
X148508476Y-109190000D03*
D17*
%TO.P,U4,4,VCC*%
%TO.N,+3V3*%
X148908476Y-109190000D03*
%TO.P,U4,3,GND*%
%TO.N,GND*%
X149308476Y-109190000D03*
%TO.P,U4,2,PA3*%
%TO.N,unconnected-(U4-Pad2)*%
X149708476Y-109190000D03*
D22*
%TO.P,U4,1,PA2*%
%TO.N,unconnected-(U4-Pad1)*%
X150108476Y-109190000D03*
%TD*%
D23*
%TO.P,U3,1,VIN*%
%TO.N,/PWR_IN*%
X144410000Y-111727500D03*
%TO.P,U3,2,GND*%
%TO.N,GND*%
X145360000Y-111727500D03*
%TO.P,U3,3,~{SHDN}*%
%TO.N,/PWR_IN*%
X146310000Y-111727500D03*
%TO.P,U3,4,Bypass*%
%TO.N,/bypass*%
X146310000Y-109452500D03*
%TO.P,U3,5,VOUT*%
%TO.N,+3V3*%
X144410000Y-109452500D03*
%TD*%
%TO.P,U2,1,CEN*%
%TO.N,/VBUS*%
X140870000Y-111527500D03*
%TO.P,U2,2,VSS*%
%TO.N,GND*%
X141820000Y-111527500D03*
%TO.P,U2,3,VBAT*%
%TO.N,/BAT+*%
X142770000Y-111527500D03*
%TO.P,U2,4,VDD*%
%TO.N,/VBUS*%
X142770000Y-109252500D03*
%TO.P,U2,5,PROG*%
%TO.N,/CRG_PROG*%
X140870000Y-109252500D03*
%TD*%
D24*
%TO.P,U1,1,C2P*%
%TO.N,/C2P*%
X154770000Y-107220000D03*
%TO.P,U1,2,C2N*%
%TO.N,/C2N*%
X154770000Y-107840000D03*
%TO.P,U1,3,C1P*%
%TO.N,/C1P*%
X154770000Y-108460000D03*
%TO.P,U1,4,C1N*%
%TO.N,/C1N*%
X154770000Y-109080000D03*
%TO.P,U1,5,VBAT*%
%TO.N,/VBAT*%
X154770000Y-109700000D03*
%TO.P,U1,6,NC*%
%TO.N,unconnected-(U1-Pad6)*%
X154770000Y-110320000D03*
%TO.P,U1,7,VSS*%
%TO.N,GND*%
X154770000Y-110940000D03*
%TO.P,U1,8,VDD*%
%TO.N,+3V3*%
X154770000Y-111560000D03*
%TO.P,U1,9,~{RES}*%
%TO.N,~{RES}*%
X154770000Y-112180000D03*
%TO.P,U1,10,SCL*%
%TO.N,SCL*%
X154770000Y-112800000D03*
%TO.P,U1,11,SDA*%
%TO.N,SDA*%
X154770000Y-113420000D03*
%TO.P,U1,12,IREF*%
%TO.N,/IREF*%
X154770000Y-114040000D03*
%TO.P,U1,13,VCOMM*%
%TO.N,/VCOMM*%
X154770000Y-114660000D03*
%TO.P,U1,14,VCC*%
%TO.N,/VCC_CAP*%
X154770000Y-115280000D03*
%TD*%
D25*
%TO.P,R2,1*%
%TO.N,/IREF*%
X155720000Y-116402500D03*
%TO.P,R2,2*%
%TO.N,GND*%
X155720000Y-117597500D03*
%TD*%
D26*
%TO.P,J8,S1,SHIELD*%
%TO.N,unconnected-(J8-PadS1)*%
X151645000Y-114850000D03*
X141425000Y-118750000D03*
X151645000Y-118750000D03*
X141425000Y-114850000D03*
D27*
%TO.P,J8,B8,SBU2*%
%TO.N,unconnected-(J8-PadB8)*%
X144785000Y-114280000D03*
%TO.P,J8,B7,D-*%
%TO.N,unconnected-(J8-PadB7)*%
X145785000Y-114280000D03*
%TO.P,J8,B6,D+*%
%TO.N,unconnected-(J8-PadB6)*%
X147285000Y-114280000D03*
%TO.P,J8,B5,CC2*%
%TO.N,/CC2*%
X148285000Y-114280000D03*
%TO.P,J8,A8,SBU1*%
%TO.N,unconnected-(J8-PadA8)*%
X147785000Y-114280000D03*
%TO.P,J8,A7,D-*%
%TO.N,unconnected-(J8-PadA7)*%
X146785000Y-114280000D03*
%TO.P,J8,A6,D+*%
%TO.N,unconnected-(J8-PadA6)*%
X146285000Y-114280000D03*
%TO.P,J8,A5,CC1*%
%TO.N,/CC1*%
X145285000Y-114280000D03*
D28*
%TO.P,J8,A4,VBUS*%
%TO.N,/VBUS*%
X144135000Y-114280000D03*
X148935000Y-114280000D03*
%TO.P,J8,A1,GND*%
%TO.N,GND*%
X149735000Y-114280000D03*
X143335000Y-114280000D03*
%TD*%
D29*
%TO.P,J7,1,Pin_1*%
%TO.N,/-Piezo*%
X159515000Y-119235000D03*
%TD*%
%TO.P,J6,1,Pin_1*%
%TO.N,+3V3*%
X159515000Y-117795000D03*
%TD*%
D30*
%TO.P,J2,1,Pin_1*%
%TO.N,GND*%
X159575000Y-103295000D03*
%TD*%
%TO.P,J1,1,Pin_1*%
%TO.N,/BAT+*%
X159565000Y-104755000D03*
%TD*%
D31*
%TO.P,C12,2*%
%TO.N,GND*%
X150717500Y-107950000D03*
%TO.P,C12,1*%
%TO.N,+3V3*%
X149582500Y-107950000D03*
%TD*%
%TO.P,C11,2*%
%TO.N,GND*%
X150707500Y-106950000D03*
%TO.P,C11,1*%
%TO.N,+3V3*%
X149572500Y-106950000D03*
%TD*%
D32*
%TO.P,C9,1*%
%TO.N,/VBAT*%
X150717500Y-105860000D03*
%TO.P,C9,2*%
%TO.N,GND*%
X149582500Y-105860000D03*
%TD*%
D33*
%TO.P,C6,1*%
%TO.N,/VCC_CAP*%
X154670000Y-116412500D03*
%TO.P,C6,2*%
%TO.N,GND*%
X154670000Y-117547500D03*
%TD*%
%TO.P,C5,1*%
%TO.N,/VCOMM*%
X153650000Y-116412500D03*
%TO.P,C5,2*%
%TO.N,GND*%
X153650000Y-117547500D03*
%TD*%
D34*
%TO.P,C2,1*%
%TO.N,/C1P*%
X153540000Y-106117500D03*
%TO.P,C2,2*%
%TO.N,/C1N*%
X153540000Y-104982500D03*
%TD*%
%TO.P,C1,1*%
%TO.N,/C2P*%
X154700000Y-106117500D03*
%TO.P,C1,2*%
%TO.N,/C2N*%
X154700000Y-104982500D03*
%TD*%
D35*
%TO.N,GND*%
X156500000Y-109700000D03*
X151700000Y-107300000D03*
X153500000Y-103000000D03*
X152400000Y-103000000D03*
X151300000Y-103000000D03*
%TO.N,/BAT+*%
X142058148Y-107786248D03*
%TO.N,/VBUS*%
X142900000Y-107900000D03*
%TO.N,/BAT+*%
X142350499Y-110488624D03*
%TO.N,/CRG_PROG*%
X140800000Y-107800000D03*
%TO.N,GND*%
X142182062Y-112519647D03*
X150300000Y-116900000D03*
X140700000Y-117000000D03*
X145000000Y-119300000D03*
%TO.N,+3V3*%
X148690249Y-106509751D03*
X144599500Y-107799750D03*
X157282868Y-117795000D03*
%TO.N,VCC*%
X144600000Y-104400000D03*
%TO.N,/bypass*%
X146564798Y-108149000D03*
%TO.N,/PWR_IN*%
X145500000Y-108149000D03*
%TO.N,/-Piezo*%
X157500000Y-119300000D03*
%TO.N,/CC2*%
X146390734Y-115490734D03*
%TO.N,/CC1*%
X145400000Y-115500000D03*
%TO.N,SENSE*%
X147800000Y-108700000D03*
%TO.N,BTN_RIGHT*%
X152605368Y-111242943D03*
%TO.N,BTN_MID*%
X152500000Y-110400000D03*
%TO.N,BTN_LEFT*%
X152399500Y-109556463D03*
%TO.N,UDPI*%
X151800000Y-108900000D03*
%TO.N,SCL*%
X150900000Y-112500000D03*
%TO.N,SDA*%
X151600000Y-113250498D03*
%TD*%
D36*
%TO.N,/PWR_IN*%
X144410000Y-111727500D02*
X144410000Y-110590000D01*
X143700000Y-111017500D02*
X144410000Y-111727500D01*
D37*
%TO.N,GND*%
X149308476Y-110640000D02*
X149308476Y-109190000D01*
D36*
%TO.N,/PWR_IN*%
X145400000Y-108249000D02*
X145500000Y-108149000D01*
X145400000Y-110500000D02*
X145400000Y-108249000D01*
X143700000Y-106180000D02*
X143810000Y-106070000D01*
X143700000Y-111017500D02*
X143700000Y-106180000D01*
%TO.N,GND*%
X143335000Y-114280000D02*
X142815000Y-114800000D01*
%TO.N,/PWR_IN*%
X145400000Y-110500000D02*
X144500000Y-110500000D01*
X146200000Y-110500000D02*
X145400000Y-110500000D01*
D38*
%TO.N,+3V3*%
X149130498Y-106950000D02*
X149572500Y-106950000D01*
X148690249Y-106509751D02*
X149130498Y-106950000D01*
D36*
X148690249Y-106509751D02*
X147700500Y-107499500D01*
X147700500Y-107499500D02*
X144899750Y-107499500D01*
X144899750Y-107499500D02*
X144599500Y-107799750D01*
D38*
%TO.N,/BAT+*%
X142058148Y-106321852D02*
X142310000Y-106070000D01*
X142058148Y-107786248D02*
X142058148Y-106321852D01*
D36*
%TO.N,/bypass*%
X146310000Y-108403798D02*
X146564798Y-108149000D01*
X146310000Y-109452500D02*
X146310000Y-108403798D01*
%TO.N,GND*%
X142417415Y-112755000D02*
X142182062Y-112519647D01*
X145145000Y-112755000D02*
X142417415Y-112755000D01*
X145360000Y-112540000D02*
X145145000Y-112755000D01*
X145360000Y-111727500D02*
X145360000Y-112540000D01*
%TO.N,/PWR_IN*%
X144500000Y-110500000D02*
X144410000Y-110590000D01*
X146310000Y-110610000D02*
X146200000Y-110500000D01*
X146310000Y-111727500D02*
X146310000Y-110610000D01*
D38*
X143810000Y-106070000D02*
X143710000Y-106170000D01*
D36*
%TO.N,+3V3*%
X144410000Y-107989250D02*
X144410000Y-109952500D01*
X144599500Y-107799750D02*
X144410000Y-107989250D01*
D38*
%TO.N,/VBUS*%
X142770000Y-108030000D02*
X142900000Y-107900000D01*
X142770000Y-109252500D02*
X142770000Y-108030000D01*
%TO.N,/BAT+*%
X142770000Y-110908125D02*
X142350499Y-110488624D01*
X142770000Y-111527500D02*
X142770000Y-110908125D01*
%TO.N,/VBUS*%
X142489238Y-109252500D02*
X142770000Y-109252500D01*
X140870000Y-110871738D02*
X142489238Y-109252500D01*
X140870000Y-111527500D02*
X140870000Y-110871738D01*
%TO.N,/CRG_PROG*%
X140800000Y-107800000D02*
X140800000Y-109182500D01*
X140800000Y-109182500D02*
X140870000Y-109252500D01*
%TO.N,GND*%
X141820000Y-112157585D02*
X142182062Y-112519647D01*
X141820000Y-111527500D02*
X141820000Y-112157585D01*
D36*
X150255000Y-114800000D02*
X150255000Y-115800000D01*
X149735000Y-114280000D02*
X150255000Y-114800000D01*
X142815000Y-114800000D02*
X142815000Y-115700000D01*
D38*
%TO.N,/VBUS*%
X144235000Y-113305000D02*
X148640000Y-113305000D01*
D36*
%TO.N,/CC1*%
X145285000Y-115385000D02*
X145285000Y-114280000D01*
X145400000Y-115500000D02*
X145285000Y-115385000D01*
%TO.N,/CC2*%
X146400000Y-115500000D02*
X147890000Y-115500000D01*
X148285000Y-115105000D02*
X148285000Y-114280000D01*
X146390734Y-115490734D02*
X146400000Y-115500000D01*
X147890000Y-115500000D02*
X148285000Y-115105000D01*
D38*
%TO.N,GND*%
X154670000Y-117547500D02*
X153650000Y-117547500D01*
X154720000Y-117597500D02*
X154670000Y-117547500D01*
X155720000Y-117597500D02*
X154720000Y-117597500D01*
D36*
X149617500Y-105860000D02*
X150707500Y-106950000D01*
X149582500Y-105860000D02*
X149617500Y-105860000D01*
D37*
X150127500Y-108540000D02*
X150717500Y-107950000D01*
X149487474Y-108540000D02*
X150127500Y-108540000D01*
X149308476Y-109190000D02*
X149308476Y-108718998D01*
X149308476Y-108718998D02*
X149487474Y-108540000D01*
D38*
X150707500Y-107940000D02*
X150717500Y-107950000D01*
X150707500Y-106950000D02*
X150707500Y-107940000D01*
%TO.N,+3V3*%
X149572500Y-107940000D02*
X149582500Y-107950000D01*
X149572500Y-106950000D02*
X149572500Y-107940000D01*
D37*
X148908476Y-108624024D02*
X149582500Y-107950000D01*
X148908476Y-109190000D02*
X148908476Y-108624024D01*
D36*
X157282868Y-117795000D02*
X159515000Y-117795000D01*
%TO.N,/-Piezo*%
X159450000Y-119300000D02*
X159515000Y-119235000D01*
X157500000Y-119300000D02*
X159450000Y-119300000D01*
%TO.N,+3V3*%
X155960000Y-111560000D02*
X154770000Y-111560000D01*
X156420000Y-112020000D02*
X155960000Y-111560000D01*
X156420000Y-116932132D02*
X156420000Y-112020000D01*
X157282868Y-117795000D02*
X156420000Y-116932132D01*
%TO.N,VCC*%
X146270000Y-106070000D02*
X144600000Y-104400000D01*
X146810000Y-106070000D02*
X146270000Y-106070000D01*
D37*
%TO.N,SENSE*%
X147858476Y-108758476D02*
X147858476Y-109840000D01*
X147800000Y-108700000D02*
X147858476Y-108758476D01*
D38*
%TO.N,/BAT+*%
X157555000Y-104755000D02*
X159565000Y-104755000D01*
X156600000Y-103800000D02*
X157555000Y-104755000D01*
X149800000Y-103800000D02*
X156600000Y-103800000D01*
X149500000Y-104100000D02*
X149800000Y-103800000D01*
X147300000Y-104100000D02*
X149500000Y-104100000D01*
X146559999Y-103359999D02*
X147300000Y-104100000D01*
X142666496Y-103359999D02*
X146559999Y-103359999D01*
X142109999Y-103916496D02*
X142666496Y-103359999D01*
X142109999Y-105869999D02*
X142109999Y-103916496D01*
X142310000Y-106070000D02*
X142109999Y-105869999D01*
%TO.N,/VBUS*%
X140870000Y-112227500D02*
X140870000Y-112717817D01*
X140870000Y-112717817D02*
X141457183Y-113305000D01*
X141457183Y-113305000D02*
X144235000Y-113305000D01*
X148935000Y-113600000D02*
X148935000Y-114280000D01*
X144135000Y-113405000D02*
X144235000Y-113305000D01*
X144135000Y-114280000D02*
X144135000Y-113405000D01*
X148640000Y-113305000D02*
X148935000Y-113600000D01*
D37*
%TO.N,/C1N*%
X153480000Y-109080000D02*
X154770000Y-109080000D01*
X152980000Y-108580000D02*
X153480000Y-109080000D01*
X152980000Y-105737244D02*
X152980000Y-108580000D01*
X153540000Y-104982500D02*
X153540000Y-105177244D01*
X153540000Y-105177244D02*
X152980000Y-105737244D01*
%TO.N,/C1P*%
X154730000Y-108500000D02*
X154770000Y-108460000D01*
X153520000Y-108420000D02*
X153600000Y-108500000D01*
X153520000Y-106760000D02*
X153520000Y-108420000D01*
X153540000Y-106740000D02*
X153520000Y-106760000D01*
X153600000Y-108500000D02*
X154730000Y-108500000D01*
X153540000Y-106117500D02*
X153540000Y-106740000D01*
%TO.N,/C2N*%
X155825000Y-107840000D02*
X154770000Y-107840000D01*
X156100000Y-106400000D02*
X156100000Y-107565000D01*
X154700000Y-104982500D02*
X154700000Y-105000000D01*
X154700000Y-105000000D02*
X156100000Y-106400000D01*
X156100000Y-107565000D02*
X155825000Y-107840000D01*
%TO.N,/C2P*%
X154700000Y-106117500D02*
X154700000Y-107150000D01*
X154700000Y-107150000D02*
X154770000Y-107220000D01*
%TO.N,/VBAT*%
X153500000Y-109700000D02*
X154770000Y-109700000D01*
X152300000Y-108500000D02*
X153500000Y-109700000D01*
X152160000Y-105860000D02*
X152300000Y-106000000D01*
X150717500Y-105860000D02*
X152160000Y-105860000D01*
X152300000Y-106000000D02*
X152300000Y-108500000D01*
%TO.N,UDPI*%
X151182740Y-110240000D02*
X150758476Y-110240000D01*
X151800000Y-109622740D02*
X151182740Y-110240000D01*
X151800000Y-108900000D02*
X151800000Y-109622740D01*
%TO.N,BTN_LEFT*%
X152400000Y-109600000D02*
X151360000Y-110640000D01*
X152400000Y-109556963D02*
X152400000Y-109600000D01*
X152399500Y-109556463D02*
X152400000Y-109556963D01*
X151360000Y-110640000D02*
X150758476Y-110640000D01*
%TO.N,BTN_RIGHT*%
X152408311Y-111440000D02*
X152605368Y-111242943D01*
X150758476Y-111440000D02*
X152408311Y-111440000D01*
%TO.N,BTN_MID*%
X151860000Y-111040000D02*
X152500000Y-110400000D01*
X150758476Y-111040000D02*
X151860000Y-111040000D01*
%TO.N,/VCOMM*%
X153840000Y-114660000D02*
X154770000Y-114660000D01*
X153520000Y-114980000D02*
X153840000Y-114660000D01*
X153650000Y-116412500D02*
X153520000Y-116282500D01*
X153520000Y-116282500D02*
X153520000Y-114980000D01*
%TO.N,/VCC_CAP*%
X154670000Y-115380000D02*
X154770000Y-115280000D01*
X154670000Y-116412500D02*
X154670000Y-115380000D01*
%TO.N,/IREF*%
X155740000Y-114040000D02*
X154770000Y-114040000D01*
X156020000Y-114320000D02*
X155740000Y-114040000D01*
X156020000Y-116102500D02*
X156020000Y-114320000D01*
X155720000Y-116402500D02*
X156020000Y-116102500D01*
%TO.N,SCL*%
X149800000Y-112800000D02*
X149708476Y-112708476D01*
X149708476Y-112708476D02*
X149708476Y-112090000D01*
X150900000Y-112500000D02*
X150600000Y-112800000D01*
X150600000Y-112800000D02*
X149800000Y-112800000D01*
%TO.N,~{RES}*%
X153080000Y-112180000D02*
X154770000Y-112180000D01*
X152800000Y-111900000D02*
X153080000Y-112180000D01*
X150298476Y-111900000D02*
X152800000Y-111900000D01*
X150108476Y-112090000D02*
X150298476Y-111900000D01*
%TO.N,SCL*%
X153000000Y-112800000D02*
X154770000Y-112800000D01*
X152700000Y-112500000D02*
X153000000Y-112800000D01*
X150900000Y-112500000D02*
X152700000Y-112500000D01*
%TO.N,SDA*%
X152850498Y-113250498D02*
X153020000Y-113420000D01*
X151600000Y-113250498D02*
X152850498Y-113250498D01*
X153020000Y-113420000D02*
X154770000Y-113420000D01*
X149650498Y-113250498D02*
X151600000Y-113250498D01*
X149400000Y-113000000D02*
X149650498Y-113250498D01*
X149308476Y-112908476D02*
X149400000Y-113000000D01*
X149308476Y-112090000D02*
X149308476Y-112908476D01*
%TD*%
%TA.AperFunction,Conductor*%
%TO.N,GND*%
G36*
X140203461Y-102670502D02*
G01*
X140249954Y-102724158D01*
X140260733Y-102788851D01*
X140260708Y-102789110D01*
X140259500Y-102795180D01*
X140259500Y-103624820D01*
X140268233Y-103668722D01*
X140275127Y-103679040D01*
X140275128Y-103679042D01*
X140286874Y-103696621D01*
X140301496Y-103718504D01*
X140311815Y-103725399D01*
X140340958Y-103744872D01*
X140340960Y-103744873D01*
X140351278Y-103751767D01*
X140395180Y-103760500D01*
X141424820Y-103760500D01*
X141468722Y-103751767D01*
X141518184Y-103718718D01*
X141585936Y-103697504D01*
X141649371Y-103714908D01*
X141598683Y-103688160D01*
X141563774Y-103626339D01*
X141560500Y-103597804D01*
X141560500Y-102795180D01*
X141559292Y-102789110D01*
X141559267Y-102788851D01*
X141572495Y-102719098D01*
X141621335Y-102667569D01*
X141684660Y-102650500D01*
X147435340Y-102650500D01*
X147503461Y-102670502D01*
X147549954Y-102724158D01*
X147560733Y-102788851D01*
X147560708Y-102789110D01*
X147559500Y-102795180D01*
X147559500Y-103488917D01*
X147539498Y-103557038D01*
X147485842Y-103603531D01*
X147415568Y-103613635D01*
X147350988Y-103584141D01*
X147344404Y-103578012D01*
X146820908Y-103054515D01*
X146820894Y-103054502D01*
X146798341Y-103031949D01*
X146782861Y-103024062D01*
X146778744Y-103021964D01*
X146761892Y-103011638D01*
X146744089Y-102998703D01*
X146723165Y-102991904D01*
X146704905Y-102984340D01*
X146694140Y-102978855D01*
X146694136Y-102978854D01*
X146685303Y-102974353D01*
X146675512Y-102972802D01*
X146675511Y-102972802D01*
X146663577Y-102970912D01*
X146644352Y-102966296D01*
X146632867Y-102962564D01*
X146632863Y-102962563D01*
X146623432Y-102959499D01*
X142603063Y-102959499D01*
X142593632Y-102962563D01*
X142593628Y-102962564D01*
X142582143Y-102966296D01*
X142562918Y-102970912D01*
X142550984Y-102972802D01*
X142550983Y-102972802D01*
X142541192Y-102974353D01*
X142532359Y-102978854D01*
X142532355Y-102978855D01*
X142521588Y-102984341D01*
X142503328Y-102991905D01*
X142482407Y-102998703D01*
X142474384Y-103004532D01*
X142464609Y-103011634D01*
X142447754Y-103021962D01*
X142436995Y-103027444D01*
X142436993Y-103027445D01*
X142428154Y-103031949D01*
X142405591Y-103054512D01*
X142405587Y-103054515D01*
X141804515Y-103655587D01*
X141804512Y-103655591D01*
X141781949Y-103678154D01*
X141781223Y-103677428D01*
X141732210Y-103715220D01*
X141661474Y-103721294D01*
X141656580Y-103718711D01*
X141701846Y-103769106D01*
X141712633Y-103843195D01*
X141712564Y-103843630D01*
X141709499Y-103853063D01*
X141709499Y-104803386D01*
X141689497Y-104871507D01*
X141635841Y-104918000D01*
X141565567Y-104928104D01*
X141513501Y-104908153D01*
X141468722Y-104878233D01*
X141424820Y-104869500D01*
X140395180Y-104869500D01*
X140351278Y-104878233D01*
X140340960Y-104885127D01*
X140340958Y-104885128D01*
X140323993Y-104896464D01*
X140301496Y-104911496D01*
X140294601Y-104921815D01*
X140275128Y-104950958D01*
X140275127Y-104950960D01*
X140268233Y-104961278D01*
X140259500Y-105005180D01*
X140259500Y-105834820D01*
X140268233Y-105878722D01*
X140275127Y-105889040D01*
X140275128Y-105889042D01*
X140283875Y-105902132D01*
X140301496Y-105928504D01*
X140311815Y-105935399D01*
X140340958Y-105954872D01*
X140340960Y-105954873D01*
X140351278Y-105961767D01*
X140395180Y-105970500D01*
X141424820Y-105970500D01*
X141468722Y-105961767D01*
X141479040Y-105954873D01*
X141479042Y-105954872D01*
X141508185Y-105935399D01*
X141518504Y-105928504D01*
X141519235Y-105927411D01*
X141574803Y-105897067D01*
X141645618Y-105902132D01*
X141702454Y-105944679D01*
X141721421Y-105981257D01*
X141722801Y-105985506D01*
X141724353Y-105995303D01*
X141728854Y-106004136D01*
X141728960Y-106004463D01*
X141730984Y-106075431D01*
X141721399Y-106100582D01*
X141720120Y-106103093D01*
X141709787Y-106119959D01*
X141696852Y-106137762D01*
X141690055Y-106158682D01*
X141682489Y-106176946D01*
X141677004Y-106187711D01*
X141677003Y-106187715D01*
X141672502Y-106196548D01*
X141670951Y-106206339D01*
X141670951Y-106206340D01*
X141669061Y-106218274D01*
X141664445Y-106237499D01*
X141660713Y-106248984D01*
X141660712Y-106248988D01*
X141657648Y-106258419D01*
X141657648Y-107439592D01*
X141637755Y-107506110D01*
X141635525Y-107508636D01*
X141574595Y-107638411D01*
X141552539Y-107780071D01*
X141550069Y-107779686D01*
X141548410Y-107785088D01*
X141554421Y-107796584D01*
X141555773Y-107804803D01*
X141571128Y-107922227D01*
X141628868Y-108053451D01*
X141634645Y-108060324D01*
X141634646Y-108060325D01*
X141710353Y-108150390D01*
X141721118Y-108163196D01*
X141728595Y-108168173D01*
X141808702Y-108221497D01*
X141840461Y-108242638D01*
X141977305Y-108285390D01*
X141986277Y-108285554D01*
X141986280Y-108285555D01*
X142051611Y-108286752D01*
X142120647Y-108288018D01*
X142129681Y-108285555D01*
X142210358Y-108263560D01*
X142281341Y-108264940D01*
X142340310Y-108304477D01*
X142368542Y-108369619D01*
X142369500Y-108385123D01*
X142369500Y-108536739D01*
X142358740Y-108587687D01*
X142326544Y-108660513D01*
X142322494Y-108669673D01*
X142319500Y-108695354D01*
X142319500Y-108812323D01*
X142299498Y-108880444D01*
X142267564Y-108914257D01*
X142259731Y-108919948D01*
X142250896Y-108924450D01*
X142228329Y-108947017D01*
X141535595Y-109639750D01*
X141473283Y-109673776D01*
X141402468Y-109668711D01*
X141345632Y-109626164D01*
X141320821Y-109559644D01*
X141320500Y-109550655D01*
X141320500Y-108695354D01*
X141317382Y-108669154D01*
X141309378Y-108651133D01*
X141276663Y-108577482D01*
X141271939Y-108566847D01*
X141257230Y-108552163D01*
X141237482Y-108532450D01*
X141203403Y-108470168D01*
X141200500Y-108443277D01*
X141200500Y-108146724D01*
X141219946Y-108083116D01*
X141219200Y-108082754D01*
X141220311Y-108080461D01*
X141258730Y-108001163D01*
X141277795Y-107961814D01*
X141277795Y-107961813D01*
X141281710Y-107953733D01*
X141305496Y-107812354D01*
X141305532Y-107809398D01*
X141308372Y-107802184D01*
X141306660Y-107799446D01*
X141303254Y-107783291D01*
X141286596Y-107666968D01*
X141286595Y-107666965D01*
X141285323Y-107658082D01*
X141225984Y-107527572D01*
X141176763Y-107470448D01*
X141138260Y-107425763D01*
X141138257Y-107425760D01*
X141132400Y-107418963D01*
X141012095Y-107340985D01*
X140874739Y-107299907D01*
X140865763Y-107299852D01*
X140865762Y-107299852D01*
X140805555Y-107299484D01*
X140731376Y-107299031D01*
X140593529Y-107338428D01*
X140472280Y-107414930D01*
X140466338Y-107421658D01*
X140466337Y-107421659D01*
X140451527Y-107438428D01*
X140377377Y-107522388D01*
X140316447Y-107652163D01*
X140314151Y-107666912D01*
X140296031Y-107783291D01*
X140294391Y-107793823D01*
X140295555Y-107802725D01*
X140295555Y-107802728D01*
X140301306Y-107846707D01*
X140312980Y-107935979D01*
X140370720Y-108067203D01*
X140376495Y-108074073D01*
X140380471Y-108080461D01*
X140399500Y-108147043D01*
X140399500Y-109245933D01*
X140402564Y-109255364D01*
X140402565Y-109255368D01*
X140406297Y-109266853D01*
X140410913Y-109286078D01*
X140414354Y-109307804D01*
X140414749Y-109308579D01*
X140419500Y-109338579D01*
X140419500Y-109809646D01*
X140422618Y-109835846D01*
X140426456Y-109844486D01*
X140426456Y-109844487D01*
X140445559Y-109887493D01*
X140468061Y-109938153D01*
X140476294Y-109946372D01*
X140476295Y-109946373D01*
X140482921Y-109952987D01*
X140547287Y-110017241D01*
X140557924Y-110021944D01*
X140557926Y-110021945D01*
X140588196Y-110035327D01*
X140649673Y-110062506D01*
X140675354Y-110065500D01*
X140805655Y-110065500D01*
X140873776Y-110085502D01*
X140920269Y-110139158D01*
X140930373Y-110209432D01*
X140900879Y-110274012D01*
X140894750Y-110280595D01*
X140564516Y-110610829D01*
X140564513Y-110610833D01*
X140541950Y-110633396D01*
X140534818Y-110647394D01*
X140531965Y-110652993D01*
X140521639Y-110669845D01*
X140508704Y-110687648D01*
X140503534Y-110703561D01*
X140501907Y-110708568D01*
X140494341Y-110726832D01*
X140488856Y-110737597D01*
X140488855Y-110737601D01*
X140484354Y-110746434D01*
X140482803Y-110756225D01*
X140482803Y-110756226D01*
X140480913Y-110768160D01*
X140476297Y-110787385D01*
X140472565Y-110798870D01*
X140472564Y-110798874D01*
X140469500Y-110808305D01*
X140469500Y-110818223D01*
X140467949Y-110828016D01*
X140466123Y-110827727D01*
X140458740Y-110862687D01*
X140431661Y-110923939D01*
X140422494Y-110944673D01*
X140419500Y-110970354D01*
X140419500Y-112084646D01*
X140422618Y-112110846D01*
X140426456Y-112119486D01*
X140426456Y-112119487D01*
X140458651Y-112191968D01*
X140469500Y-112243116D01*
X140469500Y-112781250D01*
X140472564Y-112790681D01*
X140472565Y-112790685D01*
X140476297Y-112802170D01*
X140480913Y-112821395D01*
X140484354Y-112843121D01*
X140488855Y-112851954D01*
X140488856Y-112851958D01*
X140494341Y-112862723D01*
X140501905Y-112880983D01*
X140508704Y-112901907D01*
X140521639Y-112919710D01*
X140531965Y-112936562D01*
X140541950Y-112956159D01*
X140564503Y-112978712D01*
X140564516Y-112978726D01*
X141070195Y-113484404D01*
X141104220Y-113546717D01*
X141099156Y-113617532D01*
X141056609Y-113674368D01*
X140990089Y-113699179D01*
X140981100Y-113699500D01*
X140320180Y-113699500D01*
X140276278Y-113708233D01*
X140265960Y-113715127D01*
X140265958Y-113715128D01*
X140243701Y-113730000D01*
X140226496Y-113741496D01*
X140219601Y-113751815D01*
X140200128Y-113780958D01*
X140200127Y-113780960D01*
X140193233Y-113791278D01*
X140184500Y-113835180D01*
X140184500Y-115864820D01*
X140193233Y-115908722D01*
X140200127Y-115919040D01*
X140200128Y-115919042D01*
X140216801Y-115943994D01*
X140226496Y-115958504D01*
X140236815Y-115965399D01*
X140265958Y-115984872D01*
X140265960Y-115984873D01*
X140276278Y-115991767D01*
X140320180Y-116000500D01*
X142529820Y-116000500D01*
X142573722Y-115991767D01*
X142584040Y-115984873D01*
X142584042Y-115984872D01*
X142613185Y-115965399D01*
X142623504Y-115958504D01*
X142633199Y-115943994D01*
X142649872Y-115919042D01*
X142649873Y-115919040D01*
X142656767Y-115908722D01*
X142665500Y-115864820D01*
X142665500Y-115440846D01*
X142685502Y-115372725D01*
X142739158Y-115326232D01*
X142809432Y-115316128D01*
X142835729Y-115322864D01*
X142917391Y-115353478D01*
X142932650Y-115357106D01*
X142968999Y-115361054D01*
X143034562Y-115388295D01*
X143074989Y-115446658D01*
X143080315Y-115469869D01*
X143084313Y-115500236D01*
X143142302Y-115640233D01*
X143234549Y-115760451D01*
X143354767Y-115852698D01*
X143494764Y-115910687D01*
X143502952Y-115911765D01*
X143558227Y-115919042D01*
X143607280Y-115925500D01*
X143682720Y-115925500D01*
X143731774Y-115919042D01*
X143787048Y-115911765D01*
X143795236Y-115910687D01*
X143935233Y-115852698D01*
X144055451Y-115760451D01*
X144147698Y-115640233D01*
X144205687Y-115500236D01*
X144225466Y-115350000D01*
X144212768Y-115253552D01*
X144206765Y-115207952D01*
X144205687Y-115199764D01*
X144202527Y-115192136D01*
X144202526Y-115192131D01*
X144197384Y-115179717D01*
X144189795Y-115109127D01*
X144221575Y-115045640D01*
X144282634Y-115009413D01*
X144313793Y-115005500D01*
X144449820Y-115005500D01*
X144493722Y-114996767D01*
X144494599Y-114996181D01*
X144557370Y-114989432D01*
X144571517Y-114993586D01*
X144576278Y-114996767D01*
X144620180Y-115005500D01*
X144858500Y-115005500D01*
X144926621Y-115025502D01*
X144973114Y-115079158D01*
X144984500Y-115131500D01*
X144984500Y-115179109D01*
X144972555Y-115232658D01*
X144916447Y-115352163D01*
X144907210Y-115411490D01*
X144898121Y-115469869D01*
X144894391Y-115493823D01*
X144912980Y-115635979D01*
X144970720Y-115767203D01*
X144976497Y-115774076D01*
X144976498Y-115774077D01*
X145042586Y-115852698D01*
X145062970Y-115876948D01*
X145090822Y-115895488D01*
X145172418Y-115949803D01*
X145182313Y-115956390D01*
X145319157Y-115999142D01*
X145328129Y-115999306D01*
X145328132Y-115999307D01*
X145393228Y-116000500D01*
X145462499Y-116001770D01*
X145471533Y-115999307D01*
X145592158Y-115966421D01*
X145592160Y-115966420D01*
X145600817Y-115964060D01*
X145722991Y-115889045D01*
X145729012Y-115882393D01*
X145729018Y-115882388D01*
X145806847Y-115796403D01*
X145867390Y-115759322D01*
X145938370Y-115760859D01*
X145996713Y-115799883D01*
X146047924Y-115860806D01*
X146053704Y-115867682D01*
X146173047Y-115947124D01*
X146181622Y-115949803D01*
X146191570Y-115952911D01*
X146309891Y-115989876D01*
X146318863Y-115990040D01*
X146318866Y-115990041D01*
X146384197Y-115991238D01*
X146453233Y-115992504D01*
X146462267Y-115990041D01*
X146582892Y-115957155D01*
X146582894Y-115957154D01*
X146591551Y-115954794D01*
X146713725Y-115879779D01*
X146721774Y-115870887D01*
X146747970Y-115841946D01*
X146808513Y-115804864D01*
X146841386Y-115800500D01*
X147837634Y-115800500D01*
X147840307Y-115800696D01*
X147845342Y-115802425D01*
X147856964Y-115801989D01*
X147856966Y-115801989D01*
X147894255Y-115800589D01*
X147898981Y-115800500D01*
X147917948Y-115800500D01*
X147922683Y-115799618D01*
X147926209Y-115799390D01*
X147929949Y-115799249D01*
X147957208Y-115798226D01*
X147967893Y-115793636D01*
X147972493Y-115792599D01*
X147984214Y-115789038D01*
X147988617Y-115787339D01*
X148000053Y-115785209D01*
X148021041Y-115772272D01*
X148037411Y-115763769D01*
X148051888Y-115757549D01*
X148051892Y-115757547D01*
X148060063Y-115754036D01*
X148064949Y-115750022D01*
X148067134Y-115747837D01*
X148069397Y-115745785D01*
X148069542Y-115745945D01*
X148078549Y-115738825D01*
X148085444Y-115732573D01*
X148095348Y-115726468D01*
X148111906Y-115704693D01*
X148123107Y-115691864D01*
X148460460Y-115354512D01*
X148462486Y-115352763D01*
X148467269Y-115350425D01*
X148500585Y-115314510D01*
X148503841Y-115311131D01*
X148517248Y-115297724D01*
X148519978Y-115293745D01*
X148522286Y-115291116D01*
X148543401Y-115268354D01*
X148547712Y-115257547D01*
X148550238Y-115253552D01*
X148556001Y-115242758D01*
X148557912Y-115238446D01*
X148564492Y-115228854D01*
X148570183Y-115204873D01*
X148575748Y-115187276D01*
X148581588Y-115172638D01*
X148581589Y-115172635D01*
X148584883Y-115164378D01*
X148585500Y-115158085D01*
X148585500Y-115155006D01*
X148585650Y-115151933D01*
X148585866Y-115151944D01*
X148587198Y-115140569D01*
X148587653Y-115131256D01*
X148590340Y-115119934D01*
X148590194Y-115118864D01*
X148611247Y-115058284D01*
X148667110Y-115014467D01*
X148713792Y-115005500D01*
X148756207Y-115005500D01*
X148824328Y-115025502D01*
X148870821Y-115079158D01*
X148880925Y-115149432D01*
X148872616Y-115179717D01*
X148867474Y-115192131D01*
X148867473Y-115192136D01*
X148864313Y-115199764D01*
X148863235Y-115207952D01*
X148857232Y-115253552D01*
X148844534Y-115350000D01*
X148864313Y-115500236D01*
X148922302Y-115640233D01*
X149014549Y-115760451D01*
X149134767Y-115852698D01*
X149274764Y-115910687D01*
X149282952Y-115911765D01*
X149338227Y-115919042D01*
X149387280Y-115925500D01*
X149462720Y-115925500D01*
X149511774Y-115919042D01*
X149567048Y-115911765D01*
X149575236Y-115910687D01*
X149715233Y-115852698D01*
X149835451Y-115760451D01*
X149927698Y-115640233D01*
X149985687Y-115500236D01*
X149989685Y-115469869D01*
X150018408Y-115404942D01*
X150077673Y-115365851D01*
X150101002Y-115361053D01*
X150137352Y-115357105D01*
X150152607Y-115353478D01*
X150234271Y-115322864D01*
X150305078Y-115317681D01*
X150367447Y-115351602D01*
X150401576Y-115413858D01*
X150404500Y-115440846D01*
X150404500Y-115864820D01*
X150413233Y-115908722D01*
X150420127Y-115919040D01*
X150420128Y-115919042D01*
X150436801Y-115943994D01*
X150446496Y-115958504D01*
X150456815Y-115965399D01*
X150485958Y-115984872D01*
X150485960Y-115984873D01*
X150496278Y-115991767D01*
X150540180Y-116000500D01*
X152749820Y-116000500D01*
X152793722Y-115991767D01*
X152804040Y-115984873D01*
X152804042Y-115984872D01*
X152833185Y-115965399D01*
X152843504Y-115958504D01*
X152853199Y-115943994D01*
X152869872Y-115919042D01*
X152869873Y-115919040D01*
X152876767Y-115908722D01*
X152885500Y-115864820D01*
X152885500Y-113835180D01*
X152883191Y-113823573D01*
X152889516Y-113752859D01*
X152933069Y-113696790D01*
X153006769Y-113672987D01*
X153007829Y-113672987D01*
X153020000Y-113675408D01*
X153032171Y-113672987D01*
X153032172Y-113672987D01*
X153032504Y-113672921D01*
X153057085Y-113670500D01*
X153501709Y-113670500D01*
X153569830Y-113690502D01*
X153616323Y-113744158D01*
X153625288Y-113821082D01*
X153619500Y-113850180D01*
X153619500Y-114229820D01*
X153628233Y-114273722D01*
X153635128Y-114284042D01*
X153639876Y-114295503D01*
X153637580Y-114296454D01*
X153653642Y-114347753D01*
X153637294Y-114403428D01*
X153639876Y-114404497D01*
X153635128Y-114415958D01*
X153628233Y-114426278D01*
X153619500Y-114470180D01*
X153619500Y-114476367D01*
X153618893Y-114482530D01*
X153617063Y-114482350D01*
X153599498Y-114542171D01*
X153582595Y-114563145D01*
X153369098Y-114776642D01*
X153350005Y-114792312D01*
X153349716Y-114792505D01*
X153349714Y-114792507D01*
X153339399Y-114799399D01*
X153332507Y-114809714D01*
X153332505Y-114809716D01*
X153312988Y-114838926D01*
X153312987Y-114838928D01*
X153290927Y-114871942D01*
X153290926Y-114871945D01*
X153284034Y-114882259D01*
X153264592Y-114980000D01*
X153267013Y-114992171D01*
X153267013Y-114992172D01*
X153267079Y-114992504D01*
X153269500Y-115017085D01*
X153269500Y-115943994D01*
X153247464Y-116015180D01*
X153246778Y-116016181D01*
X153238561Y-116024413D01*
X153192544Y-116128502D01*
X153189500Y-116154610D01*
X153189500Y-116670390D01*
X153188538Y-116670390D01*
X153173537Y-116735491D01*
X153128971Y-116781527D01*
X153089402Y-116805491D01*
X153077527Y-116814803D01*
X152974803Y-116917527D01*
X152965496Y-116929396D01*
X152890235Y-117053666D01*
X152884029Y-117067411D01*
X152840315Y-117206904D01*
X152837702Y-117219954D01*
X152832463Y-117276962D01*
X152836475Y-117290624D01*
X152837865Y-117291829D01*
X152845548Y-117293500D01*
X155431095Y-117293500D01*
X155499216Y-117313502D01*
X155513607Y-117324275D01*
X155533865Y-117341829D01*
X155541548Y-117343500D01*
X155848000Y-117343500D01*
X155916121Y-117363502D01*
X155962614Y-117417158D01*
X155974000Y-117469500D01*
X155974000Y-118441153D01*
X155978271Y-118455698D01*
X155990404Y-118457761D01*
X155995973Y-118457249D01*
X156009006Y-118454639D01*
X156149661Y-118410561D01*
X156163406Y-118404355D01*
X156288711Y-118328467D01*
X156300580Y-118319160D01*
X156404160Y-118215580D01*
X156413467Y-118203711D01*
X156489355Y-118078406D01*
X156495561Y-118064661D01*
X156539637Y-117924011D01*
X156543562Y-117904414D01*
X156544822Y-117904666D01*
X156568372Y-117845214D01*
X156626054Y-117803822D01*
X156696958Y-117800185D01*
X156758571Y-117835460D01*
X156791333Y-117898445D01*
X156792634Y-117906401D01*
X156795848Y-117930979D01*
X156853588Y-118062203D01*
X156945838Y-118171948D01*
X157065181Y-118251390D01*
X157202025Y-118294142D01*
X157210997Y-118294306D01*
X157211000Y-118294307D01*
X157276331Y-118295504D01*
X157345367Y-118296770D01*
X157354401Y-118294307D01*
X157475026Y-118261421D01*
X157475028Y-118261420D01*
X157483685Y-118259060D01*
X157605859Y-118184045D01*
X157611885Y-118177388D01*
X157648491Y-118136946D01*
X157709034Y-118099864D01*
X157741907Y-118095500D01*
X158265135Y-118095500D01*
X158333256Y-118115502D01*
X158379044Y-118168344D01*
X158379354Y-118170304D01*
X158436950Y-118283342D01*
X158526658Y-118373050D01*
X158535491Y-118377550D01*
X158535490Y-118377550D01*
X158584914Y-118402733D01*
X158636529Y-118451481D01*
X158653595Y-118520396D01*
X158630694Y-118587598D01*
X158584914Y-118627267D01*
X158526658Y-118656950D01*
X158436950Y-118746658D01*
X158379354Y-118859696D01*
X158377803Y-118869487D01*
X158377803Y-118869488D01*
X158374046Y-118893210D01*
X158343634Y-118957363D01*
X158283366Y-118994890D01*
X158249597Y-118999500D01*
X157959549Y-118999500D01*
X157891428Y-118979498D01*
X157864096Y-118955748D01*
X157838259Y-118925763D01*
X157832400Y-118918963D01*
X157712095Y-118840985D01*
X157574739Y-118799907D01*
X157565763Y-118799852D01*
X157565762Y-118799852D01*
X157505555Y-118799484D01*
X157431376Y-118799031D01*
X157293529Y-118838428D01*
X157172280Y-118914930D01*
X157077377Y-119022388D01*
X157016447Y-119152163D01*
X156994391Y-119293823D01*
X157012980Y-119435979D01*
X157070720Y-119567203D01*
X157076499Y-119574078D01*
X157133950Y-119642425D01*
X157162471Y-119707441D01*
X157151315Y-119777555D01*
X157104022Y-119830508D01*
X157037499Y-119849500D01*
X153011500Y-119849500D01*
X152943379Y-119829498D01*
X152896886Y-119775842D01*
X152885500Y-119723500D01*
X152885500Y-118388541D01*
X152905502Y-118320420D01*
X152959158Y-118273927D01*
X153029432Y-118263823D01*
X153082369Y-118286447D01*
X153082900Y-118285570D01*
X153089096Y-118289323D01*
X153089247Y-118289387D01*
X153089398Y-118289505D01*
X153213666Y-118364765D01*
X153227411Y-118370971D01*
X153366912Y-118414687D01*
X153378503Y-118417009D01*
X153392835Y-118414194D01*
X153396000Y-118402298D01*
X153396000Y-118400658D01*
X153904000Y-118400658D01*
X153908271Y-118415203D01*
X153920302Y-118417248D01*
X153933088Y-118414687D01*
X154072589Y-118370971D01*
X154086335Y-118364764D01*
X154094727Y-118359682D01*
X154163356Y-118341502D01*
X154225273Y-118359682D01*
X154233665Y-118364764D01*
X154247411Y-118370971D01*
X154386912Y-118414687D01*
X154398503Y-118417009D01*
X154412835Y-118414194D01*
X154416000Y-118402298D01*
X154416000Y-118400658D01*
X154924000Y-118400658D01*
X154928271Y-118415203D01*
X154940302Y-118417248D01*
X154953088Y-118414687D01*
X155092585Y-118370972D01*
X155106004Y-118364913D01*
X155176321Y-118355110D01*
X155223127Y-118371974D01*
X155276594Y-118404355D01*
X155290339Y-118410561D01*
X155430994Y-118454639D01*
X155444027Y-118457249D01*
X155447961Y-118457611D01*
X155462835Y-118454688D01*
X155466000Y-118442793D01*
X155466000Y-117869615D01*
X155461525Y-117854376D01*
X155460135Y-117853171D01*
X155452452Y-117851500D01*
X154942115Y-117851500D01*
X154926876Y-117855975D01*
X154925671Y-117857365D01*
X154924000Y-117865048D01*
X154924000Y-118400658D01*
X154416000Y-118400658D01*
X154416000Y-117819615D01*
X154411525Y-117804376D01*
X154410135Y-117803171D01*
X154402452Y-117801500D01*
X153922115Y-117801500D01*
X153906876Y-117805975D01*
X153905671Y-117807365D01*
X153904000Y-117815048D01*
X153904000Y-118400658D01*
X153396000Y-118400658D01*
X153396000Y-117819615D01*
X153391525Y-117804376D01*
X153390135Y-117803171D01*
X153382452Y-117801500D01*
X153002097Y-117801500D01*
X152933976Y-117781498D01*
X152887483Y-117727842D01*
X152881083Y-117708023D01*
X152879188Y-117703448D01*
X152876767Y-117691278D01*
X152869873Y-117680960D01*
X152869872Y-117680958D01*
X152850399Y-117651815D01*
X152843504Y-117641496D01*
X152833185Y-117634601D01*
X152804042Y-117615128D01*
X152804040Y-117615127D01*
X152793722Y-117608233D01*
X152749820Y-117599500D01*
X150540180Y-117599500D01*
X150496278Y-117608233D01*
X150485960Y-117615127D01*
X150485958Y-117615128D01*
X150456815Y-117634601D01*
X150446496Y-117641496D01*
X150439601Y-117651815D01*
X150420128Y-117680958D01*
X150420127Y-117680960D01*
X150413233Y-117691278D01*
X150404500Y-117735180D01*
X150404500Y-119723500D01*
X150384498Y-119791621D01*
X150330842Y-119838114D01*
X150278500Y-119849500D01*
X142791500Y-119849500D01*
X142723379Y-119829498D01*
X142676886Y-119775842D01*
X142665500Y-119723500D01*
X142665500Y-117735180D01*
X142656767Y-117691278D01*
X142649873Y-117680960D01*
X142649872Y-117680958D01*
X142630399Y-117651815D01*
X142623504Y-117641496D01*
X142613185Y-117634601D01*
X142584042Y-117615128D01*
X142584040Y-117615127D01*
X142573722Y-117608233D01*
X142529820Y-117599500D01*
X140320180Y-117599500D01*
X140276278Y-117608233D01*
X140265960Y-117615127D01*
X140265958Y-117615128D01*
X140236815Y-117634601D01*
X140226496Y-117641496D01*
X140219601Y-117651815D01*
X140200128Y-117680958D01*
X140200127Y-117680960D01*
X140193233Y-117691278D01*
X140184500Y-117735180D01*
X140184500Y-119723500D01*
X140164498Y-119791621D01*
X140110842Y-119838114D01*
X140058500Y-119849500D01*
X139776500Y-119849500D01*
X139708379Y-119829498D01*
X139661886Y-119775842D01*
X139650500Y-119723500D01*
X139650500Y-102776500D01*
X139670502Y-102708379D01*
X139724158Y-102661886D01*
X139776500Y-102650500D01*
X140135340Y-102650500D01*
X140203461Y-102670502D01*
G37*
%TD.AperFunction*%
%TA.AperFunction,Conductor*%
G36*
X143429012Y-111168864D02*
G01*
X143445289Y-111188118D01*
X143445964Y-111187563D01*
X143449978Y-111192449D01*
X143452158Y-111194629D01*
X143454215Y-111196897D01*
X143454055Y-111197042D01*
X143461175Y-111206049D01*
X143467427Y-111212944D01*
X143473532Y-111222848D01*
X143495320Y-111239416D01*
X143508139Y-111250610D01*
X143922595Y-111665066D01*
X143956621Y-111727378D01*
X143959500Y-111754161D01*
X143959500Y-112284646D01*
X143962618Y-112310846D01*
X144008061Y-112413153D01*
X144087287Y-112492241D01*
X144097924Y-112496944D01*
X144097926Y-112496945D01*
X144124441Y-112508667D01*
X144189673Y-112537506D01*
X144215354Y-112540500D01*
X144551389Y-112540500D01*
X144619510Y-112560502D01*
X144659843Y-112602362D01*
X144681909Y-112639675D01*
X144691551Y-112652104D01*
X144728852Y-112689405D01*
X144762878Y-112751717D01*
X144757813Y-112822532D01*
X144715266Y-112879368D01*
X144648746Y-112904179D01*
X144639757Y-112904500D01*
X142238193Y-112904500D01*
X142170072Y-112884498D01*
X142123579Y-112830842D01*
X142113475Y-112760568D01*
X142142969Y-112695988D01*
X142203039Y-112657503D01*
X142225790Y-112650893D01*
X142240221Y-112644648D01*
X142369678Y-112568089D01*
X142382104Y-112558449D01*
X142488449Y-112452104D01*
X142498091Y-112439675D01*
X142520157Y-112402362D01*
X142572049Y-112353909D01*
X142628611Y-112340500D01*
X142964646Y-112340500D01*
X142968350Y-112340059D01*
X142968353Y-112340059D01*
X142975746Y-112339179D01*
X142990846Y-112337382D01*
X143031134Y-112319487D01*
X143082518Y-112296663D01*
X143093153Y-112291939D01*
X143121010Y-112264034D01*
X143135518Y-112249500D01*
X143172241Y-112212713D01*
X143181413Y-112191968D01*
X143213675Y-112118992D01*
X143217506Y-112110327D01*
X143220500Y-112084646D01*
X143220500Y-111264088D01*
X143240502Y-111195967D01*
X143294158Y-111149474D01*
X143364432Y-111139370D01*
X143429012Y-111168864D01*
G37*
%TD.AperFunction*%
%TA.AperFunction,Conductor*%
G36*
X156450038Y-104220502D02*
G01*
X156471012Y-104237405D01*
X157294091Y-105060484D01*
X157294095Y-105060487D01*
X157316658Y-105083050D01*
X157325498Y-105087554D01*
X157336255Y-105093035D01*
X157353107Y-105103361D01*
X157370910Y-105116296D01*
X157370439Y-105116944D01*
X157416007Y-105159981D01*
X157433073Y-105228896D01*
X157410172Y-105296098D01*
X157354575Y-105340250D01*
X157307189Y-105349500D01*
X157036402Y-105349500D01*
X157028685Y-105348484D01*
X157016022Y-105348484D01*
X157000000Y-105344191D01*
X156983978Y-105348484D01*
X156980186Y-105349500D01*
X156938120Y-105360771D01*
X156938119Y-105360772D01*
X156922096Y-105365065D01*
X156865065Y-105422095D01*
X156844191Y-105500000D01*
X156848484Y-105516022D01*
X156848484Y-105528685D01*
X156849500Y-105536402D01*
X156849500Y-111715200D01*
X156829498Y-111783321D01*
X156775842Y-111829814D01*
X156705568Y-111839918D01*
X156647442Y-111813372D01*
X156646468Y-111814653D01*
X156646468Y-111814652D01*
X156624680Y-111798084D01*
X156611861Y-111786890D01*
X156268336Y-111443365D01*
X156234310Y-111381053D01*
X156239449Y-111310040D01*
X156268478Y-111232605D01*
X156272105Y-111217351D01*
X156277631Y-111166486D01*
X156278000Y-111159672D01*
X156278000Y-111133115D01*
X156273525Y-111117876D01*
X156272135Y-111116671D01*
X156264452Y-111115000D01*
X153280116Y-111115000D01*
X153235730Y-111128033D01*
X153225031Y-111134908D01*
X153154034Y-111134904D01*
X153094310Y-111096517D01*
X153074839Y-111066161D01*
X153068620Y-111052482D01*
X153031352Y-110970515D01*
X152937768Y-110861906D01*
X152931703Y-110857975D01*
X152893991Y-110798865D01*
X152894226Y-110727869D01*
X152910546Y-110693308D01*
X152913175Y-110689410D01*
X152919200Y-110682754D01*
X152981710Y-110553733D01*
X153005496Y-110412354D01*
X153005647Y-110400000D01*
X152992688Y-110309509D01*
X152986596Y-110266968D01*
X152986595Y-110266965D01*
X152985323Y-110258082D01*
X152978368Y-110242784D01*
X152959055Y-110200308D01*
X152925984Y-110127572D01*
X152889734Y-110085502D01*
X152838261Y-110025764D01*
X152838258Y-110025761D01*
X152832400Y-110018963D01*
X152828462Y-110016410D01*
X152791436Y-109958377D01*
X152791671Y-109887380D01*
X152807989Y-109852821D01*
X152812675Y-109845873D01*
X152818700Y-109839217D01*
X152881210Y-109710196D01*
X152882699Y-109701348D01*
X152883782Y-109697954D01*
X152923550Y-109639140D01*
X152988802Y-109611164D01*
X153058821Y-109622906D01*
X153092911Y-109647171D01*
X153296642Y-109850902D01*
X153312312Y-109869995D01*
X153312505Y-109870284D01*
X153312507Y-109870286D01*
X153319399Y-109880601D01*
X153372464Y-109916057D01*
X153402259Y-109935966D01*
X153500000Y-109955408D01*
X153505639Y-109954286D01*
X153569335Y-109972989D01*
X153615828Y-110026645D01*
X153624793Y-110103567D01*
X153620707Y-110124108D01*
X153620707Y-110124113D01*
X153619500Y-110130180D01*
X153619500Y-110191526D01*
X153599498Y-110259647D01*
X153545842Y-110306140D01*
X153537727Y-110309509D01*
X153531945Y-110311676D01*
X153516351Y-110320214D01*
X153414276Y-110396715D01*
X153401715Y-110409276D01*
X153325214Y-110511351D01*
X153316676Y-110526946D01*
X153271522Y-110647394D01*
X153267895Y-110662649D01*
X153262369Y-110713514D01*
X153262000Y-110720328D01*
X153262000Y-110746885D01*
X153266475Y-110762124D01*
X153267865Y-110763329D01*
X153275548Y-110765000D01*
X156259884Y-110765000D01*
X156275123Y-110760525D01*
X156276328Y-110759135D01*
X156277999Y-110751452D01*
X156277999Y-110720331D01*
X156277629Y-110713510D01*
X156272105Y-110662648D01*
X156268479Y-110647396D01*
X156223324Y-110526946D01*
X156214786Y-110511351D01*
X156138285Y-110409276D01*
X156125724Y-110396715D01*
X156023649Y-110320214D01*
X156008055Y-110311676D01*
X156002273Y-110309509D01*
X155945508Y-110266869D01*
X155920806Y-110200308D01*
X155920500Y-110191526D01*
X155920500Y-110130180D01*
X155911767Y-110086278D01*
X155904872Y-110075958D01*
X155900124Y-110064497D01*
X155902420Y-110063546D01*
X155886358Y-110012247D01*
X155902706Y-109956572D01*
X155900124Y-109955503D01*
X155904872Y-109944042D01*
X155911767Y-109933722D01*
X155920500Y-109889820D01*
X155920500Y-109510180D01*
X155911767Y-109466278D01*
X155904872Y-109455958D01*
X155900124Y-109444497D01*
X155902420Y-109443546D01*
X155886358Y-109392247D01*
X155902706Y-109336572D01*
X155900124Y-109335503D01*
X155904872Y-109324042D01*
X155911767Y-109313722D01*
X155920500Y-109269820D01*
X155920500Y-108890180D01*
X155911767Y-108846278D01*
X155904872Y-108835958D01*
X155900124Y-108824497D01*
X155902420Y-108823546D01*
X155886358Y-108772247D01*
X155902706Y-108716572D01*
X155900124Y-108715503D01*
X155904872Y-108704042D01*
X155911767Y-108693722D01*
X155920500Y-108649820D01*
X155920500Y-108270180D01*
X155916547Y-108250308D01*
X155914188Y-108238447D01*
X155914187Y-108238445D01*
X155911767Y-108226278D01*
X155904874Y-108215961D01*
X155902901Y-108211199D01*
X155895311Y-108140609D01*
X155927090Y-108077122D01*
X155949307Y-108058215D01*
X155955934Y-108053787D01*
X155955935Y-108053786D01*
X155995286Y-108027493D01*
X156005601Y-108020601D01*
X156012493Y-108010286D01*
X156012495Y-108010284D01*
X156012686Y-108009998D01*
X156028356Y-107990904D01*
X156250908Y-107768353D01*
X156270001Y-107752684D01*
X156270284Y-107752495D01*
X156270286Y-107752493D01*
X156280601Y-107745601D01*
X156315387Y-107693540D01*
X156335966Y-107662740D01*
X156355409Y-107565000D01*
X156352921Y-107552492D01*
X156350500Y-107527910D01*
X156350500Y-106437085D01*
X156352921Y-106412504D01*
X156352987Y-106412172D01*
X156352987Y-106412171D01*
X156355408Y-106400000D01*
X156335966Y-106302259D01*
X156303780Y-106254090D01*
X156303781Y-106254090D01*
X156303778Y-106254087D01*
X156287497Y-106229719D01*
X156287495Y-106229717D01*
X156280601Y-106219399D01*
X156270283Y-106212505D01*
X156270281Y-106212503D01*
X156269995Y-106212312D01*
X156250902Y-106196642D01*
X155197405Y-105143145D01*
X155163379Y-105080833D01*
X155160500Y-105054050D01*
X155160500Y-104724610D01*
X155159086Y-104712721D01*
X155158448Y-104707361D01*
X155158448Y-104707359D01*
X155157331Y-104697975D01*
X155111132Y-104593965D01*
X155079994Y-104562881D01*
X155053044Y-104535979D01*
X155030587Y-104513561D01*
X155001044Y-104500500D01*
X154975232Y-104489089D01*
X154926498Y-104467544D01*
X154909662Y-104465581D01*
X154904029Y-104464924D01*
X154904024Y-104464924D01*
X154900390Y-104464500D01*
X154499610Y-104464500D01*
X154495923Y-104464939D01*
X154495918Y-104464939D01*
X154482361Y-104466552D01*
X154482359Y-104466552D01*
X154472975Y-104467669D01*
X154464336Y-104471506D01*
X154464337Y-104471506D01*
X154379593Y-104509147D01*
X154379592Y-104509148D01*
X154368965Y-104513868D01*
X154360748Y-104522099D01*
X154360747Y-104522100D01*
X154346239Y-104536634D01*
X154288561Y-104594413D01*
X154283857Y-104605052D01*
X154283857Y-104605053D01*
X154246375Y-104689837D01*
X154242544Y-104698502D01*
X154241488Y-104707560D01*
X154204373Y-104767861D01*
X154140378Y-104798605D01*
X154069921Y-104789870D01*
X154015371Y-104744430D01*
X153998529Y-104707653D01*
X153998447Y-104707355D01*
X153997331Y-104697975D01*
X153951132Y-104593965D01*
X153919994Y-104562881D01*
X153893044Y-104535979D01*
X153870587Y-104513561D01*
X153841044Y-104500500D01*
X153815232Y-104489089D01*
X153766498Y-104467544D01*
X153749662Y-104465581D01*
X153744029Y-104464924D01*
X153744024Y-104464924D01*
X153740390Y-104464500D01*
X153339610Y-104464500D01*
X153335923Y-104464939D01*
X153335918Y-104464939D01*
X153322361Y-104466552D01*
X153322359Y-104466552D01*
X153312975Y-104467669D01*
X153304336Y-104471506D01*
X153304337Y-104471506D01*
X153219593Y-104509147D01*
X153219592Y-104509148D01*
X153208965Y-104513868D01*
X153200748Y-104522099D01*
X153200747Y-104522100D01*
X153186239Y-104536634D01*
X153128561Y-104594413D01*
X153082544Y-104698502D01*
X153079500Y-104724610D01*
X153079500Y-105231292D01*
X153059498Y-105299413D01*
X153042596Y-105320387D01*
X152829096Y-105533888D01*
X152810002Y-105549558D01*
X152809716Y-105549749D01*
X152809714Y-105549751D01*
X152799399Y-105556643D01*
X152792507Y-105566958D01*
X152792505Y-105566960D01*
X152768647Y-105602667D01*
X152768646Y-105602669D01*
X152744034Y-105639503D01*
X152724592Y-105737244D01*
X152727013Y-105749415D01*
X152727013Y-105749416D01*
X152727079Y-105749748D01*
X152729500Y-105774329D01*
X152729500Y-105776537D01*
X152709498Y-105844658D01*
X152655842Y-105891151D01*
X152585568Y-105901255D01*
X152520988Y-105871761D01*
X152498734Y-105846537D01*
X152487495Y-105829716D01*
X152487493Y-105829714D01*
X152480601Y-105819399D01*
X152470286Y-105812507D01*
X152470284Y-105812505D01*
X152469995Y-105812312D01*
X152450902Y-105796642D01*
X152363358Y-105709098D01*
X152347688Y-105690005D01*
X152347495Y-105689716D01*
X152347493Y-105689714D01*
X152340601Y-105679399D01*
X152280893Y-105639504D01*
X152257741Y-105624034D01*
X152160000Y-105604592D01*
X152147829Y-105607013D01*
X152147828Y-105607013D01*
X152147496Y-105607079D01*
X152122915Y-105609500D01*
X151303808Y-105609500D01*
X151235687Y-105589498D01*
X151199760Y-105547596D01*
X151197446Y-105549186D01*
X151190853Y-105539593D01*
X151186132Y-105528965D01*
X151105587Y-105448561D01*
X151001498Y-105402544D01*
X150984662Y-105400581D01*
X150979029Y-105399924D01*
X150979024Y-105399924D01*
X150975390Y-105399500D01*
X150459610Y-105399500D01*
X150459610Y-105398538D01*
X150394509Y-105383537D01*
X150348473Y-105338971D01*
X150324509Y-105299402D01*
X150315197Y-105287527D01*
X150212473Y-105184803D01*
X150200604Y-105175496D01*
X150076334Y-105100235D01*
X150062589Y-105094029D01*
X149923096Y-105050315D01*
X149910046Y-105047702D01*
X149853038Y-105042463D01*
X149839376Y-105046475D01*
X149838171Y-105047865D01*
X149836500Y-105055548D01*
X149836500Y-105988000D01*
X149816498Y-106056121D01*
X149762842Y-106102614D01*
X149710500Y-106114000D01*
X149454500Y-106114000D01*
X149386379Y-106093998D01*
X149339886Y-106040342D01*
X149328500Y-105988000D01*
X149328500Y-105060115D01*
X149324025Y-105044876D01*
X149322635Y-105043671D01*
X149315814Y-105042187D01*
X149314112Y-105042266D01*
X149254954Y-105047702D01*
X149241904Y-105050315D01*
X149102411Y-105094029D01*
X149088666Y-105100235D01*
X149051772Y-105122579D01*
X148983142Y-105140758D01*
X148915578Y-105118948D01*
X148870532Y-105064072D01*
X148860500Y-105014803D01*
X148860500Y-105005180D01*
X148851767Y-104961278D01*
X148844873Y-104950960D01*
X148844872Y-104950958D01*
X148825399Y-104921815D01*
X148818504Y-104911496D01*
X148796007Y-104896464D01*
X148779042Y-104885128D01*
X148779040Y-104885127D01*
X148768722Y-104878233D01*
X148724820Y-104869500D01*
X147695180Y-104869500D01*
X147651278Y-104878233D01*
X147640960Y-104885127D01*
X147640958Y-104885128D01*
X147623993Y-104896464D01*
X147601496Y-104911496D01*
X147594601Y-104921815D01*
X147575128Y-104950958D01*
X147575127Y-104950960D01*
X147568233Y-104961278D01*
X147559500Y-105005180D01*
X147559500Y-105277687D01*
X147539498Y-105345808D01*
X147485842Y-105392301D01*
X147415568Y-105402405D01*
X147350988Y-105372911D01*
X147312604Y-105313185D01*
X147309921Y-105302269D01*
X147304188Y-105273449D01*
X147301767Y-105261278D01*
X147294873Y-105250960D01*
X147294872Y-105250958D01*
X147275399Y-105221815D01*
X147268504Y-105211496D01*
X147253261Y-105201311D01*
X147229042Y-105185128D01*
X147229040Y-105185127D01*
X147218722Y-105178233D01*
X147174820Y-105169500D01*
X146450036Y-105169500D01*
X146394816Y-105153286D01*
X146394679Y-105155317D01*
X146365531Y-105200885D01*
X146361815Y-105204601D01*
X146351496Y-105211496D01*
X146344601Y-105221815D01*
X146325128Y-105250958D01*
X146325127Y-105250960D01*
X146318233Y-105261278D01*
X146309500Y-105305180D01*
X146309500Y-105380338D01*
X146289498Y-105448459D01*
X146235842Y-105494952D01*
X146165568Y-105505056D01*
X146100988Y-105475562D01*
X146094405Y-105469433D01*
X145840575Y-105215603D01*
X145806549Y-105153291D01*
X145811614Y-105082476D01*
X145854161Y-105025640D01*
X145920681Y-105000829D01*
X145946116Y-105001586D01*
X146013826Y-105010500D01*
X146102516Y-105010500D01*
X146228320Y-104995276D01*
X146235424Y-104992592D01*
X146242805Y-104990779D01*
X146243364Y-104993055D01*
X146302692Y-104988556D01*
X146334396Y-105005692D01*
X146354812Y-104960988D01*
X146387031Y-104935502D01*
X146386923Y-104935345D01*
X146389253Y-104933744D01*
X146389257Y-104933741D01*
X146439358Y-104899307D01*
X146520392Y-104843614D01*
X146520393Y-104843613D01*
X146526651Y-104839312D01*
X146562920Y-104798605D01*
X146634388Y-104718392D01*
X146634390Y-104718388D01*
X146639440Y-104712721D01*
X146651557Y-104689837D01*
X146715224Y-104569589D01*
X146718776Y-104562881D01*
X146760081Y-104398441D01*
X146762847Y-104399136D01*
X146785933Y-104346232D01*
X146845002Y-104306844D01*
X146915988Y-104305643D01*
X146971635Y-104338027D01*
X147061658Y-104428050D01*
X147070492Y-104432551D01*
X147070493Y-104432552D01*
X147081259Y-104438038D01*
X147098116Y-104448368D01*
X147115910Y-104461296D01*
X147136830Y-104468093D01*
X147155093Y-104475658D01*
X147165861Y-104481145D01*
X147165865Y-104481146D01*
X147174696Y-104485646D01*
X147184485Y-104487197D01*
X147184493Y-104487199D01*
X147196427Y-104489089D01*
X147215647Y-104493703D01*
X147227133Y-104497435D01*
X147227140Y-104497436D01*
X147236567Y-104500499D01*
X147268477Y-104500499D01*
X147268481Y-104500500D01*
X149563433Y-104500500D01*
X149572864Y-104497436D01*
X149572868Y-104497435D01*
X149584353Y-104493703D01*
X149603578Y-104489087D01*
X149615512Y-104487197D01*
X149615513Y-104487197D01*
X149625304Y-104485646D01*
X149634137Y-104481145D01*
X149634141Y-104481144D01*
X149644906Y-104475659D01*
X149663166Y-104468095D01*
X149684090Y-104461296D01*
X149701893Y-104448361D01*
X149718745Y-104438035D01*
X149729502Y-104432554D01*
X149738342Y-104428050D01*
X149760905Y-104405487D01*
X149760909Y-104405484D01*
X149928988Y-104237405D01*
X149991300Y-104203379D01*
X150018083Y-104200500D01*
X156381917Y-104200500D01*
X156450038Y-104220502D01*
G37*
%TD.AperFunction*%
%TA.AperFunction,Conductor*%
G36*
X151991621Y-106130502D02*
G01*
X152038114Y-106184158D01*
X152049500Y-106236500D01*
X152049500Y-108282976D01*
X152029498Y-108351097D01*
X151975842Y-108397590D01*
X151905568Y-108407694D01*
X151887403Y-108403694D01*
X151874739Y-108399907D01*
X151865763Y-108399852D01*
X151865762Y-108399852D01*
X151803057Y-108399469D01*
X151731376Y-108399031D01*
X151722741Y-108401499D01*
X151720061Y-108401866D01*
X151649856Y-108391296D01*
X151596510Y-108344448D01*
X151576961Y-108276195D01*
X151582724Y-108239354D01*
X151584687Y-108233091D01*
X151587009Y-108221497D01*
X151584194Y-108207165D01*
X151572298Y-108204000D01*
X150989615Y-108204000D01*
X150974376Y-108208475D01*
X150973171Y-108209865D01*
X150971500Y-108217548D01*
X150971500Y-108749885D01*
X150975975Y-108765124D01*
X150977365Y-108766329D01*
X150984186Y-108767813D01*
X150985888Y-108767734D01*
X151045046Y-108762298D01*
X151058096Y-108759685D01*
X151135117Y-108735548D01*
X151206102Y-108734264D01*
X151266513Y-108771561D01*
X151297169Y-108835598D01*
X151297296Y-108875165D01*
X151294391Y-108893823D01*
X151295555Y-108902725D01*
X151295555Y-108902728D01*
X151301347Y-108947017D01*
X151312980Y-109035979D01*
X151370720Y-109167203D01*
X151376497Y-109174076D01*
X151376498Y-109174077D01*
X151454484Y-109266853D01*
X151462970Y-109276948D01*
X151470447Y-109281925D01*
X151493319Y-109297150D01*
X151538942Y-109351547D01*
X151549500Y-109402037D01*
X151549500Y-109466790D01*
X151529498Y-109534911D01*
X151512595Y-109555885D01*
X151427634Y-109640846D01*
X151365322Y-109674872D01*
X151294507Y-109669807D01*
X151256829Y-109645592D01*
X151255248Y-109643226D01*
X151224836Y-109622906D01*
X151210617Y-109613405D01*
X151210614Y-109613404D01*
X151205465Y-109609963D01*
X151167196Y-109594112D01*
X151161126Y-109592905D01*
X151161124Y-109592904D01*
X151120649Y-109584853D01*
X151108478Y-109582432D01*
X151096306Y-109584853D01*
X151092606Y-109584853D01*
X151075356Y-109586552D01*
X150703912Y-109586552D01*
X150635791Y-109566550D01*
X150603085Y-109536117D01*
X150526757Y-109434272D01*
X150514204Y-109421719D01*
X150412359Y-109345391D01*
X150369844Y-109288531D01*
X150361924Y-109244564D01*
X150361924Y-108886829D01*
X150381926Y-108818708D01*
X150435582Y-108772215D01*
X150452425Y-108765933D01*
X150460624Y-108763526D01*
X150461829Y-108762135D01*
X150463500Y-108754452D01*
X150463500Y-107826115D01*
X150458604Y-107809441D01*
X150453500Y-107773943D01*
X150453500Y-107677885D01*
X150971500Y-107677885D01*
X150975975Y-107693124D01*
X150977365Y-107694329D01*
X150985048Y-107696000D01*
X151570658Y-107696000D01*
X151585203Y-107691729D01*
X151587248Y-107679698D01*
X151584687Y-107666912D01*
X151540971Y-107527411D01*
X151534762Y-107513660D01*
X151530441Y-107506525D01*
X151512261Y-107437896D01*
X151523379Y-107389403D01*
X151530971Y-107372589D01*
X151574687Y-107233088D01*
X151577009Y-107221497D01*
X151574194Y-107207165D01*
X151562298Y-107204000D01*
X150989615Y-107204000D01*
X150974376Y-107208475D01*
X150973171Y-107209865D01*
X150971500Y-107217548D01*
X150971500Y-107677885D01*
X150453500Y-107677885D01*
X150453500Y-106822000D01*
X150473502Y-106753879D01*
X150527158Y-106707386D01*
X150579500Y-106696000D01*
X151560658Y-106696000D01*
X151575203Y-106691729D01*
X151577248Y-106679698D01*
X151574687Y-106666912D01*
X151530971Y-106527411D01*
X151524765Y-106513666D01*
X151449504Y-106389396D01*
X151440197Y-106377527D01*
X151388265Y-106325595D01*
X151354239Y-106263283D01*
X151359304Y-106192468D01*
X151401851Y-106135632D01*
X151468371Y-106110821D01*
X151477360Y-106110500D01*
X151923500Y-106110500D01*
X151991621Y-106130502D01*
G37*
%TD.AperFunction*%
%TA.AperFunction,Conductor*%
G36*
X158050793Y-102670502D02*
G01*
X158097286Y-102724158D01*
X158107390Y-102794432D01*
X158102265Y-102816167D01*
X158079863Y-102883707D01*
X158076995Y-102897086D01*
X158067328Y-102991438D01*
X158067000Y-102997855D01*
X158067000Y-103022885D01*
X158071475Y-103038124D01*
X158072865Y-103039329D01*
X158080548Y-103041000D01*
X159703000Y-103041000D01*
X159771121Y-103061002D01*
X159817614Y-103114658D01*
X159829000Y-103167000D01*
X159829000Y-103423000D01*
X159808998Y-103491121D01*
X159755342Y-103537614D01*
X159703000Y-103549000D01*
X158085116Y-103549000D01*
X158069877Y-103553475D01*
X158068672Y-103554865D01*
X158067001Y-103562548D01*
X158067001Y-103592095D01*
X158067338Y-103598614D01*
X158077257Y-103694206D01*
X158080149Y-103707600D01*
X158131588Y-103861784D01*
X158137761Y-103874962D01*
X158223063Y-104012807D01*
X158232099Y-104024208D01*
X158347418Y-104139327D01*
X158381497Y-104201610D01*
X158376494Y-104272430D01*
X158333997Y-104329303D01*
X158267498Y-104354171D01*
X158258400Y-104354500D01*
X157773083Y-104354500D01*
X157704962Y-104334498D01*
X157683988Y-104317595D01*
X156860909Y-103494516D01*
X156860905Y-103494513D01*
X156838342Y-103471950D01*
X156818746Y-103461965D01*
X156801893Y-103451639D01*
X156784090Y-103438704D01*
X156763166Y-103431905D01*
X156744906Y-103424341D01*
X156734141Y-103418856D01*
X156734137Y-103418855D01*
X156725304Y-103414354D01*
X156715513Y-103412803D01*
X156715512Y-103412803D01*
X156703578Y-103410913D01*
X156684353Y-103406297D01*
X156672868Y-103402565D01*
X156672864Y-103402564D01*
X156663433Y-103399500D01*
X149736567Y-103399500D01*
X149727136Y-103402564D01*
X149727132Y-103402565D01*
X149715647Y-103406297D01*
X149696422Y-103410913D01*
X149684488Y-103412803D01*
X149684487Y-103412803D01*
X149674696Y-103414354D01*
X149665863Y-103418855D01*
X149665859Y-103418856D01*
X149655094Y-103424341D01*
X149636834Y-103431905D01*
X149615910Y-103438704D01*
X149598107Y-103451639D01*
X149581254Y-103461965D01*
X149561658Y-103471950D01*
X149539095Y-103494513D01*
X149539091Y-103494516D01*
X149371012Y-103662595D01*
X149308700Y-103696621D01*
X149281917Y-103699500D01*
X148986500Y-103699500D01*
X148918379Y-103679498D01*
X148871886Y-103625842D01*
X148860500Y-103573500D01*
X148860500Y-102795180D01*
X148859292Y-102789110D01*
X148859267Y-102788851D01*
X148872495Y-102719098D01*
X148921335Y-102667569D01*
X148984660Y-102650500D01*
X157982672Y-102650500D01*
X158050793Y-102670502D01*
G37*
%TD.AperFunction*%
%TD*%
M02*
