%TF.GenerationSoftware,KiCad,Pcbnew,(6.0.9)*%
%TF.CreationDate,2023-01-31T14:43:12+01:00*%
%TF.ProjectId,keyring_beerclock,6b657972-696e-4675-9f62-656572636c6f,rev?*%
%TF.SameCoordinates,Original*%
%TF.FileFunction,Copper,L2,Bot*%
%TF.FilePolarity,Positive*%
%FSLAX46Y46*%
G04 Gerber Fmt 4.6, Leading zero omitted, Abs format (unit mm)*
G04 Created by KiCad (PCBNEW (6.0.9)) date 2023-01-31 14:43:12*
%MOMM*%
%LPD*%
G01*
G04 APERTURE LIST*
G04 Aperture macros list*
%AMRoundRect*
0 Rectangle with rounded corners*
0 $1 Rounding radius*
0 $2 $3 $4 $5 $6 $7 $8 $9 X,Y pos of 4 corners*
0 Add a 4 corners polygon primitive as box body*
4,1,4,$2,$3,$4,$5,$6,$7,$8,$9,$2,$3,0*
0 Add four circle primitives for the rounded corners*
1,1,$1+$1,$2,$3*
1,1,$1+$1,$4,$5*
1,1,$1+$1,$6,$7*
1,1,$1+$1,$8,$9*
0 Add four rect primitives between the rounded corners*
20,1,$1+$1,$2,$3,$4,$5,0*
20,1,$1+$1,$4,$5,$6,$7,0*
20,1,$1+$1,$6,$7,$8,$9,0*
20,1,$1+$1,$8,$9,$2,$3,0*%
G04 Aperture macros list end*
%TA.AperFunction,SMDPad,CuDef*%
%ADD10C,1.000000*%
%TD*%
%TA.AperFunction,SMDPad,CuDef*%
%ADD11R,0.900000X1.700000*%
%TD*%
%TA.AperFunction,SMDPad,CuDef*%
%ADD12RoundRect,0.160000X-0.197500X-0.160000X0.197500X-0.160000X0.197500X0.160000X-0.197500X0.160000X0*%
%TD*%
%TA.AperFunction,SMDPad,CuDef*%
%ADD13RoundRect,0.160000X-0.160000X0.197500X-0.160000X-0.197500X0.160000X-0.197500X0.160000X0.197500X0*%
%TD*%
%TA.AperFunction,SMDPad,CuDef*%
%ADD14RoundRect,0.160000X0.160000X-0.197500X0.160000X0.197500X-0.160000X0.197500X-0.160000X-0.197500X0*%
%TD*%
%TA.AperFunction,SMDPad,CuDef*%
%ADD15RoundRect,0.155000X0.155000X-0.212500X0.155000X0.212500X-0.155000X0.212500X-0.155000X-0.212500X0*%
%TD*%
%TA.AperFunction,ViaPad*%
%ADD16C,0.700000*%
%TD*%
%TA.AperFunction,Conductor*%
%ADD17C,0.500000*%
%TD*%
%TA.AperFunction,Conductor*%
%ADD18C,0.300000*%
%TD*%
G04 APERTURE END LIST*
D10*
%TO.P,J5,1,Pin_1*%
%TO.N,GND*%
X141500000Y-118780000D03*
%TD*%
%TO.P,J4,1,Pin_1*%
%TO.N,UDPI*%
X141500000Y-116240000D03*
%TD*%
%TO.P,J3,1,Pin_1*%
%TO.N,VCC*%
X141500000Y-113700000D03*
%TD*%
D11*
%TO.P,SW4,2,2*%
%TO.N,GND*%
X143300000Y-111000000D03*
%TO.P,SW4,1,1*%
%TO.N,BTN_MID*%
X146700000Y-111000000D03*
%TD*%
%TO.P,SW3,2,2*%
%TO.N,GND*%
X151800000Y-116000000D03*
%TO.P,SW3,1,1*%
%TO.N,BTN_RIGHT*%
X155200000Y-116000000D03*
%TD*%
%TO.P,SW2,2,2*%
%TO.N,GND*%
X151700000Y-106000000D03*
%TO.P,SW2,1,1*%
%TO.N,BTN_LEFT*%
X155100000Y-106000000D03*
%TD*%
D12*
%TO.P,R6,1*%
%TO.N,+3V3*%
X152902500Y-108500000D03*
%TO.P,R6,2*%
%TO.N,BTN_LEFT*%
X154097500Y-108500000D03*
%TD*%
D13*
%TO.P,R11,2*%
%TO.N,GND*%
X143860000Y-118147500D03*
%TO.P,R11,1*%
%TO.N,/CC1*%
X143860000Y-116952500D03*
%TD*%
%TO.P,R10,2*%
%TO.N,GND*%
X144962000Y-118147500D03*
%TO.P,R10,1*%
%TO.N,/CC2*%
X144962000Y-116952500D03*
%TD*%
%TO.P,R9,1*%
%TO.N,/-Piezo*%
X147164000Y-116952500D03*
%TO.P,R9,2*%
%TO.N,+3V3*%
X147164000Y-118147500D03*
%TD*%
%TO.P,R8,1*%
%TO.N,SENSE*%
X146066000Y-116952500D03*
%TO.P,R8,2*%
%TO.N,/-Piezo*%
X146066000Y-118147500D03*
%TD*%
D12*
%TO.P,R7,1*%
%TO.N,+3V3*%
X154202500Y-118200000D03*
%TO.P,R7,2*%
%TO.N,BTN_RIGHT*%
X155397500Y-118200000D03*
%TD*%
D14*
%TO.P,R5,1*%
%TO.N,+3V3*%
X148100000Y-113097500D03*
%TO.P,R5,2*%
%TO.N,BTN_MID*%
X148100000Y-111902500D03*
%TD*%
%TO.P,R4,2*%
%TO.N,SDA*%
X149368000Y-116952500D03*
%TO.P,R4,1*%
%TO.N,+3V3*%
X149368000Y-118147500D03*
%TD*%
%TO.P,R3,2*%
%TO.N,SCL*%
X148270000Y-116952500D03*
%TO.P,R3,1*%
%TO.N,+3V3*%
X148270000Y-118147500D03*
%TD*%
%TO.P,R1,2*%
%TO.N,GND*%
X140978000Y-105632500D03*
%TO.P,R1,1*%
%TO.N,/CRG_PROG*%
X140978000Y-106827500D03*
%TD*%
D15*
%TO.P,C10,2*%
%TO.N,GND*%
X144924000Y-105682500D03*
%TO.P,C10,1*%
%TO.N,+3V3*%
X144924000Y-106817500D03*
%TD*%
%TO.P,C8,2*%
%TO.N,GND*%
X147160000Y-105682500D03*
%TO.P,C8,1*%
%TO.N,/bypass*%
X147160000Y-106817500D03*
%TD*%
%TO.P,C7,2*%
%TO.N,GND*%
X142106000Y-105682500D03*
%TO.P,C7,1*%
%TO.N,/BAT+*%
X142106000Y-106817500D03*
%TD*%
%TO.P,C4,1*%
%TO.N,/VBUS*%
X143250000Y-106817500D03*
%TO.P,C4,2*%
%TO.N,GND*%
X143250000Y-105682500D03*
%TD*%
%TO.P,C3,2*%
%TO.N,GND*%
X146042000Y-105682500D03*
%TO.P,C3,1*%
%TO.N,/PWR_IN*%
X146042000Y-106817500D03*
%TD*%
D16*
%TO.N,GND*%
X156500000Y-109700000D03*
X151700000Y-107300000D03*
X153500000Y-103000000D03*
X152400000Y-103000000D03*
X151300000Y-103000000D03*
%TO.N,/BAT+*%
X142058148Y-107786248D03*
%TO.N,/VBUS*%
X142900000Y-107900000D03*
%TO.N,/BAT+*%
X142350499Y-110488624D03*
%TO.N,/CRG_PROG*%
X140800000Y-107800000D03*
%TO.N,GND*%
X142182062Y-112519647D03*
X150300000Y-116900000D03*
X140700000Y-117000000D03*
X145000000Y-119300000D03*
%TO.N,+3V3*%
X148690249Y-106509751D03*
X144599500Y-107799750D03*
X157282868Y-117795000D03*
%TO.N,VCC*%
X144600000Y-104400000D03*
%TO.N,/bypass*%
X146564798Y-108149000D03*
%TO.N,/PWR_IN*%
X145500000Y-108149000D03*
%TO.N,/-Piezo*%
X157500000Y-119300000D03*
%TO.N,/CC2*%
X146390734Y-115490734D03*
%TO.N,/CC1*%
X145400000Y-115500000D03*
%TO.N,SENSE*%
X147800000Y-108700000D03*
%TO.N,BTN_RIGHT*%
X152605368Y-111242943D03*
%TO.N,BTN_MID*%
X152500000Y-110400000D03*
%TO.N,BTN_LEFT*%
X152399500Y-109556463D03*
%TO.N,UDPI*%
X151800000Y-108900000D03*
%TO.N,SCL*%
X150900000Y-112500000D03*
%TO.N,SDA*%
X151600000Y-113250498D03*
%TD*%
D17*
%TO.N,+3V3*%
X155800000Y-104600000D02*
X152400000Y-104600000D01*
D18*
X155850000Y-114750000D02*
X156300000Y-115200000D01*
X155850000Y-104650000D02*
X155850000Y-114750000D01*
X156300000Y-115200000D02*
X156300000Y-117300000D01*
X155800000Y-104600000D02*
X155850000Y-104650000D01*
D17*
X148690249Y-106509751D02*
X148690249Y-106109751D01*
X148690249Y-106109751D02*
X150000000Y-104800000D01*
%TO.N,/BAT+*%
X142071900Y-107800000D02*
X142058148Y-107786248D01*
X142100000Y-107800000D02*
X142071900Y-107800000D01*
X142100000Y-107800000D02*
X142100000Y-106823500D01*
X142100000Y-110238125D02*
X142100000Y-107800000D01*
D18*
%TO.N,+3V3*%
X144546944Y-107194556D02*
X144924000Y-106817500D01*
X144546944Y-107747194D02*
X144546944Y-107194556D01*
X144599500Y-107799750D02*
X144546944Y-107747194D01*
D17*
%TO.N,/bypass*%
X146653943Y-108149000D02*
X147160000Y-107642943D01*
X146564798Y-108149000D02*
X146653943Y-108149000D01*
X147160000Y-107642943D02*
X147160000Y-106817500D01*
%TO.N,/PWR_IN*%
X146042000Y-107097339D02*
X146042000Y-106817500D01*
X145500000Y-108149000D02*
X145500000Y-107639339D01*
X145500000Y-107639339D02*
X146042000Y-107097339D01*
%TO.N,/VBUS*%
X142900000Y-107900000D02*
X142900000Y-107167500D01*
X142900000Y-107167500D02*
X143250000Y-106817500D01*
%TO.N,/BAT+*%
X142100000Y-106823500D02*
X142106000Y-106817500D01*
X142350499Y-110488624D02*
X142100000Y-110238125D01*
%TO.N,/CRG_PROG*%
X140978000Y-107622000D02*
X140800000Y-107800000D01*
X140978000Y-106827500D02*
X140978000Y-107622000D01*
D18*
%TO.N,UDPI*%
X150700000Y-107800000D02*
X151800000Y-108900000D01*
X147150000Y-108430761D02*
X147780761Y-107800000D01*
X147780761Y-107800000D02*
X150700000Y-107800000D01*
X147150000Y-109050000D02*
X147150000Y-108430761D01*
X145913604Y-109250000D02*
X146950000Y-109250000D01*
X144800000Y-112600000D02*
X144800000Y-110363604D01*
X144800000Y-110363604D02*
X145913604Y-109250000D01*
X144240000Y-113100000D02*
X144300000Y-113100000D01*
X144300000Y-113100000D02*
X144800000Y-112600000D01*
X141500000Y-116240000D02*
X141500000Y-115840000D01*
X146950000Y-109250000D02*
X147150000Y-109050000D01*
X141500000Y-115840000D02*
X144240000Y-113100000D01*
%TO.N,VCC*%
X142800000Y-113700000D02*
X141500000Y-113700000D01*
X144200000Y-109400000D02*
X144200000Y-112300000D01*
X143950000Y-105050000D02*
X143950000Y-109150000D01*
X143950000Y-109150000D02*
X144200000Y-109400000D01*
X144200000Y-112300000D02*
X142800000Y-113700000D01*
X144600000Y-104400000D02*
X143950000Y-105050000D01*
%TO.N,/CC1*%
X145400000Y-115500000D02*
X145312500Y-115500000D01*
X145312500Y-115500000D02*
X143860000Y-116952500D01*
%TO.N,/CC2*%
X146390734Y-115490734D02*
X144962000Y-116919468D01*
X144962000Y-116919468D02*
X144962000Y-116952500D01*
D17*
%TO.N,+3V3*%
X156300000Y-117300000D02*
X156795000Y-117795000D01*
X156795000Y-117795000D02*
X157282868Y-117795000D01*
X152400000Y-104600000D02*
X150200000Y-104600000D01*
X150200000Y-104600000D02*
X150000000Y-104800000D01*
X152902500Y-105102500D02*
X152400000Y-104600000D01*
X152902500Y-108500000D02*
X152902500Y-105102500D01*
X149497500Y-111700000D02*
X148100000Y-113097500D01*
X151700000Y-111700000D02*
X149497500Y-111700000D01*
X153400000Y-117397500D02*
X153400000Y-113400000D01*
X153400000Y-113400000D02*
X151700000Y-111700000D01*
X154202500Y-118200000D02*
X153400000Y-117397500D01*
X154202500Y-118402500D02*
X154202500Y-118200000D01*
X156077868Y-119000000D02*
X154800000Y-119000000D01*
X157282868Y-117795000D02*
X156077868Y-119000000D01*
X154800000Y-119000000D02*
X154202500Y-118402500D01*
X154150000Y-118147500D02*
X154202500Y-118200000D01*
X149368000Y-118147500D02*
X154150000Y-118147500D01*
D18*
%TO.N,BTN_RIGHT*%
X155397500Y-116197500D02*
X155200000Y-116000000D01*
X155397500Y-118200000D02*
X155397500Y-116197500D01*
%TO.N,/-Piezo*%
X146700000Y-119600000D02*
X146066000Y-118966000D01*
X157200000Y-119600000D02*
X146700000Y-119600000D01*
X146066000Y-118966000D02*
X146066000Y-118147500D01*
X157500000Y-119300000D02*
X157200000Y-119600000D01*
%TO.N,SENSE*%
X146066000Y-116734000D02*
X146066000Y-116952500D01*
X147166000Y-115634000D02*
X146066000Y-116734000D01*
X147166000Y-114866000D02*
X147166000Y-115634000D01*
X146100000Y-109700000D02*
X145900000Y-109900000D01*
X147500000Y-109700000D02*
X146100000Y-109700000D01*
X145900000Y-113600000D02*
X147166000Y-114866000D01*
X147800000Y-109400000D02*
X147500000Y-109700000D01*
X147800000Y-108700000D02*
X147800000Y-109400000D01*
X145900000Y-109900000D02*
X145900000Y-113600000D01*
%TO.N,BTN_MID*%
X148100000Y-111800000D02*
X148100000Y-111902500D01*
X148900000Y-111000000D02*
X148100000Y-111800000D01*
X148900000Y-111000000D02*
X151900000Y-111000000D01*
X146700000Y-111000000D02*
X148900000Y-111000000D01*
D17*
%TO.N,+3V3*%
X149368000Y-118147500D02*
X148270000Y-118147500D01*
X147164000Y-118147500D02*
X148270000Y-118147500D01*
D18*
%TO.N,/-Piezo*%
X146066000Y-118050500D02*
X147164000Y-116952500D01*
X146066000Y-118147500D02*
X146066000Y-118050500D01*
%TO.N,BTN_LEFT*%
X154097500Y-107002500D02*
X155100000Y-106000000D01*
X154097500Y-108500000D02*
X154097500Y-107002500D01*
X153143537Y-109556463D02*
X152399500Y-109556463D01*
X154097500Y-108602500D02*
X153143537Y-109556463D01*
X154097500Y-108500000D02*
X154097500Y-108602500D01*
%TO.N,BTN_MID*%
X151900000Y-111000000D02*
X152500000Y-110400000D01*
%TO.N,BTN_RIGHT*%
X155200000Y-113837575D02*
X152605368Y-111242943D01*
X155200000Y-116000000D02*
X155200000Y-113837575D01*
%TO.N,SDA*%
X150400000Y-114200000D02*
X151349502Y-113250498D01*
X150400000Y-115600000D02*
X150400000Y-114200000D01*
X149368000Y-116632000D02*
X150400000Y-115600000D01*
X149368000Y-116952500D02*
X149368000Y-116632000D01*
X151349502Y-113250498D02*
X151600000Y-113250498D01*
%TO.N,SCL*%
X150800000Y-112500000D02*
X150900000Y-112500000D01*
X148270000Y-115030000D02*
X150800000Y-112500000D01*
X148270000Y-116952500D02*
X148270000Y-115030000D01*
%TD*%
%TA.AperFunction,Conductor*%
%TO.N,GND*%
G36*
X160791621Y-102670502D02*
G01*
X160838114Y-102724158D01*
X160849500Y-102776500D01*
X160849500Y-105223500D01*
X160829498Y-105291621D01*
X160775842Y-105338114D01*
X160723500Y-105349500D01*
X157036402Y-105349500D01*
X157028685Y-105348484D01*
X157016022Y-105348484D01*
X157000000Y-105344191D01*
X156983978Y-105348484D01*
X156980186Y-105349500D01*
X156938120Y-105360771D01*
X156938119Y-105360772D01*
X156922096Y-105365065D01*
X156865065Y-105422095D01*
X156844191Y-105500000D01*
X156848484Y-105516022D01*
X156848484Y-105528685D01*
X156849500Y-105536402D01*
X156849500Y-115125237D01*
X156829498Y-115193358D01*
X156775842Y-115239851D01*
X156705568Y-115249955D01*
X156640988Y-115220461D01*
X156602604Y-115160735D01*
X156600583Y-115152937D01*
X156598662Y-115144414D01*
X156598226Y-115132792D01*
X156593636Y-115122108D01*
X156592599Y-115117507D01*
X156589038Y-115105786D01*
X156587339Y-115101383D01*
X156585209Y-115089947D01*
X156572272Y-115068959D01*
X156563769Y-115052589D01*
X156557549Y-115038112D01*
X156557547Y-115038108D01*
X156554036Y-115029937D01*
X156550022Y-115025051D01*
X156547837Y-115022866D01*
X156545785Y-115020603D01*
X156545945Y-115020458D01*
X156538825Y-115011451D01*
X156532573Y-115004556D01*
X156526468Y-114994652D01*
X156504680Y-114978084D01*
X156491861Y-114966890D01*
X156187405Y-114662434D01*
X156153379Y-114600122D01*
X156150500Y-114573339D01*
X156150500Y-104824532D01*
X156164233Y-104767329D01*
X156181145Y-104734137D01*
X156185646Y-104725304D01*
X156188604Y-104706631D01*
X156203941Y-104609793D01*
X156205492Y-104600000D01*
X156197921Y-104552196D01*
X156187197Y-104484487D01*
X156187196Y-104484485D01*
X156185646Y-104474696D01*
X156128050Y-104361658D01*
X156038342Y-104271950D01*
X155925304Y-104214354D01*
X155915515Y-104212804D01*
X155915513Y-104212803D01*
X155888151Y-104208470D01*
X155831519Y-104199500D01*
X150136567Y-104199500D01*
X150127136Y-104202564D01*
X150127132Y-104202565D01*
X150115647Y-104206297D01*
X150096422Y-104210913D01*
X150084488Y-104212803D01*
X150084487Y-104212803D01*
X150074696Y-104214354D01*
X150065863Y-104218855D01*
X150065859Y-104218856D01*
X150055092Y-104224342D01*
X150036832Y-104231906D01*
X150015911Y-104238704D01*
X150007888Y-104244533D01*
X149998113Y-104251635D01*
X149981258Y-104261963D01*
X149970499Y-104267445D01*
X149970497Y-104267446D01*
X149961658Y-104271950D01*
X149939095Y-104294513D01*
X149939091Y-104294516D01*
X148384765Y-105848842D01*
X148384762Y-105848846D01*
X148362199Y-105871409D01*
X148357695Y-105880249D01*
X148352214Y-105891006D01*
X148341888Y-105907858D01*
X148328953Y-105925661D01*
X148322156Y-105946581D01*
X148314590Y-105964845D01*
X148309105Y-105975610D01*
X148309104Y-105975614D01*
X148304603Y-105984447D01*
X148303052Y-105994238D01*
X148303052Y-105994239D01*
X148301162Y-106006173D01*
X148296546Y-106025398D01*
X148292814Y-106036883D01*
X148292813Y-106036887D01*
X148289749Y-106046318D01*
X148289749Y-106163095D01*
X148269856Y-106229613D01*
X148267626Y-106232139D01*
X148206696Y-106361914D01*
X148205315Y-106370786D01*
X148192742Y-106451539D01*
X148184640Y-106503574D01*
X148185804Y-106512476D01*
X148185804Y-106512479D01*
X148192900Y-106566743D01*
X148203229Y-106645730D01*
X148260969Y-106776954D01*
X148266746Y-106783827D01*
X148266747Y-106783828D01*
X148325681Y-106853939D01*
X148353219Y-106886699D01*
X148412891Y-106926420D01*
X148456661Y-106955556D01*
X148472562Y-106966141D01*
X148609406Y-107008893D01*
X148618378Y-107009057D01*
X148618381Y-107009058D01*
X148683712Y-107010255D01*
X148752748Y-107011521D01*
X148761782Y-107009058D01*
X148882407Y-106976172D01*
X148882409Y-106976171D01*
X148891066Y-106973811D01*
X149013240Y-106898796D01*
X149016976Y-106894669D01*
X150742001Y-106894669D01*
X150742371Y-106901490D01*
X150747895Y-106952352D01*
X150751521Y-106967604D01*
X150796676Y-107088054D01*
X150805214Y-107103649D01*
X150881715Y-107205724D01*
X150894276Y-107218285D01*
X150996351Y-107294786D01*
X151011946Y-107303324D01*
X151132394Y-107348478D01*
X151147649Y-107352105D01*
X151198514Y-107357631D01*
X151205328Y-107358000D01*
X151427885Y-107358000D01*
X151443124Y-107353525D01*
X151444329Y-107352135D01*
X151446000Y-107344452D01*
X151446000Y-106272115D01*
X151441525Y-106256876D01*
X151440135Y-106255671D01*
X151432452Y-106254000D01*
X150760116Y-106254000D01*
X150744877Y-106258475D01*
X150743672Y-106259865D01*
X150742001Y-106267548D01*
X150742001Y-106894669D01*
X149016976Y-106894669D01*
X149044078Y-106864727D01*
X149103427Y-106799158D01*
X149109449Y-106792505D01*
X149171959Y-106663484D01*
X149195745Y-106522105D01*
X149195896Y-106509751D01*
X149175572Y-106367833D01*
X149171859Y-106359666D01*
X149171857Y-106359660D01*
X149156390Y-106325642D01*
X149146404Y-106255351D01*
X149176005Y-106190820D01*
X149181996Y-106184397D01*
X150328988Y-105037405D01*
X150391300Y-105003379D01*
X150418083Y-105000500D01*
X150616000Y-105000500D01*
X150684121Y-105020502D01*
X150730614Y-105074158D01*
X150742000Y-105126500D01*
X150742000Y-105727885D01*
X150746475Y-105743124D01*
X150747865Y-105744329D01*
X150755548Y-105746000D01*
X151828000Y-105746000D01*
X151896121Y-105766002D01*
X151942614Y-105819658D01*
X151954000Y-105872000D01*
X151954000Y-107339884D01*
X151958475Y-107355123D01*
X151959865Y-107356328D01*
X151967548Y-107357999D01*
X152194669Y-107357999D01*
X152201490Y-107357629D01*
X152252352Y-107352105D01*
X152267603Y-107348479D01*
X152331770Y-107324424D01*
X152402577Y-107319241D01*
X152464946Y-107353162D01*
X152499076Y-107415417D01*
X152502000Y-107442406D01*
X152502000Y-108051677D01*
X152481998Y-108119798D01*
X152465172Y-108140695D01*
X152452585Y-108153304D01*
X152452583Y-108153306D01*
X152444365Y-108161539D01*
X152439663Y-108172175D01*
X152439661Y-108172178D01*
X152417419Y-108222488D01*
X152397594Y-108267332D01*
X152394500Y-108293871D01*
X152394500Y-108483888D01*
X152374498Y-108552009D01*
X152320842Y-108598502D01*
X152250568Y-108608606D01*
X152185988Y-108579112D01*
X152173047Y-108566136D01*
X152159068Y-108549913D01*
X152132400Y-108518963D01*
X152012095Y-108440985D01*
X151874739Y-108399907D01*
X151865763Y-108399852D01*
X151865762Y-108399852D01*
X151826987Y-108399615D01*
X151775694Y-108399302D01*
X151707698Y-108378884D01*
X151687370Y-108362399D01*
X150949519Y-107624548D01*
X150947763Y-107622514D01*
X150945425Y-107617731D01*
X150909523Y-107584427D01*
X150906118Y-107581147D01*
X150892723Y-107567752D01*
X150888753Y-107565028D01*
X150886105Y-107562703D01*
X150871881Y-107549508D01*
X150871878Y-107549506D01*
X150863354Y-107541599D01*
X150852550Y-107537289D01*
X150848561Y-107534767D01*
X150837773Y-107529006D01*
X150833448Y-107527089D01*
X150823854Y-107520508D01*
X150812535Y-107517822D01*
X150812533Y-107517821D01*
X150799873Y-107514817D01*
X150782276Y-107509252D01*
X150767638Y-107503412D01*
X150767635Y-107503411D01*
X150759378Y-107500117D01*
X150753085Y-107499500D01*
X150750006Y-107499500D01*
X150746933Y-107499350D01*
X150746944Y-107499134D01*
X150735569Y-107497802D01*
X150726254Y-107497346D01*
X150714934Y-107494660D01*
X150703405Y-107496229D01*
X150703404Y-107496229D01*
X150687827Y-107498349D01*
X150670836Y-107499500D01*
X147833127Y-107499500D01*
X147830454Y-107499304D01*
X147825419Y-107497575D01*
X147813797Y-107498011D01*
X147813795Y-107498011D01*
X147776506Y-107499411D01*
X147771780Y-107499500D01*
X147752813Y-107499500D01*
X147748078Y-107500382D01*
X147744552Y-107500610D01*
X147725181Y-107501337D01*
X147725179Y-107501337D01*
X147713553Y-107501774D01*
X147709509Y-107503512D01*
X147643348Y-107499274D01*
X147586197Y-107457152D01*
X147560891Y-107390819D01*
X147560500Y-107380894D01*
X147560500Y-107256797D01*
X147575756Y-107207495D01*
X147571439Y-107205587D01*
X147576143Y-107194946D01*
X147617456Y-107101498D01*
X147620500Y-107075390D01*
X147620500Y-106559610D01*
X147621462Y-106559610D01*
X147636463Y-106494509D01*
X147681029Y-106448473D01*
X147720598Y-106424509D01*
X147732473Y-106415197D01*
X147835197Y-106312473D01*
X147844504Y-106300604D01*
X147919765Y-106176334D01*
X147925971Y-106162589D01*
X147969685Y-106023096D01*
X147972298Y-106010046D01*
X147977537Y-105953038D01*
X147973525Y-105939376D01*
X147972135Y-105938171D01*
X147964452Y-105936500D01*
X144376500Y-105936500D01*
X144308379Y-105916498D01*
X144261886Y-105862842D01*
X144250500Y-105810500D01*
X144250500Y-105554500D01*
X144270502Y-105486379D01*
X144324158Y-105439886D01*
X144376500Y-105428500D01*
X146887885Y-105428500D01*
X146903124Y-105424025D01*
X146904329Y-105422635D01*
X146906000Y-105414952D01*
X146906000Y-105410385D01*
X147414000Y-105410385D01*
X147418475Y-105425624D01*
X147419865Y-105426829D01*
X147427548Y-105428500D01*
X147959885Y-105428500D01*
X147975124Y-105424025D01*
X147976329Y-105422635D01*
X147977813Y-105415814D01*
X147977734Y-105414112D01*
X147972298Y-105354954D01*
X147969685Y-105341904D01*
X147925971Y-105202411D01*
X147919765Y-105188666D01*
X147844504Y-105064396D01*
X147835197Y-105052527D01*
X147732473Y-104949803D01*
X147720604Y-104940496D01*
X147596334Y-104865235D01*
X147582589Y-104859029D01*
X147443088Y-104815313D01*
X147431497Y-104812991D01*
X147417165Y-104815806D01*
X147414000Y-104827702D01*
X147414000Y-105410385D01*
X146906000Y-105410385D01*
X146906000Y-104829342D01*
X146901729Y-104814797D01*
X146889698Y-104812752D01*
X146876909Y-104815313D01*
X146819506Y-104833302D01*
X146748521Y-104834586D01*
X146688111Y-104797289D01*
X146657455Y-104733252D01*
X146666287Y-104662807D01*
X146670474Y-104654109D01*
X146715222Y-104569596D01*
X146715226Y-104569586D01*
X146718776Y-104562881D01*
X146760081Y-104398441D01*
X146760228Y-104370491D01*
X146760767Y-104267445D01*
X146760969Y-104228895D01*
X146756280Y-104209362D01*
X146723161Y-104071417D01*
X146721388Y-104064032D01*
X146693573Y-104010140D01*
X146647108Y-103920117D01*
X146647108Y-103920116D01*
X146643625Y-103913369D01*
X146638313Y-103907279D01*
X146537163Y-103791329D01*
X146532169Y-103785604D01*
X146473649Y-103744475D01*
X146399670Y-103692482D01*
X146399668Y-103692481D01*
X146393453Y-103688113D01*
X146235487Y-103626524D01*
X146227954Y-103625532D01*
X146227953Y-103625532D01*
X146110261Y-103610038D01*
X146110260Y-103610038D01*
X146106174Y-103609500D01*
X146017484Y-103609500D01*
X145891680Y-103624724D01*
X145733077Y-103684655D01*
X145593349Y-103780688D01*
X145588297Y-103786358D01*
X145588296Y-103786359D01*
X145485612Y-103901608D01*
X145485610Y-103901612D01*
X145480560Y-103907279D01*
X145477008Y-103913988D01*
X145477007Y-103913989D01*
X145461532Y-103943217D01*
X145401224Y-104057119D01*
X145359919Y-104221559D01*
X145359031Y-104391105D01*
X145360805Y-104398492D01*
X145360805Y-104398496D01*
X145388179Y-104512511D01*
X145398612Y-104555968D01*
X145402094Y-104562715D01*
X145402097Y-104562722D01*
X145456764Y-104668636D01*
X145470234Y-104738343D01*
X145443879Y-104804266D01*
X145386067Y-104845476D01*
X145315152Y-104848889D01*
X145307121Y-104846661D01*
X145207090Y-104815314D01*
X145194046Y-104812702D01*
X145147580Y-104808432D01*
X145081575Y-104782281D01*
X145040187Y-104724596D01*
X145036555Y-104653693D01*
X145045717Y-104628023D01*
X145077795Y-104561814D01*
X145077795Y-104561813D01*
X145081710Y-104553733D01*
X145105496Y-104412354D01*
X145105647Y-104400000D01*
X145090541Y-104294516D01*
X145086596Y-104266968D01*
X145086595Y-104266965D01*
X145085323Y-104258082D01*
X145076513Y-104238704D01*
X145059040Y-104200275D01*
X145025984Y-104127572D01*
X145007598Y-104106234D01*
X144938260Y-104025763D01*
X144938257Y-104025760D01*
X144932400Y-104018963D01*
X144812095Y-103940985D01*
X144674739Y-103899907D01*
X144665763Y-103899852D01*
X144665762Y-103899852D01*
X144605555Y-103899484D01*
X144531376Y-103899031D01*
X144393529Y-103938428D01*
X144272280Y-104014930D01*
X144177377Y-104122388D01*
X144116447Y-104252163D01*
X144114142Y-104266968D01*
X144098024Y-104370491D01*
X144094391Y-104393823D01*
X144095959Y-104405810D01*
X144096383Y-104409052D01*
X144085384Y-104479192D01*
X144060542Y-104514487D01*
X143942727Y-104632302D01*
X143880415Y-104666328D01*
X143809600Y-104661263D01*
X143752764Y-104618716D01*
X143727953Y-104552196D01*
X143731428Y-104512511D01*
X143743146Y-104465863D01*
X143760081Y-104398441D01*
X143760228Y-104370491D01*
X143760767Y-104267445D01*
X143760969Y-104228895D01*
X143756280Y-104209362D01*
X143723161Y-104071417D01*
X143721388Y-104064032D01*
X143693573Y-104010140D01*
X143647108Y-103920117D01*
X143647108Y-103920116D01*
X143643625Y-103913369D01*
X143638313Y-103907279D01*
X143537163Y-103791329D01*
X143532169Y-103785604D01*
X143473649Y-103744475D01*
X143399670Y-103692482D01*
X143399668Y-103692481D01*
X143393453Y-103688113D01*
X143235487Y-103626524D01*
X143227954Y-103625532D01*
X143227953Y-103625532D01*
X143110261Y-103610038D01*
X143110260Y-103610038D01*
X143106174Y-103609500D01*
X143017484Y-103609500D01*
X142891680Y-103624724D01*
X142733077Y-103684655D01*
X142593349Y-103780688D01*
X142588297Y-103786358D01*
X142588296Y-103786359D01*
X142485612Y-103901608D01*
X142485610Y-103901612D01*
X142480560Y-103907279D01*
X142477008Y-103913988D01*
X142477007Y-103913989D01*
X142461532Y-103943217D01*
X142401224Y-104057119D01*
X142359919Y-104221559D01*
X142359031Y-104391105D01*
X142360805Y-104398492D01*
X142360805Y-104398496D01*
X142388179Y-104512511D01*
X142398612Y-104555968D01*
X142402093Y-104562712D01*
X142402094Y-104562715D01*
X142440166Y-104636477D01*
X142453635Y-104706184D01*
X142427280Y-104772108D01*
X142369467Y-104813317D01*
X142363519Y-104814924D01*
X142363359Y-104815077D01*
X142360000Y-104827702D01*
X142360000Y-105410385D01*
X142364475Y-105425624D01*
X142365865Y-105426829D01*
X142373548Y-105428500D01*
X143523500Y-105428500D01*
X143591621Y-105448502D01*
X143638114Y-105502158D01*
X143649500Y-105554500D01*
X143649500Y-105810500D01*
X143629498Y-105878621D01*
X143575842Y-105925114D01*
X143523500Y-105936500D01*
X141344905Y-105936500D01*
X141276784Y-105916498D01*
X141262393Y-105905725D01*
X141242135Y-105888171D01*
X141234452Y-105886500D01*
X140168402Y-105886500D01*
X140153857Y-105890771D01*
X140151794Y-105902904D01*
X140155751Y-105945973D01*
X140158361Y-105959006D01*
X140202439Y-106099661D01*
X140208645Y-106113406D01*
X140284533Y-106238711D01*
X140293840Y-106250580D01*
X140397420Y-106354160D01*
X140409292Y-106363470D01*
X140462037Y-106395413D01*
X140509944Y-106447810D01*
X140521917Y-106517790D01*
X140516056Y-106539291D01*
X140516917Y-106539526D01*
X140514425Y-106548666D01*
X140510594Y-106557332D01*
X140507500Y-106583871D01*
X140507501Y-107071128D01*
X140510722Y-107098204D01*
X140514562Y-107106849D01*
X140552749Y-107192820D01*
X140557302Y-107203071D01*
X140557303Y-107203074D01*
X140557677Y-107203915D01*
X140557578Y-107203959D01*
X140577500Y-107268121D01*
X140577500Y-107279056D01*
X140557498Y-107347177D01*
X140518736Y-107385617D01*
X140479873Y-107410138D01*
X140479868Y-107410143D01*
X140472280Y-107414930D01*
X140377377Y-107522388D01*
X140316447Y-107652163D01*
X140309660Y-107695757D01*
X140297207Y-107775738D01*
X140294391Y-107793823D01*
X140295555Y-107802725D01*
X140295555Y-107802728D01*
X140302356Y-107854737D01*
X140312980Y-107935979D01*
X140316597Y-107944199D01*
X140363858Y-108051607D01*
X140370720Y-108067203D01*
X140376497Y-108074076D01*
X140376498Y-108074077D01*
X140415522Y-108120502D01*
X140462970Y-108176948D01*
X140488198Y-108193741D01*
X140563526Y-108243884D01*
X140582313Y-108256390D01*
X140719157Y-108299142D01*
X140728129Y-108299306D01*
X140728132Y-108299307D01*
X140793463Y-108300504D01*
X140862499Y-108301770D01*
X140872080Y-108299158D01*
X140992158Y-108266421D01*
X140992160Y-108266420D01*
X141000817Y-108264060D01*
X141122991Y-108189045D01*
X141138676Y-108171717D01*
X141213178Y-108089407D01*
X141219200Y-108082754D01*
X141276710Y-107964053D01*
X141277795Y-107961814D01*
X141277795Y-107961813D01*
X141281710Y-107953733D01*
X141288672Y-107912354D01*
X141290488Y-107901560D01*
X141307486Y-107861073D01*
X141306050Y-107860342D01*
X141316035Y-107840745D01*
X141326361Y-107823893D01*
X141337028Y-107809211D01*
X141393249Y-107765860D01*
X141463985Y-107759785D01*
X141526777Y-107792917D01*
X141561688Y-107854737D01*
X141563898Y-107866937D01*
X141571128Y-107922227D01*
X141628868Y-108053451D01*
X141669952Y-108102326D01*
X141698472Y-108167340D01*
X141699500Y-108183400D01*
X141699500Y-110301558D01*
X141702564Y-110310989D01*
X141702565Y-110310993D01*
X141706297Y-110322478D01*
X141710913Y-110341703D01*
X141714354Y-110363429D01*
X141718855Y-110372262D01*
X141718856Y-110372266D01*
X141724341Y-110383031D01*
X141731905Y-110401291D01*
X141738704Y-110422215D01*
X141751639Y-110440018D01*
X141761965Y-110456870D01*
X141771950Y-110476467D01*
X141794513Y-110499030D01*
X141794516Y-110499034D01*
X141824676Y-110529194D01*
X141858702Y-110591506D01*
X141860517Y-110601950D01*
X141863479Y-110624603D01*
X141921219Y-110755827D01*
X142013469Y-110865572D01*
X142132812Y-110945014D01*
X142253577Y-110982743D01*
X142312630Y-111022146D01*
X142341008Y-111087225D01*
X142342000Y-111103008D01*
X142342001Y-111894669D01*
X142342371Y-111901490D01*
X142347895Y-111952352D01*
X142351521Y-111967604D01*
X142396676Y-112088054D01*
X142405214Y-112103649D01*
X142481715Y-112205724D01*
X142494276Y-112218285D01*
X142596351Y-112294786D01*
X142611946Y-112303324D01*
X142732394Y-112348478D01*
X142747649Y-112352105D01*
X142798514Y-112357631D01*
X142805328Y-112358000D01*
X143027885Y-112358000D01*
X143043124Y-112353525D01*
X143044329Y-112352135D01*
X143046000Y-112344452D01*
X143046000Y-109660116D01*
X143041525Y-109644877D01*
X143040135Y-109643672D01*
X143032452Y-109642001D01*
X142805331Y-109642001D01*
X142798510Y-109642371D01*
X142747648Y-109647895D01*
X142732397Y-109651521D01*
X142670730Y-109674639D01*
X142599923Y-109679822D01*
X142537554Y-109645902D01*
X142503425Y-109583646D01*
X142500500Y-109556657D01*
X142500500Y-108467957D01*
X142520502Y-108399836D01*
X142574158Y-108353343D01*
X142644432Y-108343239D01*
X142677673Y-108353301D01*
X142682313Y-108356390D01*
X142819157Y-108399142D01*
X142828129Y-108399306D01*
X142828132Y-108399307D01*
X142893463Y-108400504D01*
X142962499Y-108401770D01*
X142971533Y-108399307D01*
X143092158Y-108366421D01*
X143092160Y-108366420D01*
X143100817Y-108364060D01*
X143222991Y-108289045D01*
X143234630Y-108276187D01*
X143313178Y-108189407D01*
X143319200Y-108182754D01*
X143365310Y-108087582D01*
X143377795Y-108061814D01*
X143377795Y-108061813D01*
X143381710Y-108053733D01*
X143399246Y-107949503D01*
X143422790Y-107901046D01*
X143402604Y-107869636D01*
X143398773Y-107852000D01*
X143386596Y-107766968D01*
X143386595Y-107766965D01*
X143385323Y-107758082D01*
X143325984Y-107627572D01*
X143320312Y-107620989D01*
X143300500Y-107553241D01*
X143300500Y-107461500D01*
X143320502Y-107393379D01*
X143374158Y-107346886D01*
X143426500Y-107335500D01*
X143450390Y-107335500D01*
X143454077Y-107335061D01*
X143454082Y-107335061D01*
X143467637Y-107333448D01*
X143477025Y-107332331D01*
X143485666Y-107328493D01*
X143490108Y-107327272D01*
X143561094Y-107328506D01*
X143620144Y-107367922D01*
X143648510Y-107433005D01*
X143649500Y-107448767D01*
X143649500Y-107834138D01*
X143629498Y-107902259D01*
X143626825Y-107904575D01*
X143648610Y-107955460D01*
X143649500Y-107970408D01*
X143649500Y-109097634D01*
X143649304Y-109100307D01*
X143647575Y-109105342D01*
X143648011Y-109116964D01*
X143648011Y-109116966D01*
X143649411Y-109154255D01*
X143649500Y-109158981D01*
X143649500Y-109177948D01*
X143650382Y-109182683D01*
X143650610Y-109186209D01*
X143651774Y-109217208D01*
X143656364Y-109227893D01*
X143657401Y-109232493D01*
X143660962Y-109244214D01*
X143662661Y-109248617D01*
X143664791Y-109260053D01*
X143675205Y-109276948D01*
X143677727Y-109281039D01*
X143686231Y-109297411D01*
X143692451Y-109311888D01*
X143692453Y-109311892D01*
X143695964Y-109320063D01*
X143699978Y-109324949D01*
X143702163Y-109327134D01*
X143704215Y-109329397D01*
X143704055Y-109329542D01*
X143711175Y-109338549D01*
X143717427Y-109345444D01*
X143723532Y-109355348D01*
X143743646Y-109370643D01*
X143745307Y-109371906D01*
X143758135Y-109383107D01*
X143801933Y-109426905D01*
X143835959Y-109489217D01*
X143830894Y-109560032D01*
X143788347Y-109616868D01*
X143721827Y-109641679D01*
X143712838Y-109642000D01*
X143572115Y-109642000D01*
X143556876Y-109646475D01*
X143555671Y-109647865D01*
X143554000Y-109655548D01*
X143554000Y-112339884D01*
X143564360Y-112375168D01*
X143581069Y-112401166D01*
X143581070Y-112472163D01*
X143549268Y-112525761D01*
X142712434Y-113362595D01*
X142650122Y-113396621D01*
X142623339Y-113399500D01*
X142149124Y-113399500D01*
X142081003Y-113379498D01*
X142045284Y-113344867D01*
X141995836Y-113272920D01*
X141995834Y-113272917D01*
X141991531Y-113266657D01*
X141925574Y-113207891D01*
X141879648Y-113166972D01*
X141879645Y-113166970D01*
X141873976Y-113161919D01*
X141734831Y-113088245D01*
X141718122Y-113084048D01*
X141589498Y-113051740D01*
X141589496Y-113051740D01*
X141582128Y-113049889D01*
X141574530Y-113049849D01*
X141574528Y-113049849D01*
X141507319Y-113049497D01*
X141424684Y-113049065D01*
X141417305Y-113050837D01*
X141417301Y-113050837D01*
X141278967Y-113084048D01*
X141278963Y-113084049D01*
X141271588Y-113085820D01*
X141131679Y-113158032D01*
X141125957Y-113163024D01*
X141125955Y-113163025D01*
X141018759Y-113256538D01*
X141018756Y-113256541D01*
X141013034Y-113261533D01*
X141008667Y-113267747D01*
X140930127Y-113379498D01*
X140922501Y-113390348D01*
X140865309Y-113537039D01*
X140861510Y-113565893D01*
X140848132Y-113667512D01*
X140844758Y-113693138D01*
X140862035Y-113849633D01*
X140916143Y-113997490D01*
X140920380Y-114003796D01*
X140920382Y-114003799D01*
X140928368Y-114015683D01*
X141003958Y-114128172D01*
X141120410Y-114234135D01*
X141127085Y-114237759D01*
X141252099Y-114305637D01*
X141252101Y-114305638D01*
X141258776Y-114309262D01*
X141266125Y-114311190D01*
X141403719Y-114347287D01*
X141403721Y-114347287D01*
X141411069Y-114349215D01*
X141494380Y-114350524D01*
X141560898Y-114351569D01*
X141560901Y-114351569D01*
X141568495Y-114351688D01*
X141721968Y-114316538D01*
X141862625Y-114245795D01*
X141901991Y-114212173D01*
X141976574Y-114148474D01*
X141976576Y-114148471D01*
X141982348Y-114143542D01*
X141990382Y-114132362D01*
X142047429Y-114052974D01*
X142103423Y-114009326D01*
X142149751Y-114000500D01*
X142610339Y-114000500D01*
X142678460Y-114020502D01*
X142724953Y-114074158D01*
X142735057Y-114144432D01*
X142705563Y-114209012D01*
X142699434Y-114215595D01*
X141324548Y-115590481D01*
X141322514Y-115592237D01*
X141317731Y-115594575D01*
X141309817Y-115603106D01*
X141300482Y-115610039D01*
X141298727Y-115607676D01*
X141271599Y-115625817D01*
X141271588Y-115625820D01*
X141264842Y-115629302D01*
X141264839Y-115629303D01*
X141145561Y-115690867D01*
X141131679Y-115698032D01*
X141125957Y-115703024D01*
X141125955Y-115703025D01*
X141018759Y-115796538D01*
X141018756Y-115796541D01*
X141013034Y-115801533D01*
X140922501Y-115930348D01*
X140865309Y-116077039D01*
X140844758Y-116233138D01*
X140862035Y-116389633D01*
X140916143Y-116537490D01*
X140920380Y-116543796D01*
X140920382Y-116543799D01*
X140936554Y-116567865D01*
X141003958Y-116668172D01*
X141120410Y-116774135D01*
X141127085Y-116777759D01*
X141252099Y-116845637D01*
X141252101Y-116845638D01*
X141258776Y-116849262D01*
X141266125Y-116851190D01*
X141403719Y-116887287D01*
X141403721Y-116887287D01*
X141411069Y-116889215D01*
X141494380Y-116890524D01*
X141560898Y-116891569D01*
X141560901Y-116891569D01*
X141568495Y-116891688D01*
X141721968Y-116856538D01*
X141862625Y-116785795D01*
X141909253Y-116745971D01*
X141976574Y-116688474D01*
X141976576Y-116688471D01*
X141982348Y-116683542D01*
X142074224Y-116555683D01*
X142132950Y-116409598D01*
X142148467Y-116300570D01*
X142154553Y-116257807D01*
X142154553Y-116257804D01*
X142155134Y-116253723D01*
X142155278Y-116240000D01*
X142136363Y-116083694D01*
X142104414Y-115999142D01*
X142083394Y-115943514D01*
X142083393Y-115943511D01*
X142080710Y-115936412D01*
X142076412Y-115930158D01*
X142076408Y-115930151D01*
X142037357Y-115873333D01*
X142015256Y-115805864D01*
X142033141Y-115737157D01*
X142052101Y-115712870D01*
X142414971Y-115350000D01*
X143064534Y-115350000D01*
X143084313Y-115500236D01*
X143142302Y-115640233D01*
X143234549Y-115760451D01*
X143354767Y-115852698D01*
X143494764Y-115910687D01*
X143607280Y-115925500D01*
X143682720Y-115925500D01*
X143795236Y-115910687D01*
X143935233Y-115852698D01*
X144055451Y-115760451D01*
X144147698Y-115640233D01*
X144205687Y-115500236D01*
X144225466Y-115350000D01*
X144205687Y-115199764D01*
X144147698Y-115059767D01*
X144055451Y-114939549D01*
X143935233Y-114847302D01*
X143795236Y-114789313D01*
X143787048Y-114788235D01*
X143686807Y-114775038D01*
X143686806Y-114775038D01*
X143682720Y-114774500D01*
X143607280Y-114774500D01*
X143603194Y-114775038D01*
X143603193Y-114775038D01*
X143502952Y-114788235D01*
X143494764Y-114789313D01*
X143354767Y-114847302D01*
X143234549Y-114939549D01*
X143142302Y-115059767D01*
X143084313Y-115199764D01*
X143064534Y-115350000D01*
X142414971Y-115350000D01*
X144345590Y-113419381D01*
X144389325Y-113390924D01*
X144398615Y-113387339D01*
X144410053Y-113385209D01*
X144431041Y-113372272D01*
X144447411Y-113363769D01*
X144461888Y-113357549D01*
X144461892Y-113357547D01*
X144470063Y-113354036D01*
X144474949Y-113350022D01*
X144477134Y-113347837D01*
X144479397Y-113345785D01*
X144479542Y-113345945D01*
X144488549Y-113338825D01*
X144495444Y-113332573D01*
X144505348Y-113326468D01*
X144521916Y-113304680D01*
X144533110Y-113291861D01*
X144975452Y-112849519D01*
X144977486Y-112847763D01*
X144982269Y-112845425D01*
X145015573Y-112809523D01*
X145018853Y-112806118D01*
X145032248Y-112792723D01*
X145034972Y-112788753D01*
X145037297Y-112786105D01*
X145050490Y-112771882D01*
X145058401Y-112763354D01*
X145062713Y-112752547D01*
X145065232Y-112748562D01*
X145071004Y-112737753D01*
X145072911Y-112733448D01*
X145079493Y-112723854D01*
X145085186Y-112699864D01*
X145090751Y-112682268D01*
X145096586Y-112667642D01*
X145099883Y-112659378D01*
X145100500Y-112653085D01*
X145100500Y-112650003D01*
X145100650Y-112646933D01*
X145100866Y-112646944D01*
X145102198Y-112635569D01*
X145102653Y-112626255D01*
X145105340Y-112614934D01*
X145101651Y-112587827D01*
X145100500Y-112570836D01*
X145100500Y-110540265D01*
X145120502Y-110472144D01*
X145137405Y-110451170D01*
X145384405Y-110204170D01*
X145446717Y-110170144D01*
X145517532Y-110175209D01*
X145574368Y-110217756D01*
X145599179Y-110284276D01*
X145599500Y-110293265D01*
X145599500Y-113547634D01*
X145599304Y-113550307D01*
X145597575Y-113555342D01*
X145598011Y-113566964D01*
X145598011Y-113566966D01*
X145599411Y-113604255D01*
X145599500Y-113608981D01*
X145599500Y-113627948D01*
X145600382Y-113632683D01*
X145600610Y-113636209D01*
X145601774Y-113667208D01*
X145606364Y-113677893D01*
X145607401Y-113682493D01*
X145610962Y-113694214D01*
X145612661Y-113698617D01*
X145614791Y-113710053D01*
X145620895Y-113719955D01*
X145627727Y-113731039D01*
X145636231Y-113747411D01*
X145642451Y-113761888D01*
X145642453Y-113761892D01*
X145645964Y-113770063D01*
X145649978Y-113774949D01*
X145652163Y-113777134D01*
X145654215Y-113779397D01*
X145654055Y-113779542D01*
X145661175Y-113788549D01*
X145667427Y-113795444D01*
X145673532Y-113805348D01*
X145695320Y-113821916D01*
X145708132Y-113833103D01*
X146683672Y-114808644D01*
X146717696Y-114870954D01*
X146712631Y-114941770D01*
X146670084Y-114998605D01*
X146603564Y-115023416D01*
X146558474Y-115018454D01*
X146465473Y-114990641D01*
X146456497Y-114990586D01*
X146456496Y-114990586D01*
X146396289Y-114990218D01*
X146322110Y-114989765D01*
X146184263Y-115029162D01*
X146063014Y-115105664D01*
X146057072Y-115112392D01*
X146057071Y-115112393D01*
X145985482Y-115193453D01*
X145925396Y-115231272D01*
X145854402Y-115230602D01*
X145795587Y-115192294D01*
X145738260Y-115125763D01*
X145738257Y-115125760D01*
X145732400Y-115118963D01*
X145612095Y-115040985D01*
X145474739Y-114999907D01*
X145465763Y-114999852D01*
X145465762Y-114999852D01*
X145405555Y-114999484D01*
X145331376Y-114999031D01*
X145193529Y-115038428D01*
X145072280Y-115114930D01*
X145066338Y-115121658D01*
X145066337Y-115121659D01*
X145048932Y-115141367D01*
X144977377Y-115222388D01*
X144916447Y-115352163D01*
X144915066Y-115361035D01*
X144900843Y-115452381D01*
X144870599Y-115516613D01*
X144865438Y-115522091D01*
X143979934Y-116407595D01*
X143917622Y-116441621D01*
X143890840Y-116444500D01*
X143673131Y-116444501D01*
X143653872Y-116444501D01*
X143626796Y-116447722D01*
X143618151Y-116451562D01*
X143532378Y-116489661D01*
X143521085Y-116494677D01*
X143439365Y-116576539D01*
X143434663Y-116587175D01*
X143434661Y-116587178D01*
X143402247Y-116660497D01*
X143392594Y-116682332D01*
X143389500Y-116708871D01*
X143389501Y-117196128D01*
X143392722Y-117223204D01*
X143396562Y-117231849D01*
X143399066Y-117240960D01*
X143395981Y-117241808D01*
X143403209Y-117296087D01*
X143373046Y-117360358D01*
X143343956Y-117384636D01*
X143291292Y-117416530D01*
X143279420Y-117425840D01*
X143175840Y-117529420D01*
X143166533Y-117541289D01*
X143090645Y-117666594D01*
X143084439Y-117680339D01*
X143040363Y-117820989D01*
X143037750Y-117834036D01*
X143033944Y-117875459D01*
X143036866Y-117890336D01*
X143048760Y-117893500D01*
X145090000Y-117893500D01*
X145158121Y-117913502D01*
X145204614Y-117967158D01*
X145216000Y-118019500D01*
X145216000Y-118991153D01*
X145220271Y-119005698D01*
X145232404Y-119007761D01*
X145237973Y-119007249D01*
X145251006Y-119004639D01*
X145391661Y-118960561D01*
X145405406Y-118954355D01*
X145530711Y-118878467D01*
X145542580Y-118869160D01*
X145549517Y-118862223D01*
X145611829Y-118828197D01*
X145682644Y-118833262D01*
X145739480Y-118875809D01*
X145764523Y-118946593D01*
X145765411Y-118970256D01*
X145765500Y-118974981D01*
X145765500Y-118993948D01*
X145766382Y-118998683D01*
X145766610Y-119002209D01*
X145767774Y-119033208D01*
X145772364Y-119043893D01*
X145773401Y-119048493D01*
X145776962Y-119060214D01*
X145778661Y-119064617D01*
X145780791Y-119076053D01*
X145786895Y-119085955D01*
X145793727Y-119097039D01*
X145802231Y-119113411D01*
X145808451Y-119127888D01*
X145808453Y-119127892D01*
X145811964Y-119136063D01*
X145815978Y-119140949D01*
X145818163Y-119143134D01*
X145820215Y-119145397D01*
X145820055Y-119145542D01*
X145827175Y-119154549D01*
X145833427Y-119161444D01*
X145839532Y-119171348D01*
X145858960Y-119186121D01*
X145861307Y-119187906D01*
X145874136Y-119199107D01*
X146309433Y-119634405D01*
X146343458Y-119696717D01*
X146338393Y-119767533D01*
X146295846Y-119824368D01*
X146229326Y-119849179D01*
X146220337Y-119849500D01*
X142110977Y-119849500D01*
X142042856Y-119829498D01*
X141996363Y-119775842D01*
X141986259Y-119705568D01*
X142000513Y-119674358D01*
X142006360Y-119651094D01*
X142003553Y-119642763D01*
X141512812Y-119152022D01*
X141498868Y-119144408D01*
X141497035Y-119144539D01*
X141490420Y-119148790D01*
X141002458Y-119636752D01*
X140995443Y-119649598D01*
X141019655Y-119714511D01*
X141004564Y-119783885D01*
X140954362Y-119834087D01*
X140893976Y-119849500D01*
X139776500Y-119849500D01*
X139708379Y-119829498D01*
X139661886Y-119775842D01*
X139650500Y-119723500D01*
X139650500Y-118772002D01*
X140487738Y-118772002D01*
X140503248Y-118956705D01*
X140505461Y-118968764D01*
X140556554Y-119146945D01*
X140561066Y-119158342D01*
X140621148Y-119275250D01*
X140630865Y-119285468D01*
X140637666Y-119283124D01*
X141127978Y-118792812D01*
X141134356Y-118781132D01*
X141864408Y-118781132D01*
X141864539Y-118782965D01*
X141868790Y-118789580D01*
X142356661Y-119277451D01*
X142369041Y-119284211D01*
X142375775Y-119279170D01*
X142422262Y-119197337D01*
X142427256Y-119186121D01*
X142485759Y-119010253D01*
X142488479Y-118998281D01*
X142512039Y-118811784D01*
X142512531Y-118804757D01*
X142512828Y-118783523D01*
X142512533Y-118776494D01*
X142494188Y-118589397D01*
X142491805Y-118577362D01*
X142443662Y-118417904D01*
X143033794Y-118417904D01*
X143037751Y-118460973D01*
X143040361Y-118474006D01*
X143084439Y-118614661D01*
X143090645Y-118628406D01*
X143166533Y-118753711D01*
X143175840Y-118765580D01*
X143279420Y-118869160D01*
X143291289Y-118878467D01*
X143416594Y-118954355D01*
X143430339Y-118960561D01*
X143570994Y-119004639D01*
X143584027Y-119007249D01*
X143587961Y-119007611D01*
X143602835Y-119004688D01*
X143606000Y-118992793D01*
X143606000Y-118991153D01*
X144114000Y-118991153D01*
X144118271Y-119005698D01*
X144130404Y-119007761D01*
X144135973Y-119007249D01*
X144149006Y-119004639D01*
X144289661Y-118960561D01*
X144303408Y-118954354D01*
X144345727Y-118928724D01*
X144414357Y-118910544D01*
X144476273Y-118928724D01*
X144518592Y-118954354D01*
X144532339Y-118960561D01*
X144672994Y-119004639D01*
X144686027Y-119007249D01*
X144689961Y-119007611D01*
X144704835Y-119004688D01*
X144708000Y-118992793D01*
X144708000Y-118419615D01*
X144703525Y-118404376D01*
X144702135Y-118403171D01*
X144694452Y-118401500D01*
X144132115Y-118401500D01*
X144116876Y-118405975D01*
X144115671Y-118407365D01*
X144114000Y-118415048D01*
X144114000Y-118991153D01*
X143606000Y-118991153D01*
X143606000Y-118419615D01*
X143601525Y-118404376D01*
X143600135Y-118403171D01*
X143592452Y-118401500D01*
X143050402Y-118401500D01*
X143035857Y-118405771D01*
X143033794Y-118417904D01*
X142443662Y-118417904D01*
X142438233Y-118399924D01*
X142433559Y-118388584D01*
X142378562Y-118285148D01*
X142368702Y-118275067D01*
X142361575Y-118277635D01*
X141872022Y-118767188D01*
X141864408Y-118781132D01*
X141134356Y-118781132D01*
X141135592Y-118778868D01*
X141135461Y-118777035D01*
X141131210Y-118770420D01*
X140643121Y-118282331D01*
X140630741Y-118275571D01*
X140624353Y-118280353D01*
X140571997Y-118375586D01*
X140567166Y-118386858D01*
X140511120Y-118563538D01*
X140508570Y-118575532D01*
X140487909Y-118759733D01*
X140487738Y-118772002D01*
X139650500Y-118772002D01*
X139650500Y-117911101D01*
X140994820Y-117911101D01*
X140997274Y-117918064D01*
X141487188Y-118407978D01*
X141501132Y-118415592D01*
X141502965Y-118415461D01*
X141509580Y-118411210D01*
X141997834Y-117922956D01*
X142004594Y-117910576D01*
X141999935Y-117904353D01*
X141897924Y-117849196D01*
X141886619Y-117844444D01*
X141709554Y-117789633D01*
X141697541Y-117787167D01*
X141513199Y-117767792D01*
X141500931Y-117767707D01*
X141316345Y-117784505D01*
X141304296Y-117786803D01*
X141126483Y-117839137D01*
X141115108Y-117843732D01*
X141004969Y-117901312D01*
X140994820Y-117911101D01*
X139650500Y-117911101D01*
X139650500Y-105360459D01*
X140151944Y-105360459D01*
X140154866Y-105375336D01*
X140166760Y-105378500D01*
X140705885Y-105378500D01*
X140721124Y-105374025D01*
X140722329Y-105372635D01*
X140724000Y-105364952D01*
X140724000Y-105360385D01*
X141232000Y-105360385D01*
X141236475Y-105375624D01*
X141237865Y-105376829D01*
X141245548Y-105378500D01*
X141749095Y-105378500D01*
X141817216Y-105398502D01*
X141831607Y-105409275D01*
X141848755Y-105424134D01*
X141849124Y-105424025D01*
X141850329Y-105422635D01*
X141852000Y-105414952D01*
X141852000Y-104829342D01*
X141847729Y-104814797D01*
X141835698Y-104812752D01*
X141822912Y-104815313D01*
X141683411Y-104859029D01*
X141669665Y-104865236D01*
X141643493Y-104881086D01*
X141574864Y-104899265D01*
X141512951Y-104881086D01*
X141421410Y-104825647D01*
X141407661Y-104819439D01*
X141267006Y-104775361D01*
X141253973Y-104772751D01*
X141250039Y-104772389D01*
X141235165Y-104775312D01*
X141232000Y-104787207D01*
X141232000Y-105360385D01*
X140724000Y-105360385D01*
X140724000Y-104788847D01*
X140719729Y-104774302D01*
X140707596Y-104772239D01*
X140702027Y-104772751D01*
X140688994Y-104775361D01*
X140548339Y-104819439D01*
X140534594Y-104825645D01*
X140409289Y-104901533D01*
X140397420Y-104910840D01*
X140293840Y-105014420D01*
X140284533Y-105026289D01*
X140208645Y-105151594D01*
X140202439Y-105165339D01*
X140158363Y-105305989D01*
X140155750Y-105319036D01*
X140151944Y-105360459D01*
X139650500Y-105360459D01*
X139650500Y-102776500D01*
X139670502Y-102708379D01*
X139724158Y-102661886D01*
X139776500Y-102650500D01*
X160723500Y-102650500D01*
X160791621Y-102670502D01*
G37*
%TD.AperFunction*%
%TA.AperFunction,Conductor*%
G36*
X151550038Y-112120502D02*
G01*
X151571012Y-112137405D01*
X152962595Y-113528988D01*
X152996621Y-113591300D01*
X152999500Y-113618083D01*
X152999500Y-115013506D01*
X152979498Y-115081627D01*
X152925842Y-115128120D01*
X152855568Y-115138224D01*
X152790988Y-115108730D01*
X152750917Y-115042650D01*
X152748479Y-115032397D01*
X152703324Y-114911946D01*
X152694786Y-114896351D01*
X152618285Y-114794276D01*
X152605724Y-114781715D01*
X152503649Y-114705214D01*
X152488054Y-114696676D01*
X152367606Y-114651522D01*
X152352351Y-114647895D01*
X152301486Y-114642369D01*
X152294672Y-114642000D01*
X152072115Y-114642000D01*
X152056876Y-114646475D01*
X152055671Y-114647865D01*
X152054000Y-114655548D01*
X152054000Y-117339884D01*
X152058475Y-117355123D01*
X152059865Y-117356328D01*
X152067548Y-117357999D01*
X152294669Y-117357999D01*
X152301490Y-117357629D01*
X152352352Y-117352105D01*
X152367604Y-117348479D01*
X152488054Y-117303324D01*
X152503649Y-117294786D01*
X152605724Y-117218285D01*
X152618285Y-117205724D01*
X152694786Y-117103649D01*
X152703324Y-117088054D01*
X152748478Y-116967606D01*
X152750917Y-116957349D01*
X152786134Y-116895703D01*
X152849089Y-116862882D01*
X152919795Y-116869308D01*
X152975802Y-116912940D01*
X152999500Y-116986495D01*
X152999500Y-117460933D01*
X153002564Y-117470364D01*
X153002565Y-117470368D01*
X153006297Y-117481853D01*
X153010913Y-117501078D01*
X153014354Y-117522804D01*
X153018855Y-117531637D01*
X153018856Y-117531641D01*
X153024341Y-117542406D01*
X153031905Y-117560666D01*
X153038703Y-117581588D01*
X153034937Y-117582812D01*
X153044494Y-117633472D01*
X153017847Y-117699278D01*
X152959853Y-117740232D01*
X152919113Y-117747000D01*
X149816323Y-117747000D01*
X149748202Y-117726998D01*
X149727305Y-117710172D01*
X149714696Y-117697585D01*
X149714694Y-117697583D01*
X149706461Y-117689365D01*
X149651893Y-117665241D01*
X149597680Y-117619405D01*
X149576852Y-117551532D01*
X149596026Y-117483173D01*
X149651694Y-117434851D01*
X149696282Y-117415046D01*
X149706915Y-117410323D01*
X149732558Y-117384636D01*
X149759148Y-117357999D01*
X149788635Y-117328461D01*
X149793338Y-117317824D01*
X149793339Y-117317822D01*
X149831575Y-117231334D01*
X149831575Y-117231333D01*
X149835406Y-117222668D01*
X149838500Y-117196129D01*
X149838499Y-116894669D01*
X150842001Y-116894669D01*
X150842371Y-116901490D01*
X150847895Y-116952352D01*
X150851521Y-116967604D01*
X150896676Y-117088054D01*
X150905214Y-117103649D01*
X150981715Y-117205724D01*
X150994276Y-117218285D01*
X151096351Y-117294786D01*
X151111946Y-117303324D01*
X151232394Y-117348478D01*
X151247649Y-117352105D01*
X151298514Y-117357631D01*
X151305328Y-117358000D01*
X151527885Y-117358000D01*
X151543124Y-117353525D01*
X151544329Y-117352135D01*
X151546000Y-117344452D01*
X151546000Y-116272115D01*
X151541525Y-116256876D01*
X151540135Y-116255671D01*
X151532452Y-116254000D01*
X150860116Y-116254000D01*
X150844877Y-116258475D01*
X150843672Y-116259865D01*
X150842001Y-116267548D01*
X150842001Y-116894669D01*
X149838499Y-116894669D01*
X149838499Y-116708872D01*
X149835278Y-116681796D01*
X149833748Y-116678352D01*
X149834928Y-116610381D01*
X149866095Y-116558876D01*
X150195566Y-116229406D01*
X150575460Y-115849512D01*
X150577486Y-115847763D01*
X150582269Y-115845425D01*
X150597238Y-115829289D01*
X150615560Y-115809537D01*
X150618840Y-115806132D01*
X150632248Y-115792724D01*
X150634978Y-115788745D01*
X150637286Y-115786116D01*
X150658401Y-115763354D01*
X150658654Y-115762721D01*
X150706617Y-115720531D01*
X150776814Y-115709905D01*
X150842322Y-115739527D01*
X150847863Y-115744328D01*
X150855548Y-115746000D01*
X151527885Y-115746000D01*
X151543124Y-115741525D01*
X151544329Y-115740135D01*
X151546000Y-115732452D01*
X151546000Y-114660116D01*
X151541525Y-114644877D01*
X151540135Y-114643672D01*
X151532452Y-114642001D01*
X151305331Y-114642001D01*
X151298510Y-114642371D01*
X151247648Y-114647895D01*
X151232396Y-114651521D01*
X151111946Y-114696676D01*
X151096351Y-114705214D01*
X150994276Y-114781715D01*
X150981715Y-114794276D01*
X150927326Y-114866847D01*
X150870467Y-114909362D01*
X150799648Y-114914388D01*
X150737355Y-114880328D01*
X150703365Y-114817997D01*
X150700500Y-114791282D01*
X150700500Y-114376661D01*
X150720502Y-114308540D01*
X150737405Y-114287566D01*
X151279468Y-113745503D01*
X151341780Y-113711477D01*
X151406134Y-113714330D01*
X151519157Y-113749640D01*
X151528129Y-113749804D01*
X151528132Y-113749805D01*
X151593463Y-113751002D01*
X151662499Y-113752268D01*
X151671533Y-113749805D01*
X151792158Y-113716919D01*
X151792160Y-113716918D01*
X151800817Y-113714558D01*
X151922991Y-113639543D01*
X151942416Y-113618083D01*
X152013178Y-113539905D01*
X152019200Y-113533252D01*
X152081710Y-113404231D01*
X152105496Y-113262852D01*
X152105647Y-113250498D01*
X152092184Y-113156488D01*
X152086596Y-113117466D01*
X152086595Y-113117463D01*
X152085323Y-113108580D01*
X152076558Y-113089301D01*
X152059869Y-113052597D01*
X152025984Y-112978070D01*
X151949275Y-112889045D01*
X151938260Y-112876261D01*
X151938257Y-112876258D01*
X151932400Y-112869461D01*
X151812095Y-112791483D01*
X151674739Y-112750405D01*
X151665763Y-112750350D01*
X151665762Y-112750350D01*
X151601730Y-112749959D01*
X151531376Y-112749529D01*
X151528349Y-112750394D01*
X151461047Y-112740261D01*
X151407701Y-112693413D01*
X151388151Y-112625161D01*
X151389894Y-112605093D01*
X151404689Y-112517151D01*
X151404689Y-112517150D01*
X151405496Y-112512354D01*
X151405647Y-112500000D01*
X151385323Y-112358082D01*
X151380957Y-112348478D01*
X151356544Y-112294786D01*
X151349208Y-112278651D01*
X151339222Y-112208360D01*
X151368822Y-112143829D01*
X151428612Y-112105545D01*
X151463909Y-112100500D01*
X151481917Y-112100500D01*
X151550038Y-112120502D01*
G37*
%TD.AperFunction*%
%TD*%
M02*
