%TF.GenerationSoftware,KiCad,Pcbnew,(6.0.9)*%
%TF.CreationDate,2023-01-31T14:39:00+01:00*%
%TF.ProjectId,keyring_beerclock,6b657972-696e-4675-9f62-656572636c6f,rev?*%
%TF.SameCoordinates,Original*%
%TF.FileFunction,Drillmap*%
%TF.FilePolarity,Positive*%
%FSLAX45Y45*%
G04 Gerber Fmt 4.5, Leading zero omitted, Abs format (unit mm)*
G04 Created by KiCad (PCBNEW (6.0.9)) date 2023-01-31 14:39:00*
%MOMM*%
%LPD*%
G01*
G04 APERTURE LIST*
%ADD10C,0.100000*%
%ADD11C,0.200000*%
%ADD12C,0.065000*%
%ADD13C,0.090000*%
G04 APERTURE END LIST*
D10*
X15700000Y-10550000D02*
X15700000Y-11700000D01*
X16100000Y-10250000D02*
X16100000Y-10550000D01*
X16100000Y-10250000D02*
X13950000Y-10250000D01*
X15700000Y-10550000D02*
X16100000Y-10550000D01*
X16100000Y-12000000D02*
X13950000Y-12000000D01*
X16100000Y-11700000D02*
X16100000Y-12000000D01*
X15700000Y-11700000D02*
X16100000Y-11700000D01*
X13950000Y-12000000D02*
X13950000Y-10250000D01*
D11*
D12*
X14332000Y-11502500D02*
X14397000Y-11567500D01*
X14397000Y-11502500D02*
X14332000Y-11567500D01*
X14910000Y-11502500D02*
X14975000Y-11567500D01*
X14975000Y-11502500D02*
X14910000Y-11567500D01*
D13*
X14351000Y-10431000D02*
G75*
G03*
X14351000Y-10431000I-45000J0D01*
G01*
X14651000Y-10431000D02*
G75*
G03*
X14651000Y-10431000I-45000J0D01*
G01*
D11*
X14202619Y-12315476D02*
X14202619Y-12115476D01*
X14250238Y-12115476D01*
X14278809Y-12125000D01*
X14297857Y-12144048D01*
X14307381Y-12163095D01*
X14316905Y-12201190D01*
X14316905Y-12229762D01*
X14307381Y-12267857D01*
X14297857Y-12286905D01*
X14278809Y-12305952D01*
X14250238Y-12315476D01*
X14202619Y-12315476D01*
X14402619Y-12315476D02*
X14402619Y-12182143D01*
X14402619Y-12220238D02*
X14412143Y-12201190D01*
X14421667Y-12191667D01*
X14440714Y-12182143D01*
X14459762Y-12182143D01*
X14526428Y-12315476D02*
X14526428Y-12182143D01*
X14526428Y-12115476D02*
X14516905Y-12125000D01*
X14526428Y-12134524D01*
X14535952Y-12125000D01*
X14526428Y-12115476D01*
X14526428Y-12134524D01*
X14650238Y-12315476D02*
X14631190Y-12305952D01*
X14621667Y-12286905D01*
X14621667Y-12115476D01*
X14755000Y-12315476D02*
X14735952Y-12305952D01*
X14726428Y-12286905D01*
X14726428Y-12115476D01*
X14983571Y-12315476D02*
X14983571Y-12115476D01*
X15050238Y-12258333D01*
X15116905Y-12115476D01*
X15116905Y-12315476D01*
X15297857Y-12315476D02*
X15297857Y-12210714D01*
X15288333Y-12191667D01*
X15269286Y-12182143D01*
X15231190Y-12182143D01*
X15212143Y-12191667D01*
X15297857Y-12305952D02*
X15278809Y-12315476D01*
X15231190Y-12315476D01*
X15212143Y-12305952D01*
X15202619Y-12286905D01*
X15202619Y-12267857D01*
X15212143Y-12248809D01*
X15231190Y-12239286D01*
X15278809Y-12239286D01*
X15297857Y-12229762D01*
X15393095Y-12182143D02*
X15393095Y-12382143D01*
X15393095Y-12191667D02*
X15412143Y-12182143D01*
X15450238Y-12182143D01*
X15469286Y-12191667D01*
X15478809Y-12201190D01*
X15488333Y-12220238D01*
X15488333Y-12277381D01*
X15478809Y-12296428D01*
X15469286Y-12305952D01*
X15450238Y-12315476D01*
X15412143Y-12315476D01*
X15393095Y-12305952D01*
X15574048Y-12296428D02*
X15583571Y-12305952D01*
X15574048Y-12315476D01*
X15564524Y-12305952D01*
X15574048Y-12296428D01*
X15574048Y-12315476D01*
X15574048Y-12191667D02*
X15583571Y-12201190D01*
X15574048Y-12210714D01*
X15564524Y-12201190D01*
X15574048Y-12191667D01*
X15574048Y-12210714D01*
D12*
X13880000Y-12612500D02*
X13945000Y-12677500D01*
X13945000Y-12612500D02*
X13880000Y-12677500D01*
D11*
X14240714Y-12535476D02*
X14259762Y-12535476D01*
X14278809Y-12545000D01*
X14288333Y-12554524D01*
X14297857Y-12573571D01*
X14307381Y-12611667D01*
X14307381Y-12659286D01*
X14297857Y-12697381D01*
X14288333Y-12716428D01*
X14278809Y-12725952D01*
X14259762Y-12735476D01*
X14240714Y-12735476D01*
X14221667Y-12725952D01*
X14212143Y-12716428D01*
X14202619Y-12697381D01*
X14193095Y-12659286D01*
X14193095Y-12611667D01*
X14202619Y-12573571D01*
X14212143Y-12554524D01*
X14221667Y-12545000D01*
X14240714Y-12535476D01*
X14393095Y-12716428D02*
X14402619Y-12725952D01*
X14393095Y-12735476D01*
X14383571Y-12725952D01*
X14393095Y-12716428D01*
X14393095Y-12735476D01*
X14574048Y-12535476D02*
X14535952Y-12535476D01*
X14516905Y-12545000D01*
X14507381Y-12554524D01*
X14488333Y-12583095D01*
X14478809Y-12621190D01*
X14478809Y-12697381D01*
X14488333Y-12716428D01*
X14497857Y-12725952D01*
X14516905Y-12735476D01*
X14555000Y-12735476D01*
X14574048Y-12725952D01*
X14583571Y-12716428D01*
X14593095Y-12697381D01*
X14593095Y-12649762D01*
X14583571Y-12630714D01*
X14574048Y-12621190D01*
X14555000Y-12611667D01*
X14516905Y-12611667D01*
X14497857Y-12621190D01*
X14488333Y-12630714D01*
X14478809Y-12649762D01*
X14774048Y-12535476D02*
X14678809Y-12535476D01*
X14669286Y-12630714D01*
X14678809Y-12621190D01*
X14697857Y-12611667D01*
X14745476Y-12611667D01*
X14764524Y-12621190D01*
X14774048Y-12630714D01*
X14783571Y-12649762D01*
X14783571Y-12697381D01*
X14774048Y-12716428D01*
X14764524Y-12725952D01*
X14745476Y-12735476D01*
X14697857Y-12735476D01*
X14678809Y-12725952D01*
X14669286Y-12716428D01*
X14907381Y-12535476D02*
X14926428Y-12535476D01*
X14945476Y-12545000D01*
X14955000Y-12554524D01*
X14964524Y-12573571D01*
X14974048Y-12611667D01*
X14974048Y-12659286D01*
X14964524Y-12697381D01*
X14955000Y-12716428D01*
X14945476Y-12725952D01*
X14926428Y-12735476D01*
X14907381Y-12735476D01*
X14888333Y-12725952D01*
X14878809Y-12716428D01*
X14869286Y-12697381D01*
X14859762Y-12659286D01*
X14859762Y-12611667D01*
X14869286Y-12573571D01*
X14878809Y-12554524D01*
X14888333Y-12545000D01*
X14907381Y-12535476D01*
X15059762Y-12735476D02*
X15059762Y-12602143D01*
X15059762Y-12621190D02*
X15069286Y-12611667D01*
X15088333Y-12602143D01*
X15116905Y-12602143D01*
X15135952Y-12611667D01*
X15145476Y-12630714D01*
X15145476Y-12735476D01*
X15145476Y-12630714D02*
X15155000Y-12611667D01*
X15174048Y-12602143D01*
X15202619Y-12602143D01*
X15221667Y-12611667D01*
X15231190Y-12630714D01*
X15231190Y-12735476D01*
X15326428Y-12735476D02*
X15326428Y-12602143D01*
X15326428Y-12621190D02*
X15335952Y-12611667D01*
X15355000Y-12602143D01*
X15383571Y-12602143D01*
X15402619Y-12611667D01*
X15412143Y-12630714D01*
X15412143Y-12735476D01*
X15412143Y-12630714D02*
X15421667Y-12611667D01*
X15440714Y-12602143D01*
X15469286Y-12602143D01*
X15488333Y-12611667D01*
X15497857Y-12630714D01*
X15497857Y-12735476D01*
X15888333Y-12525952D02*
X15716905Y-12783095D01*
X16145476Y-12535476D02*
X16164524Y-12535476D01*
X16183571Y-12545000D01*
X16193095Y-12554524D01*
X16202619Y-12573571D01*
X16212143Y-12611667D01*
X16212143Y-12659286D01*
X16202619Y-12697381D01*
X16193095Y-12716428D01*
X16183571Y-12725952D01*
X16164524Y-12735476D01*
X16145476Y-12735476D01*
X16126428Y-12725952D01*
X16116905Y-12716428D01*
X16107381Y-12697381D01*
X16097857Y-12659286D01*
X16097857Y-12611667D01*
X16107381Y-12573571D01*
X16116905Y-12554524D01*
X16126428Y-12545000D01*
X16145476Y-12535476D01*
X16297857Y-12716428D02*
X16307381Y-12725952D01*
X16297857Y-12735476D01*
X16288333Y-12725952D01*
X16297857Y-12716428D01*
X16297857Y-12735476D01*
X16431190Y-12535476D02*
X16450238Y-12535476D01*
X16469286Y-12545000D01*
X16478809Y-12554524D01*
X16488333Y-12573571D01*
X16497857Y-12611667D01*
X16497857Y-12659286D01*
X16488333Y-12697381D01*
X16478809Y-12716428D01*
X16469286Y-12725952D01*
X16450238Y-12735476D01*
X16431190Y-12735476D01*
X16412143Y-12725952D01*
X16402619Y-12716428D01*
X16393095Y-12697381D01*
X16383571Y-12659286D01*
X16383571Y-12611667D01*
X16393095Y-12573571D01*
X16402619Y-12554524D01*
X16412143Y-12545000D01*
X16431190Y-12535476D01*
X16574048Y-12554524D02*
X16583571Y-12545000D01*
X16602619Y-12535476D01*
X16650238Y-12535476D01*
X16669286Y-12545000D01*
X16678809Y-12554524D01*
X16688333Y-12573571D01*
X16688333Y-12592619D01*
X16678809Y-12621190D01*
X16564524Y-12735476D01*
X16688333Y-12735476D01*
X16869286Y-12535476D02*
X16774048Y-12535476D01*
X16764524Y-12630714D01*
X16774048Y-12621190D01*
X16793095Y-12611667D01*
X16840714Y-12611667D01*
X16859762Y-12621190D01*
X16869286Y-12630714D01*
X16878810Y-12649762D01*
X16878810Y-12697381D01*
X16869286Y-12716428D01*
X16859762Y-12725952D01*
X16840714Y-12735476D01*
X16793095Y-12735476D01*
X16774048Y-12725952D01*
X16764524Y-12716428D01*
X17050238Y-12535476D02*
X17012143Y-12535476D01*
X16993095Y-12545000D01*
X16983571Y-12554524D01*
X16964524Y-12583095D01*
X16955000Y-12621190D01*
X16955000Y-12697381D01*
X16964524Y-12716428D01*
X16974048Y-12725952D01*
X16993095Y-12735476D01*
X17031190Y-12735476D01*
X17050238Y-12725952D01*
X17059762Y-12716428D01*
X17069286Y-12697381D01*
X17069286Y-12649762D01*
X17059762Y-12630714D01*
X17050238Y-12621190D01*
X17031190Y-12611667D01*
X16993095Y-12611667D01*
X16974048Y-12621190D01*
X16964524Y-12630714D01*
X16955000Y-12649762D01*
X17145476Y-12535476D02*
X17145476Y-12573571D01*
X17221667Y-12535476D02*
X17221667Y-12573571D01*
X17516905Y-12811667D02*
X17507381Y-12802143D01*
X17488333Y-12773571D01*
X17478810Y-12754524D01*
X17469286Y-12725952D01*
X17459762Y-12678333D01*
X17459762Y-12640238D01*
X17469286Y-12592619D01*
X17478810Y-12564048D01*
X17488333Y-12545000D01*
X17507381Y-12516428D01*
X17516905Y-12506905D01*
X17583571Y-12554524D02*
X17593095Y-12545000D01*
X17612143Y-12535476D01*
X17659762Y-12535476D01*
X17678810Y-12545000D01*
X17688333Y-12554524D01*
X17697857Y-12573571D01*
X17697857Y-12592619D01*
X17688333Y-12621190D01*
X17574048Y-12735476D01*
X17697857Y-12735476D01*
X17935952Y-12735476D02*
X17935952Y-12535476D01*
X18021667Y-12735476D02*
X18021667Y-12630714D01*
X18012143Y-12611667D01*
X17993095Y-12602143D01*
X17964524Y-12602143D01*
X17945476Y-12611667D01*
X17935952Y-12621190D01*
X18145476Y-12735476D02*
X18126429Y-12725952D01*
X18116905Y-12716428D01*
X18107381Y-12697381D01*
X18107381Y-12640238D01*
X18116905Y-12621190D01*
X18126429Y-12611667D01*
X18145476Y-12602143D01*
X18174048Y-12602143D01*
X18193095Y-12611667D01*
X18202619Y-12621190D01*
X18212143Y-12640238D01*
X18212143Y-12697381D01*
X18202619Y-12716428D01*
X18193095Y-12725952D01*
X18174048Y-12735476D01*
X18145476Y-12735476D01*
X18326429Y-12735476D02*
X18307381Y-12725952D01*
X18297857Y-12706905D01*
X18297857Y-12535476D01*
X18478810Y-12725952D02*
X18459762Y-12735476D01*
X18421667Y-12735476D01*
X18402619Y-12725952D01*
X18393095Y-12706905D01*
X18393095Y-12630714D01*
X18402619Y-12611667D01*
X18421667Y-12602143D01*
X18459762Y-12602143D01*
X18478810Y-12611667D01*
X18488333Y-12630714D01*
X18488333Y-12649762D01*
X18393095Y-12668809D01*
X18564524Y-12725952D02*
X18583571Y-12735476D01*
X18621667Y-12735476D01*
X18640714Y-12725952D01*
X18650238Y-12706905D01*
X18650238Y-12697381D01*
X18640714Y-12678333D01*
X18621667Y-12668809D01*
X18593095Y-12668809D01*
X18574048Y-12659286D01*
X18564524Y-12640238D01*
X18564524Y-12630714D01*
X18574048Y-12611667D01*
X18593095Y-12602143D01*
X18621667Y-12602143D01*
X18640714Y-12611667D01*
X18716905Y-12811667D02*
X18726429Y-12802143D01*
X18745476Y-12773571D01*
X18755000Y-12754524D01*
X18764524Y-12725952D01*
X18774048Y-12678333D01*
X18774048Y-12640238D01*
X18764524Y-12592619D01*
X18755000Y-12564048D01*
X18745476Y-12545000D01*
X18726429Y-12516428D01*
X18716905Y-12506905D01*
X19078810Y-12811667D02*
X19069286Y-12802143D01*
X19050238Y-12773571D01*
X19040714Y-12754524D01*
X19031190Y-12725952D01*
X19021667Y-12678333D01*
X19021667Y-12640238D01*
X19031190Y-12592619D01*
X19040714Y-12564048D01*
X19050238Y-12545000D01*
X19069286Y-12516428D01*
X19078810Y-12506905D01*
X19155000Y-12602143D02*
X19155000Y-12735476D01*
X19155000Y-12621190D02*
X19164524Y-12611667D01*
X19183571Y-12602143D01*
X19212143Y-12602143D01*
X19231190Y-12611667D01*
X19240714Y-12630714D01*
X19240714Y-12735476D01*
X19364524Y-12735476D02*
X19345476Y-12725952D01*
X19335952Y-12716428D01*
X19326429Y-12697381D01*
X19326429Y-12640238D01*
X19335952Y-12621190D01*
X19345476Y-12611667D01*
X19364524Y-12602143D01*
X19393095Y-12602143D01*
X19412143Y-12611667D01*
X19421667Y-12621190D01*
X19431190Y-12640238D01*
X19431190Y-12697381D01*
X19421667Y-12716428D01*
X19412143Y-12725952D01*
X19393095Y-12735476D01*
X19364524Y-12735476D01*
X19488333Y-12602143D02*
X19564524Y-12602143D01*
X19516905Y-12535476D02*
X19516905Y-12706905D01*
X19526429Y-12725952D01*
X19545476Y-12735476D01*
X19564524Y-12735476D01*
X19783571Y-12602143D02*
X19783571Y-12802143D01*
X19783571Y-12611667D02*
X19802619Y-12602143D01*
X19840714Y-12602143D01*
X19859762Y-12611667D01*
X19869286Y-12621190D01*
X19878810Y-12640238D01*
X19878810Y-12697381D01*
X19869286Y-12716428D01*
X19859762Y-12725952D01*
X19840714Y-12735476D01*
X19802619Y-12735476D01*
X19783571Y-12725952D01*
X19993095Y-12735476D02*
X19974048Y-12725952D01*
X19964524Y-12706905D01*
X19964524Y-12535476D01*
X20155000Y-12735476D02*
X20155000Y-12630714D01*
X20145476Y-12611667D01*
X20126429Y-12602143D01*
X20088333Y-12602143D01*
X20069286Y-12611667D01*
X20155000Y-12725952D02*
X20135952Y-12735476D01*
X20088333Y-12735476D01*
X20069286Y-12725952D01*
X20059762Y-12706905D01*
X20059762Y-12687857D01*
X20069286Y-12668809D01*
X20088333Y-12659286D01*
X20135952Y-12659286D01*
X20155000Y-12649762D01*
X20221667Y-12602143D02*
X20297857Y-12602143D01*
X20250238Y-12535476D02*
X20250238Y-12706905D01*
X20259762Y-12725952D01*
X20278810Y-12735476D01*
X20297857Y-12735476D01*
X20440714Y-12725952D02*
X20421667Y-12735476D01*
X20383571Y-12735476D01*
X20364524Y-12725952D01*
X20355000Y-12706905D01*
X20355000Y-12630714D01*
X20364524Y-12611667D01*
X20383571Y-12602143D01*
X20421667Y-12602143D01*
X20440714Y-12611667D01*
X20450238Y-12630714D01*
X20450238Y-12649762D01*
X20355000Y-12668809D01*
X20621667Y-12735476D02*
X20621667Y-12535476D01*
X20621667Y-12725952D02*
X20602619Y-12735476D01*
X20564524Y-12735476D01*
X20545476Y-12725952D01*
X20535952Y-12716428D01*
X20526429Y-12697381D01*
X20526429Y-12640238D01*
X20535952Y-12621190D01*
X20545476Y-12611667D01*
X20564524Y-12602143D01*
X20602619Y-12602143D01*
X20621667Y-12611667D01*
X20697857Y-12811667D02*
X20707381Y-12802143D01*
X20726429Y-12773571D01*
X20735952Y-12754524D01*
X20745476Y-12725952D01*
X20755000Y-12678333D01*
X20755000Y-12640238D01*
X20745476Y-12592619D01*
X20735952Y-12564048D01*
X20726429Y-12545000D01*
X20707381Y-12516428D01*
X20697857Y-12506905D01*
D13*
X13945000Y-12909000D02*
G75*
G03*
X13945000Y-12909000I-45000J0D01*
G01*
D11*
X14240714Y-12799476D02*
X14259762Y-12799476D01*
X14278809Y-12809000D01*
X14288333Y-12818524D01*
X14297857Y-12837571D01*
X14307381Y-12875667D01*
X14307381Y-12923286D01*
X14297857Y-12961381D01*
X14288333Y-12980428D01*
X14278809Y-12989952D01*
X14259762Y-12999476D01*
X14240714Y-12999476D01*
X14221667Y-12989952D01*
X14212143Y-12980428D01*
X14202619Y-12961381D01*
X14193095Y-12923286D01*
X14193095Y-12875667D01*
X14202619Y-12837571D01*
X14212143Y-12818524D01*
X14221667Y-12809000D01*
X14240714Y-12799476D01*
X14393095Y-12980428D02*
X14402619Y-12989952D01*
X14393095Y-12999476D01*
X14383571Y-12989952D01*
X14393095Y-12980428D01*
X14393095Y-12999476D01*
X14497857Y-12999476D02*
X14535952Y-12999476D01*
X14555000Y-12989952D01*
X14564524Y-12980428D01*
X14583571Y-12951857D01*
X14593095Y-12913762D01*
X14593095Y-12837571D01*
X14583571Y-12818524D01*
X14574048Y-12809000D01*
X14555000Y-12799476D01*
X14516905Y-12799476D01*
X14497857Y-12809000D01*
X14488333Y-12818524D01*
X14478809Y-12837571D01*
X14478809Y-12885190D01*
X14488333Y-12904238D01*
X14497857Y-12913762D01*
X14516905Y-12923286D01*
X14555000Y-12923286D01*
X14574048Y-12913762D01*
X14583571Y-12904238D01*
X14593095Y-12885190D01*
X14716905Y-12799476D02*
X14735952Y-12799476D01*
X14755000Y-12809000D01*
X14764524Y-12818524D01*
X14774048Y-12837571D01*
X14783571Y-12875667D01*
X14783571Y-12923286D01*
X14774048Y-12961381D01*
X14764524Y-12980428D01*
X14755000Y-12989952D01*
X14735952Y-12999476D01*
X14716905Y-12999476D01*
X14697857Y-12989952D01*
X14688333Y-12980428D01*
X14678809Y-12961381D01*
X14669286Y-12923286D01*
X14669286Y-12875667D01*
X14678809Y-12837571D01*
X14688333Y-12818524D01*
X14697857Y-12809000D01*
X14716905Y-12799476D01*
X14907381Y-12799476D02*
X14926428Y-12799476D01*
X14945476Y-12809000D01*
X14955000Y-12818524D01*
X14964524Y-12837571D01*
X14974048Y-12875667D01*
X14974048Y-12923286D01*
X14964524Y-12961381D01*
X14955000Y-12980428D01*
X14945476Y-12989952D01*
X14926428Y-12999476D01*
X14907381Y-12999476D01*
X14888333Y-12989952D01*
X14878809Y-12980428D01*
X14869286Y-12961381D01*
X14859762Y-12923286D01*
X14859762Y-12875667D01*
X14869286Y-12837571D01*
X14878809Y-12818524D01*
X14888333Y-12809000D01*
X14907381Y-12799476D01*
X15059762Y-12999476D02*
X15059762Y-12866143D01*
X15059762Y-12885190D02*
X15069286Y-12875667D01*
X15088333Y-12866143D01*
X15116905Y-12866143D01*
X15135952Y-12875667D01*
X15145476Y-12894714D01*
X15145476Y-12999476D01*
X15145476Y-12894714D02*
X15155000Y-12875667D01*
X15174048Y-12866143D01*
X15202619Y-12866143D01*
X15221667Y-12875667D01*
X15231190Y-12894714D01*
X15231190Y-12999476D01*
X15326428Y-12999476D02*
X15326428Y-12866143D01*
X15326428Y-12885190D02*
X15335952Y-12875667D01*
X15355000Y-12866143D01*
X15383571Y-12866143D01*
X15402619Y-12875667D01*
X15412143Y-12894714D01*
X15412143Y-12999476D01*
X15412143Y-12894714D02*
X15421667Y-12875667D01*
X15440714Y-12866143D01*
X15469286Y-12866143D01*
X15488333Y-12875667D01*
X15497857Y-12894714D01*
X15497857Y-12999476D01*
X15888333Y-12789952D02*
X15716905Y-13047095D01*
X16145476Y-12799476D02*
X16164524Y-12799476D01*
X16183571Y-12809000D01*
X16193095Y-12818524D01*
X16202619Y-12837571D01*
X16212143Y-12875667D01*
X16212143Y-12923286D01*
X16202619Y-12961381D01*
X16193095Y-12980428D01*
X16183571Y-12989952D01*
X16164524Y-12999476D01*
X16145476Y-12999476D01*
X16126428Y-12989952D01*
X16116905Y-12980428D01*
X16107381Y-12961381D01*
X16097857Y-12923286D01*
X16097857Y-12875667D01*
X16107381Y-12837571D01*
X16116905Y-12818524D01*
X16126428Y-12809000D01*
X16145476Y-12799476D01*
X16297857Y-12980428D02*
X16307381Y-12989952D01*
X16297857Y-12999476D01*
X16288333Y-12989952D01*
X16297857Y-12980428D01*
X16297857Y-12999476D01*
X16431190Y-12799476D02*
X16450238Y-12799476D01*
X16469286Y-12809000D01*
X16478809Y-12818524D01*
X16488333Y-12837571D01*
X16497857Y-12875667D01*
X16497857Y-12923286D01*
X16488333Y-12961381D01*
X16478809Y-12980428D01*
X16469286Y-12989952D01*
X16450238Y-12999476D01*
X16431190Y-12999476D01*
X16412143Y-12989952D01*
X16402619Y-12980428D01*
X16393095Y-12961381D01*
X16383571Y-12923286D01*
X16383571Y-12875667D01*
X16393095Y-12837571D01*
X16402619Y-12818524D01*
X16412143Y-12809000D01*
X16431190Y-12799476D01*
X16564524Y-12799476D02*
X16688333Y-12799476D01*
X16621667Y-12875667D01*
X16650238Y-12875667D01*
X16669286Y-12885190D01*
X16678809Y-12894714D01*
X16688333Y-12913762D01*
X16688333Y-12961381D01*
X16678809Y-12980428D01*
X16669286Y-12989952D01*
X16650238Y-12999476D01*
X16593095Y-12999476D01*
X16574048Y-12989952D01*
X16564524Y-12980428D01*
X16869286Y-12799476D02*
X16774048Y-12799476D01*
X16764524Y-12894714D01*
X16774048Y-12885190D01*
X16793095Y-12875667D01*
X16840714Y-12875667D01*
X16859762Y-12885190D01*
X16869286Y-12894714D01*
X16878810Y-12913762D01*
X16878810Y-12961381D01*
X16869286Y-12980428D01*
X16859762Y-12989952D01*
X16840714Y-12999476D01*
X16793095Y-12999476D01*
X16774048Y-12989952D01*
X16764524Y-12980428D01*
X17050238Y-12866143D02*
X17050238Y-12999476D01*
X17002619Y-12789952D02*
X16955000Y-12932809D01*
X17078810Y-12932809D01*
X17145476Y-12799476D02*
X17145476Y-12837571D01*
X17221667Y-12799476D02*
X17221667Y-12837571D01*
X17516905Y-13075667D02*
X17507381Y-13066143D01*
X17488333Y-13037571D01*
X17478810Y-13018524D01*
X17469286Y-12989952D01*
X17459762Y-12942333D01*
X17459762Y-12904238D01*
X17469286Y-12856619D01*
X17478810Y-12828048D01*
X17488333Y-12809000D01*
X17507381Y-12780428D01*
X17516905Y-12770905D01*
X17583571Y-12818524D02*
X17593095Y-12809000D01*
X17612143Y-12799476D01*
X17659762Y-12799476D01*
X17678810Y-12809000D01*
X17688333Y-12818524D01*
X17697857Y-12837571D01*
X17697857Y-12856619D01*
X17688333Y-12885190D01*
X17574048Y-12999476D01*
X17697857Y-12999476D01*
X17935952Y-12999476D02*
X17935952Y-12799476D01*
X18021667Y-12999476D02*
X18021667Y-12894714D01*
X18012143Y-12875667D01*
X17993095Y-12866143D01*
X17964524Y-12866143D01*
X17945476Y-12875667D01*
X17935952Y-12885190D01*
X18145476Y-12999476D02*
X18126429Y-12989952D01*
X18116905Y-12980428D01*
X18107381Y-12961381D01*
X18107381Y-12904238D01*
X18116905Y-12885190D01*
X18126429Y-12875667D01*
X18145476Y-12866143D01*
X18174048Y-12866143D01*
X18193095Y-12875667D01*
X18202619Y-12885190D01*
X18212143Y-12904238D01*
X18212143Y-12961381D01*
X18202619Y-12980428D01*
X18193095Y-12989952D01*
X18174048Y-12999476D01*
X18145476Y-12999476D01*
X18326429Y-12999476D02*
X18307381Y-12989952D01*
X18297857Y-12970905D01*
X18297857Y-12799476D01*
X18478810Y-12989952D02*
X18459762Y-12999476D01*
X18421667Y-12999476D01*
X18402619Y-12989952D01*
X18393095Y-12970905D01*
X18393095Y-12894714D01*
X18402619Y-12875667D01*
X18421667Y-12866143D01*
X18459762Y-12866143D01*
X18478810Y-12875667D01*
X18488333Y-12894714D01*
X18488333Y-12913762D01*
X18393095Y-12932809D01*
X18564524Y-12989952D02*
X18583571Y-12999476D01*
X18621667Y-12999476D01*
X18640714Y-12989952D01*
X18650238Y-12970905D01*
X18650238Y-12961381D01*
X18640714Y-12942333D01*
X18621667Y-12932809D01*
X18593095Y-12932809D01*
X18574048Y-12923286D01*
X18564524Y-12904238D01*
X18564524Y-12894714D01*
X18574048Y-12875667D01*
X18593095Y-12866143D01*
X18621667Y-12866143D01*
X18640714Y-12875667D01*
X18716905Y-13075667D02*
X18726429Y-13066143D01*
X18745476Y-13037571D01*
X18755000Y-13018524D01*
X18764524Y-12989952D01*
X18774048Y-12942333D01*
X18774048Y-12904238D01*
X18764524Y-12856619D01*
X18755000Y-12828048D01*
X18745476Y-12809000D01*
X18726429Y-12780428D01*
X18716905Y-12770905D01*
X19078810Y-13075667D02*
X19069286Y-13066143D01*
X19050238Y-13037571D01*
X19040714Y-13018524D01*
X19031190Y-12989952D01*
X19021667Y-12942333D01*
X19021667Y-12904238D01*
X19031190Y-12856619D01*
X19040714Y-12828048D01*
X19050238Y-12809000D01*
X19069286Y-12780428D01*
X19078810Y-12770905D01*
X19155000Y-12866143D02*
X19155000Y-12999476D01*
X19155000Y-12885190D02*
X19164524Y-12875667D01*
X19183571Y-12866143D01*
X19212143Y-12866143D01*
X19231190Y-12875667D01*
X19240714Y-12894714D01*
X19240714Y-12999476D01*
X19364524Y-12999476D02*
X19345476Y-12989952D01*
X19335952Y-12980428D01*
X19326429Y-12961381D01*
X19326429Y-12904238D01*
X19335952Y-12885190D01*
X19345476Y-12875667D01*
X19364524Y-12866143D01*
X19393095Y-12866143D01*
X19412143Y-12875667D01*
X19421667Y-12885190D01*
X19431190Y-12904238D01*
X19431190Y-12961381D01*
X19421667Y-12980428D01*
X19412143Y-12989952D01*
X19393095Y-12999476D01*
X19364524Y-12999476D01*
X19488333Y-12866143D02*
X19564524Y-12866143D01*
X19516905Y-12799476D02*
X19516905Y-12970905D01*
X19526429Y-12989952D01*
X19545476Y-12999476D01*
X19564524Y-12999476D01*
X19783571Y-12866143D02*
X19783571Y-13066143D01*
X19783571Y-12875667D02*
X19802619Y-12866143D01*
X19840714Y-12866143D01*
X19859762Y-12875667D01*
X19869286Y-12885190D01*
X19878810Y-12904238D01*
X19878810Y-12961381D01*
X19869286Y-12980428D01*
X19859762Y-12989952D01*
X19840714Y-12999476D01*
X19802619Y-12999476D01*
X19783571Y-12989952D01*
X19993095Y-12999476D02*
X19974048Y-12989952D01*
X19964524Y-12970905D01*
X19964524Y-12799476D01*
X20155000Y-12999476D02*
X20155000Y-12894714D01*
X20145476Y-12875667D01*
X20126429Y-12866143D01*
X20088333Y-12866143D01*
X20069286Y-12875667D01*
X20155000Y-12989952D02*
X20135952Y-12999476D01*
X20088333Y-12999476D01*
X20069286Y-12989952D01*
X20059762Y-12970905D01*
X20059762Y-12951857D01*
X20069286Y-12932809D01*
X20088333Y-12923286D01*
X20135952Y-12923286D01*
X20155000Y-12913762D01*
X20221667Y-12866143D02*
X20297857Y-12866143D01*
X20250238Y-12799476D02*
X20250238Y-12970905D01*
X20259762Y-12989952D01*
X20278810Y-12999476D01*
X20297857Y-12999476D01*
X20440714Y-12989952D02*
X20421667Y-12999476D01*
X20383571Y-12999476D01*
X20364524Y-12989952D01*
X20355000Y-12970905D01*
X20355000Y-12894714D01*
X20364524Y-12875667D01*
X20383571Y-12866143D01*
X20421667Y-12866143D01*
X20440714Y-12875667D01*
X20450238Y-12894714D01*
X20450238Y-12913762D01*
X20355000Y-12932809D01*
X20621667Y-12999476D02*
X20621667Y-12799476D01*
X20621667Y-12989952D02*
X20602619Y-12999476D01*
X20564524Y-12999476D01*
X20545476Y-12989952D01*
X20535952Y-12980428D01*
X20526429Y-12961381D01*
X20526429Y-12904238D01*
X20535952Y-12885190D01*
X20545476Y-12875667D01*
X20564524Y-12866143D01*
X20602619Y-12866143D01*
X20621667Y-12875667D01*
X20697857Y-13075667D02*
X20707381Y-13066143D01*
X20726429Y-13037571D01*
X20735952Y-13018524D01*
X20745476Y-12989952D01*
X20755000Y-12942333D01*
X20755000Y-12904238D01*
X20745476Y-12856619D01*
X20735952Y-12828048D01*
X20726429Y-12809000D01*
X20707381Y-12780428D01*
X20697857Y-12770905D01*
M02*
