M48
; DRILL file {KiCad (6.0.9)} date Tue Jan 31 14:38:59 2023
; FORMAT={-:-/ absolute / inch / decimal}
; #@! TF.CreationDate,2023-01-31T14:38:59+01:00
; #@! TF.GenerationSoftware,Kicad,Pcbnew,(6.0.9)
; #@! TF.FileFunction,Plated,1,2,PTH
FMAT,2
INCH
; #@! TA.AperFunction,Plated,PTH,ViaDrill
T1C0.0118
%
G90
G05
T1
X5.5394Y-4.6063
X5.5433Y-4.2441
X5.5928Y-4.2436
X5.5977Y-4.4299
X5.6044Y-4.3499
X5.626Y-4.248
X5.6929Y-4.2441
X5.6929Y-4.1102
X5.7087Y-4.6969
X5.7244Y-4.5472
X5.7283Y-4.2578
X5.7634Y-4.5469
X5.7703Y-4.2578
X5.8189Y-4.2795
X5.8539Y-4.1933
X5.9173Y-4.6024
X5.9409Y-4.4291
X5.9567Y-4.0551
X5.9685Y-4.4587
X5.9724Y-4.2244
X5.9764Y-4.2874
X6.0Y-4.3132
X6.0Y-4.0551
X6.0039Y-4.3465
X6.0081Y-4.3796
X6.0433Y-4.0551
X6.1614Y-4.3189
X6.1922Y-4.6376
X6.2008Y-4.6969
T0
M30
