%TF.GenerationSoftware,KiCad,Pcbnew,(6.0.9)*%
%TF.CreationDate,2023-01-31T14:39:00+01:00*%
%TF.ProjectId,keyring_beerclock,6b657972-696e-4675-9f62-656572636c6f,rev?*%
%TF.SameCoordinates,Original*%
%TF.FileFunction,Drillmap*%
%TF.FilePolarity,Positive*%
%FSLAX45Y45*%
G04 Gerber Fmt 4.5, Leading zero omitted, Abs format (unit mm)*
G04 Created by KiCad (PCBNEW (6.0.9)) date 2023-01-31 14:39:00*
%MOMM*%
%LPD*%
G01*
G04 APERTURE LIST*
%ADD10C,0.100000*%
%ADD11C,0.200000*%
%ADD12C,0.030000*%
G04 APERTURE END LIST*
D10*
X15700000Y-10550000D02*
X15700000Y-11700000D01*
X16100000Y-10250000D02*
X16100000Y-10550000D01*
X16100000Y-10250000D02*
X13950000Y-10250000D01*
X15700000Y-10550000D02*
X16100000Y-10550000D01*
X16100000Y-12000000D02*
X13950000Y-12000000D01*
X16100000Y-11700000D02*
X16100000Y-12000000D01*
X15700000Y-11700000D02*
X16100000Y-11700000D01*
X13950000Y-12000000D02*
X13950000Y-10250000D01*
D11*
D12*
X14055000Y-11685000D02*
X14085000Y-11715000D01*
X14085000Y-11685000D02*
X14055000Y-11715000D01*
X14065000Y-10765000D02*
X14095000Y-10795000D01*
X14095000Y-10765000D02*
X14065000Y-10795000D01*
X14190815Y-10763625D02*
X14220815Y-10793625D01*
X14220815Y-10763625D02*
X14190815Y-10793625D01*
X14203206Y-11236965D02*
X14233206Y-11266965D01*
X14233206Y-11236965D02*
X14203206Y-11266965D01*
X14220050Y-11033862D02*
X14250050Y-11063862D01*
X14250050Y-11033862D02*
X14220050Y-11063862D01*
X14275000Y-10775000D02*
X14305000Y-10805000D01*
X14305000Y-10775000D02*
X14275000Y-10805000D01*
X14444950Y-10764975D02*
X14474950Y-10794975D01*
X14474950Y-10764975D02*
X14444950Y-10794975D01*
X14445000Y-10425000D02*
X14475000Y-10455000D01*
X14475000Y-10425000D02*
X14445000Y-10455000D01*
X14485000Y-11915000D02*
X14515000Y-11945000D01*
X14515000Y-11915000D02*
X14485000Y-11945000D01*
X14525000Y-11535000D02*
X14555000Y-11565000D01*
X14555000Y-11535000D02*
X14525000Y-11565000D01*
X14535000Y-10799900D02*
X14565000Y-10829900D01*
X14565000Y-10799900D02*
X14535000Y-10829900D01*
X14624073Y-11534073D02*
X14654073Y-11564073D01*
X14654073Y-11534073D02*
X14624073Y-11564073D01*
X14641480Y-10799900D02*
X14671480Y-10829900D01*
X14671480Y-10799900D02*
X14641480Y-10829900D01*
X14765000Y-10855000D02*
X14795000Y-10885000D01*
X14795000Y-10855000D02*
X14765000Y-10885000D01*
X14854025Y-10635975D02*
X14884025Y-10665975D01*
X14884025Y-10635975D02*
X14854025Y-10665975D01*
X15015000Y-11675000D02*
X15045000Y-11705000D01*
X15045000Y-11675000D02*
X15015000Y-11705000D01*
X15075000Y-11235000D02*
X15105000Y-11265000D01*
X15105000Y-11235000D02*
X15075000Y-11265000D01*
X15115000Y-10285000D02*
X15145000Y-10315000D01*
X15145000Y-10285000D02*
X15115000Y-10315000D01*
X15145000Y-11310050D02*
X15175000Y-11340050D01*
X15175000Y-11310050D02*
X15145000Y-11340050D01*
X15155000Y-10715000D02*
X15185000Y-10745000D01*
X15185000Y-10715000D02*
X15155000Y-10745000D01*
X15165000Y-10875000D02*
X15195000Y-10905000D01*
X15195000Y-10875000D02*
X15165000Y-10905000D01*
X15224950Y-10940646D02*
X15254950Y-10970646D01*
X15254950Y-10940646D02*
X15224950Y-10970646D01*
X15225000Y-10285000D02*
X15255000Y-10315000D01*
X15255000Y-10285000D02*
X15225000Y-10315000D01*
X15235000Y-11025000D02*
X15265000Y-11055000D01*
X15265000Y-11025000D02*
X15235000Y-11055000D01*
X15245537Y-11109294D02*
X15275537Y-11139294D01*
X15275537Y-11109294D02*
X15245537Y-11139294D01*
X15335000Y-10285000D02*
X15365000Y-10315000D01*
X15365000Y-10285000D02*
X15335000Y-10315000D01*
X15635000Y-10955000D02*
X15665000Y-10985000D01*
X15665000Y-10955000D02*
X15635000Y-10985000D01*
X15713287Y-11764500D02*
X15743287Y-11794500D01*
X15743287Y-11764500D02*
X15713287Y-11794500D01*
X15735000Y-11915000D02*
X15765000Y-11945000D01*
X15765000Y-11915000D02*
X15735000Y-11945000D01*
D11*
X14202619Y-12315476D02*
X14202619Y-12115476D01*
X14250238Y-12115476D01*
X14278809Y-12125000D01*
X14297857Y-12144048D01*
X14307381Y-12163095D01*
X14316905Y-12201190D01*
X14316905Y-12229762D01*
X14307381Y-12267857D01*
X14297857Y-12286905D01*
X14278809Y-12305952D01*
X14250238Y-12315476D01*
X14202619Y-12315476D01*
X14402619Y-12315476D02*
X14402619Y-12182143D01*
X14402619Y-12220238D02*
X14412143Y-12201190D01*
X14421667Y-12191667D01*
X14440714Y-12182143D01*
X14459762Y-12182143D01*
X14526428Y-12315476D02*
X14526428Y-12182143D01*
X14526428Y-12115476D02*
X14516905Y-12125000D01*
X14526428Y-12134524D01*
X14535952Y-12125000D01*
X14526428Y-12115476D01*
X14526428Y-12134524D01*
X14650238Y-12315476D02*
X14631190Y-12305952D01*
X14621667Y-12286905D01*
X14621667Y-12115476D01*
X14755000Y-12315476D02*
X14735952Y-12305952D01*
X14726428Y-12286905D01*
X14726428Y-12115476D01*
X14983571Y-12315476D02*
X14983571Y-12115476D01*
X15050238Y-12258333D01*
X15116905Y-12115476D01*
X15116905Y-12315476D01*
X15297857Y-12315476D02*
X15297857Y-12210714D01*
X15288333Y-12191667D01*
X15269286Y-12182143D01*
X15231190Y-12182143D01*
X15212143Y-12191667D01*
X15297857Y-12305952D02*
X15278809Y-12315476D01*
X15231190Y-12315476D01*
X15212143Y-12305952D01*
X15202619Y-12286905D01*
X15202619Y-12267857D01*
X15212143Y-12248809D01*
X15231190Y-12239286D01*
X15278809Y-12239286D01*
X15297857Y-12229762D01*
X15393095Y-12182143D02*
X15393095Y-12382143D01*
X15393095Y-12191667D02*
X15412143Y-12182143D01*
X15450238Y-12182143D01*
X15469286Y-12191667D01*
X15478809Y-12201190D01*
X15488333Y-12220238D01*
X15488333Y-12277381D01*
X15478809Y-12296428D01*
X15469286Y-12305952D01*
X15450238Y-12315476D01*
X15412143Y-12315476D01*
X15393095Y-12305952D01*
X15574048Y-12296428D02*
X15583571Y-12305952D01*
X15574048Y-12315476D01*
X15564524Y-12305952D01*
X15574048Y-12296428D01*
X15574048Y-12315476D01*
X15574048Y-12191667D02*
X15583571Y-12201190D01*
X15574048Y-12210714D01*
X15564524Y-12201190D01*
X15574048Y-12191667D01*
X15574048Y-12210714D01*
D12*
X13915000Y-12630000D02*
X13945000Y-12660000D01*
X13945000Y-12630000D02*
X13915000Y-12660000D01*
D11*
X14240714Y-12535476D02*
X14259762Y-12535476D01*
X14278809Y-12545000D01*
X14288333Y-12554524D01*
X14297857Y-12573571D01*
X14307381Y-12611667D01*
X14307381Y-12659286D01*
X14297857Y-12697381D01*
X14288333Y-12716428D01*
X14278809Y-12725952D01*
X14259762Y-12735476D01*
X14240714Y-12735476D01*
X14221667Y-12725952D01*
X14212143Y-12716428D01*
X14202619Y-12697381D01*
X14193095Y-12659286D01*
X14193095Y-12611667D01*
X14202619Y-12573571D01*
X14212143Y-12554524D01*
X14221667Y-12545000D01*
X14240714Y-12535476D01*
X14393095Y-12716428D02*
X14402619Y-12725952D01*
X14393095Y-12735476D01*
X14383571Y-12725952D01*
X14393095Y-12716428D01*
X14393095Y-12735476D01*
X14469286Y-12535476D02*
X14593095Y-12535476D01*
X14526428Y-12611667D01*
X14555000Y-12611667D01*
X14574048Y-12621190D01*
X14583571Y-12630714D01*
X14593095Y-12649762D01*
X14593095Y-12697381D01*
X14583571Y-12716428D01*
X14574048Y-12725952D01*
X14555000Y-12735476D01*
X14497857Y-12735476D01*
X14478809Y-12725952D01*
X14469286Y-12716428D01*
X14716905Y-12535476D02*
X14735952Y-12535476D01*
X14755000Y-12545000D01*
X14764524Y-12554524D01*
X14774048Y-12573571D01*
X14783571Y-12611667D01*
X14783571Y-12659286D01*
X14774048Y-12697381D01*
X14764524Y-12716428D01*
X14755000Y-12725952D01*
X14735952Y-12735476D01*
X14716905Y-12735476D01*
X14697857Y-12725952D01*
X14688333Y-12716428D01*
X14678809Y-12697381D01*
X14669286Y-12659286D01*
X14669286Y-12611667D01*
X14678809Y-12573571D01*
X14688333Y-12554524D01*
X14697857Y-12545000D01*
X14716905Y-12535476D01*
X14907381Y-12535476D02*
X14926428Y-12535476D01*
X14945476Y-12545000D01*
X14955000Y-12554524D01*
X14964524Y-12573571D01*
X14974048Y-12611667D01*
X14974048Y-12659286D01*
X14964524Y-12697381D01*
X14955000Y-12716428D01*
X14945476Y-12725952D01*
X14926428Y-12735476D01*
X14907381Y-12735476D01*
X14888333Y-12725952D01*
X14878809Y-12716428D01*
X14869286Y-12697381D01*
X14859762Y-12659286D01*
X14859762Y-12611667D01*
X14869286Y-12573571D01*
X14878809Y-12554524D01*
X14888333Y-12545000D01*
X14907381Y-12535476D01*
X15059762Y-12735476D02*
X15059762Y-12602143D01*
X15059762Y-12621190D02*
X15069286Y-12611667D01*
X15088333Y-12602143D01*
X15116905Y-12602143D01*
X15135952Y-12611667D01*
X15145476Y-12630714D01*
X15145476Y-12735476D01*
X15145476Y-12630714D02*
X15155000Y-12611667D01*
X15174048Y-12602143D01*
X15202619Y-12602143D01*
X15221667Y-12611667D01*
X15231190Y-12630714D01*
X15231190Y-12735476D01*
X15326428Y-12735476D02*
X15326428Y-12602143D01*
X15326428Y-12621190D02*
X15335952Y-12611667D01*
X15355000Y-12602143D01*
X15383571Y-12602143D01*
X15402619Y-12611667D01*
X15412143Y-12630714D01*
X15412143Y-12735476D01*
X15412143Y-12630714D02*
X15421667Y-12611667D01*
X15440714Y-12602143D01*
X15469286Y-12602143D01*
X15488333Y-12611667D01*
X15497857Y-12630714D01*
X15497857Y-12735476D01*
X15888333Y-12525952D02*
X15716905Y-12783095D01*
X16145476Y-12535476D02*
X16164524Y-12535476D01*
X16183571Y-12545000D01*
X16193095Y-12554524D01*
X16202619Y-12573571D01*
X16212143Y-12611667D01*
X16212143Y-12659286D01*
X16202619Y-12697381D01*
X16193095Y-12716428D01*
X16183571Y-12725952D01*
X16164524Y-12735476D01*
X16145476Y-12735476D01*
X16126428Y-12725952D01*
X16116905Y-12716428D01*
X16107381Y-12697381D01*
X16097857Y-12659286D01*
X16097857Y-12611667D01*
X16107381Y-12573571D01*
X16116905Y-12554524D01*
X16126428Y-12545000D01*
X16145476Y-12535476D01*
X16297857Y-12716428D02*
X16307381Y-12725952D01*
X16297857Y-12735476D01*
X16288333Y-12725952D01*
X16297857Y-12716428D01*
X16297857Y-12735476D01*
X16431190Y-12535476D02*
X16450238Y-12535476D01*
X16469286Y-12545000D01*
X16478809Y-12554524D01*
X16488333Y-12573571D01*
X16497857Y-12611667D01*
X16497857Y-12659286D01*
X16488333Y-12697381D01*
X16478809Y-12716428D01*
X16469286Y-12725952D01*
X16450238Y-12735476D01*
X16431190Y-12735476D01*
X16412143Y-12725952D01*
X16402619Y-12716428D01*
X16393095Y-12697381D01*
X16383571Y-12659286D01*
X16383571Y-12611667D01*
X16393095Y-12573571D01*
X16402619Y-12554524D01*
X16412143Y-12545000D01*
X16431190Y-12535476D01*
X16688333Y-12735476D02*
X16574048Y-12735476D01*
X16631190Y-12735476D02*
X16631190Y-12535476D01*
X16612143Y-12564048D01*
X16593095Y-12583095D01*
X16574048Y-12592619D01*
X16878810Y-12735476D02*
X16764524Y-12735476D01*
X16821667Y-12735476D02*
X16821667Y-12535476D01*
X16802619Y-12564048D01*
X16783571Y-12583095D01*
X16764524Y-12592619D01*
X16993095Y-12621190D02*
X16974048Y-12611667D01*
X16964524Y-12602143D01*
X16955000Y-12583095D01*
X16955000Y-12573571D01*
X16964524Y-12554524D01*
X16974048Y-12545000D01*
X16993095Y-12535476D01*
X17031190Y-12535476D01*
X17050238Y-12545000D01*
X17059762Y-12554524D01*
X17069286Y-12573571D01*
X17069286Y-12583095D01*
X17059762Y-12602143D01*
X17050238Y-12611667D01*
X17031190Y-12621190D01*
X16993095Y-12621190D01*
X16974048Y-12630714D01*
X16964524Y-12640238D01*
X16955000Y-12659286D01*
X16955000Y-12697381D01*
X16964524Y-12716428D01*
X16974048Y-12725952D01*
X16993095Y-12735476D01*
X17031190Y-12735476D01*
X17050238Y-12725952D01*
X17059762Y-12716428D01*
X17069286Y-12697381D01*
X17069286Y-12659286D01*
X17059762Y-12640238D01*
X17050238Y-12630714D01*
X17031190Y-12621190D01*
X17145476Y-12535476D02*
X17145476Y-12573571D01*
X17221667Y-12535476D02*
X17221667Y-12573571D01*
X17516905Y-12811667D02*
X17507381Y-12802143D01*
X17488333Y-12773571D01*
X17478810Y-12754524D01*
X17469286Y-12725952D01*
X17459762Y-12678333D01*
X17459762Y-12640238D01*
X17469286Y-12592619D01*
X17478810Y-12564048D01*
X17488333Y-12545000D01*
X17507381Y-12516428D01*
X17516905Y-12506905D01*
X17583571Y-12554524D02*
X17593095Y-12545000D01*
X17612143Y-12535476D01*
X17659762Y-12535476D01*
X17678810Y-12545000D01*
X17688333Y-12554524D01*
X17697857Y-12573571D01*
X17697857Y-12592619D01*
X17688333Y-12621190D01*
X17574048Y-12735476D01*
X17697857Y-12735476D01*
X17793095Y-12735476D02*
X17831190Y-12735476D01*
X17850238Y-12725952D01*
X17859762Y-12716428D01*
X17878810Y-12687857D01*
X17888333Y-12649762D01*
X17888333Y-12573571D01*
X17878810Y-12554524D01*
X17869286Y-12545000D01*
X17850238Y-12535476D01*
X17812143Y-12535476D01*
X17793095Y-12545000D01*
X17783571Y-12554524D01*
X17774048Y-12573571D01*
X17774048Y-12621190D01*
X17783571Y-12640238D01*
X17793095Y-12649762D01*
X17812143Y-12659286D01*
X17850238Y-12659286D01*
X17869286Y-12649762D01*
X17878810Y-12640238D01*
X17888333Y-12621190D01*
X18126429Y-12735476D02*
X18126429Y-12535476D01*
X18212143Y-12735476D02*
X18212143Y-12630714D01*
X18202619Y-12611667D01*
X18183571Y-12602143D01*
X18155000Y-12602143D01*
X18135952Y-12611667D01*
X18126429Y-12621190D01*
X18335952Y-12735476D02*
X18316905Y-12725952D01*
X18307381Y-12716428D01*
X18297857Y-12697381D01*
X18297857Y-12640238D01*
X18307381Y-12621190D01*
X18316905Y-12611667D01*
X18335952Y-12602143D01*
X18364524Y-12602143D01*
X18383571Y-12611667D01*
X18393095Y-12621190D01*
X18402619Y-12640238D01*
X18402619Y-12697381D01*
X18393095Y-12716428D01*
X18383571Y-12725952D01*
X18364524Y-12735476D01*
X18335952Y-12735476D01*
X18516905Y-12735476D02*
X18497857Y-12725952D01*
X18488333Y-12706905D01*
X18488333Y-12535476D01*
X18669286Y-12725952D02*
X18650238Y-12735476D01*
X18612143Y-12735476D01*
X18593095Y-12725952D01*
X18583571Y-12706905D01*
X18583571Y-12630714D01*
X18593095Y-12611667D01*
X18612143Y-12602143D01*
X18650238Y-12602143D01*
X18669286Y-12611667D01*
X18678810Y-12630714D01*
X18678810Y-12649762D01*
X18583571Y-12668809D01*
X18755000Y-12725952D02*
X18774048Y-12735476D01*
X18812143Y-12735476D01*
X18831190Y-12725952D01*
X18840714Y-12706905D01*
X18840714Y-12697381D01*
X18831190Y-12678333D01*
X18812143Y-12668809D01*
X18783571Y-12668809D01*
X18764524Y-12659286D01*
X18755000Y-12640238D01*
X18755000Y-12630714D01*
X18764524Y-12611667D01*
X18783571Y-12602143D01*
X18812143Y-12602143D01*
X18831190Y-12611667D01*
X18907381Y-12811667D02*
X18916905Y-12802143D01*
X18935952Y-12773571D01*
X18945476Y-12754524D01*
X18955000Y-12725952D01*
X18964524Y-12678333D01*
X18964524Y-12640238D01*
X18955000Y-12592619D01*
X18945476Y-12564048D01*
X18935952Y-12545000D01*
X18916905Y-12516428D01*
X18907381Y-12506905D01*
M02*
