%TF.GenerationSoftware,KiCad,Pcbnew,(6.0.9)*%
%TF.CreationDate,2023-06-25T00:46:57+02:00*%
%TF.ProjectId,keyring_beerclock,6b657972-696e-4675-9f62-656572636c6f,rev?*%
%TF.SameCoordinates,Original*%
%TF.FileFunction,Drillmap*%
%TF.FilePolarity,Positive*%
%FSLAX45Y45*%
G04 Gerber Fmt 4.5, Leading zero omitted, Abs format (unit mm)*
G04 Created by KiCad (PCBNEW (6.0.9)) date 2023-06-25 00:46:57*
%MOMM*%
%LPD*%
G01*
G04 APERTURE LIST*
%ADD10C,0.100000*%
%ADD11C,0.200000*%
%ADD12C,0.025000*%
%ADD13C,0.065000*%
%ADD14C,0.090000*%
G04 APERTURE END LIST*
D10*
X12928000Y-6732000D02*
X15468000Y-6732000D01*
X15468000Y-6732000D02*
X15468000Y-8272000D01*
X15468000Y-8272000D02*
X12928000Y-8272000D01*
X12928000Y-8272000D02*
X12928000Y-6732000D01*
D11*
D12*
X12997500Y-7567500D02*
X13022500Y-7592500D01*
X13022500Y-7567500D02*
X12997500Y-7592500D01*
X13087500Y-8197500D02*
X13112500Y-8222500D01*
X13112500Y-8197500D02*
X13087500Y-8222500D01*
X13287500Y-6857500D02*
X13312500Y-6882500D01*
X13312500Y-6857500D02*
X13287500Y-6882500D01*
X13287500Y-6927500D02*
X13312500Y-6952500D01*
X13312500Y-6927500D02*
X13287500Y-6952500D01*
X13287500Y-7007500D02*
X13312500Y-7032500D01*
X13312500Y-7007500D02*
X13287500Y-7032500D01*
X13307500Y-8197500D02*
X13332500Y-8222500D01*
X13332500Y-8197500D02*
X13307500Y-8222500D01*
X13527500Y-8197500D02*
X13552500Y-8222500D01*
X13552500Y-8197500D02*
X13527500Y-8222500D01*
X13697500Y-7087500D02*
X13722500Y-7112500D01*
X13722500Y-7087500D02*
X13697500Y-7112500D01*
X13767500Y-7487500D02*
X13792500Y-7512500D01*
X13792500Y-7487500D02*
X13767500Y-7512500D01*
X13937500Y-6777500D02*
X13962500Y-6802500D01*
X13962500Y-6777500D02*
X13937500Y-6802500D01*
X14035500Y-7299500D02*
X14060500Y-7324500D01*
X14060500Y-7299500D02*
X14035500Y-7324500D01*
X14037500Y-7677500D02*
X14062500Y-7702500D01*
X14062500Y-7677500D02*
X14037500Y-7702500D01*
X14038074Y-7368218D02*
X14063074Y-7393218D01*
X14063074Y-7368218D02*
X14038074Y-7393218D01*
X14047500Y-6794797D02*
X14072500Y-6819797D01*
X14072500Y-6794797D02*
X14047500Y-6819797D01*
X14137500Y-6997500D02*
X14162500Y-7022500D01*
X14162500Y-6997500D02*
X14137500Y-7022500D01*
X14137500Y-7507500D02*
X14162500Y-7532500D01*
X14162500Y-7507500D02*
X14137500Y-7532500D01*
X14167500Y-7792550D02*
X14192500Y-7817550D01*
X14192500Y-7792550D02*
X14167500Y-7817550D01*
X14247500Y-6997500D02*
X14272500Y-7022500D01*
X14272500Y-6997500D02*
X14247500Y-7022500D01*
X14247500Y-7517500D02*
X14272500Y-7542500D01*
X14272500Y-7517500D02*
X14247500Y-7542500D01*
X14357500Y-6997500D02*
X14382500Y-7022500D01*
X14382500Y-6997500D02*
X14357500Y-7022500D01*
X14357500Y-7517500D02*
X14382500Y-7542500D01*
X14382500Y-7517500D02*
X14357500Y-7542500D01*
X14457500Y-7517500D02*
X14482500Y-7542500D01*
X14482500Y-7517500D02*
X14457500Y-7542500D01*
X14457500Y-7607500D02*
X14482500Y-7632500D01*
X14482500Y-7607500D02*
X14457500Y-7632500D01*
X14457500Y-7717500D02*
X14482500Y-7742500D01*
X14482500Y-7717500D02*
X14457500Y-7742500D01*
X14467500Y-6997500D02*
X14492500Y-7022500D01*
X14492500Y-6997500D02*
X14467500Y-7022500D01*
X14467500Y-7927500D02*
X14492500Y-7952500D01*
X14492500Y-7927500D02*
X14467500Y-7952500D01*
X14517500Y-7297500D02*
X14542500Y-7322500D01*
X14542500Y-7297500D02*
X14517500Y-7322500D01*
X14637500Y-6777500D02*
X14662500Y-6802500D01*
X14662500Y-6777500D02*
X14637500Y-6802500D01*
X14637500Y-6847500D02*
X14662500Y-6872500D01*
X14662500Y-6847500D02*
X14637500Y-6872500D01*
X14647500Y-7717500D02*
X14672500Y-7742500D01*
X14672500Y-7717500D02*
X14647500Y-7742500D01*
X14687500Y-7197500D02*
X14712500Y-7222500D01*
X14712500Y-7197500D02*
X14687500Y-7222500D01*
X14687500Y-7317500D02*
X14712500Y-7342500D01*
X14712500Y-7317500D02*
X14687500Y-7342500D01*
X14697500Y-7077500D02*
X14722500Y-7102500D01*
X14722500Y-7077500D02*
X14697500Y-7102500D01*
X14697500Y-7427500D02*
X14722500Y-7452500D01*
X14722500Y-7427500D02*
X14697500Y-7452500D01*
X14920500Y-7044500D02*
X14945500Y-7069500D01*
X14945500Y-7044500D02*
X14920500Y-7069500D01*
X15037500Y-7617500D02*
X15062500Y-7642500D01*
X15062500Y-7617500D02*
X15037500Y-7642500D01*
X15037500Y-7727500D02*
X15062500Y-7752500D01*
X15062500Y-7727500D02*
X15037500Y-7752500D01*
X15037500Y-7797500D02*
X15062500Y-7822500D01*
X15062500Y-7797500D02*
X15037500Y-7822500D01*
X15317500Y-6947500D02*
X15342500Y-6972500D01*
X15342500Y-6947500D02*
X15317500Y-6972500D01*
D13*
X13443000Y-7213000D02*
G75*
G03*
X13443000Y-7213000I-32500J0D01*
G01*
X13443000Y-7791000D02*
G75*
G03*
X13443000Y-7791000I-32500J0D01*
G01*
D14*
X14337000Y-8038000D02*
X14337000Y-8128000D01*
X14292000Y-8083000D02*
X14382000Y-8083000D01*
X14637000Y-8038000D02*
X14637000Y-8128000D01*
X14592000Y-8083000D02*
X14682000Y-8083000D01*
D11*
X13180619Y-8587476D02*
X13180619Y-8387476D01*
X13228238Y-8387476D01*
X13256809Y-8397000D01*
X13275857Y-8416048D01*
X13285381Y-8435095D01*
X13294905Y-8473190D01*
X13294905Y-8501762D01*
X13285381Y-8539857D01*
X13275857Y-8558905D01*
X13256809Y-8577952D01*
X13228238Y-8587476D01*
X13180619Y-8587476D01*
X13380619Y-8587476D02*
X13380619Y-8454143D01*
X13380619Y-8492238D02*
X13390143Y-8473190D01*
X13399667Y-8463667D01*
X13418714Y-8454143D01*
X13437762Y-8454143D01*
X13504428Y-8587476D02*
X13504428Y-8454143D01*
X13504428Y-8387476D02*
X13494905Y-8397000D01*
X13504428Y-8406524D01*
X13513952Y-8397000D01*
X13504428Y-8387476D01*
X13504428Y-8406524D01*
X13628238Y-8587476D02*
X13609190Y-8577952D01*
X13599667Y-8558905D01*
X13599667Y-8387476D01*
X13733000Y-8587476D02*
X13713952Y-8577952D01*
X13704428Y-8558905D01*
X13704428Y-8387476D01*
X13961571Y-8587476D02*
X13961571Y-8387476D01*
X14028238Y-8530333D01*
X14094905Y-8387476D01*
X14094905Y-8587476D01*
X14275857Y-8587476D02*
X14275857Y-8482714D01*
X14266333Y-8463667D01*
X14247286Y-8454143D01*
X14209190Y-8454143D01*
X14190143Y-8463667D01*
X14275857Y-8577952D02*
X14256809Y-8587476D01*
X14209190Y-8587476D01*
X14190143Y-8577952D01*
X14180619Y-8558905D01*
X14180619Y-8539857D01*
X14190143Y-8520810D01*
X14209190Y-8511286D01*
X14256809Y-8511286D01*
X14275857Y-8501762D01*
X14371095Y-8454143D02*
X14371095Y-8654143D01*
X14371095Y-8463667D02*
X14390143Y-8454143D01*
X14428238Y-8454143D01*
X14447286Y-8463667D01*
X14456809Y-8473190D01*
X14466333Y-8492238D01*
X14466333Y-8549381D01*
X14456809Y-8568429D01*
X14447286Y-8577952D01*
X14428238Y-8587476D01*
X14390143Y-8587476D01*
X14371095Y-8577952D01*
X14552048Y-8568429D02*
X14561571Y-8577952D01*
X14552048Y-8587476D01*
X14542524Y-8577952D01*
X14552048Y-8568429D01*
X14552048Y-8587476D01*
X14552048Y-8463667D02*
X14561571Y-8473190D01*
X14552048Y-8482714D01*
X14542524Y-8473190D01*
X14552048Y-8463667D01*
X14552048Y-8482714D01*
D12*
X12898000Y-8904500D02*
X12923000Y-8929500D01*
X12923000Y-8904500D02*
X12898000Y-8929500D01*
D11*
X13218714Y-8807476D02*
X13237762Y-8807476D01*
X13256809Y-8817000D01*
X13266333Y-8826524D01*
X13275857Y-8845571D01*
X13285381Y-8883667D01*
X13285381Y-8931286D01*
X13275857Y-8969381D01*
X13266333Y-8988429D01*
X13256809Y-8997952D01*
X13237762Y-9007476D01*
X13218714Y-9007476D01*
X13199667Y-8997952D01*
X13190143Y-8988429D01*
X13180619Y-8969381D01*
X13171095Y-8931286D01*
X13171095Y-8883667D01*
X13180619Y-8845571D01*
X13190143Y-8826524D01*
X13199667Y-8817000D01*
X13218714Y-8807476D01*
X13371095Y-8988429D02*
X13380619Y-8997952D01*
X13371095Y-9007476D01*
X13361571Y-8997952D01*
X13371095Y-8988429D01*
X13371095Y-9007476D01*
X13456809Y-8826524D02*
X13466333Y-8817000D01*
X13485381Y-8807476D01*
X13533000Y-8807476D01*
X13552048Y-8817000D01*
X13561571Y-8826524D01*
X13571095Y-8845571D01*
X13571095Y-8864619D01*
X13561571Y-8893190D01*
X13447286Y-9007476D01*
X13571095Y-9007476D01*
X13752048Y-8807476D02*
X13656809Y-8807476D01*
X13647286Y-8902714D01*
X13656809Y-8893190D01*
X13675857Y-8883667D01*
X13723476Y-8883667D01*
X13742524Y-8893190D01*
X13752048Y-8902714D01*
X13761571Y-8921762D01*
X13761571Y-8969381D01*
X13752048Y-8988429D01*
X13742524Y-8997952D01*
X13723476Y-9007476D01*
X13675857Y-9007476D01*
X13656809Y-8997952D01*
X13647286Y-8988429D01*
X13885381Y-8807476D02*
X13904428Y-8807476D01*
X13923476Y-8817000D01*
X13933000Y-8826524D01*
X13942524Y-8845571D01*
X13952048Y-8883667D01*
X13952048Y-8931286D01*
X13942524Y-8969381D01*
X13933000Y-8988429D01*
X13923476Y-8997952D01*
X13904428Y-9007476D01*
X13885381Y-9007476D01*
X13866333Y-8997952D01*
X13856809Y-8988429D01*
X13847286Y-8969381D01*
X13837762Y-8931286D01*
X13837762Y-8883667D01*
X13847286Y-8845571D01*
X13856809Y-8826524D01*
X13866333Y-8817000D01*
X13885381Y-8807476D01*
X14037762Y-9007476D02*
X14037762Y-8874143D01*
X14037762Y-8893190D02*
X14047286Y-8883667D01*
X14066333Y-8874143D01*
X14094905Y-8874143D01*
X14113952Y-8883667D01*
X14123476Y-8902714D01*
X14123476Y-9007476D01*
X14123476Y-8902714D02*
X14133000Y-8883667D01*
X14152048Y-8874143D01*
X14180619Y-8874143D01*
X14199667Y-8883667D01*
X14209190Y-8902714D01*
X14209190Y-9007476D01*
X14304428Y-9007476D02*
X14304428Y-8874143D01*
X14304428Y-8893190D02*
X14313952Y-8883667D01*
X14333000Y-8874143D01*
X14361571Y-8874143D01*
X14380619Y-8883667D01*
X14390143Y-8902714D01*
X14390143Y-9007476D01*
X14390143Y-8902714D02*
X14399667Y-8883667D01*
X14418714Y-8874143D01*
X14447286Y-8874143D01*
X14466333Y-8883667D01*
X14475857Y-8902714D01*
X14475857Y-9007476D01*
X14866333Y-8797952D02*
X14694905Y-9055095D01*
X15123476Y-8807476D02*
X15142524Y-8807476D01*
X15161571Y-8817000D01*
X15171095Y-8826524D01*
X15180619Y-8845571D01*
X15190143Y-8883667D01*
X15190143Y-8931286D01*
X15180619Y-8969381D01*
X15171095Y-8988429D01*
X15161571Y-8997952D01*
X15142524Y-9007476D01*
X15123476Y-9007476D01*
X15104428Y-8997952D01*
X15094905Y-8988429D01*
X15085381Y-8969381D01*
X15075857Y-8931286D01*
X15075857Y-8883667D01*
X15085381Y-8845571D01*
X15094905Y-8826524D01*
X15104428Y-8817000D01*
X15123476Y-8807476D01*
X15275857Y-8988429D02*
X15285381Y-8997952D01*
X15275857Y-9007476D01*
X15266333Y-8997952D01*
X15275857Y-8988429D01*
X15275857Y-9007476D01*
X15409190Y-8807476D02*
X15428238Y-8807476D01*
X15447286Y-8817000D01*
X15456809Y-8826524D01*
X15466333Y-8845571D01*
X15475857Y-8883667D01*
X15475857Y-8931286D01*
X15466333Y-8969381D01*
X15456809Y-8988429D01*
X15447286Y-8997952D01*
X15428238Y-9007476D01*
X15409190Y-9007476D01*
X15390143Y-8997952D01*
X15380619Y-8988429D01*
X15371095Y-8969381D01*
X15361571Y-8931286D01*
X15361571Y-8883667D01*
X15371095Y-8845571D01*
X15380619Y-8826524D01*
X15390143Y-8817000D01*
X15409190Y-8807476D01*
X15599667Y-8807476D02*
X15618714Y-8807476D01*
X15637762Y-8817000D01*
X15647286Y-8826524D01*
X15656809Y-8845571D01*
X15666333Y-8883667D01*
X15666333Y-8931286D01*
X15656809Y-8969381D01*
X15647286Y-8988429D01*
X15637762Y-8997952D01*
X15618714Y-9007476D01*
X15599667Y-9007476D01*
X15580619Y-8997952D01*
X15571095Y-8988429D01*
X15561571Y-8969381D01*
X15552048Y-8931286D01*
X15552048Y-8883667D01*
X15561571Y-8845571D01*
X15571095Y-8826524D01*
X15580619Y-8817000D01*
X15599667Y-8807476D01*
X15761571Y-9007476D02*
X15799667Y-9007476D01*
X15818714Y-8997952D01*
X15828238Y-8988429D01*
X15847286Y-8959857D01*
X15856809Y-8921762D01*
X15856809Y-8845571D01*
X15847286Y-8826524D01*
X15837762Y-8817000D01*
X15818714Y-8807476D01*
X15780619Y-8807476D01*
X15761571Y-8817000D01*
X15752048Y-8826524D01*
X15742524Y-8845571D01*
X15742524Y-8893190D01*
X15752048Y-8912238D01*
X15761571Y-8921762D01*
X15780619Y-8931286D01*
X15818714Y-8931286D01*
X15837762Y-8921762D01*
X15847286Y-8912238D01*
X15856809Y-8893190D01*
X15971095Y-8893190D02*
X15952048Y-8883667D01*
X15942524Y-8874143D01*
X15933000Y-8855095D01*
X15933000Y-8845571D01*
X15942524Y-8826524D01*
X15952048Y-8817000D01*
X15971095Y-8807476D01*
X16009190Y-8807476D01*
X16028238Y-8817000D01*
X16037762Y-8826524D01*
X16047286Y-8845571D01*
X16047286Y-8855095D01*
X16037762Y-8874143D01*
X16028238Y-8883667D01*
X16009190Y-8893190D01*
X15971095Y-8893190D01*
X15952048Y-8902714D01*
X15942524Y-8912238D01*
X15933000Y-8931286D01*
X15933000Y-8969381D01*
X15942524Y-8988429D01*
X15952048Y-8997952D01*
X15971095Y-9007476D01*
X16009190Y-9007476D01*
X16028238Y-8997952D01*
X16037762Y-8988429D01*
X16047286Y-8969381D01*
X16047286Y-8931286D01*
X16037762Y-8912238D01*
X16028238Y-8902714D01*
X16009190Y-8893190D01*
X16123476Y-8807476D02*
X16123476Y-8845571D01*
X16199667Y-8807476D02*
X16199667Y-8845571D01*
X16494905Y-9083667D02*
X16485381Y-9074143D01*
X16466333Y-9045571D01*
X16456809Y-9026524D01*
X16447286Y-8997952D01*
X16437762Y-8950333D01*
X16437762Y-8912238D01*
X16447286Y-8864619D01*
X16456809Y-8836048D01*
X16466333Y-8817000D01*
X16485381Y-8788429D01*
X16494905Y-8778905D01*
X16552048Y-8807476D02*
X16675857Y-8807476D01*
X16609190Y-8883667D01*
X16637762Y-8883667D01*
X16656809Y-8893190D01*
X16666333Y-8902714D01*
X16675857Y-8921762D01*
X16675857Y-8969381D01*
X16666333Y-8988429D01*
X16656809Y-8997952D01*
X16637762Y-9007476D01*
X16580619Y-9007476D01*
X16561571Y-8997952D01*
X16552048Y-8988429D01*
X16771095Y-9007476D02*
X16809190Y-9007476D01*
X16828238Y-8997952D01*
X16837762Y-8988429D01*
X16856810Y-8959857D01*
X16866333Y-8921762D01*
X16866333Y-8845571D01*
X16856810Y-8826524D01*
X16847286Y-8817000D01*
X16828238Y-8807476D01*
X16790143Y-8807476D01*
X16771095Y-8817000D01*
X16761571Y-8826524D01*
X16752048Y-8845571D01*
X16752048Y-8893190D01*
X16761571Y-8912238D01*
X16771095Y-8921762D01*
X16790143Y-8931286D01*
X16828238Y-8931286D01*
X16847286Y-8921762D01*
X16856810Y-8912238D01*
X16866333Y-8893190D01*
X17104429Y-9007476D02*
X17104429Y-8807476D01*
X17190143Y-9007476D02*
X17190143Y-8902714D01*
X17180619Y-8883667D01*
X17161571Y-8874143D01*
X17133000Y-8874143D01*
X17113952Y-8883667D01*
X17104429Y-8893190D01*
X17313952Y-9007476D02*
X17294905Y-8997952D01*
X17285381Y-8988429D01*
X17275857Y-8969381D01*
X17275857Y-8912238D01*
X17285381Y-8893190D01*
X17294905Y-8883667D01*
X17313952Y-8874143D01*
X17342524Y-8874143D01*
X17361571Y-8883667D01*
X17371095Y-8893190D01*
X17380619Y-8912238D01*
X17380619Y-8969381D01*
X17371095Y-8988429D01*
X17361571Y-8997952D01*
X17342524Y-9007476D01*
X17313952Y-9007476D01*
X17494905Y-9007476D02*
X17475857Y-8997952D01*
X17466333Y-8978905D01*
X17466333Y-8807476D01*
X17647286Y-8997952D02*
X17628238Y-9007476D01*
X17590143Y-9007476D01*
X17571095Y-8997952D01*
X17561571Y-8978905D01*
X17561571Y-8902714D01*
X17571095Y-8883667D01*
X17590143Y-8874143D01*
X17628238Y-8874143D01*
X17647286Y-8883667D01*
X17656810Y-8902714D01*
X17656810Y-8921762D01*
X17561571Y-8940810D01*
X17733000Y-8997952D02*
X17752048Y-9007476D01*
X17790143Y-9007476D01*
X17809190Y-8997952D01*
X17818714Y-8978905D01*
X17818714Y-8969381D01*
X17809190Y-8950333D01*
X17790143Y-8940810D01*
X17761571Y-8940810D01*
X17742524Y-8931286D01*
X17733000Y-8912238D01*
X17733000Y-8902714D01*
X17742524Y-8883667D01*
X17761571Y-8874143D01*
X17790143Y-8874143D01*
X17809190Y-8883667D01*
X17885381Y-9083667D02*
X17894905Y-9074143D01*
X17913952Y-9045571D01*
X17923476Y-9026524D01*
X17933000Y-8997952D01*
X17942524Y-8950333D01*
X17942524Y-8912238D01*
X17933000Y-8864619D01*
X17923476Y-8836048D01*
X17913952Y-8817000D01*
X17894905Y-8788429D01*
X17885381Y-8778905D01*
D13*
X12923000Y-9181000D02*
G75*
G03*
X12923000Y-9181000I-32500J0D01*
G01*
D11*
X13218714Y-9071476D02*
X13237762Y-9071476D01*
X13256809Y-9081000D01*
X13266333Y-9090524D01*
X13275857Y-9109571D01*
X13285381Y-9147667D01*
X13285381Y-9195286D01*
X13275857Y-9233381D01*
X13266333Y-9252429D01*
X13256809Y-9261952D01*
X13237762Y-9271476D01*
X13218714Y-9271476D01*
X13199667Y-9261952D01*
X13190143Y-9252429D01*
X13180619Y-9233381D01*
X13171095Y-9195286D01*
X13171095Y-9147667D01*
X13180619Y-9109571D01*
X13190143Y-9090524D01*
X13199667Y-9081000D01*
X13218714Y-9071476D01*
X13371095Y-9252429D02*
X13380619Y-9261952D01*
X13371095Y-9271476D01*
X13361571Y-9261952D01*
X13371095Y-9252429D01*
X13371095Y-9271476D01*
X13552048Y-9071476D02*
X13513952Y-9071476D01*
X13494905Y-9081000D01*
X13485381Y-9090524D01*
X13466333Y-9119095D01*
X13456809Y-9157190D01*
X13456809Y-9233381D01*
X13466333Y-9252429D01*
X13475857Y-9261952D01*
X13494905Y-9271476D01*
X13533000Y-9271476D01*
X13552048Y-9261952D01*
X13561571Y-9252429D01*
X13571095Y-9233381D01*
X13571095Y-9185762D01*
X13561571Y-9166714D01*
X13552048Y-9157190D01*
X13533000Y-9147667D01*
X13494905Y-9147667D01*
X13475857Y-9157190D01*
X13466333Y-9166714D01*
X13456809Y-9185762D01*
X13752048Y-9071476D02*
X13656809Y-9071476D01*
X13647286Y-9166714D01*
X13656809Y-9157190D01*
X13675857Y-9147667D01*
X13723476Y-9147667D01*
X13742524Y-9157190D01*
X13752048Y-9166714D01*
X13761571Y-9185762D01*
X13761571Y-9233381D01*
X13752048Y-9252429D01*
X13742524Y-9261952D01*
X13723476Y-9271476D01*
X13675857Y-9271476D01*
X13656809Y-9261952D01*
X13647286Y-9252429D01*
X13885381Y-9071476D02*
X13904428Y-9071476D01*
X13923476Y-9081000D01*
X13933000Y-9090524D01*
X13942524Y-9109571D01*
X13952048Y-9147667D01*
X13952048Y-9195286D01*
X13942524Y-9233381D01*
X13933000Y-9252429D01*
X13923476Y-9261952D01*
X13904428Y-9271476D01*
X13885381Y-9271476D01*
X13866333Y-9261952D01*
X13856809Y-9252429D01*
X13847286Y-9233381D01*
X13837762Y-9195286D01*
X13837762Y-9147667D01*
X13847286Y-9109571D01*
X13856809Y-9090524D01*
X13866333Y-9081000D01*
X13885381Y-9071476D01*
X14037762Y-9271476D02*
X14037762Y-9138143D01*
X14037762Y-9157190D02*
X14047286Y-9147667D01*
X14066333Y-9138143D01*
X14094905Y-9138143D01*
X14113952Y-9147667D01*
X14123476Y-9166714D01*
X14123476Y-9271476D01*
X14123476Y-9166714D02*
X14133000Y-9147667D01*
X14152048Y-9138143D01*
X14180619Y-9138143D01*
X14199667Y-9147667D01*
X14209190Y-9166714D01*
X14209190Y-9271476D01*
X14304428Y-9271476D02*
X14304428Y-9138143D01*
X14304428Y-9157190D02*
X14313952Y-9147667D01*
X14333000Y-9138143D01*
X14361571Y-9138143D01*
X14380619Y-9147667D01*
X14390143Y-9166714D01*
X14390143Y-9271476D01*
X14390143Y-9166714D02*
X14399667Y-9147667D01*
X14418714Y-9138143D01*
X14447286Y-9138143D01*
X14466333Y-9147667D01*
X14475857Y-9166714D01*
X14475857Y-9271476D01*
X14866333Y-9061952D02*
X14694905Y-9319095D01*
X15123476Y-9071476D02*
X15142524Y-9071476D01*
X15161571Y-9081000D01*
X15171095Y-9090524D01*
X15180619Y-9109571D01*
X15190143Y-9147667D01*
X15190143Y-9195286D01*
X15180619Y-9233381D01*
X15171095Y-9252429D01*
X15161571Y-9261952D01*
X15142524Y-9271476D01*
X15123476Y-9271476D01*
X15104428Y-9261952D01*
X15094905Y-9252429D01*
X15085381Y-9233381D01*
X15075857Y-9195286D01*
X15075857Y-9147667D01*
X15085381Y-9109571D01*
X15094905Y-9090524D01*
X15104428Y-9081000D01*
X15123476Y-9071476D01*
X15275857Y-9252429D02*
X15285381Y-9261952D01*
X15275857Y-9271476D01*
X15266333Y-9261952D01*
X15275857Y-9252429D01*
X15275857Y-9271476D01*
X15409190Y-9071476D02*
X15428238Y-9071476D01*
X15447286Y-9081000D01*
X15456809Y-9090524D01*
X15466333Y-9109571D01*
X15475857Y-9147667D01*
X15475857Y-9195286D01*
X15466333Y-9233381D01*
X15456809Y-9252429D01*
X15447286Y-9261952D01*
X15428238Y-9271476D01*
X15409190Y-9271476D01*
X15390143Y-9261952D01*
X15380619Y-9252429D01*
X15371095Y-9233381D01*
X15361571Y-9195286D01*
X15361571Y-9147667D01*
X15371095Y-9109571D01*
X15380619Y-9090524D01*
X15390143Y-9081000D01*
X15409190Y-9071476D01*
X15552048Y-9090524D02*
X15561571Y-9081000D01*
X15580619Y-9071476D01*
X15628238Y-9071476D01*
X15647286Y-9081000D01*
X15656809Y-9090524D01*
X15666333Y-9109571D01*
X15666333Y-9128619D01*
X15656809Y-9157190D01*
X15542524Y-9271476D01*
X15666333Y-9271476D01*
X15847286Y-9071476D02*
X15752048Y-9071476D01*
X15742524Y-9166714D01*
X15752048Y-9157190D01*
X15771095Y-9147667D01*
X15818714Y-9147667D01*
X15837762Y-9157190D01*
X15847286Y-9166714D01*
X15856809Y-9185762D01*
X15856809Y-9233381D01*
X15847286Y-9252429D01*
X15837762Y-9261952D01*
X15818714Y-9271476D01*
X15771095Y-9271476D01*
X15752048Y-9261952D01*
X15742524Y-9252429D01*
X16028238Y-9071476D02*
X15990143Y-9071476D01*
X15971095Y-9081000D01*
X15961571Y-9090524D01*
X15942524Y-9119095D01*
X15933000Y-9157190D01*
X15933000Y-9233381D01*
X15942524Y-9252429D01*
X15952048Y-9261952D01*
X15971095Y-9271476D01*
X16009190Y-9271476D01*
X16028238Y-9261952D01*
X16037762Y-9252429D01*
X16047286Y-9233381D01*
X16047286Y-9185762D01*
X16037762Y-9166714D01*
X16028238Y-9157190D01*
X16009190Y-9147667D01*
X15971095Y-9147667D01*
X15952048Y-9157190D01*
X15942524Y-9166714D01*
X15933000Y-9185762D01*
X16123476Y-9071476D02*
X16123476Y-9109571D01*
X16199667Y-9071476D02*
X16199667Y-9109571D01*
X16494905Y-9347667D02*
X16485381Y-9338143D01*
X16466333Y-9309571D01*
X16456809Y-9290524D01*
X16447286Y-9261952D01*
X16437762Y-9214333D01*
X16437762Y-9176238D01*
X16447286Y-9128619D01*
X16456809Y-9100048D01*
X16466333Y-9081000D01*
X16485381Y-9052429D01*
X16494905Y-9042905D01*
X16561571Y-9090524D02*
X16571095Y-9081000D01*
X16590143Y-9071476D01*
X16637762Y-9071476D01*
X16656809Y-9081000D01*
X16666333Y-9090524D01*
X16675857Y-9109571D01*
X16675857Y-9128619D01*
X16666333Y-9157190D01*
X16552048Y-9271476D01*
X16675857Y-9271476D01*
X16913952Y-9271476D02*
X16913952Y-9071476D01*
X16999667Y-9271476D02*
X16999667Y-9166714D01*
X16990143Y-9147667D01*
X16971095Y-9138143D01*
X16942524Y-9138143D01*
X16923476Y-9147667D01*
X16913952Y-9157190D01*
X17123476Y-9271476D02*
X17104429Y-9261952D01*
X17094905Y-9252429D01*
X17085381Y-9233381D01*
X17085381Y-9176238D01*
X17094905Y-9157190D01*
X17104429Y-9147667D01*
X17123476Y-9138143D01*
X17152048Y-9138143D01*
X17171095Y-9147667D01*
X17180619Y-9157190D01*
X17190143Y-9176238D01*
X17190143Y-9233381D01*
X17180619Y-9252429D01*
X17171095Y-9261952D01*
X17152048Y-9271476D01*
X17123476Y-9271476D01*
X17304429Y-9271476D02*
X17285381Y-9261952D01*
X17275857Y-9242905D01*
X17275857Y-9071476D01*
X17456810Y-9261952D02*
X17437762Y-9271476D01*
X17399667Y-9271476D01*
X17380619Y-9261952D01*
X17371095Y-9242905D01*
X17371095Y-9166714D01*
X17380619Y-9147667D01*
X17399667Y-9138143D01*
X17437762Y-9138143D01*
X17456810Y-9147667D01*
X17466333Y-9166714D01*
X17466333Y-9185762D01*
X17371095Y-9204810D01*
X17542524Y-9261952D02*
X17561571Y-9271476D01*
X17599667Y-9271476D01*
X17618714Y-9261952D01*
X17628238Y-9242905D01*
X17628238Y-9233381D01*
X17618714Y-9214333D01*
X17599667Y-9204810D01*
X17571095Y-9204810D01*
X17552048Y-9195286D01*
X17542524Y-9176238D01*
X17542524Y-9166714D01*
X17552048Y-9147667D01*
X17571095Y-9138143D01*
X17599667Y-9138143D01*
X17618714Y-9147667D01*
X17694905Y-9347667D02*
X17704429Y-9338143D01*
X17723476Y-9309571D01*
X17733000Y-9290524D01*
X17742524Y-9261952D01*
X17752048Y-9214333D01*
X17752048Y-9176238D01*
X17742524Y-9128619D01*
X17733000Y-9100048D01*
X17723476Y-9081000D01*
X17704429Y-9052429D01*
X17694905Y-9042905D01*
X18056810Y-9347667D02*
X18047286Y-9338143D01*
X18028238Y-9309571D01*
X18018714Y-9290524D01*
X18009190Y-9261952D01*
X17999667Y-9214333D01*
X17999667Y-9176238D01*
X18009190Y-9128619D01*
X18018714Y-9100048D01*
X18028238Y-9081000D01*
X18047286Y-9052429D01*
X18056810Y-9042905D01*
X18133000Y-9138143D02*
X18133000Y-9271476D01*
X18133000Y-9157190D02*
X18142524Y-9147667D01*
X18161571Y-9138143D01*
X18190143Y-9138143D01*
X18209190Y-9147667D01*
X18218714Y-9166714D01*
X18218714Y-9271476D01*
X18342524Y-9271476D02*
X18323476Y-9261952D01*
X18313952Y-9252429D01*
X18304429Y-9233381D01*
X18304429Y-9176238D01*
X18313952Y-9157190D01*
X18323476Y-9147667D01*
X18342524Y-9138143D01*
X18371095Y-9138143D01*
X18390143Y-9147667D01*
X18399667Y-9157190D01*
X18409190Y-9176238D01*
X18409190Y-9233381D01*
X18399667Y-9252429D01*
X18390143Y-9261952D01*
X18371095Y-9271476D01*
X18342524Y-9271476D01*
X18466333Y-9138143D02*
X18542524Y-9138143D01*
X18494905Y-9071476D02*
X18494905Y-9242905D01*
X18504429Y-9261952D01*
X18523476Y-9271476D01*
X18542524Y-9271476D01*
X18761571Y-9138143D02*
X18761571Y-9338143D01*
X18761571Y-9147667D02*
X18780619Y-9138143D01*
X18818714Y-9138143D01*
X18837762Y-9147667D01*
X18847286Y-9157190D01*
X18856810Y-9176238D01*
X18856810Y-9233381D01*
X18847286Y-9252429D01*
X18837762Y-9261952D01*
X18818714Y-9271476D01*
X18780619Y-9271476D01*
X18761571Y-9261952D01*
X18971095Y-9271476D02*
X18952048Y-9261952D01*
X18942524Y-9242905D01*
X18942524Y-9071476D01*
X19133000Y-9271476D02*
X19133000Y-9166714D01*
X19123476Y-9147667D01*
X19104429Y-9138143D01*
X19066333Y-9138143D01*
X19047286Y-9147667D01*
X19133000Y-9261952D02*
X19113952Y-9271476D01*
X19066333Y-9271476D01*
X19047286Y-9261952D01*
X19037762Y-9242905D01*
X19037762Y-9223857D01*
X19047286Y-9204810D01*
X19066333Y-9195286D01*
X19113952Y-9195286D01*
X19133000Y-9185762D01*
X19199667Y-9138143D02*
X19275857Y-9138143D01*
X19228238Y-9071476D02*
X19228238Y-9242905D01*
X19237762Y-9261952D01*
X19256810Y-9271476D01*
X19275857Y-9271476D01*
X19418714Y-9261952D02*
X19399667Y-9271476D01*
X19361571Y-9271476D01*
X19342524Y-9261952D01*
X19333000Y-9242905D01*
X19333000Y-9166714D01*
X19342524Y-9147667D01*
X19361571Y-9138143D01*
X19399667Y-9138143D01*
X19418714Y-9147667D01*
X19428238Y-9166714D01*
X19428238Y-9185762D01*
X19333000Y-9204810D01*
X19599667Y-9271476D02*
X19599667Y-9071476D01*
X19599667Y-9261952D02*
X19580619Y-9271476D01*
X19542524Y-9271476D01*
X19523476Y-9261952D01*
X19513952Y-9252429D01*
X19504429Y-9233381D01*
X19504429Y-9176238D01*
X19513952Y-9157190D01*
X19523476Y-9147667D01*
X19542524Y-9138143D01*
X19580619Y-9138143D01*
X19599667Y-9147667D01*
X19675857Y-9347667D02*
X19685381Y-9338143D01*
X19704429Y-9309571D01*
X19713952Y-9290524D01*
X19723476Y-9261952D01*
X19733000Y-9214333D01*
X19733000Y-9176238D01*
X19723476Y-9128619D01*
X19713952Y-9100048D01*
X19704429Y-9081000D01*
X19685381Y-9052429D01*
X19675857Y-9042905D01*
D14*
X12878000Y-9400000D02*
X12878000Y-9490000D01*
X12833000Y-9445000D02*
X12923000Y-9445000D01*
D11*
X13218714Y-9335476D02*
X13237762Y-9335476D01*
X13256809Y-9345000D01*
X13266333Y-9354524D01*
X13275857Y-9373571D01*
X13285381Y-9411667D01*
X13285381Y-9459286D01*
X13275857Y-9497381D01*
X13266333Y-9516429D01*
X13256809Y-9525952D01*
X13237762Y-9535476D01*
X13218714Y-9535476D01*
X13199667Y-9525952D01*
X13190143Y-9516429D01*
X13180619Y-9497381D01*
X13171095Y-9459286D01*
X13171095Y-9411667D01*
X13180619Y-9373571D01*
X13190143Y-9354524D01*
X13199667Y-9345000D01*
X13218714Y-9335476D01*
X13371095Y-9516429D02*
X13380619Y-9525952D01*
X13371095Y-9535476D01*
X13361571Y-9525952D01*
X13371095Y-9516429D01*
X13371095Y-9535476D01*
X13475857Y-9535476D02*
X13513952Y-9535476D01*
X13533000Y-9525952D01*
X13542524Y-9516429D01*
X13561571Y-9487857D01*
X13571095Y-9449762D01*
X13571095Y-9373571D01*
X13561571Y-9354524D01*
X13552048Y-9345000D01*
X13533000Y-9335476D01*
X13494905Y-9335476D01*
X13475857Y-9345000D01*
X13466333Y-9354524D01*
X13456809Y-9373571D01*
X13456809Y-9421190D01*
X13466333Y-9440238D01*
X13475857Y-9449762D01*
X13494905Y-9459286D01*
X13533000Y-9459286D01*
X13552048Y-9449762D01*
X13561571Y-9440238D01*
X13571095Y-9421190D01*
X13694905Y-9335476D02*
X13713952Y-9335476D01*
X13733000Y-9345000D01*
X13742524Y-9354524D01*
X13752048Y-9373571D01*
X13761571Y-9411667D01*
X13761571Y-9459286D01*
X13752048Y-9497381D01*
X13742524Y-9516429D01*
X13733000Y-9525952D01*
X13713952Y-9535476D01*
X13694905Y-9535476D01*
X13675857Y-9525952D01*
X13666333Y-9516429D01*
X13656809Y-9497381D01*
X13647286Y-9459286D01*
X13647286Y-9411667D01*
X13656809Y-9373571D01*
X13666333Y-9354524D01*
X13675857Y-9345000D01*
X13694905Y-9335476D01*
X13885381Y-9335476D02*
X13904428Y-9335476D01*
X13923476Y-9345000D01*
X13933000Y-9354524D01*
X13942524Y-9373571D01*
X13952048Y-9411667D01*
X13952048Y-9459286D01*
X13942524Y-9497381D01*
X13933000Y-9516429D01*
X13923476Y-9525952D01*
X13904428Y-9535476D01*
X13885381Y-9535476D01*
X13866333Y-9525952D01*
X13856809Y-9516429D01*
X13847286Y-9497381D01*
X13837762Y-9459286D01*
X13837762Y-9411667D01*
X13847286Y-9373571D01*
X13856809Y-9354524D01*
X13866333Y-9345000D01*
X13885381Y-9335476D01*
X14037762Y-9535476D02*
X14037762Y-9402143D01*
X14037762Y-9421190D02*
X14047286Y-9411667D01*
X14066333Y-9402143D01*
X14094905Y-9402143D01*
X14113952Y-9411667D01*
X14123476Y-9430714D01*
X14123476Y-9535476D01*
X14123476Y-9430714D02*
X14133000Y-9411667D01*
X14152048Y-9402143D01*
X14180619Y-9402143D01*
X14199667Y-9411667D01*
X14209190Y-9430714D01*
X14209190Y-9535476D01*
X14304428Y-9535476D02*
X14304428Y-9402143D01*
X14304428Y-9421190D02*
X14313952Y-9411667D01*
X14333000Y-9402143D01*
X14361571Y-9402143D01*
X14380619Y-9411667D01*
X14390143Y-9430714D01*
X14390143Y-9535476D01*
X14390143Y-9430714D02*
X14399667Y-9411667D01*
X14418714Y-9402143D01*
X14447286Y-9402143D01*
X14466333Y-9411667D01*
X14475857Y-9430714D01*
X14475857Y-9535476D01*
X14866333Y-9325952D02*
X14694905Y-9583095D01*
X15123476Y-9335476D02*
X15142524Y-9335476D01*
X15161571Y-9345000D01*
X15171095Y-9354524D01*
X15180619Y-9373571D01*
X15190143Y-9411667D01*
X15190143Y-9459286D01*
X15180619Y-9497381D01*
X15171095Y-9516429D01*
X15161571Y-9525952D01*
X15142524Y-9535476D01*
X15123476Y-9535476D01*
X15104428Y-9525952D01*
X15094905Y-9516429D01*
X15085381Y-9497381D01*
X15075857Y-9459286D01*
X15075857Y-9411667D01*
X15085381Y-9373571D01*
X15094905Y-9354524D01*
X15104428Y-9345000D01*
X15123476Y-9335476D01*
X15275857Y-9516429D02*
X15285381Y-9525952D01*
X15275857Y-9535476D01*
X15266333Y-9525952D01*
X15275857Y-9516429D01*
X15275857Y-9535476D01*
X15409190Y-9335476D02*
X15428238Y-9335476D01*
X15447286Y-9345000D01*
X15456809Y-9354524D01*
X15466333Y-9373571D01*
X15475857Y-9411667D01*
X15475857Y-9459286D01*
X15466333Y-9497381D01*
X15456809Y-9516429D01*
X15447286Y-9525952D01*
X15428238Y-9535476D01*
X15409190Y-9535476D01*
X15390143Y-9525952D01*
X15380619Y-9516429D01*
X15371095Y-9497381D01*
X15361571Y-9459286D01*
X15361571Y-9411667D01*
X15371095Y-9373571D01*
X15380619Y-9354524D01*
X15390143Y-9345000D01*
X15409190Y-9335476D01*
X15542524Y-9335476D02*
X15666333Y-9335476D01*
X15599667Y-9411667D01*
X15628238Y-9411667D01*
X15647286Y-9421190D01*
X15656809Y-9430714D01*
X15666333Y-9449762D01*
X15666333Y-9497381D01*
X15656809Y-9516429D01*
X15647286Y-9525952D01*
X15628238Y-9535476D01*
X15571095Y-9535476D01*
X15552048Y-9525952D01*
X15542524Y-9516429D01*
X15847286Y-9335476D02*
X15752048Y-9335476D01*
X15742524Y-9430714D01*
X15752048Y-9421190D01*
X15771095Y-9411667D01*
X15818714Y-9411667D01*
X15837762Y-9421190D01*
X15847286Y-9430714D01*
X15856809Y-9449762D01*
X15856809Y-9497381D01*
X15847286Y-9516429D01*
X15837762Y-9525952D01*
X15818714Y-9535476D01*
X15771095Y-9535476D01*
X15752048Y-9525952D01*
X15742524Y-9516429D01*
X16028238Y-9402143D02*
X16028238Y-9535476D01*
X15980619Y-9325952D02*
X15933000Y-9468810D01*
X16056809Y-9468810D01*
X16123476Y-9335476D02*
X16123476Y-9373571D01*
X16199667Y-9335476D02*
X16199667Y-9373571D01*
X16494905Y-9611667D02*
X16485381Y-9602143D01*
X16466333Y-9573571D01*
X16456809Y-9554524D01*
X16447286Y-9525952D01*
X16437762Y-9478333D01*
X16437762Y-9440238D01*
X16447286Y-9392619D01*
X16456809Y-9364048D01*
X16466333Y-9345000D01*
X16485381Y-9316429D01*
X16494905Y-9306905D01*
X16561571Y-9354524D02*
X16571095Y-9345000D01*
X16590143Y-9335476D01*
X16637762Y-9335476D01*
X16656809Y-9345000D01*
X16666333Y-9354524D01*
X16675857Y-9373571D01*
X16675857Y-9392619D01*
X16666333Y-9421190D01*
X16552048Y-9535476D01*
X16675857Y-9535476D01*
X16913952Y-9535476D02*
X16913952Y-9335476D01*
X16999667Y-9535476D02*
X16999667Y-9430714D01*
X16990143Y-9411667D01*
X16971095Y-9402143D01*
X16942524Y-9402143D01*
X16923476Y-9411667D01*
X16913952Y-9421190D01*
X17123476Y-9535476D02*
X17104429Y-9525952D01*
X17094905Y-9516429D01*
X17085381Y-9497381D01*
X17085381Y-9440238D01*
X17094905Y-9421190D01*
X17104429Y-9411667D01*
X17123476Y-9402143D01*
X17152048Y-9402143D01*
X17171095Y-9411667D01*
X17180619Y-9421190D01*
X17190143Y-9440238D01*
X17190143Y-9497381D01*
X17180619Y-9516429D01*
X17171095Y-9525952D01*
X17152048Y-9535476D01*
X17123476Y-9535476D01*
X17304429Y-9535476D02*
X17285381Y-9525952D01*
X17275857Y-9506905D01*
X17275857Y-9335476D01*
X17456810Y-9525952D02*
X17437762Y-9535476D01*
X17399667Y-9535476D01*
X17380619Y-9525952D01*
X17371095Y-9506905D01*
X17371095Y-9430714D01*
X17380619Y-9411667D01*
X17399667Y-9402143D01*
X17437762Y-9402143D01*
X17456810Y-9411667D01*
X17466333Y-9430714D01*
X17466333Y-9449762D01*
X17371095Y-9468810D01*
X17542524Y-9525952D02*
X17561571Y-9535476D01*
X17599667Y-9535476D01*
X17618714Y-9525952D01*
X17628238Y-9506905D01*
X17628238Y-9497381D01*
X17618714Y-9478333D01*
X17599667Y-9468810D01*
X17571095Y-9468810D01*
X17552048Y-9459286D01*
X17542524Y-9440238D01*
X17542524Y-9430714D01*
X17552048Y-9411667D01*
X17571095Y-9402143D01*
X17599667Y-9402143D01*
X17618714Y-9411667D01*
X17694905Y-9611667D02*
X17704429Y-9602143D01*
X17723476Y-9573571D01*
X17733000Y-9554524D01*
X17742524Y-9525952D01*
X17752048Y-9478333D01*
X17752048Y-9440238D01*
X17742524Y-9392619D01*
X17733000Y-9364048D01*
X17723476Y-9345000D01*
X17704429Y-9316429D01*
X17694905Y-9306905D01*
X18056810Y-9611667D02*
X18047286Y-9602143D01*
X18028238Y-9573571D01*
X18018714Y-9554524D01*
X18009190Y-9525952D01*
X17999667Y-9478333D01*
X17999667Y-9440238D01*
X18009190Y-9392619D01*
X18018714Y-9364048D01*
X18028238Y-9345000D01*
X18047286Y-9316429D01*
X18056810Y-9306905D01*
X18133000Y-9402143D02*
X18133000Y-9535476D01*
X18133000Y-9421190D02*
X18142524Y-9411667D01*
X18161571Y-9402143D01*
X18190143Y-9402143D01*
X18209190Y-9411667D01*
X18218714Y-9430714D01*
X18218714Y-9535476D01*
X18342524Y-9535476D02*
X18323476Y-9525952D01*
X18313952Y-9516429D01*
X18304429Y-9497381D01*
X18304429Y-9440238D01*
X18313952Y-9421190D01*
X18323476Y-9411667D01*
X18342524Y-9402143D01*
X18371095Y-9402143D01*
X18390143Y-9411667D01*
X18399667Y-9421190D01*
X18409190Y-9440238D01*
X18409190Y-9497381D01*
X18399667Y-9516429D01*
X18390143Y-9525952D01*
X18371095Y-9535476D01*
X18342524Y-9535476D01*
X18466333Y-9402143D02*
X18542524Y-9402143D01*
X18494905Y-9335476D02*
X18494905Y-9506905D01*
X18504429Y-9525952D01*
X18523476Y-9535476D01*
X18542524Y-9535476D01*
X18761571Y-9402143D02*
X18761571Y-9602143D01*
X18761571Y-9411667D02*
X18780619Y-9402143D01*
X18818714Y-9402143D01*
X18837762Y-9411667D01*
X18847286Y-9421190D01*
X18856810Y-9440238D01*
X18856810Y-9497381D01*
X18847286Y-9516429D01*
X18837762Y-9525952D01*
X18818714Y-9535476D01*
X18780619Y-9535476D01*
X18761571Y-9525952D01*
X18971095Y-9535476D02*
X18952048Y-9525952D01*
X18942524Y-9506905D01*
X18942524Y-9335476D01*
X19133000Y-9535476D02*
X19133000Y-9430714D01*
X19123476Y-9411667D01*
X19104429Y-9402143D01*
X19066333Y-9402143D01*
X19047286Y-9411667D01*
X19133000Y-9525952D02*
X19113952Y-9535476D01*
X19066333Y-9535476D01*
X19047286Y-9525952D01*
X19037762Y-9506905D01*
X19037762Y-9487857D01*
X19047286Y-9468810D01*
X19066333Y-9459286D01*
X19113952Y-9459286D01*
X19133000Y-9449762D01*
X19199667Y-9402143D02*
X19275857Y-9402143D01*
X19228238Y-9335476D02*
X19228238Y-9506905D01*
X19237762Y-9525952D01*
X19256810Y-9535476D01*
X19275857Y-9535476D01*
X19418714Y-9525952D02*
X19399667Y-9535476D01*
X19361571Y-9535476D01*
X19342524Y-9525952D01*
X19333000Y-9506905D01*
X19333000Y-9430714D01*
X19342524Y-9411667D01*
X19361571Y-9402143D01*
X19399667Y-9402143D01*
X19418714Y-9411667D01*
X19428238Y-9430714D01*
X19428238Y-9449762D01*
X19333000Y-9468810D01*
X19599667Y-9535476D02*
X19599667Y-9335476D01*
X19599667Y-9525952D02*
X19580619Y-9535476D01*
X19542524Y-9535476D01*
X19523476Y-9525952D01*
X19513952Y-9516429D01*
X19504429Y-9497381D01*
X19504429Y-9440238D01*
X19513952Y-9421190D01*
X19523476Y-9411667D01*
X19542524Y-9402143D01*
X19580619Y-9402143D01*
X19599667Y-9411667D01*
X19675857Y-9611667D02*
X19685381Y-9602143D01*
X19704429Y-9573571D01*
X19713952Y-9554524D01*
X19723476Y-9525952D01*
X19733000Y-9478333D01*
X19733000Y-9440238D01*
X19723476Y-9392619D01*
X19713952Y-9364048D01*
X19704429Y-9345000D01*
X19685381Y-9316429D01*
X19675857Y-9306905D01*
M02*
