%TF.GenerationSoftware,KiCad,Pcbnew,(6.0.9)*%
%TF.CreationDate,2023-06-25T00:46:11+02:00*%
%TF.ProjectId,keyring_beerclock,6b657972-696e-4675-9f62-656572636c6f,rev?*%
%TF.SameCoordinates,Original*%
%TF.FileFunction,Copper,L2,Inr*%
%TF.FilePolarity,Positive*%
%FSLAX46Y46*%
G04 Gerber Fmt 4.6, Leading zero omitted, Abs format (unit mm)*
G04 Created by KiCad (PCBNEW (6.0.9)) date 2023-06-25 00:46:11*
%MOMM*%
%LPD*%
G01*
G04 APERTURE LIST*
%TA.AperFunction,ViaPad*%
%ADD10C,0.500000*%
%TD*%
%TA.AperFunction,Conductor*%
%ADD11C,0.150000*%
%TD*%
%TA.AperFunction,Conductor*%
%ADD12C,0.250000*%
%TD*%
G04 APERTURE END LIST*
D10*
%TO.N,GND*%
X150500000Y-78100000D03*
X150500000Y-77400000D03*
%TO.N,UDPI*%
X144700000Y-75300000D03*
X150500000Y-76300000D03*
%TO.N,BTN_RIGHT*%
X133000000Y-70200000D03*
%TO.N,GND*%
X133000000Y-69400000D03*
X133000000Y-68700000D03*
X147100000Y-74400000D03*
X147100000Y-70900000D03*
X135400000Y-82100000D03*
X133200000Y-82100000D03*
X131000000Y-82100000D03*
X146500000Y-68600000D03*
X146500000Y-67900000D03*
X139500000Y-67900000D03*
%TO.N,+3V3*%
X141800000Y-78050500D03*
%TO.N,BTN_RIGHT*%
X141500000Y-75200000D03*
%TO.N,GND*%
X137800000Y-75000000D03*
%TO.N,/PWR_IN*%
X140500000Y-76900000D03*
X144800000Y-79400000D03*
%TO.N,GND*%
X145300000Y-73100000D03*
%TO.N,+3V3*%
X130100000Y-75800000D03*
X137100000Y-71000000D03*
X140600000Y-68072975D03*
X153300000Y-69600000D03*
X149330000Y-70570000D03*
X147000000Y-73300000D03*
X147000000Y-72100000D03*
%TO.N,~{RES}*%
X140505741Y-73807176D03*
%TO.N,SCL*%
X140480000Y-73120000D03*
%TO.N,/C2P*%
X146600000Y-77300000D03*
%TO.N,/C2N*%
X144700000Y-76200000D03*
%TO.N,/C1P*%
X144700000Y-77300000D03*
%TO.N,/C1N*%
X143700000Y-75300000D03*
%TO.N,/VBAT*%
X142600000Y-75300000D03*
%TO.N,/VCC_CAP*%
X144800000Y-70100000D03*
%TO.N,/VCOMM*%
X143700000Y-70100000D03*
%TO.N,/IREF*%
X142600000Y-70100000D03*
%TO.N,SDA*%
X141500000Y-70100000D03*
%TD*%
D11*
%TO.N,UDPI*%
X145125000Y-75725000D02*
X144700000Y-75300000D01*
X149925000Y-75725000D02*
X145125000Y-75725000D01*
X150500000Y-76300000D02*
X149925000Y-75725000D01*
D12*
%TO.N,/PWR_IN*%
X140500000Y-78400000D02*
X140500000Y-76900000D01*
X144800000Y-79400000D02*
X141500000Y-79400000D01*
X141500000Y-79400000D02*
X140500000Y-78400000D01*
D11*
%TO.N,BTN_RIGHT*%
X135300000Y-70200000D02*
X133000000Y-70200000D01*
X135600000Y-69900000D02*
X135300000Y-70200000D01*
X139600000Y-69900000D02*
X135600000Y-69900000D01*
X141500000Y-71800000D02*
X139600000Y-69900000D01*
X141500000Y-75200000D02*
X141500000Y-71800000D01*
%TD*%
%TA.AperFunction,Conductor*%
%TO.N,GND*%
G36*
X140443540Y-67490502D02*
G01*
X140490033Y-67544158D01*
X140500137Y-67614432D01*
X140470643Y-67679012D01*
X140432622Y-67708767D01*
X140361658Y-67744925D01*
X140271950Y-67834633D01*
X140214354Y-67947671D01*
X140194508Y-68072975D01*
X140214354Y-68198279D01*
X140271950Y-68311317D01*
X140361658Y-68401025D01*
X140474696Y-68458621D01*
X140484485Y-68460171D01*
X140484487Y-68460172D01*
X140590207Y-68476916D01*
X140600000Y-68478467D01*
X140609793Y-68476916D01*
X140715513Y-68460172D01*
X140715515Y-68460171D01*
X140725304Y-68458621D01*
X140838342Y-68401025D01*
X140928050Y-68311317D01*
X140985646Y-68198279D01*
X141005492Y-68072975D01*
X140985646Y-67947671D01*
X140928050Y-67834633D01*
X140838342Y-67744925D01*
X140767378Y-67708767D01*
X140715763Y-67660019D01*
X140698697Y-67591104D01*
X140721598Y-67523902D01*
X140777195Y-67479750D01*
X140824581Y-67470500D01*
X154403500Y-67470500D01*
X154471621Y-67490502D01*
X154518114Y-67544158D01*
X154529500Y-67596500D01*
X154529500Y-82443500D01*
X154509498Y-82511621D01*
X154455842Y-82558114D01*
X154403500Y-82569500D01*
X129556500Y-82569500D01*
X129488379Y-82549498D01*
X129441886Y-82495842D01*
X129430500Y-82443500D01*
X129430500Y-80911105D01*
X142669031Y-80911105D01*
X142708612Y-81075968D01*
X142786375Y-81226631D01*
X142791367Y-81232353D01*
X142791368Y-81232355D01*
X142853808Y-81303931D01*
X142897831Y-81354396D01*
X142904045Y-81358763D01*
X143030330Y-81447518D01*
X143030332Y-81447519D01*
X143036547Y-81451887D01*
X143194513Y-81513476D01*
X143202046Y-81514468D01*
X143202047Y-81514468D01*
X143319739Y-81529962D01*
X143323826Y-81530500D01*
X143412516Y-81530500D01*
X143538320Y-81515276D01*
X143696923Y-81455345D01*
X143836651Y-81359312D01*
X143846132Y-81348671D01*
X143944388Y-81238392D01*
X143944390Y-81238388D01*
X143949440Y-81232721D01*
X143956238Y-81219883D01*
X144025224Y-81089589D01*
X144028776Y-81082881D01*
X144070081Y-80918441D01*
X144070119Y-80911105D01*
X145669031Y-80911105D01*
X145708612Y-81075968D01*
X145786375Y-81226631D01*
X145791367Y-81232353D01*
X145791368Y-81232355D01*
X145853808Y-81303931D01*
X145897831Y-81354396D01*
X145904045Y-81358763D01*
X146030330Y-81447518D01*
X146030332Y-81447519D01*
X146036547Y-81451887D01*
X146194513Y-81513476D01*
X146202046Y-81514468D01*
X146202047Y-81514468D01*
X146319739Y-81529962D01*
X146323826Y-81530500D01*
X146412516Y-81530500D01*
X146538320Y-81515276D01*
X146696923Y-81455345D01*
X146836651Y-81359312D01*
X146846132Y-81348671D01*
X146944388Y-81238392D01*
X146944390Y-81238388D01*
X146949440Y-81232721D01*
X146956238Y-81219883D01*
X147025224Y-81089589D01*
X147028776Y-81082881D01*
X147070081Y-80918441D01*
X147070969Y-80748895D01*
X147031388Y-80584032D01*
X146953625Y-80433369D01*
X146948313Y-80427279D01*
X146847163Y-80311329D01*
X146842169Y-80305604D01*
X146783649Y-80264475D01*
X146709670Y-80212482D01*
X146709668Y-80212481D01*
X146703453Y-80208113D01*
X146545487Y-80146524D01*
X146537954Y-80145532D01*
X146537953Y-80145532D01*
X146420261Y-80130038D01*
X146420260Y-80130038D01*
X146416174Y-80129500D01*
X146327484Y-80129500D01*
X146201680Y-80144724D01*
X146043077Y-80204655D01*
X145903349Y-80300688D01*
X145898297Y-80306358D01*
X145898296Y-80306359D01*
X145795612Y-80421608D01*
X145795610Y-80421612D01*
X145790560Y-80427279D01*
X145787008Y-80433988D01*
X145787007Y-80433989D01*
X145754746Y-80494920D01*
X145711224Y-80577119D01*
X145669919Y-80741559D01*
X145669031Y-80911105D01*
X144070119Y-80911105D01*
X144070969Y-80748895D01*
X144031388Y-80584032D01*
X143953625Y-80433369D01*
X143948313Y-80427279D01*
X143847163Y-80311329D01*
X143842169Y-80305604D01*
X143783649Y-80264475D01*
X143709670Y-80212482D01*
X143709668Y-80212481D01*
X143703453Y-80208113D01*
X143545487Y-80146524D01*
X143537954Y-80145532D01*
X143537953Y-80145532D01*
X143420261Y-80130038D01*
X143420260Y-80130038D01*
X143416174Y-80129500D01*
X143327484Y-80129500D01*
X143201680Y-80144724D01*
X143043077Y-80204655D01*
X142903349Y-80300688D01*
X142898297Y-80306358D01*
X142898296Y-80306359D01*
X142795612Y-80421608D01*
X142795610Y-80421612D01*
X142790560Y-80427279D01*
X142787008Y-80433988D01*
X142787007Y-80433989D01*
X142754746Y-80494920D01*
X142711224Y-80577119D01*
X142669919Y-80741559D01*
X142669031Y-80911105D01*
X129430500Y-80911105D01*
X129430500Y-77910000D01*
X133524534Y-77910000D01*
X133544313Y-78060236D01*
X133602302Y-78200233D01*
X133694549Y-78320451D01*
X133814767Y-78412698D01*
X133954764Y-78470687D01*
X134067280Y-78485500D01*
X134142720Y-78485500D01*
X134255236Y-78470687D01*
X134395233Y-78412698D01*
X134515451Y-78320451D01*
X134607698Y-78200233D01*
X134665687Y-78060236D01*
X134685466Y-77910000D01*
X134665687Y-77759764D01*
X134607698Y-77619767D01*
X134515451Y-77499549D01*
X134395233Y-77407302D01*
X134255236Y-77349313D01*
X134142720Y-77334500D01*
X134067280Y-77334500D01*
X133954764Y-77349313D01*
X133814767Y-77407302D01*
X133694549Y-77499549D01*
X133602302Y-77619767D01*
X133544313Y-77759764D01*
X133524534Y-77910000D01*
X129430500Y-77910000D01*
X129430500Y-76900000D01*
X140094508Y-76900000D01*
X140096059Y-76909793D01*
X140105904Y-76971950D01*
X140114354Y-77025304D01*
X140171950Y-77138342D01*
X140187595Y-77153987D01*
X140221621Y-77216299D01*
X140224500Y-77243082D01*
X140224500Y-78360457D01*
X140222079Y-78385039D01*
X140219103Y-78400000D01*
X140224500Y-78427132D01*
X140224500Y-78427133D01*
X140240485Y-78507495D01*
X140301376Y-78598624D01*
X140311692Y-78605517D01*
X140311693Y-78605518D01*
X140314064Y-78607102D01*
X140333156Y-78622772D01*
X141277228Y-79566844D01*
X141292898Y-79585936D01*
X141301376Y-79598624D01*
X141311689Y-79605515D01*
X141324377Y-79613993D01*
X141324378Y-79613994D01*
X141371310Y-79645353D01*
X141392506Y-79659516D01*
X141500000Y-79680897D01*
X141514962Y-79677921D01*
X141539542Y-79675500D01*
X144456918Y-79675500D01*
X144525039Y-79695502D01*
X144546013Y-79712405D01*
X144561658Y-79728050D01*
X144674696Y-79785646D01*
X144684485Y-79787196D01*
X144684487Y-79787197D01*
X144790207Y-79803941D01*
X144800000Y-79805492D01*
X144809793Y-79803941D01*
X144915513Y-79787197D01*
X144915515Y-79787196D01*
X144925304Y-79785646D01*
X145038342Y-79728050D01*
X145128050Y-79638342D01*
X145185646Y-79525304D01*
X145205492Y-79400000D01*
X145185646Y-79274696D01*
X145128050Y-79161658D01*
X145038342Y-79071950D01*
X144925304Y-79014354D01*
X144915515Y-79012804D01*
X144915513Y-79012803D01*
X144809793Y-78996059D01*
X144800000Y-78994508D01*
X144790207Y-78996059D01*
X144684487Y-79012803D01*
X144684485Y-79012804D01*
X144674696Y-79014354D01*
X144561658Y-79071950D01*
X144546013Y-79087595D01*
X144483701Y-79121621D01*
X144456918Y-79124500D01*
X141666306Y-79124500D01*
X141598185Y-79104498D01*
X141577211Y-79087595D01*
X140812405Y-78322789D01*
X140778379Y-78260477D01*
X140775500Y-78233694D01*
X140775500Y-78050500D01*
X141394508Y-78050500D01*
X141414354Y-78175804D01*
X141471950Y-78288842D01*
X141561658Y-78378550D01*
X141674696Y-78436146D01*
X141684485Y-78437696D01*
X141684487Y-78437697D01*
X141790207Y-78454441D01*
X141800000Y-78455992D01*
X141809793Y-78454441D01*
X141915513Y-78437697D01*
X141915515Y-78437696D01*
X141925304Y-78436146D01*
X142038342Y-78378550D01*
X142128050Y-78288842D01*
X142185646Y-78175804D01*
X142205492Y-78050500D01*
X142185646Y-77925196D01*
X142128050Y-77812158D01*
X142038342Y-77722450D01*
X141925304Y-77664854D01*
X141915515Y-77663304D01*
X141915513Y-77663303D01*
X141809793Y-77646559D01*
X141800000Y-77645008D01*
X141790207Y-77646559D01*
X141684487Y-77663303D01*
X141684485Y-77663304D01*
X141674696Y-77664854D01*
X141561658Y-77722450D01*
X141471950Y-77812158D01*
X141414354Y-77925196D01*
X141394508Y-78050500D01*
X140775500Y-78050500D01*
X140775500Y-77300000D01*
X144294508Y-77300000D01*
X144296059Y-77309793D01*
X144302148Y-77348235D01*
X144314354Y-77425304D01*
X144371950Y-77538342D01*
X144461658Y-77628050D01*
X144574696Y-77685646D01*
X144584485Y-77687196D01*
X144584487Y-77687197D01*
X144690207Y-77703941D01*
X144700000Y-77705492D01*
X144709793Y-77703941D01*
X144815513Y-77687197D01*
X144815515Y-77687196D01*
X144825304Y-77685646D01*
X144938342Y-77628050D01*
X145028050Y-77538342D01*
X145085646Y-77425304D01*
X145097853Y-77348235D01*
X145103941Y-77309793D01*
X145105492Y-77300000D01*
X146194508Y-77300000D01*
X146196059Y-77309793D01*
X146202148Y-77348235D01*
X146214354Y-77425304D01*
X146271950Y-77538342D01*
X146361658Y-77628050D01*
X146474696Y-77685646D01*
X146484485Y-77687196D01*
X146484487Y-77687197D01*
X146590207Y-77703941D01*
X146600000Y-77705492D01*
X146609793Y-77703941D01*
X146715513Y-77687197D01*
X146715515Y-77687196D01*
X146725304Y-77685646D01*
X146838342Y-77628050D01*
X146928050Y-77538342D01*
X146985646Y-77425304D01*
X146997853Y-77348235D01*
X147003941Y-77309793D01*
X147005492Y-77300000D01*
X146985646Y-77174696D01*
X146928050Y-77061658D01*
X146838342Y-76971950D01*
X146725304Y-76914354D01*
X146715515Y-76912804D01*
X146715513Y-76912803D01*
X146609793Y-76896059D01*
X146600000Y-76894508D01*
X146590207Y-76896059D01*
X146484487Y-76912803D01*
X146484485Y-76912804D01*
X146474696Y-76914354D01*
X146361658Y-76971950D01*
X146271950Y-77061658D01*
X146214354Y-77174696D01*
X146194508Y-77300000D01*
X145105492Y-77300000D01*
X145085646Y-77174696D01*
X145028050Y-77061658D01*
X144938342Y-76971950D01*
X144825304Y-76914354D01*
X144815515Y-76912804D01*
X144815513Y-76912803D01*
X144709793Y-76896059D01*
X144700000Y-76894508D01*
X144690207Y-76896059D01*
X144584487Y-76912803D01*
X144584485Y-76912804D01*
X144574696Y-76914354D01*
X144461658Y-76971950D01*
X144371950Y-77061658D01*
X144314354Y-77174696D01*
X144294508Y-77300000D01*
X140775500Y-77300000D01*
X140775500Y-77243082D01*
X140795502Y-77174961D01*
X140812405Y-77153987D01*
X140828050Y-77138342D01*
X140885646Y-77025304D01*
X140894097Y-76971950D01*
X140903941Y-76909793D01*
X140905492Y-76900000D01*
X140885646Y-76774696D01*
X140828050Y-76661658D01*
X140738342Y-76571950D01*
X140625304Y-76514354D01*
X140615515Y-76512804D01*
X140615513Y-76512803D01*
X140509793Y-76496059D01*
X140500000Y-76494508D01*
X140490207Y-76496059D01*
X140384487Y-76512803D01*
X140384485Y-76512804D01*
X140374696Y-76514354D01*
X140261658Y-76571950D01*
X140171950Y-76661658D01*
X140114354Y-76774696D01*
X140094508Y-76900000D01*
X129430500Y-76900000D01*
X129430500Y-75800000D01*
X129694508Y-75800000D01*
X129696059Y-75809793D01*
X129712620Y-75914354D01*
X129714354Y-75925304D01*
X129771950Y-76038342D01*
X129861658Y-76128050D01*
X129974696Y-76185646D01*
X129984485Y-76187196D01*
X129984487Y-76187197D01*
X130090207Y-76203941D01*
X130100000Y-76205492D01*
X130109793Y-76203941D01*
X130215513Y-76187197D01*
X130215515Y-76187196D01*
X130225304Y-76185646D01*
X130338342Y-76128050D01*
X130428050Y-76038342D01*
X130485646Y-75925304D01*
X130487381Y-75914354D01*
X130503941Y-75809793D01*
X130505492Y-75800000D01*
X130503941Y-75790207D01*
X130487197Y-75684487D01*
X130487196Y-75684485D01*
X130485646Y-75674696D01*
X130428050Y-75561658D01*
X130338342Y-75471950D01*
X130225304Y-75414354D01*
X130215515Y-75412804D01*
X130215513Y-75412803D01*
X130109793Y-75396059D01*
X130100000Y-75394508D01*
X130090207Y-75396059D01*
X129984487Y-75412803D01*
X129984485Y-75412804D01*
X129974696Y-75414354D01*
X129861658Y-75471950D01*
X129771950Y-75561658D01*
X129714354Y-75674696D01*
X129712804Y-75684485D01*
X129712803Y-75684487D01*
X129696059Y-75790207D01*
X129694508Y-75800000D01*
X129430500Y-75800000D01*
X129430500Y-73120000D01*
X140074508Y-73120000D01*
X140076059Y-73129793D01*
X140084722Y-73184487D01*
X140094354Y-73245304D01*
X140151950Y-73358342D01*
X140180972Y-73387364D01*
X140214998Y-73449676D01*
X140209933Y-73520491D01*
X140189161Y-73552807D01*
X140190530Y-73553802D01*
X140184703Y-73561822D01*
X140177691Y-73568834D01*
X140120095Y-73681872D01*
X140118545Y-73691661D01*
X140118544Y-73691663D01*
X140116354Y-73705492D01*
X140100249Y-73807176D01*
X140120095Y-73932480D01*
X140177691Y-74045518D01*
X140267399Y-74135226D01*
X140380437Y-74192822D01*
X140390226Y-74194372D01*
X140390228Y-74194373D01*
X140495948Y-74211117D01*
X140505741Y-74212668D01*
X140515534Y-74211117D01*
X140621254Y-74194373D01*
X140621256Y-74194372D01*
X140631045Y-74192822D01*
X140744083Y-74135226D01*
X140833791Y-74045518D01*
X140891387Y-73932480D01*
X140911233Y-73807176D01*
X140895128Y-73705492D01*
X140892938Y-73691663D01*
X140892937Y-73691661D01*
X140891387Y-73681872D01*
X140833791Y-73568834D01*
X140804770Y-73539813D01*
X140770744Y-73477501D01*
X140775809Y-73406686D01*
X140796576Y-73374366D01*
X140795211Y-73373374D01*
X140801039Y-73365353D01*
X140808050Y-73358342D01*
X140865646Y-73245304D01*
X140875279Y-73184487D01*
X140883941Y-73129793D01*
X140885492Y-73120000D01*
X140865646Y-72994696D01*
X140808050Y-72881658D01*
X140718342Y-72791950D01*
X140605304Y-72734354D01*
X140595515Y-72732804D01*
X140595513Y-72732803D01*
X140489793Y-72716059D01*
X140480000Y-72714508D01*
X140470207Y-72716059D01*
X140364487Y-72732803D01*
X140364485Y-72732804D01*
X140354696Y-72734354D01*
X140241658Y-72791950D01*
X140151950Y-72881658D01*
X140094354Y-72994696D01*
X140074508Y-73120000D01*
X129430500Y-73120000D01*
X129430500Y-72130000D01*
X133524534Y-72130000D01*
X133544313Y-72280236D01*
X133602302Y-72420233D01*
X133694549Y-72540451D01*
X133814767Y-72632698D01*
X133954764Y-72690687D01*
X134067280Y-72705500D01*
X134142720Y-72705500D01*
X134255236Y-72690687D01*
X134395233Y-72632698D01*
X134515451Y-72540451D01*
X134607698Y-72420233D01*
X134665687Y-72280236D01*
X134685466Y-72130000D01*
X134665687Y-71979764D01*
X134607698Y-71839767D01*
X134515451Y-71719549D01*
X134395233Y-71627302D01*
X134255236Y-71569313D01*
X134142720Y-71554500D01*
X134067280Y-71554500D01*
X133954764Y-71569313D01*
X133814767Y-71627302D01*
X133694549Y-71719549D01*
X133602302Y-71839767D01*
X133544313Y-71979764D01*
X133524534Y-72130000D01*
X129430500Y-72130000D01*
X129430500Y-71000000D01*
X136694508Y-71000000D01*
X136714354Y-71125304D01*
X136771950Y-71238342D01*
X136861658Y-71328050D01*
X136974696Y-71385646D01*
X136984485Y-71387196D01*
X136984487Y-71387197D01*
X137090207Y-71403941D01*
X137100000Y-71405492D01*
X137109793Y-71403941D01*
X137215513Y-71387197D01*
X137215515Y-71387196D01*
X137225304Y-71385646D01*
X137338342Y-71328050D01*
X137428050Y-71238342D01*
X137485646Y-71125304D01*
X137505492Y-71000000D01*
X137489345Y-70898050D01*
X137487197Y-70884487D01*
X137487196Y-70884485D01*
X137485646Y-70874696D01*
X137428050Y-70761658D01*
X137338342Y-70671950D01*
X137225304Y-70614354D01*
X137215515Y-70612804D01*
X137215513Y-70612803D01*
X137109793Y-70596059D01*
X137100000Y-70594508D01*
X137090207Y-70596059D01*
X136984487Y-70612803D01*
X136984485Y-70612804D01*
X136974696Y-70614354D01*
X136861658Y-70671950D01*
X136771950Y-70761658D01*
X136714354Y-70874696D01*
X136712804Y-70884485D01*
X136712803Y-70884487D01*
X136710655Y-70898050D01*
X136694508Y-71000000D01*
X129430500Y-71000000D01*
X129430500Y-70200000D01*
X132594508Y-70200000D01*
X132596059Y-70209793D01*
X132602263Y-70248961D01*
X132614354Y-70325304D01*
X132671950Y-70438342D01*
X132761658Y-70528050D01*
X132874696Y-70585646D01*
X132884485Y-70587196D01*
X132884487Y-70587197D01*
X132990207Y-70603941D01*
X133000000Y-70605492D01*
X133009793Y-70603941D01*
X133115513Y-70587197D01*
X133115515Y-70587196D01*
X133125304Y-70585646D01*
X133238342Y-70528050D01*
X133303987Y-70462405D01*
X133366299Y-70428379D01*
X133393082Y-70425500D01*
X135290792Y-70425500D01*
X135297386Y-70425673D01*
X135322836Y-70427007D01*
X135322837Y-70427007D01*
X135336064Y-70427700D01*
X135354984Y-70420437D01*
X135373942Y-70414821D01*
X135380816Y-70413360D01*
X135393768Y-70410607D01*
X135404481Y-70402824D01*
X135409029Y-70400799D01*
X135413198Y-70398092D01*
X135425560Y-70393346D01*
X135439892Y-70379014D01*
X135454927Y-70366173D01*
X135460609Y-70362045D01*
X135460611Y-70362043D01*
X135471323Y-70354260D01*
X135477944Y-70342793D01*
X135486806Y-70332950D01*
X135487159Y-70333267D01*
X135492173Y-70326733D01*
X135569945Y-70248961D01*
X135656500Y-70162405D01*
X135718812Y-70128380D01*
X135745596Y-70125500D01*
X139454404Y-70125500D01*
X139522525Y-70145502D01*
X139543499Y-70162405D01*
X141237595Y-71856501D01*
X141271621Y-71918813D01*
X141274500Y-71945596D01*
X141274500Y-74806918D01*
X141254498Y-74875039D01*
X141237595Y-74896013D01*
X141171950Y-74961658D01*
X141114354Y-75074696D01*
X141112804Y-75084485D01*
X141112803Y-75084487D01*
X141098516Y-75174696D01*
X141094508Y-75200000D01*
X141114354Y-75325304D01*
X141171950Y-75438342D01*
X141261658Y-75528050D01*
X141374696Y-75585646D01*
X141384485Y-75587196D01*
X141384487Y-75587197D01*
X141490207Y-75603941D01*
X141500000Y-75605492D01*
X141509793Y-75603941D01*
X141615513Y-75587197D01*
X141615515Y-75587196D01*
X141625304Y-75585646D01*
X141738342Y-75528050D01*
X141828050Y-75438342D01*
X141885646Y-75325304D01*
X141889654Y-75300000D01*
X142194508Y-75300000D01*
X142196059Y-75309791D01*
X142196059Y-75309793D01*
X142212620Y-75414354D01*
X142214354Y-75425304D01*
X142271950Y-75538342D01*
X142361658Y-75628050D01*
X142474696Y-75685646D01*
X142484485Y-75687196D01*
X142484487Y-75687197D01*
X142590207Y-75703941D01*
X142600000Y-75705492D01*
X142609793Y-75703941D01*
X142715513Y-75687197D01*
X142715515Y-75687196D01*
X142725304Y-75685646D01*
X142838342Y-75628050D01*
X142928050Y-75538342D01*
X142985646Y-75425304D01*
X142987381Y-75414354D01*
X143003941Y-75309793D01*
X143003941Y-75309791D01*
X143005492Y-75300000D01*
X143294508Y-75300000D01*
X143296059Y-75309791D01*
X143296059Y-75309793D01*
X143312620Y-75414354D01*
X143314354Y-75425304D01*
X143371950Y-75538342D01*
X143461658Y-75628050D01*
X143574696Y-75685646D01*
X143584485Y-75687196D01*
X143584487Y-75687197D01*
X143690207Y-75703941D01*
X143700000Y-75705492D01*
X143709793Y-75703941D01*
X143815513Y-75687197D01*
X143815515Y-75687196D01*
X143825304Y-75685646D01*
X143938342Y-75628050D01*
X144028050Y-75538342D01*
X144085646Y-75425304D01*
X144087588Y-75426294D01*
X144120241Y-75378542D01*
X144185638Y-75350905D01*
X144255595Y-75363012D01*
X144307900Y-75411019D01*
X144314317Y-75425068D01*
X144314354Y-75425304D01*
X144371950Y-75538342D01*
X144461658Y-75628050D01*
X144470491Y-75632550D01*
X144470490Y-75632550D01*
X144480662Y-75637733D01*
X144532277Y-75686481D01*
X144549343Y-75755396D01*
X144526442Y-75822598D01*
X144480662Y-75862267D01*
X144461658Y-75871950D01*
X144371950Y-75961658D01*
X144314354Y-76074696D01*
X144312804Y-76084485D01*
X144312803Y-76084487D01*
X144305191Y-76132550D01*
X144294508Y-76200000D01*
X144314354Y-76325304D01*
X144371950Y-76438342D01*
X144461658Y-76528050D01*
X144574696Y-76585646D01*
X144584485Y-76587196D01*
X144584487Y-76587197D01*
X144690207Y-76603941D01*
X144700000Y-76605492D01*
X144709793Y-76603941D01*
X144815513Y-76587197D01*
X144815515Y-76587196D01*
X144825304Y-76585646D01*
X144938342Y-76528050D01*
X145028050Y-76438342D01*
X145085646Y-76325304D01*
X145105492Y-76200000D01*
X145102302Y-76179856D01*
X145089054Y-76096210D01*
X145098154Y-76025799D01*
X145143876Y-75971485D01*
X145213503Y-75950500D01*
X149779404Y-75950500D01*
X149847525Y-75970502D01*
X149868499Y-75987405D01*
X150060950Y-76179856D01*
X150094976Y-76242168D01*
X150096303Y-76288664D01*
X150096059Y-76290204D01*
X150096059Y-76290207D01*
X150094508Y-76300000D01*
X150114354Y-76425304D01*
X150171950Y-76538342D01*
X150261658Y-76628050D01*
X150374696Y-76685646D01*
X150384485Y-76687196D01*
X150384487Y-76687197D01*
X150490207Y-76703941D01*
X150500000Y-76705492D01*
X150509793Y-76703941D01*
X150615513Y-76687197D01*
X150615515Y-76687196D01*
X150625304Y-76685646D01*
X150738342Y-76628050D01*
X150828050Y-76538342D01*
X150885646Y-76425304D01*
X150905492Y-76300000D01*
X150903941Y-76290207D01*
X150887197Y-76184487D01*
X150887196Y-76184485D01*
X150885646Y-76174696D01*
X150828050Y-76061658D01*
X150738342Y-75971950D01*
X150625304Y-75914354D01*
X150615515Y-75912804D01*
X150615513Y-75912803D01*
X150509793Y-75896059D01*
X150500000Y-75894508D01*
X150488661Y-75896304D01*
X150486766Y-75896059D01*
X150480289Y-75896059D01*
X150480289Y-75895222D01*
X150418250Y-75887205D01*
X150379855Y-75860950D01*
X150090977Y-75572072D01*
X150086436Y-75567288D01*
X150060507Y-75538491D01*
X150041985Y-75530245D01*
X150024622Y-75520817D01*
X150007618Y-75509774D01*
X149994537Y-75507702D01*
X149989894Y-75505920D01*
X149985028Y-75504886D01*
X149972932Y-75499500D01*
X149952666Y-75499500D01*
X149932957Y-75497949D01*
X149912935Y-75494778D01*
X149900146Y-75498205D01*
X149886918Y-75498898D01*
X149886893Y-75498424D01*
X149878723Y-75499500D01*
X145270595Y-75499500D01*
X145202474Y-75479498D01*
X145181500Y-75462595D01*
X145139050Y-75420145D01*
X145105024Y-75357833D01*
X145103696Y-75311338D01*
X145103941Y-75309791D01*
X145105492Y-75300000D01*
X145088103Y-75190207D01*
X145087197Y-75184487D01*
X145087196Y-75184485D01*
X145085646Y-75174696D01*
X145028050Y-75061658D01*
X144938342Y-74971950D01*
X144825304Y-74914354D01*
X144815515Y-74912804D01*
X144815513Y-74912803D01*
X144709793Y-74896059D01*
X144700000Y-74894508D01*
X144690207Y-74896059D01*
X144584487Y-74912803D01*
X144584485Y-74912804D01*
X144574696Y-74914354D01*
X144461658Y-74971950D01*
X144371950Y-75061658D01*
X144314354Y-75174696D01*
X144312412Y-75173706D01*
X144279759Y-75221458D01*
X144214362Y-75249095D01*
X144144405Y-75236988D01*
X144092100Y-75188981D01*
X144085683Y-75174932D01*
X144085646Y-75174696D01*
X144028050Y-75061658D01*
X143938342Y-74971950D01*
X143825304Y-74914354D01*
X143815515Y-74912804D01*
X143815513Y-74912803D01*
X143709793Y-74896059D01*
X143700000Y-74894508D01*
X143690207Y-74896059D01*
X143584487Y-74912803D01*
X143584485Y-74912804D01*
X143574696Y-74914354D01*
X143461658Y-74971950D01*
X143371950Y-75061658D01*
X143314354Y-75174696D01*
X143312804Y-75184485D01*
X143312803Y-75184487D01*
X143311897Y-75190207D01*
X143294508Y-75300000D01*
X143005492Y-75300000D01*
X142988103Y-75190207D01*
X142987197Y-75184487D01*
X142987196Y-75184485D01*
X142985646Y-75174696D01*
X142928050Y-75061658D01*
X142838342Y-74971950D01*
X142725304Y-74914354D01*
X142715515Y-74912804D01*
X142715513Y-74912803D01*
X142609793Y-74896059D01*
X142600000Y-74894508D01*
X142590207Y-74896059D01*
X142484487Y-74912803D01*
X142484485Y-74912804D01*
X142474696Y-74914354D01*
X142361658Y-74971950D01*
X142271950Y-75061658D01*
X142214354Y-75174696D01*
X142212804Y-75184485D01*
X142212803Y-75184487D01*
X142211897Y-75190207D01*
X142194508Y-75300000D01*
X141889654Y-75300000D01*
X141905492Y-75200000D01*
X141901484Y-75174696D01*
X141887197Y-75084487D01*
X141887196Y-75084485D01*
X141885646Y-75074696D01*
X141828050Y-74961658D01*
X141762405Y-74896013D01*
X141728379Y-74833701D01*
X141725500Y-74806918D01*
X141725500Y-73300000D01*
X146594508Y-73300000D01*
X146614354Y-73425304D01*
X146671950Y-73538342D01*
X146761658Y-73628050D01*
X146874696Y-73685646D01*
X146884485Y-73687196D01*
X146884487Y-73687197D01*
X146990207Y-73703941D01*
X147000000Y-73705492D01*
X147009793Y-73703941D01*
X147115513Y-73687197D01*
X147115515Y-73687196D01*
X147125304Y-73685646D01*
X147238342Y-73628050D01*
X147328050Y-73538342D01*
X147385646Y-73425304D01*
X147405492Y-73300000D01*
X147396829Y-73245304D01*
X147387197Y-73184487D01*
X147387196Y-73184485D01*
X147385646Y-73174696D01*
X147328050Y-73061658D01*
X147238342Y-72971950D01*
X147125304Y-72914354D01*
X147115515Y-72912804D01*
X147115513Y-72912803D01*
X147009793Y-72896059D01*
X147000000Y-72894508D01*
X146990207Y-72896059D01*
X146884487Y-72912803D01*
X146884485Y-72912804D01*
X146874696Y-72914354D01*
X146761658Y-72971950D01*
X146671950Y-73061658D01*
X146614354Y-73174696D01*
X146612804Y-73184485D01*
X146612803Y-73184487D01*
X146603171Y-73245304D01*
X146594508Y-73300000D01*
X141725500Y-73300000D01*
X141725500Y-72100000D01*
X146594508Y-72100000D01*
X146614354Y-72225304D01*
X146671950Y-72338342D01*
X146761658Y-72428050D01*
X146874696Y-72485646D01*
X146884485Y-72487196D01*
X146884487Y-72487197D01*
X146990207Y-72503941D01*
X147000000Y-72505492D01*
X147009793Y-72503941D01*
X147115513Y-72487197D01*
X147115515Y-72487196D01*
X147125304Y-72485646D01*
X147238342Y-72428050D01*
X147328050Y-72338342D01*
X147385646Y-72225304D01*
X147405492Y-72100000D01*
X147385646Y-71974696D01*
X147328050Y-71861658D01*
X147238342Y-71771950D01*
X147125304Y-71714354D01*
X147115515Y-71712804D01*
X147115513Y-71712803D01*
X147009793Y-71696059D01*
X147000000Y-71694508D01*
X146990207Y-71696059D01*
X146884487Y-71712803D01*
X146884485Y-71712804D01*
X146874696Y-71714354D01*
X146761658Y-71771950D01*
X146671950Y-71861658D01*
X146614354Y-71974696D01*
X146594508Y-72100000D01*
X141725500Y-72100000D01*
X141725500Y-71809208D01*
X141725673Y-71802614D01*
X141727007Y-71777163D01*
X141727007Y-71777162D01*
X141727700Y-71763936D01*
X141722954Y-71751574D01*
X141722954Y-71751571D01*
X141720436Y-71745012D01*
X141714820Y-71726053D01*
X141713361Y-71719187D01*
X141713360Y-71719185D01*
X141710607Y-71706232D01*
X141702822Y-71695517D01*
X141700797Y-71690969D01*
X141698091Y-71686802D01*
X141693346Y-71674441D01*
X141679017Y-71660112D01*
X141666176Y-71645078D01*
X141662043Y-71639389D01*
X141662042Y-71639388D01*
X141654260Y-71628677D01*
X141642794Y-71622057D01*
X141632949Y-71613193D01*
X141633267Y-71612840D01*
X141626728Y-71607823D01*
X140588905Y-70570000D01*
X148924508Y-70570000D01*
X148926059Y-70579793D01*
X148941766Y-70678961D01*
X148944354Y-70695304D01*
X149001950Y-70808342D01*
X149091658Y-70898050D01*
X149204696Y-70955646D01*
X149214485Y-70957196D01*
X149214487Y-70957197D01*
X149320207Y-70973941D01*
X149330000Y-70975492D01*
X149339793Y-70973941D01*
X149445513Y-70957197D01*
X149445515Y-70957196D01*
X149455304Y-70955646D01*
X149568342Y-70898050D01*
X149658050Y-70808342D01*
X149715646Y-70695304D01*
X149718235Y-70678961D01*
X149733941Y-70579793D01*
X149735492Y-70570000D01*
X149728848Y-70528050D01*
X149717197Y-70454487D01*
X149717196Y-70454485D01*
X149715646Y-70444696D01*
X149658050Y-70331658D01*
X149568342Y-70241950D01*
X149455304Y-70184354D01*
X149445515Y-70182804D01*
X149445513Y-70182803D01*
X149339793Y-70166059D01*
X149330000Y-70164508D01*
X149320207Y-70166059D01*
X149214487Y-70182803D01*
X149214485Y-70182804D01*
X149204696Y-70184354D01*
X149091658Y-70241950D01*
X149001950Y-70331658D01*
X148944354Y-70444696D01*
X148942804Y-70454485D01*
X148942803Y-70454487D01*
X148931152Y-70528050D01*
X148924508Y-70570000D01*
X140588905Y-70570000D01*
X140118905Y-70100000D01*
X141094508Y-70100000D01*
X141096059Y-70109793D01*
X141107623Y-70182803D01*
X141114354Y-70225304D01*
X141171950Y-70338342D01*
X141261658Y-70428050D01*
X141374696Y-70485646D01*
X141384485Y-70487196D01*
X141384487Y-70487197D01*
X141490207Y-70503941D01*
X141500000Y-70505492D01*
X141509793Y-70503941D01*
X141615513Y-70487197D01*
X141615515Y-70487196D01*
X141625304Y-70485646D01*
X141738342Y-70428050D01*
X141828050Y-70338342D01*
X141885646Y-70225304D01*
X141892378Y-70182803D01*
X141903941Y-70109793D01*
X141905492Y-70100000D01*
X142194508Y-70100000D01*
X142196059Y-70109793D01*
X142207623Y-70182803D01*
X142214354Y-70225304D01*
X142271950Y-70338342D01*
X142361658Y-70428050D01*
X142474696Y-70485646D01*
X142484485Y-70487196D01*
X142484487Y-70487197D01*
X142590207Y-70503941D01*
X142600000Y-70505492D01*
X142609793Y-70503941D01*
X142715513Y-70487197D01*
X142715515Y-70487196D01*
X142725304Y-70485646D01*
X142838342Y-70428050D01*
X142928050Y-70338342D01*
X142985646Y-70225304D01*
X142992378Y-70182803D01*
X143003941Y-70109793D01*
X143005492Y-70100000D01*
X143294508Y-70100000D01*
X143296059Y-70109793D01*
X143307623Y-70182803D01*
X143314354Y-70225304D01*
X143371950Y-70338342D01*
X143461658Y-70428050D01*
X143574696Y-70485646D01*
X143584485Y-70487196D01*
X143584487Y-70487197D01*
X143690207Y-70503941D01*
X143700000Y-70505492D01*
X143709793Y-70503941D01*
X143815513Y-70487197D01*
X143815515Y-70487196D01*
X143825304Y-70485646D01*
X143938342Y-70428050D01*
X144028050Y-70338342D01*
X144085646Y-70225304D01*
X144092378Y-70182803D01*
X144103941Y-70109793D01*
X144105492Y-70100000D01*
X144394508Y-70100000D01*
X144396059Y-70109793D01*
X144407623Y-70182803D01*
X144414354Y-70225304D01*
X144471950Y-70338342D01*
X144561658Y-70428050D01*
X144674696Y-70485646D01*
X144684485Y-70487196D01*
X144684487Y-70487197D01*
X144790207Y-70503941D01*
X144800000Y-70505492D01*
X144809793Y-70503941D01*
X144915513Y-70487197D01*
X144915515Y-70487196D01*
X144925304Y-70485646D01*
X145038342Y-70428050D01*
X145128050Y-70338342D01*
X145185646Y-70225304D01*
X145192378Y-70182803D01*
X145203941Y-70109793D01*
X145205492Y-70100000D01*
X145187626Y-69987197D01*
X145187197Y-69984487D01*
X145187196Y-69984485D01*
X145185646Y-69974696D01*
X145128050Y-69861658D01*
X145038342Y-69771950D01*
X144925304Y-69714354D01*
X144915515Y-69712804D01*
X144915513Y-69712803D01*
X144809793Y-69696059D01*
X144800000Y-69694508D01*
X144790207Y-69696059D01*
X144684487Y-69712803D01*
X144684485Y-69712804D01*
X144674696Y-69714354D01*
X144561658Y-69771950D01*
X144471950Y-69861658D01*
X144414354Y-69974696D01*
X144412804Y-69984485D01*
X144412803Y-69984487D01*
X144412374Y-69987197D01*
X144394508Y-70100000D01*
X144105492Y-70100000D01*
X144087626Y-69987197D01*
X144087197Y-69984487D01*
X144087196Y-69984485D01*
X144085646Y-69974696D01*
X144028050Y-69861658D01*
X143938342Y-69771950D01*
X143825304Y-69714354D01*
X143815515Y-69712804D01*
X143815513Y-69712803D01*
X143709793Y-69696059D01*
X143700000Y-69694508D01*
X143690207Y-69696059D01*
X143584487Y-69712803D01*
X143584485Y-69712804D01*
X143574696Y-69714354D01*
X143461658Y-69771950D01*
X143371950Y-69861658D01*
X143314354Y-69974696D01*
X143312804Y-69984485D01*
X143312803Y-69984487D01*
X143312374Y-69987197D01*
X143294508Y-70100000D01*
X143005492Y-70100000D01*
X142987626Y-69987197D01*
X142987197Y-69984487D01*
X142987196Y-69984485D01*
X142985646Y-69974696D01*
X142928050Y-69861658D01*
X142838342Y-69771950D01*
X142725304Y-69714354D01*
X142715515Y-69712804D01*
X142715513Y-69712803D01*
X142609793Y-69696059D01*
X142600000Y-69694508D01*
X142590207Y-69696059D01*
X142484487Y-69712803D01*
X142484485Y-69712804D01*
X142474696Y-69714354D01*
X142361658Y-69771950D01*
X142271950Y-69861658D01*
X142214354Y-69974696D01*
X142212804Y-69984485D01*
X142212803Y-69984487D01*
X142212374Y-69987197D01*
X142194508Y-70100000D01*
X141905492Y-70100000D01*
X141887626Y-69987197D01*
X141887197Y-69984487D01*
X141887196Y-69984485D01*
X141885646Y-69974696D01*
X141828050Y-69861658D01*
X141738342Y-69771950D01*
X141625304Y-69714354D01*
X141615515Y-69712804D01*
X141615513Y-69712803D01*
X141509793Y-69696059D01*
X141500000Y-69694508D01*
X141490207Y-69696059D01*
X141384487Y-69712803D01*
X141384485Y-69712804D01*
X141374696Y-69714354D01*
X141261658Y-69771950D01*
X141171950Y-69861658D01*
X141114354Y-69974696D01*
X141112804Y-69984485D01*
X141112803Y-69984487D01*
X141112374Y-69987197D01*
X141094508Y-70100000D01*
X140118905Y-70100000D01*
X139765977Y-69747072D01*
X139761436Y-69742288D01*
X139735507Y-69713491D01*
X139716985Y-69705245D01*
X139699622Y-69695817D01*
X139682618Y-69684774D01*
X139669537Y-69682702D01*
X139664894Y-69680920D01*
X139660028Y-69679886D01*
X139647932Y-69674500D01*
X139627666Y-69674500D01*
X139607957Y-69672949D01*
X139587935Y-69669778D01*
X139575146Y-69673205D01*
X139561918Y-69673898D01*
X139561893Y-69673424D01*
X139553723Y-69674500D01*
X135609208Y-69674500D01*
X135602614Y-69674327D01*
X135577164Y-69672993D01*
X135577163Y-69672993D01*
X135563936Y-69672300D01*
X135551569Y-69677047D01*
X135551570Y-69677047D01*
X135545015Y-69679563D01*
X135526059Y-69685179D01*
X135506232Y-69689393D01*
X135495519Y-69697176D01*
X135490971Y-69699201D01*
X135486802Y-69701908D01*
X135474440Y-69706654D01*
X135460108Y-69720986D01*
X135445073Y-69733827D01*
X135439391Y-69737955D01*
X135439389Y-69737957D01*
X135428677Y-69745740D01*
X135422056Y-69757207D01*
X135413194Y-69767050D01*
X135412841Y-69766733D01*
X135407827Y-69773267D01*
X135313645Y-69867450D01*
X135243500Y-69937595D01*
X135181188Y-69971620D01*
X135154404Y-69974500D01*
X133393082Y-69974500D01*
X133324961Y-69954498D01*
X133303987Y-69937595D01*
X133238342Y-69871950D01*
X133125304Y-69814354D01*
X133115515Y-69812804D01*
X133115513Y-69812803D01*
X133009793Y-69796059D01*
X133000000Y-69794508D01*
X132990207Y-69796059D01*
X132884487Y-69812803D01*
X132884485Y-69812804D01*
X132874696Y-69814354D01*
X132761658Y-69871950D01*
X132671950Y-69961658D01*
X132614354Y-70074696D01*
X132612804Y-70084485D01*
X132612803Y-70084487D01*
X132600462Y-70162405D01*
X132594508Y-70200000D01*
X129430500Y-70200000D01*
X129430500Y-69600000D01*
X152894508Y-69600000D01*
X152896059Y-69609793D01*
X152912620Y-69714354D01*
X152914354Y-69725304D01*
X152971950Y-69838342D01*
X153061658Y-69928050D01*
X153174696Y-69985646D01*
X153184485Y-69987196D01*
X153184487Y-69987197D01*
X153290207Y-70003941D01*
X153300000Y-70005492D01*
X153309793Y-70003941D01*
X153415513Y-69987197D01*
X153415515Y-69987196D01*
X153425304Y-69985646D01*
X153538342Y-69928050D01*
X153628050Y-69838342D01*
X153685646Y-69725304D01*
X153687381Y-69714354D01*
X153703941Y-69609793D01*
X153705492Y-69600000D01*
X153685646Y-69474696D01*
X153628050Y-69361658D01*
X153538342Y-69271950D01*
X153425304Y-69214354D01*
X153415515Y-69212804D01*
X153415513Y-69212803D01*
X153309793Y-69196059D01*
X153300000Y-69194508D01*
X153290207Y-69196059D01*
X153184487Y-69212803D01*
X153184485Y-69212804D01*
X153174696Y-69214354D01*
X153061658Y-69271950D01*
X152971950Y-69361658D01*
X152914354Y-69474696D01*
X152894508Y-69600000D01*
X129430500Y-69600000D01*
X129430500Y-67596500D01*
X129450502Y-67528379D01*
X129504158Y-67481886D01*
X129556500Y-67470500D01*
X140375419Y-67470500D01*
X140443540Y-67490502D01*
G37*
%TD.AperFunction*%
%TD*%
M02*
