%TF.GenerationSoftware,KiCad,Pcbnew,(6.0.9)*%
%TF.CreationDate,2023-06-25T00:46:11+02:00*%
%TF.ProjectId,keyring_beerclock,6b657972-696e-4675-9f62-656572636c6f,rev?*%
%TF.SameCoordinates,Original*%
%TF.FileFunction,Copper,L1,Top*%
%TF.FilePolarity,Positive*%
%FSLAX46Y46*%
G04 Gerber Fmt 4.6, Leading zero omitted, Abs format (unit mm)*
G04 Created by KiCad (PCBNEW (6.0.9)) date 2023-06-25 00:46:11*
%MOMM*%
%LPD*%
G01*
G04 APERTURE LIST*
G04 Aperture macros list*
%AMRoundRect*
0 Rectangle with rounded corners*
0 $1 Rounding radius*
0 $2 $3 $4 $5 $6 $7 $8 $9 X,Y pos of 4 corners*
0 Add a 4 corners polygon primitive as box body*
4,1,4,$2,$3,$4,$5,$6,$7,$8,$9,$2,$3,0*
0 Add four circle primitives for the rounded corners*
1,1,$1+$1,$2,$3*
1,1,$1+$1,$4,$5*
1,1,$1+$1,$6,$7*
1,1,$1+$1,$8,$9*
0 Add four rect primitives between the rounded corners*
20,1,$1+$1,$2,$3,$4,$5,0*
20,1,$1+$1,$4,$5,$6,$7,0*
20,1,$1+$1,$6,$7,$8,$9,0*
20,1,$1+$1,$8,$9,$2,$3,0*%
%AMFreePoly0*
4,1,14,0.334644,0.085355,0.385355,0.034644,0.400000,-0.000711,0.400000,-0.050000,0.385355,-0.085355,0.350000,-0.100000,-0.350000,-0.100000,-0.385355,-0.085355,-0.400000,-0.050000,-0.400000,0.050000,-0.385355,0.085355,-0.350000,0.100000,0.299289,0.100000,0.334644,0.085355,0.334644,0.085355,$1*%
%AMFreePoly1*
4,1,14,0.385355,0.085355,0.400000,0.050000,0.400000,0.000711,0.385355,-0.034644,0.334644,-0.085355,0.299289,-0.100000,-0.350000,-0.100000,-0.385355,-0.085355,-0.400000,-0.050000,-0.400000,0.050000,-0.385355,0.085355,-0.350000,0.100000,0.350000,0.100000,0.385355,0.085355,0.385355,0.085355,$1*%
%AMFreePoly2*
4,1,14,0.085355,0.385355,0.100000,0.350000,0.100000,-0.350000,0.085355,-0.385355,0.050000,-0.400000,-0.050000,-0.400000,-0.085355,-0.385355,-0.100000,-0.350000,-0.100000,0.299289,-0.085355,0.334644,-0.034644,0.385355,0.000711,0.400000,0.050000,0.400000,0.085355,0.385355,0.085355,0.385355,$1*%
%AMFreePoly3*
4,1,14,0.034644,0.385355,0.085355,0.334644,0.100000,0.299289,0.100000,-0.350000,0.085355,-0.385355,0.050000,-0.400000,-0.050000,-0.400000,-0.085355,-0.385355,-0.100000,-0.350000,-0.100000,0.350000,-0.085355,0.385355,-0.050000,0.400000,-0.000711,0.400000,0.034644,0.385355,0.034644,0.385355,$1*%
%AMFreePoly4*
4,1,14,0.385355,0.085355,0.400000,0.050000,0.400000,-0.050000,0.385355,-0.085355,0.350000,-0.100000,-0.299289,-0.100000,-0.334644,-0.085355,-0.385355,-0.034644,-0.400000,0.000711,-0.400000,0.050000,-0.385355,0.085355,-0.350000,0.100000,0.350000,0.100000,0.385355,0.085355,0.385355,0.085355,$1*%
%AMFreePoly5*
4,1,14,0.385355,0.085355,0.400000,0.050000,0.400000,-0.050000,0.385355,-0.085355,0.350000,-0.100000,-0.350000,-0.100000,-0.385355,-0.085355,-0.400000,-0.050000,-0.400000,-0.000711,-0.385355,0.034644,-0.334644,0.085355,-0.299289,0.100000,0.350000,0.100000,0.385355,0.085355,0.385355,0.085355,$1*%
%AMFreePoly6*
4,1,14,0.085355,0.385355,0.100000,0.350000,0.100000,-0.299289,0.085355,-0.334644,0.034644,-0.385355,-0.000711,-0.400000,-0.050000,-0.400000,-0.085355,-0.385355,-0.100000,-0.350000,-0.100000,0.350000,-0.085355,0.385355,-0.050000,0.400000,0.050000,0.400000,0.085355,0.385355,0.085355,0.385355,$1*%
%AMFreePoly7*
4,1,14,0.085355,0.385355,0.100000,0.350000,0.100000,-0.350000,0.085355,-0.385355,0.050000,-0.400000,0.000711,-0.400000,-0.034644,-0.385355,-0.085355,-0.334644,-0.100000,-0.299289,-0.100000,0.350000,-0.085355,0.385355,-0.050000,0.400000,0.050000,0.400000,0.085355,0.385355,0.085355,0.385355,$1*%
G04 Aperture macros list end*
%TA.AperFunction,SMDPad,CuDef*%
%ADD10RoundRect,0.250000X0.750000X-0.250000X0.750000X0.250000X-0.750000X0.250000X-0.750000X-0.250000X0*%
%TD*%
%TA.AperFunction,SMDPad,CuDef*%
%ADD11C,1.000000*%
%TD*%
%TA.AperFunction,SMDPad,CuDef*%
%ADD12R,1.000000X0.800000*%
%TD*%
%TA.AperFunction,SMDPad,CuDef*%
%ADD13R,0.700000X1.500000*%
%TD*%
%TA.AperFunction,SMDPad,CuDef*%
%ADD14RoundRect,0.150000X0.512500X0.150000X-0.512500X0.150000X-0.512500X-0.150000X0.512500X-0.150000X0*%
%TD*%
%TA.AperFunction,SMDPad,CuDef*%
%ADD15RoundRect,0.155000X0.155000X-0.212500X0.155000X0.212500X-0.155000X0.212500X-0.155000X-0.212500X0*%
%TD*%
%TA.AperFunction,SMDPad,CuDef*%
%ADD16FreePoly0,180.000000*%
%TD*%
%TA.AperFunction,SMDPad,CuDef*%
%ADD17RoundRect,0.050000X0.350000X0.050000X-0.350000X0.050000X-0.350000X-0.050000X0.350000X-0.050000X0*%
%TD*%
%TA.AperFunction,SMDPad,CuDef*%
%ADD18FreePoly1,180.000000*%
%TD*%
%TA.AperFunction,SMDPad,CuDef*%
%ADD19FreePoly2,180.000000*%
%TD*%
%TA.AperFunction,SMDPad,CuDef*%
%ADD20RoundRect,0.050000X0.050000X0.350000X-0.050000X0.350000X-0.050000X-0.350000X0.050000X-0.350000X0*%
%TD*%
%TA.AperFunction,SMDPad,CuDef*%
%ADD21FreePoly3,180.000000*%
%TD*%
%TA.AperFunction,SMDPad,CuDef*%
%ADD22FreePoly4,180.000000*%
%TD*%
%TA.AperFunction,SMDPad,CuDef*%
%ADD23FreePoly5,180.000000*%
%TD*%
%TA.AperFunction,SMDPad,CuDef*%
%ADD24FreePoly6,180.000000*%
%TD*%
%TA.AperFunction,SMDPad,CuDef*%
%ADD25FreePoly7,180.000000*%
%TD*%
%TA.AperFunction,SMDPad,CuDef*%
%ADD26R,1.700000X1.700000*%
%TD*%
%TA.AperFunction,SMDPad,CuDef*%
%ADD27RoundRect,0.155000X-0.212500X-0.155000X0.212500X-0.155000X0.212500X0.155000X-0.212500X0.155000X0*%
%TD*%
%TA.AperFunction,SMDPad,CuDef*%
%ADD28RoundRect,0.160000X0.160000X-0.197500X0.160000X0.197500X-0.160000X0.197500X-0.160000X-0.197500X0*%
%TD*%
%TA.AperFunction,SMDPad,CuDef*%
%ADD29RoundRect,0.160000X-0.160000X0.197500X-0.160000X-0.197500X0.160000X-0.197500X0.160000X0.197500X0*%
%TD*%
%TA.AperFunction,SMDPad,CuDef*%
%ADD30RoundRect,0.155000X0.212500X0.155000X-0.212500X0.155000X-0.212500X-0.155000X0.212500X-0.155000X0*%
%TD*%
%TA.AperFunction,SMDPad,CuDef*%
%ADD31RoundRect,0.160000X-0.197500X-0.160000X0.197500X-0.160000X0.197500X0.160000X-0.197500X0.160000X0*%
%TD*%
%TA.AperFunction,SMDPad,CuDef*%
%ADD32RoundRect,0.155000X-0.155000X0.212500X-0.155000X-0.212500X0.155000X-0.212500X0.155000X0.212500X0*%
%TD*%
%TA.AperFunction,SMDPad,CuDef*%
%ADD33R,1.150000X0.600000*%
%TD*%
%TA.AperFunction,SMDPad,CuDef*%
%ADD34R,1.150000X0.300000*%
%TD*%
%TA.AperFunction,SMDPad,CuDef*%
%ADD35R,2.000000X2.180000*%
%TD*%
%TA.AperFunction,ViaPad*%
%ADD36C,0.500000*%
%TD*%
%TA.AperFunction,Conductor*%
%ADD37C,0.250000*%
%TD*%
%TA.AperFunction,Conductor*%
%ADD38C,0.500000*%
%TD*%
%TA.AperFunction,Conductor*%
%ADD39C,0.150000*%
%TD*%
%TA.AperFunction,Conductor*%
%ADD40C,0.300000*%
%TD*%
%TA.AperFunction,Conductor*%
%ADD41C,0.200000*%
%TD*%
G04 APERTURE END LIST*
D10*
%TO.P,J7,1,Pin_1*%
%TO.N,/-Piezo*%
X153300000Y-68100000D03*
%TD*%
%TO.P,J6,1,Pin_1*%
%TO.N,+3V3*%
X153300000Y-70660000D03*
%TD*%
D11*
%TO.P,J5,1,Pin_1*%
%TO.N,GND*%
X153200001Y-77504761D03*
%TD*%
%TO.P,J4,1,Pin_1*%
%TO.N,UDPI*%
X153200001Y-74944761D03*
%TD*%
%TO.P,J3,1,Pin_1*%
%TO.N,VCC*%
X153200001Y-72384761D03*
%TD*%
D10*
%TO.P,J2,1,Pin_1*%
%TO.N,GND*%
X153200000Y-79300000D03*
%TD*%
%TO.P,J1,1,Pin_1*%
%TO.N,/BAT+*%
X153200000Y-81860000D03*
%TD*%
D12*
%TO.P,SW1,*%
%TO.N,*%
X148520000Y-79720000D03*
X148520000Y-81930000D03*
X141220000Y-79720000D03*
X141220000Y-81930000D03*
D13*
%TO.P,SW1,1,A*%
%TO.N,/BAT+*%
X142620000Y-79070000D03*
%TO.P,SW1,2,B*%
%TO.N,/PWR_IN*%
X145620000Y-79070000D03*
%TO.P,SW1,3,C*%
%TO.N,VCC*%
X147120000Y-79070000D03*
%TD*%
D14*
%TO.P,U3,1,VIN*%
%TO.N,/PWR_IN*%
X139397500Y-71870000D03*
%TO.P,U3,2,GND*%
%TO.N,GND*%
X139397500Y-70920000D03*
%TO.P,U3,3,~{SHDN}*%
%TO.N,/PWR_IN*%
X139397500Y-69970000D03*
%TO.P,U3,4,Bypass*%
%TO.N,/bypass*%
X137122500Y-69970000D03*
%TO.P,U3,5,VOUT*%
%TO.N,+3V3*%
X137122500Y-71870000D03*
%TD*%
D15*
%TO.P,C12,1*%
%TO.N,+3V3*%
X146085000Y-72092500D03*
%TO.P,C12,2*%
%TO.N,GND*%
X146085000Y-70957500D03*
%TD*%
%TO.P,C5,2*%
%TO.N,GND*%
X143700000Y-68102975D03*
%TO.P,C5,1*%
%TO.N,/VCOMM*%
X143700000Y-69237975D03*
%TD*%
D16*
%TO.P,U4,1,PA2*%
%TO.N,unconnected-(U4-Pad1)*%
X144420000Y-73520000D03*
D17*
%TO.P,U4,2,PA3*%
%TO.N,unconnected-(U4-Pad2)*%
X144420000Y-73120000D03*
%TO.P,U4,3,GND*%
%TO.N,GND*%
X144420000Y-72720000D03*
%TO.P,U4,4,VCC*%
%TO.N,+3V3*%
X144420000Y-72320000D03*
D18*
%TO.P,U4,5,PA4*%
%TO.N,unconnected-(U4-Pad5)*%
X144420000Y-71920000D03*
D19*
%TO.P,U4,6,PA5*%
%TO.N,SENSE*%
X143770000Y-71270000D03*
D20*
%TO.P,U4,7,PA6*%
%TO.N,unconnected-(U4-Pad7)*%
X143370000Y-71270000D03*
%TO.P,U4,8,PA7*%
%TO.N,unconnected-(U4-Pad8)*%
X142970000Y-71270000D03*
%TO.P,U4,9,PB5*%
%TO.N,unconnected-(U4-Pad9)*%
X142570000Y-71270000D03*
D21*
%TO.P,U4,10,PB4*%
%TO.N,unconnected-(U4-Pad10)*%
X142170000Y-71270000D03*
D22*
%TO.P,U4,11,PB3*%
%TO.N,unconnected-(U4-Pad11)*%
X141520000Y-71920000D03*
D17*
%TO.P,U4,12,PB2*%
%TO.N,unconnected-(U4-Pad12)*%
X141520000Y-72320000D03*
%TO.P,U4,13,PB1*%
%TO.N,SDA*%
X141520000Y-72720000D03*
%TO.P,U4,14,PB0*%
%TO.N,SCL*%
X141520000Y-73120000D03*
D23*
%TO.P,U4,15,PC0*%
%TO.N,~{RES}*%
X141520000Y-73520000D03*
D24*
%TO.P,U4,16,PC1*%
%TO.N,BTN_RIGHT*%
X142170000Y-74170000D03*
D20*
%TO.P,U4,17,PC2*%
%TO.N,unconnected-(U4-Pad17)*%
X142570000Y-74170000D03*
%TO.P,U4,18,PC3*%
%TO.N,unconnected-(U4-Pad18)*%
X142970000Y-74170000D03*
%TO.P,U4,19,~{RESET}/PA0*%
%TO.N,UDPI*%
X143370000Y-74170000D03*
D25*
%TO.P,U4,20,PA1*%
%TO.N,unconnected-(U4-Pad20)*%
X143770000Y-74170000D03*
D26*
%TO.P,U4,21,GND*%
%TO.N,GND*%
X142970000Y-72720000D03*
%TD*%
D27*
%TO.P,C8,1*%
%TO.N,/bypass*%
X136702500Y-68660000D03*
%TO.P,C8,2*%
%TO.N,GND*%
X137837500Y-68660000D03*
%TD*%
D15*
%TO.P,C2,2*%
%TO.N,/C1N*%
X143700000Y-76189640D03*
%TO.P,C2,1*%
%TO.N,/C1P*%
X143700000Y-77324640D03*
%TD*%
D28*
%TO.P,R3,2*%
%TO.N,SCL*%
X141500000Y-76159640D03*
%TO.P,R3,1*%
%TO.N,+3V3*%
X141500000Y-77354640D03*
%TD*%
D15*
%TO.P,C6,1*%
%TO.N,/VCC_CAP*%
X144800000Y-69237975D03*
%TO.P,C6,2*%
%TO.N,GND*%
X144800000Y-68102975D03*
%TD*%
D29*
%TO.P,R10,1*%
%TO.N,/CC2*%
X136670000Y-75602500D03*
%TO.P,R10,2*%
%TO.N,GND*%
X136670000Y-76797500D03*
%TD*%
D30*
%TO.P,C4,1*%
%TO.N,/VBUS*%
X138927500Y-76840000D03*
%TO.P,C4,2*%
%TO.N,GND*%
X137792500Y-76840000D03*
%TD*%
D29*
%TO.P,R4,1*%
%TO.N,+3V3*%
X141500000Y-68072975D03*
%TO.P,R4,2*%
%TO.N,SDA*%
X141500000Y-69267975D03*
%TD*%
D28*
%TO.P,R11,2*%
%TO.N,GND*%
X136670000Y-73242500D03*
%TO.P,R11,1*%
%TO.N,/CC1*%
X136670000Y-74437500D03*
%TD*%
D14*
%TO.P,U2,1,CEN*%
%TO.N,/VBUS*%
X139352500Y-80070000D03*
%TO.P,U2,2,VSS*%
%TO.N,GND*%
X139352500Y-79120000D03*
%TO.P,U2,3,VBAT*%
%TO.N,/BAT+*%
X139352500Y-78170000D03*
%TO.P,U2,4,VDD*%
%TO.N,/VBUS*%
X137077500Y-78170000D03*
%TO.P,U2,5,PROG*%
%TO.N,/CRG_PROG*%
X137077500Y-80070000D03*
%TD*%
D30*
%TO.P,C10,2*%
%TO.N,GND*%
X137792500Y-73200000D03*
%TO.P,C10,1*%
%TO.N,+3V3*%
X138927500Y-73200000D03*
%TD*%
D31*
%TO.P,R1,1*%
%TO.N,/CRG_PROG*%
X136672500Y-81390000D03*
%TO.P,R1,2*%
%TO.N,GND*%
X137867500Y-81390000D03*
%TD*%
D15*
%TO.P,C1,1*%
%TO.N,/C2P*%
X145700000Y-77324640D03*
%TO.P,C1,2*%
%TO.N,/C2N*%
X145700000Y-76189640D03*
%TD*%
D30*
%TO.P,C7,2*%
%TO.N,GND*%
X137792500Y-75840000D03*
%TO.P,C7,1*%
%TO.N,/BAT+*%
X138927500Y-75840000D03*
%TD*%
D28*
%TO.P,R8,1*%
%TO.N,SENSE*%
X148210000Y-69477500D03*
%TO.P,R8,2*%
%TO.N,/-Piezo*%
X148210000Y-68282500D03*
%TD*%
D32*
%TO.P,C9,2*%
%TO.N,GND*%
X142600000Y-77324640D03*
%TO.P,C9,1*%
%TO.N,/VBAT*%
X142600000Y-76189640D03*
%TD*%
%TO.P,C11,1*%
%TO.N,+3V3*%
X146085000Y-73257500D03*
%TO.P,C11,2*%
%TO.N,GND*%
X146085000Y-74392500D03*
%TD*%
D33*
%TO.P,J8,A1,GND*%
%TO.N,GND*%
X135175000Y-71820000D03*
X135175000Y-78220000D03*
%TO.P,J8,A4,VBUS*%
%TO.N,/VBUS*%
X135175000Y-72620000D03*
X135175000Y-77420000D03*
D34*
%TO.P,J8,A5,CC1*%
%TO.N,/CC1*%
X135175000Y-73770000D03*
%TO.P,J8,A6,D+*%
%TO.N,unconnected-(J8-PadA6)*%
X135175000Y-74770000D03*
%TO.P,J8,A7,D-*%
%TO.N,unconnected-(J8-PadA7)*%
X135175000Y-75270000D03*
%TO.P,J8,A8,SBU1*%
%TO.N,unconnected-(J8-PadA8)*%
X135175000Y-76270000D03*
%TO.P,J8,B5,CC2*%
%TO.N,/CC2*%
X135175000Y-76770000D03*
%TO.P,J8,B6,D+*%
%TO.N,unconnected-(J8-PadB6)*%
X135175000Y-75770000D03*
%TO.P,J8,B7,D-*%
%TO.N,unconnected-(J8-PadB7)*%
X135175000Y-74270000D03*
%TO.P,J8,B8,SBU2*%
%TO.N,unconnected-(J8-PadB8)*%
X135175000Y-73270000D03*
D35*
%TO.P,J8,S1,SHIELD*%
%TO.N,unconnected-(J8-PadS1)*%
X130705000Y-80130000D03*
X130705000Y-69910000D03*
X134605000Y-80130000D03*
X134605000Y-69910000D03*
%TD*%
D28*
%TO.P,R2,2*%
%TO.N,GND*%
X142600000Y-68072975D03*
%TO.P,R2,1*%
%TO.N,/IREF*%
X142600000Y-69267975D03*
%TD*%
D30*
%TO.P,C3,1*%
%TO.N,/PWR_IN*%
X138927500Y-74200000D03*
%TO.P,C3,2*%
%TO.N,GND*%
X137792500Y-74200000D03*
%TD*%
D29*
%TO.P,R9,1*%
%TO.N,/-Piezo*%
X149330000Y-68282500D03*
%TO.P,R9,2*%
%TO.N,+3V3*%
X149330000Y-69477500D03*
%TD*%
D36*
%TO.N,GND*%
X150500000Y-78100000D03*
X150500000Y-77400000D03*
%TO.N,UDPI*%
X144700000Y-75300000D03*
X150500000Y-76300000D03*
%TO.N,BTN_RIGHT*%
X133000000Y-70200000D03*
%TO.N,GND*%
X133000000Y-69400000D03*
X133000000Y-68700000D03*
X147100000Y-74400000D03*
X147100000Y-70900000D03*
X135400000Y-82100000D03*
X133200000Y-82100000D03*
X131000000Y-82100000D03*
X146500000Y-68600000D03*
X146500000Y-67900000D03*
X139500000Y-67900000D03*
%TO.N,+3V3*%
X141800000Y-78050500D03*
%TO.N,BTN_RIGHT*%
X141500000Y-75200000D03*
%TO.N,GND*%
X137800000Y-75000000D03*
%TO.N,/PWR_IN*%
X140500000Y-76900000D03*
X144800000Y-79400000D03*
%TO.N,GND*%
X145300000Y-73100000D03*
%TO.N,+3V3*%
X130100000Y-75800000D03*
X137100000Y-71000000D03*
X140600000Y-68072975D03*
X153300000Y-69600000D03*
X149330000Y-70570000D03*
X147000000Y-73300000D03*
X147000000Y-72100000D03*
%TO.N,~{RES}*%
X140505741Y-73807176D03*
%TO.N,SCL*%
X140480000Y-73120000D03*
%TO.N,/C2P*%
X146600000Y-77300000D03*
%TO.N,/C2N*%
X144700000Y-76200000D03*
%TO.N,/C1P*%
X144700000Y-77300000D03*
%TO.N,/C1N*%
X143700000Y-75300000D03*
%TO.N,/VBAT*%
X142600000Y-75300000D03*
%TO.N,/VCC_CAP*%
X144800000Y-70100000D03*
%TO.N,/VCOMM*%
X143700000Y-70100000D03*
%TO.N,/IREF*%
X142600000Y-70100000D03*
%TO.N,SDA*%
X141500000Y-70100000D03*
%TD*%
D37*
%TO.N,/VBUS*%
X134670000Y-77420000D02*
X135175000Y-77420000D01*
X134000000Y-73300000D02*
X134000000Y-76750000D01*
X134680000Y-72620000D02*
X134000000Y-73300000D01*
X134000000Y-76750000D02*
X134670000Y-77420000D01*
X135175000Y-72620000D02*
X134680000Y-72620000D01*
D38*
%TO.N,/-Piezo*%
X153117500Y-68282500D02*
X153300000Y-68100000D01*
X149330000Y-68282500D02*
X153117500Y-68282500D01*
D39*
%TO.N,UDPI*%
X144195000Y-74795000D02*
X143606091Y-74795000D01*
X143606091Y-74795000D02*
X143370000Y-74558909D01*
X143370000Y-74558909D02*
X143370000Y-74170000D01*
X144700000Y-75300000D02*
X144195000Y-74795000D01*
X151855239Y-74944761D02*
X150500000Y-76300000D01*
X153200001Y-74944761D02*
X151855239Y-74944761D01*
D37*
%TO.N,VCC*%
X147120000Y-78464762D02*
X153200001Y-72384761D01*
X147120000Y-79070000D02*
X147120000Y-78464762D01*
D40*
%TO.N,/BAT+*%
X152240000Y-80900000D02*
X153200000Y-81860000D01*
X147600000Y-80900000D02*
X152240000Y-80900000D01*
X147500000Y-81000000D02*
X147600000Y-80900000D01*
X147500000Y-81400000D02*
X147500000Y-81000000D01*
X147000000Y-81900000D02*
X147500000Y-81400000D01*
X145400000Y-81900000D02*
X147000000Y-81900000D01*
X144900000Y-81400000D02*
X145400000Y-81900000D01*
X144900000Y-80700000D02*
X144900000Y-81400000D01*
X143270000Y-79070000D02*
X144900000Y-80700000D01*
X142620000Y-79070000D02*
X143270000Y-79070000D01*
D37*
%TO.N,/PWR_IN*%
X144800000Y-79400000D02*
X145290000Y-79400000D01*
X145290000Y-79400000D02*
X145620000Y-79070000D01*
%TO.N,+3V3*%
X153300000Y-70860000D02*
X153300000Y-69600000D01*
X149330000Y-70570000D02*
X149330000Y-69477500D01*
D38*
%TO.N,/-Piezo*%
X149330000Y-68282500D02*
X148210000Y-68282500D01*
D37*
%TO.N,+3V3*%
X141500000Y-77750500D02*
X141800000Y-78050500D01*
X141500000Y-77354640D02*
X141500000Y-77750500D01*
D39*
%TO.N,BTN_RIGHT*%
X142170000Y-74530000D02*
X141500000Y-75200000D01*
X142170000Y-74170000D02*
X142170000Y-74530000D01*
D37*
%TO.N,GND*%
X139880000Y-70920000D02*
X140600000Y-70200000D01*
X139397500Y-70920000D02*
X139880000Y-70920000D01*
D40*
%TO.N,/VBUS*%
X137597500Y-78170000D02*
X138927500Y-76840000D01*
X137077500Y-78170000D02*
X137597500Y-78170000D01*
D37*
%TO.N,GND*%
X139720000Y-79120000D02*
X140400000Y-79800000D01*
X140400000Y-79800000D02*
X140400000Y-80600000D01*
X139352500Y-79120000D02*
X139720000Y-79120000D01*
X142600000Y-77400000D02*
X143500000Y-78300000D01*
X142600000Y-77324640D02*
X142600000Y-77400000D01*
%TO.N,/PWR_IN*%
X138927500Y-74427500D02*
X138927500Y-74200000D01*
X140500000Y-76000000D02*
X138927500Y-74427500D01*
X140500000Y-76900000D02*
X140500000Y-76000000D01*
%TO.N,GND*%
X145300000Y-73000000D02*
X145300000Y-73100000D01*
X145020000Y-72720000D02*
X145300000Y-73000000D01*
X144420000Y-72720000D02*
X145020000Y-72720000D01*
%TO.N,+3V3*%
X137122500Y-71022500D02*
X137100000Y-71000000D01*
X137122500Y-71870000D02*
X137122500Y-71022500D01*
X140672975Y-68072975D02*
X140600000Y-68000000D01*
X141500000Y-68072975D02*
X140672975Y-68072975D01*
D39*
%TO.N,/bypass*%
X136702500Y-69550000D02*
X136702500Y-68660000D01*
X137122500Y-69970000D02*
X136702500Y-69550000D01*
D37*
%TO.N,+3V3*%
X137597500Y-71870000D02*
X138927500Y-73200000D01*
X137122500Y-71870000D02*
X137597500Y-71870000D01*
%TO.N,/PWR_IN*%
X139600000Y-72072500D02*
X139397500Y-71870000D01*
X139600000Y-73800000D02*
X139600000Y-72072500D01*
X139200000Y-74200000D02*
X139600000Y-73800000D01*
X138927500Y-74200000D02*
X139200000Y-74200000D01*
D39*
%TO.N,SCL*%
X140000000Y-74659640D02*
X141500000Y-76159640D01*
X140000000Y-73600000D02*
X140000000Y-74659640D01*
X140480000Y-73120000D02*
X140000000Y-73600000D01*
X140480000Y-73120000D02*
X141520000Y-73120000D01*
D37*
%TO.N,/PWR_IN*%
X138570000Y-71870000D02*
X139397500Y-71870000D01*
X138100000Y-71400000D02*
X138570000Y-71870000D01*
X138530000Y-69970000D02*
X138100000Y-70400000D01*
X139397500Y-69970000D02*
X138530000Y-69970000D01*
X138100000Y-70400000D02*
X138100000Y-71400000D01*
%TO.N,+3V3*%
X146957500Y-73257500D02*
X147000000Y-73300000D01*
X146085000Y-73257500D02*
X146957500Y-73257500D01*
X146992500Y-72092500D02*
X147000000Y-72100000D01*
X146085000Y-72092500D02*
X146992500Y-72092500D01*
D39*
%TO.N,SENSE*%
X144430000Y-71270000D02*
X143770000Y-71270000D01*
X146222500Y-69477500D02*
X144430000Y-71270000D01*
X148210000Y-69477500D02*
X146222500Y-69477500D01*
D37*
%TO.N,+3V3*%
X146085000Y-73257500D02*
X146085000Y-72092500D01*
X145857500Y-72320000D02*
X146085000Y-72092500D01*
X144420000Y-72320000D02*
X145857500Y-72320000D01*
%TO.N,GND*%
X144420000Y-72720000D02*
X142970000Y-72720000D01*
D40*
%TO.N,/VBUS*%
X139003604Y-80070000D02*
X139352500Y-80070000D01*
X137103604Y-78170000D02*
X139003604Y-80070000D01*
X137077500Y-78170000D02*
X137103604Y-78170000D01*
%TO.N,/BAT+*%
X140370000Y-78170000D02*
X139352500Y-78170000D01*
X140800000Y-78600000D02*
X140370000Y-78170000D01*
X142150000Y-78600000D02*
X140800000Y-78600000D01*
X142620000Y-79070000D02*
X142150000Y-78600000D01*
X139700000Y-77822500D02*
X139352500Y-78170000D01*
X139700000Y-76200000D02*
X139700000Y-77822500D01*
X139340000Y-75840000D02*
X139700000Y-76200000D01*
X138927500Y-75840000D02*
X139340000Y-75840000D01*
%TO.N,/CC1*%
X136002500Y-73770000D02*
X136670000Y-74437500D01*
X135175000Y-73770000D02*
X136002500Y-73770000D01*
%TO.N,/CC2*%
X135930000Y-76770000D02*
X136050000Y-76650000D01*
X136050000Y-76650000D02*
X136050000Y-76222500D01*
X136050000Y-76222500D02*
X136670000Y-75602500D01*
X135175000Y-76770000D02*
X135930000Y-76770000D01*
%TO.N,GND*%
X135520000Y-78220000D02*
X136300000Y-79000000D01*
X135175000Y-78220000D02*
X135520000Y-78220000D01*
%TO.N,/VBUS*%
X135920000Y-77420000D02*
X136670000Y-78170000D01*
X136670000Y-78170000D02*
X137077500Y-78170000D01*
X135175000Y-77420000D02*
X135920000Y-77420000D01*
%TO.N,/CRG_PROG*%
X136672500Y-80475000D02*
X137077500Y-80070000D01*
X136672500Y-81390000D02*
X136672500Y-80475000D01*
D37*
%TO.N,GND*%
X135380000Y-71820000D02*
X136300000Y-70900000D01*
X135175000Y-71820000D02*
X135380000Y-71820000D01*
D39*
%TO.N,~{RES}*%
X140792917Y-73520000D02*
X141520000Y-73520000D01*
X140505741Y-73807176D02*
X140792917Y-73520000D01*
%TO.N,SDA*%
X140800000Y-72700000D02*
X140800000Y-70800000D01*
X141500000Y-72700000D02*
X140800000Y-72700000D01*
X140800000Y-70800000D02*
X141500000Y-70100000D01*
X141520000Y-72720000D02*
X141500000Y-72700000D01*
D41*
%TO.N,/C2P*%
X146575360Y-77324640D02*
X146600000Y-77300000D01*
X145700000Y-77324640D02*
X146575360Y-77324640D01*
%TO.N,/C2N*%
X144710360Y-76189640D02*
X144700000Y-76200000D01*
X145700000Y-76189640D02*
X144710360Y-76189640D01*
%TO.N,/C1P*%
X144675360Y-77324640D02*
X144700000Y-77300000D01*
X143700000Y-77324640D02*
X144675360Y-77324640D01*
%TO.N,/C1N*%
X143700000Y-76189640D02*
X143700000Y-75300000D01*
D37*
%TO.N,/VBAT*%
X142600000Y-76189640D02*
X142600000Y-75300000D01*
D39*
%TO.N,/VCC_CAP*%
X144800000Y-69237975D02*
X144800000Y-70100000D01*
%TO.N,/VCOMM*%
X143700000Y-69237975D02*
X143700000Y-70100000D01*
%TO.N,/IREF*%
X142600000Y-69267975D02*
X142600000Y-70100000D01*
%TO.N,SDA*%
X141500000Y-69267975D02*
X141500000Y-70100000D01*
%TD*%
%TA.AperFunction,Conductor*%
%TO.N,GND*%
G36*
X140443540Y-67490502D02*
G01*
X140490033Y-67544158D01*
X140500137Y-67614432D01*
X140470643Y-67679012D01*
X140432622Y-67708767D01*
X140361658Y-67744925D01*
X140271950Y-67834633D01*
X140214354Y-67947671D01*
X140194508Y-68072975D01*
X140196059Y-68082768D01*
X140212548Y-68186874D01*
X140214354Y-68198279D01*
X140271950Y-68311317D01*
X140361658Y-68401025D01*
X140474696Y-68458621D01*
X140484485Y-68460171D01*
X140484487Y-68460172D01*
X140590207Y-68476916D01*
X140600000Y-68478467D01*
X140609793Y-68476916D01*
X140715513Y-68460172D01*
X140715515Y-68460171D01*
X140725304Y-68458621D01*
X140838342Y-68401025D01*
X140853987Y-68385380D01*
X140916299Y-68351354D01*
X140943082Y-68348475D01*
X140952949Y-68348475D01*
X141021070Y-68368477D01*
X141068099Y-68423325D01*
X141079677Y-68449390D01*
X141161539Y-68531110D01*
X141216107Y-68555234D01*
X141270320Y-68601070D01*
X141291148Y-68668943D01*
X141271974Y-68737302D01*
X141216307Y-68785624D01*
X141161085Y-68810152D01*
X141079365Y-68892014D01*
X141074662Y-68902651D01*
X141074661Y-68902653D01*
X141036425Y-68989141D01*
X141032594Y-68997807D01*
X141029500Y-69024346D01*
X141029501Y-69511603D01*
X141032722Y-69538679D01*
X141079677Y-69644390D01*
X141087910Y-69652609D01*
X141087911Y-69652610D01*
X141149538Y-69714130D01*
X141183617Y-69776413D01*
X141178614Y-69847233D01*
X141171108Y-69861229D01*
X141171950Y-69861658D01*
X141114354Y-69974696D01*
X141112804Y-69984485D01*
X141112803Y-69984487D01*
X141097367Y-70081950D01*
X141094508Y-70100000D01*
X141096059Y-70109791D01*
X141096304Y-70111338D01*
X141096059Y-70113234D01*
X141096059Y-70119711D01*
X141095222Y-70119711D01*
X141087205Y-70181750D01*
X141060950Y-70220145D01*
X140726291Y-70554804D01*
X140663979Y-70588830D01*
X140593164Y-70583765D01*
X140536328Y-70541218D01*
X140521558Y-70515748D01*
X140514647Y-70499777D01*
X140438089Y-70370322D01*
X140428449Y-70357896D01*
X140322104Y-70251551D01*
X140309675Y-70241909D01*
X140272362Y-70219843D01*
X140223909Y-70167951D01*
X140210500Y-70111389D01*
X140210500Y-69775354D01*
X140207382Y-69749154D01*
X140196552Y-69724771D01*
X140166663Y-69657482D01*
X140161939Y-69646847D01*
X140148366Y-69633297D01*
X140105200Y-69590207D01*
X140082713Y-69567759D01*
X140072076Y-69563056D01*
X140072074Y-69563055D01*
X139998748Y-69530638D01*
X139980327Y-69522494D01*
X139954646Y-69519500D01*
X138840354Y-69519500D01*
X138836650Y-69519941D01*
X138836647Y-69519941D01*
X138831934Y-69520502D01*
X138814154Y-69522618D01*
X138805514Y-69526456D01*
X138805513Y-69526456D01*
X138723117Y-69563055D01*
X138711847Y-69568061D01*
X138703628Y-69576294D01*
X138703627Y-69576295D01*
X138670188Y-69609793D01*
X138632759Y-69647287D01*
X138631352Y-69645882D01*
X138587588Y-69681619D01*
X138540380Y-69691168D01*
X138530000Y-69689103D01*
X138502868Y-69694500D01*
X138502867Y-69694500D01*
X138422505Y-69710485D01*
X138400327Y-69725304D01*
X138354378Y-69756006D01*
X138354377Y-69756007D01*
X138331376Y-69771376D01*
X138324485Y-69781689D01*
X138322898Y-69784064D01*
X138307228Y-69803156D01*
X138150595Y-69959789D01*
X138088283Y-69993815D01*
X138017468Y-69988750D01*
X137960632Y-69946203D01*
X137935821Y-69879683D01*
X137935500Y-69870694D01*
X137935500Y-69775354D01*
X137932382Y-69749154D01*
X137921552Y-69724771D01*
X137890626Y-69655148D01*
X137881253Y-69584773D01*
X137911415Y-69520502D01*
X137971537Y-69482742D01*
X138005777Y-69478000D01*
X138100100Y-69478000D01*
X138105888Y-69477734D01*
X138165046Y-69472298D01*
X138178096Y-69469685D01*
X138317589Y-69425971D01*
X138331334Y-69419765D01*
X138455604Y-69344504D01*
X138467473Y-69335197D01*
X138570197Y-69232473D01*
X138579504Y-69220604D01*
X138654765Y-69096334D01*
X138660971Y-69082589D01*
X138704687Y-68943088D01*
X138707009Y-68931497D01*
X138704194Y-68917165D01*
X138692298Y-68914000D01*
X137709500Y-68914000D01*
X137641379Y-68893998D01*
X137594886Y-68840342D01*
X137583500Y-68788000D01*
X137583500Y-68387885D01*
X138091500Y-68387885D01*
X138095975Y-68403124D01*
X138097365Y-68404329D01*
X138105048Y-68406000D01*
X138690658Y-68406000D01*
X138705203Y-68401729D01*
X138707248Y-68389698D01*
X138704687Y-68376912D01*
X138660971Y-68237411D01*
X138654765Y-68223666D01*
X138579504Y-68099396D01*
X138570197Y-68087527D01*
X138467473Y-67984803D01*
X138455604Y-67975496D01*
X138331334Y-67900235D01*
X138317589Y-67894029D01*
X138178096Y-67850315D01*
X138165046Y-67847702D01*
X138108038Y-67842463D01*
X138094376Y-67846475D01*
X138093171Y-67847865D01*
X138091500Y-67855548D01*
X138091500Y-68387885D01*
X137583500Y-68387885D01*
X137583500Y-67860115D01*
X137579025Y-67844876D01*
X137577635Y-67843671D01*
X137570814Y-67842187D01*
X137569112Y-67842266D01*
X137509954Y-67847702D01*
X137496904Y-67850315D01*
X137357411Y-67894029D01*
X137343666Y-67900235D01*
X137219396Y-67975496D01*
X137207527Y-67984803D01*
X137104803Y-68087527D01*
X137095496Y-68099396D01*
X137071530Y-68138968D01*
X137019132Y-68186874D01*
X136960390Y-68198686D01*
X136960390Y-68199500D01*
X136444610Y-68199500D01*
X136440923Y-68199939D01*
X136440918Y-68199939D01*
X136427361Y-68201552D01*
X136427359Y-68201552D01*
X136417975Y-68202669D01*
X136374818Y-68221839D01*
X136324593Y-68244147D01*
X136324592Y-68244148D01*
X136313965Y-68248868D01*
X136233561Y-68329413D01*
X136187544Y-68433502D01*
X136184500Y-68459610D01*
X136184500Y-68860390D01*
X136187669Y-68887025D01*
X136191506Y-68895663D01*
X136224303Y-68969500D01*
X136233868Y-68991035D01*
X136314413Y-69071439D01*
X136325052Y-69076143D01*
X136325053Y-69076143D01*
X136401947Y-69110137D01*
X136456163Y-69155975D01*
X136477000Y-69225378D01*
X136477000Y-69476757D01*
X136456998Y-69544878D01*
X136435665Y-69566881D01*
X136436847Y-69568061D01*
X136357759Y-69647287D01*
X136353056Y-69657924D01*
X136353055Y-69657926D01*
X136331398Y-69706914D01*
X136312494Y-69749673D01*
X136309500Y-69775354D01*
X136309500Y-70164646D01*
X136312618Y-70190846D01*
X136316456Y-70199486D01*
X136316456Y-70199487D01*
X136350381Y-70275863D01*
X136358061Y-70293153D01*
X136437287Y-70372241D01*
X136447924Y-70376944D01*
X136447926Y-70376945D01*
X136500076Y-70400000D01*
X136539673Y-70417506D01*
X136565354Y-70420500D01*
X136830328Y-70420500D01*
X136898449Y-70440502D01*
X136944942Y-70494158D01*
X136955046Y-70564432D01*
X136925552Y-70629012D01*
X136887531Y-70658767D01*
X136861658Y-70671950D01*
X136771950Y-70761658D01*
X136714354Y-70874696D01*
X136712804Y-70884485D01*
X136712803Y-70884487D01*
X136702995Y-70946412D01*
X136694508Y-71000000D01*
X136696059Y-71009793D01*
X136706421Y-71075214D01*
X136714354Y-71125304D01*
X136734681Y-71165197D01*
X136770908Y-71236297D01*
X136784012Y-71306074D01*
X136757312Y-71371858D01*
X136699285Y-71412765D01*
X136658641Y-71419500D01*
X136565354Y-71419500D01*
X136561650Y-71419941D01*
X136561647Y-71419941D01*
X136554254Y-71420821D01*
X136539154Y-71422618D01*
X136530514Y-71426456D01*
X136530513Y-71426456D01*
X136447482Y-71463337D01*
X136436847Y-71468061D01*
X136434802Y-71470109D01*
X136372731Y-71490440D01*
X136304025Y-71472554D01*
X136255895Y-71420361D01*
X136250853Y-71408729D01*
X136203325Y-71281948D01*
X136194786Y-71266351D01*
X136118285Y-71164276D01*
X136105724Y-71151715D01*
X136003649Y-71075214D01*
X135988054Y-71066676D01*
X135867601Y-71021520D01*
X135852352Y-71017894D01*
X135790706Y-70982676D01*
X135757887Y-70919721D01*
X135755500Y-70895312D01*
X135755500Y-68805180D01*
X135746767Y-68761278D01*
X135739873Y-68750960D01*
X135739872Y-68750958D01*
X135720399Y-68721815D01*
X135713504Y-68711496D01*
X135700792Y-68703002D01*
X135674042Y-68685128D01*
X135674040Y-68685127D01*
X135663722Y-68678233D01*
X135619820Y-68669500D01*
X133590180Y-68669500D01*
X133546278Y-68678233D01*
X133535960Y-68685127D01*
X133535958Y-68685128D01*
X133509208Y-68703002D01*
X133496496Y-68711496D01*
X133489601Y-68721815D01*
X133470128Y-68750958D01*
X133470127Y-68750960D01*
X133463233Y-68761278D01*
X133454500Y-68805180D01*
X133454500Y-69783918D01*
X133434498Y-69852039D01*
X133380842Y-69898532D01*
X133310568Y-69908636D01*
X133254614Y-69883082D01*
X133253374Y-69884789D01*
X133245354Y-69878962D01*
X133238342Y-69871950D01*
X133125304Y-69814354D01*
X133115515Y-69812804D01*
X133115513Y-69812803D01*
X133009793Y-69796059D01*
X133000000Y-69794508D01*
X132990207Y-69796059D01*
X132884487Y-69812803D01*
X132884485Y-69812804D01*
X132874696Y-69814354D01*
X132761658Y-69871950D01*
X132671950Y-69961658D01*
X132614354Y-70074696D01*
X132612804Y-70084485D01*
X132612803Y-70084487D01*
X132600107Y-70164646D01*
X132594508Y-70200000D01*
X132596059Y-70209793D01*
X132610564Y-70301373D01*
X132614354Y-70325304D01*
X132671950Y-70438342D01*
X132761658Y-70528050D01*
X132874696Y-70585646D01*
X132884485Y-70587196D01*
X132884487Y-70587197D01*
X132990207Y-70603941D01*
X133000000Y-70605492D01*
X133009793Y-70603941D01*
X133115513Y-70587197D01*
X133115515Y-70587196D01*
X133125304Y-70585646D01*
X133238342Y-70528050D01*
X133245354Y-70521038D01*
X133253374Y-70515211D01*
X133255532Y-70518181D01*
X133301717Y-70492961D01*
X133372532Y-70498026D01*
X133429368Y-70540573D01*
X133454179Y-70607093D01*
X133454500Y-70616082D01*
X133454500Y-71014820D01*
X133463233Y-71058722D01*
X133470127Y-71069040D01*
X133470128Y-71069042D01*
X133489601Y-71098185D01*
X133496496Y-71108504D01*
X133506815Y-71115399D01*
X133535958Y-71134872D01*
X133535960Y-71134873D01*
X133546278Y-71141767D01*
X133590180Y-71150500D01*
X134014154Y-71150500D01*
X134082275Y-71170502D01*
X134128768Y-71224158D01*
X134138872Y-71294432D01*
X134132136Y-71320729D01*
X134101522Y-71402391D01*
X134097894Y-71417650D01*
X134093946Y-71453999D01*
X134066705Y-71519562D01*
X134008342Y-71559989D01*
X133985131Y-71565315D01*
X133962951Y-71568235D01*
X133962950Y-71568235D01*
X133954764Y-71569313D01*
X133947135Y-71572473D01*
X133939576Y-71575604D01*
X133814767Y-71627302D01*
X133694549Y-71719549D01*
X133602302Y-71839767D01*
X133544313Y-71979764D01*
X133524534Y-72130000D01*
X133544313Y-72280236D01*
X133602302Y-72420233D01*
X133694549Y-72540451D01*
X133814767Y-72632698D01*
X133954764Y-72690687D01*
X133956400Y-72690902D01*
X134014408Y-72726257D01*
X134045433Y-72790116D01*
X134037007Y-72860611D01*
X134010273Y-72900111D01*
X133833156Y-73077228D01*
X133814064Y-73092898D01*
X133801376Y-73101376D01*
X133740485Y-73192505D01*
X133727557Y-73257500D01*
X133719103Y-73300000D01*
X133721524Y-73312171D01*
X133722079Y-73314961D01*
X133724500Y-73339543D01*
X133724500Y-76710457D01*
X133722079Y-76735039D01*
X133719103Y-76750000D01*
X133724500Y-76777132D01*
X133724500Y-76777133D01*
X133740485Y-76857495D01*
X133746161Y-76865989D01*
X133763604Y-76892094D01*
X133784326Y-76923107D01*
X133794481Y-76938305D01*
X133801376Y-76948624D01*
X133811692Y-76955517D01*
X133811693Y-76955518D01*
X133814064Y-76957102D01*
X133833156Y-76972772D01*
X134002386Y-77142002D01*
X134036412Y-77204314D01*
X134031347Y-77275129D01*
X133988800Y-77331965D01*
X133954483Y-77348634D01*
X133954764Y-77349313D01*
X133814767Y-77407302D01*
X133694549Y-77499549D01*
X133602302Y-77619767D01*
X133544313Y-77759764D01*
X133524534Y-77910000D01*
X133544313Y-78060236D01*
X133602302Y-78200233D01*
X133694549Y-78320451D01*
X133814767Y-78412698D01*
X133954764Y-78470687D01*
X133962952Y-78471765D01*
X133985131Y-78474685D01*
X134050058Y-78503408D01*
X134089149Y-78562674D01*
X134093947Y-78586002D01*
X134097895Y-78622352D01*
X134101522Y-78637607D01*
X134132136Y-78719271D01*
X134137319Y-78790078D01*
X134103398Y-78852447D01*
X134041142Y-78886576D01*
X134014154Y-78889500D01*
X133590180Y-78889500D01*
X133546278Y-78898233D01*
X133535960Y-78905127D01*
X133535958Y-78905128D01*
X133522863Y-78913878D01*
X133496496Y-78931496D01*
X133489601Y-78941815D01*
X133470128Y-78970958D01*
X133470127Y-78970960D01*
X133463233Y-78981278D01*
X133454500Y-79025180D01*
X133454500Y-81234820D01*
X133463233Y-81278722D01*
X133470127Y-81289040D01*
X133470128Y-81289042D01*
X133470294Y-81289290D01*
X133496496Y-81328504D01*
X133506815Y-81335399D01*
X133535958Y-81354872D01*
X133535960Y-81354873D01*
X133546278Y-81361767D01*
X133590180Y-81370500D01*
X135619820Y-81370500D01*
X135663722Y-81361767D01*
X135674040Y-81354873D01*
X135674042Y-81354872D01*
X135703185Y-81335399D01*
X135713504Y-81328504D01*
X135739706Y-81289290D01*
X135739872Y-81289042D01*
X135739873Y-81289040D01*
X135746767Y-81278722D01*
X135755500Y-81234820D01*
X135755500Y-81183871D01*
X136164500Y-81183871D01*
X136164501Y-81596128D01*
X136167722Y-81623204D01*
X136214677Y-81728915D01*
X136296539Y-81810635D01*
X136307176Y-81815338D01*
X136307178Y-81815339D01*
X136393666Y-81853575D01*
X136393667Y-81853575D01*
X136402332Y-81857406D01*
X136428871Y-81860500D01*
X136670488Y-81860500D01*
X136916128Y-81860499D01*
X136943204Y-81857278D01*
X136951849Y-81853438D01*
X136960960Y-81850934D01*
X136961808Y-81854019D01*
X137016087Y-81846791D01*
X137080358Y-81876954D01*
X137104636Y-81906044D01*
X137136530Y-81958708D01*
X137145840Y-81970580D01*
X137249420Y-82074160D01*
X137261289Y-82083467D01*
X137386594Y-82159355D01*
X137400339Y-82165561D01*
X137540989Y-82209637D01*
X137554036Y-82212250D01*
X137595459Y-82216056D01*
X137610336Y-82213134D01*
X137613500Y-82201240D01*
X137613500Y-82199598D01*
X138121500Y-82199598D01*
X138125771Y-82214143D01*
X138137904Y-82216206D01*
X138180973Y-82212249D01*
X138194006Y-82209639D01*
X138334661Y-82165561D01*
X138348406Y-82159355D01*
X138473711Y-82083467D01*
X138485580Y-82074160D01*
X138589160Y-81970580D01*
X138598467Y-81958711D01*
X138674355Y-81833406D01*
X138680561Y-81819661D01*
X138724639Y-81679006D01*
X138727249Y-81665973D01*
X138727611Y-81662039D01*
X138724688Y-81647165D01*
X138712793Y-81644000D01*
X138139615Y-81644000D01*
X138124376Y-81648475D01*
X138123171Y-81649865D01*
X138121500Y-81657548D01*
X138121500Y-82199598D01*
X137613500Y-82199598D01*
X137613500Y-81117885D01*
X138121500Y-81117885D01*
X138125975Y-81133124D01*
X138127365Y-81134329D01*
X138135048Y-81136000D01*
X138711153Y-81136000D01*
X138725698Y-81131729D01*
X138727761Y-81119596D01*
X138727249Y-81114027D01*
X138724639Y-81100994D01*
X138680561Y-80960339D01*
X138674355Y-80946594D01*
X138598467Y-80821289D01*
X138589160Y-80809420D01*
X138485580Y-80705840D01*
X138473711Y-80696533D01*
X138348406Y-80620645D01*
X138334661Y-80614439D01*
X138194011Y-80570363D01*
X138180964Y-80567750D01*
X138139541Y-80563944D01*
X138124664Y-80566866D01*
X138121500Y-80578760D01*
X138121500Y-81117885D01*
X137613500Y-81117885D01*
X137613500Y-80620315D01*
X137633502Y-80552194D01*
X137688349Y-80505166D01*
X137763153Y-80471939D01*
X137775006Y-80460066D01*
X137834023Y-80400945D01*
X137842241Y-80392713D01*
X137887506Y-80290327D01*
X137890500Y-80264646D01*
X137890500Y-79875354D01*
X137887382Y-79849154D01*
X137877460Y-79826815D01*
X137846663Y-79757482D01*
X137841939Y-79746847D01*
X137819788Y-79724734D01*
X137770945Y-79675977D01*
X137762713Y-79667759D01*
X137752076Y-79663056D01*
X137752074Y-79663055D01*
X137692538Y-79636735D01*
X137660327Y-79622494D01*
X137634646Y-79619500D01*
X136520354Y-79619500D01*
X136516650Y-79619941D01*
X136516647Y-79619941D01*
X136509254Y-79620821D01*
X136494154Y-79622618D01*
X136391847Y-79668061D01*
X136383628Y-79676294D01*
X136383627Y-79676295D01*
X136360756Y-79699206D01*
X136312759Y-79747287D01*
X136308056Y-79757924D01*
X136308055Y-79757926D01*
X136293321Y-79791254D01*
X136267494Y-79849673D01*
X136264500Y-79875354D01*
X136264500Y-80264646D01*
X136267618Y-80290846D01*
X136271456Y-80299486D01*
X136271456Y-80299487D01*
X136308337Y-80382519D01*
X136308339Y-80382521D01*
X136313061Y-80393153D01*
X136335019Y-80415072D01*
X136369097Y-80477354D01*
X136372000Y-80504244D01*
X136372000Y-80854053D01*
X136351998Y-80922174D01*
X136313887Y-80954848D01*
X136316304Y-80958365D01*
X136306715Y-80964956D01*
X136296085Y-80969677D01*
X136287868Y-80977908D01*
X136287867Y-80977909D01*
X136255225Y-81010608D01*
X136214365Y-81051539D01*
X136209662Y-81062176D01*
X136209661Y-81062178D01*
X136177025Y-81136000D01*
X136167594Y-81157332D01*
X136164500Y-81183871D01*
X135755500Y-81183871D01*
X135755500Y-79144687D01*
X135775502Y-79076566D01*
X135829158Y-79030073D01*
X135852357Y-79022104D01*
X135867602Y-79018480D01*
X135988054Y-78973324D01*
X136003649Y-78964786D01*
X136105724Y-78888285D01*
X136118285Y-78875724D01*
X136194786Y-78773649D01*
X136203324Y-78758054D01*
X136243091Y-78651976D01*
X136285733Y-78595212D01*
X136352294Y-78570512D01*
X136412020Y-78580965D01*
X136494673Y-78617506D01*
X136520354Y-78620500D01*
X137076943Y-78620500D01*
X137145064Y-78640502D01*
X137166038Y-78657405D01*
X138502595Y-79993962D01*
X138536621Y-80056274D01*
X138539500Y-80083057D01*
X138539500Y-80264646D01*
X138542618Y-80290846D01*
X138546456Y-80299486D01*
X138546456Y-80299487D01*
X138550666Y-80308964D01*
X138588061Y-80393153D01*
X138596294Y-80401372D01*
X138596295Y-80401373D01*
X138622613Y-80427645D01*
X138667287Y-80472241D01*
X138677924Y-80476944D01*
X138677926Y-80476945D01*
X138717979Y-80494652D01*
X138769673Y-80517506D01*
X138795354Y-80520500D01*
X139909646Y-80520500D01*
X139913350Y-80520059D01*
X139913353Y-80520059D01*
X139920746Y-80519179D01*
X139935846Y-80517382D01*
X140002864Y-80487614D01*
X140027518Y-80476663D01*
X140038153Y-80471939D01*
X140050006Y-80460066D01*
X140109023Y-80400945D01*
X140117241Y-80392713D01*
X140162506Y-80290327D01*
X140165500Y-80264646D01*
X140165500Y-79928611D01*
X140185502Y-79860490D01*
X140227362Y-79820157D01*
X140264675Y-79798091D01*
X140277104Y-79788449D01*
X140354405Y-79711148D01*
X140416717Y-79677122D01*
X140487532Y-79682187D01*
X140544368Y-79724734D01*
X140569179Y-79791254D01*
X140569500Y-79800243D01*
X140569500Y-80134820D01*
X140578233Y-80178722D01*
X140585127Y-80189040D01*
X140585128Y-80189042D01*
X140600787Y-80212477D01*
X140611496Y-80228504D01*
X140621815Y-80235399D01*
X140650958Y-80254872D01*
X140650960Y-80254873D01*
X140661278Y-80261767D01*
X140705180Y-80270500D01*
X141734820Y-80270500D01*
X141778722Y-80261767D01*
X141789040Y-80254873D01*
X141789042Y-80254872D01*
X141818185Y-80235399D01*
X141828504Y-80228504D01*
X141839213Y-80212477D01*
X141854872Y-80189042D01*
X141854873Y-80189040D01*
X141861767Y-80178722D01*
X141870500Y-80134820D01*
X141870500Y-79862313D01*
X141890502Y-79794192D01*
X141944158Y-79747699D01*
X142014432Y-79737595D01*
X142079012Y-79767089D01*
X142117396Y-79826815D01*
X142120079Y-79837731D01*
X142128233Y-79878722D01*
X142135127Y-79889040D01*
X142135128Y-79889042D01*
X142154601Y-79918185D01*
X142161496Y-79928504D01*
X142171815Y-79935399D01*
X142200958Y-79954872D01*
X142200960Y-79954873D01*
X142211278Y-79961767D01*
X142255180Y-79970500D01*
X142979964Y-79970500D01*
X143035184Y-79986714D01*
X143035321Y-79984683D01*
X143064469Y-79939115D01*
X143068185Y-79935399D01*
X143078504Y-79928504D01*
X143085399Y-79918185D01*
X143104872Y-79889042D01*
X143104873Y-79889040D01*
X143111767Y-79878722D01*
X143120500Y-79834820D01*
X143120500Y-79649661D01*
X143140502Y-79581540D01*
X143194158Y-79535047D01*
X143264432Y-79524943D01*
X143329012Y-79554437D01*
X143335595Y-79560566D01*
X143737248Y-79962219D01*
X143771274Y-80024531D01*
X143766209Y-80095346D01*
X143723662Y-80152182D01*
X143657142Y-80176993D01*
X143602383Y-80168707D01*
X143552566Y-80149284D01*
X143545487Y-80146524D01*
X143537954Y-80145532D01*
X143537953Y-80145532D01*
X143420261Y-80130038D01*
X143420260Y-80130038D01*
X143416174Y-80129500D01*
X143327484Y-80129500D01*
X143201680Y-80144724D01*
X143194576Y-80147408D01*
X143187195Y-80149221D01*
X143186636Y-80146945D01*
X143127308Y-80151444D01*
X143095604Y-80134308D01*
X143075188Y-80179012D01*
X143042969Y-80204498D01*
X143043077Y-80204655D01*
X143040747Y-80206256D01*
X143040743Y-80206259D01*
X143036819Y-80208956D01*
X142911842Y-80294851D01*
X142903349Y-80300688D01*
X142898297Y-80306358D01*
X142898296Y-80306359D01*
X142795612Y-80421608D01*
X142795610Y-80421612D01*
X142790560Y-80427279D01*
X142787008Y-80433988D01*
X142787007Y-80433989D01*
X142780656Y-80445985D01*
X142711224Y-80577119D01*
X142669919Y-80741559D01*
X142669031Y-80911105D01*
X142670805Y-80918492D01*
X142670805Y-80918496D01*
X142686788Y-80985066D01*
X142708612Y-81075968D01*
X142712093Y-81082712D01*
X142712094Y-81082715D01*
X142777933Y-81210275D01*
X142786375Y-81226631D01*
X142791367Y-81232353D01*
X142791368Y-81232355D01*
X142821199Y-81266551D01*
X142897831Y-81354396D01*
X142942532Y-81385812D01*
X143030330Y-81447518D01*
X143030332Y-81447519D01*
X143036547Y-81451887D01*
X143194513Y-81513476D01*
X143202046Y-81514468D01*
X143202047Y-81514468D01*
X143254452Y-81521367D01*
X143323826Y-81530500D01*
X143412516Y-81530500D01*
X143538320Y-81515276D01*
X143696923Y-81455345D01*
X143731159Y-81431815D01*
X143830392Y-81363614D01*
X143830393Y-81363613D01*
X143836651Y-81359312D01*
X143849909Y-81344432D01*
X143944388Y-81238392D01*
X143944390Y-81238388D01*
X143949440Y-81232721D01*
X143953194Y-81225632D01*
X144012285Y-81114027D01*
X144028776Y-81082881D01*
X144070081Y-80918441D01*
X144070969Y-80748895D01*
X144067847Y-80735889D01*
X144032162Y-80587256D01*
X144035708Y-80516348D01*
X144077027Y-80458614D01*
X144143001Y-80432383D01*
X144212682Y-80445985D01*
X144243775Y-80468746D01*
X144562595Y-80787566D01*
X144596621Y-80849878D01*
X144599500Y-80876661D01*
X144599500Y-81347634D01*
X144599304Y-81350307D01*
X144597575Y-81355342D01*
X144598011Y-81366964D01*
X144598011Y-81366966D01*
X144599411Y-81404255D01*
X144599500Y-81408981D01*
X144599500Y-81427948D01*
X144600382Y-81432683D01*
X144600610Y-81436209D01*
X144601774Y-81467208D01*
X144606364Y-81477893D01*
X144607401Y-81482493D01*
X144610962Y-81494214D01*
X144612661Y-81498617D01*
X144614791Y-81510053D01*
X144620895Y-81519955D01*
X144627727Y-81531039D01*
X144636231Y-81547411D01*
X144642451Y-81561888D01*
X144642453Y-81561892D01*
X144645964Y-81570063D01*
X144649978Y-81574949D01*
X144652163Y-81577134D01*
X144654215Y-81579397D01*
X144654055Y-81579542D01*
X144661175Y-81588549D01*
X144667427Y-81595444D01*
X144673532Y-81605348D01*
X144695320Y-81621916D01*
X144708139Y-81633110D01*
X145150481Y-82075452D01*
X145152237Y-82077486D01*
X145154575Y-82082269D01*
X145163104Y-82090181D01*
X145163105Y-82090182D01*
X145190477Y-82115573D01*
X145193882Y-82118853D01*
X145207277Y-82132248D01*
X145211247Y-82134972D01*
X145213895Y-82137297D01*
X145218446Y-82141518D01*
X145236646Y-82158401D01*
X145247453Y-82162713D01*
X145251438Y-82165232D01*
X145262247Y-82171004D01*
X145266552Y-82172911D01*
X145276146Y-82179493D01*
X145300099Y-82185177D01*
X145300136Y-82185186D01*
X145317732Y-82190751D01*
X145340622Y-82199883D01*
X145346915Y-82200500D01*
X145349997Y-82200500D01*
X145353067Y-82200650D01*
X145353056Y-82200866D01*
X145364431Y-82202198D01*
X145373745Y-82202653D01*
X145385066Y-82205340D01*
X145396595Y-82203771D01*
X145396596Y-82203771D01*
X145412173Y-82201651D01*
X145429164Y-82200500D01*
X146947634Y-82200500D01*
X146950307Y-82200696D01*
X146955342Y-82202425D01*
X146966964Y-82201989D01*
X146966966Y-82201989D01*
X147004255Y-82200589D01*
X147008981Y-82200500D01*
X147027948Y-82200500D01*
X147032683Y-82199618D01*
X147036209Y-82199390D01*
X147039949Y-82199249D01*
X147067208Y-82198226D01*
X147077893Y-82193636D01*
X147082493Y-82192599D01*
X147094214Y-82189038D01*
X147098617Y-82187339D01*
X147110053Y-82185209D01*
X147131041Y-82172272D01*
X147147411Y-82163769D01*
X147161888Y-82157549D01*
X147161892Y-82157547D01*
X147170063Y-82154036D01*
X147174949Y-82150022D01*
X147177134Y-82147837D01*
X147179397Y-82145785D01*
X147179542Y-82145945D01*
X147188549Y-82138825D01*
X147195444Y-82132573D01*
X147205348Y-82126468D01*
X147221916Y-82104680D01*
X147233110Y-82091861D01*
X147654405Y-81670566D01*
X147716717Y-81636540D01*
X147787532Y-81641605D01*
X147844368Y-81684152D01*
X147869179Y-81750672D01*
X147869500Y-81759661D01*
X147869500Y-82344820D01*
X147878233Y-82388722D01*
X147883753Y-82396983D01*
X147891160Y-82465870D01*
X147859382Y-82529358D01*
X147798324Y-82565586D01*
X147767162Y-82569500D01*
X141972838Y-82569500D01*
X141904717Y-82549498D01*
X141858224Y-82495842D01*
X141848120Y-82425568D01*
X141855765Y-82397705D01*
X141861767Y-82388722D01*
X141870500Y-82344820D01*
X141870500Y-81515180D01*
X141861767Y-81471278D01*
X141854873Y-81460960D01*
X141854872Y-81460958D01*
X141835399Y-81431815D01*
X141828504Y-81421496D01*
X141808978Y-81408449D01*
X141789042Y-81395128D01*
X141789040Y-81395127D01*
X141778722Y-81388233D01*
X141734820Y-81379500D01*
X140705180Y-81379500D01*
X140661278Y-81388233D01*
X140650960Y-81395127D01*
X140650958Y-81395128D01*
X140631022Y-81408449D01*
X140611496Y-81421496D01*
X140604601Y-81431815D01*
X140585128Y-81460958D01*
X140585127Y-81460960D01*
X140578233Y-81471278D01*
X140569500Y-81515180D01*
X140569500Y-82344820D01*
X140578233Y-82388722D01*
X140583753Y-82396983D01*
X140591160Y-82465870D01*
X140559382Y-82529358D01*
X140498324Y-82565586D01*
X140467162Y-82569500D01*
X129556500Y-82569500D01*
X129488379Y-82549498D01*
X129441886Y-82495842D01*
X129430500Y-82443500D01*
X129430500Y-81453318D01*
X129450502Y-81385197D01*
X129504158Y-81338704D01*
X129574432Y-81328600D01*
X129626497Y-81348550D01*
X129646278Y-81361767D01*
X129690180Y-81370500D01*
X131719820Y-81370500D01*
X131763722Y-81361767D01*
X131774040Y-81354873D01*
X131774042Y-81354872D01*
X131803185Y-81335399D01*
X131813504Y-81328504D01*
X131839706Y-81289290D01*
X131839872Y-81289042D01*
X131839873Y-81289040D01*
X131846767Y-81278722D01*
X131855500Y-81234820D01*
X131855500Y-79025180D01*
X131846767Y-78981278D01*
X131839873Y-78970960D01*
X131839872Y-78970958D01*
X131820399Y-78941815D01*
X131813504Y-78931496D01*
X131787137Y-78913878D01*
X131774042Y-78905128D01*
X131774040Y-78905127D01*
X131763722Y-78898233D01*
X131719820Y-78889500D01*
X129690180Y-78889500D01*
X129646278Y-78898233D01*
X129626498Y-78911450D01*
X129558746Y-78932662D01*
X129490280Y-78913878D01*
X129442838Y-78861059D01*
X129430500Y-78806682D01*
X129430500Y-75800000D01*
X129694508Y-75800000D01*
X129696059Y-75809793D01*
X129712620Y-75914354D01*
X129714354Y-75925304D01*
X129771950Y-76038342D01*
X129861658Y-76128050D01*
X129974696Y-76185646D01*
X129984485Y-76187196D01*
X129984487Y-76187197D01*
X130090207Y-76203941D01*
X130100000Y-76205492D01*
X130109793Y-76203941D01*
X130215513Y-76187197D01*
X130215515Y-76187196D01*
X130225304Y-76185646D01*
X130338342Y-76128050D01*
X130428050Y-76038342D01*
X130485646Y-75925304D01*
X130487381Y-75914354D01*
X130503941Y-75809793D01*
X130505492Y-75800000D01*
X130500101Y-75765960D01*
X130487197Y-75684487D01*
X130487196Y-75684485D01*
X130485646Y-75674696D01*
X130428050Y-75561658D01*
X130338342Y-75471950D01*
X130225304Y-75414354D01*
X130215515Y-75412804D01*
X130215513Y-75412803D01*
X130109793Y-75396059D01*
X130100000Y-75394508D01*
X130090207Y-75396059D01*
X129984487Y-75412803D01*
X129984485Y-75412804D01*
X129974696Y-75414354D01*
X129861658Y-75471950D01*
X129771950Y-75561658D01*
X129714354Y-75674696D01*
X129712804Y-75684485D01*
X129712803Y-75684487D01*
X129699899Y-75765960D01*
X129694508Y-75800000D01*
X129430500Y-75800000D01*
X129430500Y-71233318D01*
X129450502Y-71165197D01*
X129504158Y-71118704D01*
X129574432Y-71108600D01*
X129626497Y-71128550D01*
X129646278Y-71141767D01*
X129690180Y-71150500D01*
X131719820Y-71150500D01*
X131763722Y-71141767D01*
X131774040Y-71134873D01*
X131774042Y-71134872D01*
X131803185Y-71115399D01*
X131813504Y-71108504D01*
X131820399Y-71098185D01*
X131839872Y-71069042D01*
X131839873Y-71069040D01*
X131846767Y-71058722D01*
X131855500Y-71014820D01*
X131855500Y-68805180D01*
X131846767Y-68761278D01*
X131839873Y-68750960D01*
X131839872Y-68750958D01*
X131820399Y-68721815D01*
X131813504Y-68711496D01*
X131800792Y-68703002D01*
X131774042Y-68685128D01*
X131774040Y-68685127D01*
X131763722Y-68678233D01*
X131719820Y-68669500D01*
X129690180Y-68669500D01*
X129646278Y-68678233D01*
X129626498Y-68691450D01*
X129558746Y-68712662D01*
X129490280Y-68693878D01*
X129442838Y-68641059D01*
X129430500Y-68586682D01*
X129430500Y-67596500D01*
X129450502Y-67528379D01*
X129504158Y-67481886D01*
X129556500Y-67470500D01*
X140375419Y-67470500D01*
X140443540Y-67490502D01*
G37*
%TD.AperFunction*%
%TA.AperFunction,Conductor*%
G36*
X154447532Y-68623026D02*
G01*
X154504368Y-68665573D01*
X154529179Y-68732093D01*
X154529500Y-68741082D01*
X154529500Y-70018918D01*
X154509498Y-70087039D01*
X154455842Y-70133532D01*
X154385568Y-70143636D01*
X154320988Y-70114142D01*
X154314405Y-70108013D01*
X154288342Y-70081950D01*
X154175304Y-70024354D01*
X154165515Y-70022804D01*
X154165513Y-70022803D01*
X154138151Y-70018470D01*
X154081519Y-70009500D01*
X153746454Y-70009500D01*
X153678333Y-69989498D01*
X153631840Y-69935842D01*
X153621736Y-69865568D01*
X153634187Y-69826297D01*
X153637979Y-69818855D01*
X153685646Y-69725304D01*
X153688608Y-69706607D01*
X153703941Y-69609793D01*
X153705492Y-69600000D01*
X153701234Y-69573115D01*
X153687197Y-69484487D01*
X153687196Y-69484485D01*
X153685646Y-69474696D01*
X153628050Y-69361658D01*
X153538342Y-69271950D01*
X153425304Y-69214354D01*
X153415515Y-69212804D01*
X153415513Y-69212803D01*
X153309793Y-69196059D01*
X153300000Y-69194508D01*
X153290207Y-69196059D01*
X153184487Y-69212803D01*
X153184485Y-69212804D01*
X153174696Y-69214354D01*
X153061658Y-69271950D01*
X152971950Y-69361658D01*
X152914354Y-69474696D01*
X152912804Y-69484485D01*
X152912803Y-69484487D01*
X152898766Y-69573115D01*
X152894508Y-69600000D01*
X152896059Y-69609793D01*
X152911393Y-69706607D01*
X152914354Y-69725304D01*
X152941129Y-69777852D01*
X152965813Y-69826298D01*
X152978917Y-69896075D01*
X152952217Y-69961860D01*
X152894189Y-70002766D01*
X152853546Y-70009501D01*
X152518482Y-70009501D01*
X152513589Y-70010276D01*
X152513588Y-70010276D01*
X152434494Y-70022802D01*
X152434492Y-70022803D01*
X152424696Y-70024354D01*
X152311658Y-70081950D01*
X152221950Y-70171658D01*
X152164354Y-70284696D01*
X152162804Y-70294485D01*
X152162803Y-70294487D01*
X152159473Y-70315513D01*
X152149500Y-70378481D01*
X152149501Y-70941518D01*
X152150276Y-70946411D01*
X152150276Y-70946412D01*
X152162643Y-71024498D01*
X152164354Y-71035304D01*
X152168857Y-71044141D01*
X152168857Y-71044142D01*
X152176286Y-71058722D01*
X152221950Y-71148342D01*
X152311658Y-71238050D01*
X152424696Y-71295646D01*
X152434485Y-71297196D01*
X152434487Y-71297197D01*
X152459018Y-71301082D01*
X152518481Y-71310500D01*
X153299842Y-71310500D01*
X154081518Y-71310499D01*
X154086412Y-71309724D01*
X154165506Y-71297198D01*
X154165508Y-71297197D01*
X154175304Y-71295646D01*
X154288342Y-71238050D01*
X154314405Y-71211987D01*
X154376717Y-71177961D01*
X154447532Y-71183026D01*
X154504368Y-71225573D01*
X154529179Y-71292093D01*
X154529500Y-71301082D01*
X154529500Y-78291061D01*
X154509498Y-78359182D01*
X154455842Y-78405675D01*
X154385568Y-78415779D01*
X154337385Y-78398321D01*
X154278762Y-78362186D01*
X154265576Y-78356037D01*
X154111290Y-78304862D01*
X154091189Y-78300553D01*
X154091884Y-78297312D01*
X154039601Y-78276357D01*
X153998441Y-78218508D01*
X153995092Y-78147591D01*
X154020349Y-78098503D01*
X154020088Y-78098319D01*
X154021404Y-78096453D01*
X154022142Y-78095019D01*
X154023640Y-78093283D01*
X154030712Y-78083258D01*
X154122263Y-77922098D01*
X154127257Y-77910882D01*
X154185760Y-77735014D01*
X154188480Y-77723042D01*
X154212040Y-77536545D01*
X154212532Y-77529518D01*
X154212829Y-77508284D01*
X154212534Y-77501255D01*
X154194189Y-77314158D01*
X154191806Y-77302123D01*
X154138234Y-77124685D01*
X154133560Y-77113345D01*
X154078563Y-77009909D01*
X154068703Y-76999828D01*
X154061576Y-77002396D01*
X153289096Y-77774876D01*
X153226784Y-77808902D01*
X153155969Y-77803837D01*
X153110906Y-77774876D01*
X152343122Y-77007092D01*
X152330742Y-77000332D01*
X152324354Y-77005114D01*
X152271998Y-77100347D01*
X152267167Y-77111619D01*
X152211121Y-77288299D01*
X152208571Y-77300293D01*
X152187910Y-77484494D01*
X152187739Y-77496763D01*
X152203249Y-77681466D01*
X152205462Y-77693525D01*
X152256555Y-77871706D01*
X152261067Y-77883103D01*
X152345795Y-78047968D01*
X152352436Y-78058273D01*
X152384609Y-78098864D01*
X152411247Y-78164674D01*
X152398077Y-78234438D01*
X152349280Y-78286007D01*
X152307294Y-78299709D01*
X152307530Y-78300802D01*
X152287400Y-78305149D01*
X152133216Y-78356588D01*
X152120038Y-78362761D01*
X151982193Y-78448063D01*
X151970792Y-78457099D01*
X151856261Y-78571829D01*
X151847249Y-78583240D01*
X151762184Y-78721243D01*
X151756037Y-78734424D01*
X151704862Y-78888710D01*
X151701995Y-78902085D01*
X151692328Y-78996438D01*
X151692000Y-79002855D01*
X151692000Y-79027885D01*
X151696475Y-79043124D01*
X151697865Y-79044329D01*
X151705548Y-79046000D01*
X153328000Y-79046000D01*
X153396121Y-79066002D01*
X153442614Y-79119658D01*
X153454000Y-79172000D01*
X153454000Y-80289884D01*
X153458475Y-80305123D01*
X153459865Y-80306328D01*
X153467548Y-80307999D01*
X153997095Y-80307999D01*
X154003614Y-80307662D01*
X154099206Y-80297743D01*
X154112600Y-80294851D01*
X154266784Y-80243412D01*
X154279958Y-80237241D01*
X154337196Y-80201820D01*
X154405648Y-80182982D01*
X154473418Y-80204143D01*
X154518989Y-80258583D01*
X154529500Y-80308964D01*
X154529500Y-81340328D01*
X154509498Y-81408449D01*
X154455842Y-81454942D01*
X154385568Y-81465046D01*
X154320988Y-81435552D01*
X154291233Y-81397531D01*
X154282550Y-81380490D01*
X154278050Y-81371658D01*
X154188342Y-81281950D01*
X154075304Y-81224354D01*
X154065515Y-81222804D01*
X154065513Y-81222803D01*
X154038151Y-81218470D01*
X153981519Y-81209500D01*
X153894231Y-81209500D01*
X153026662Y-81209501D01*
X152958541Y-81189499D01*
X152937567Y-81172596D01*
X152489519Y-80724548D01*
X152487763Y-80722514D01*
X152485425Y-80717731D01*
X152472607Y-80705840D01*
X152449523Y-80684427D01*
X152446118Y-80681147D01*
X152432723Y-80667752D01*
X152428753Y-80665028D01*
X152426105Y-80662703D01*
X152411881Y-80649508D01*
X152411878Y-80649506D01*
X152403354Y-80641599D01*
X152392550Y-80637289D01*
X152388561Y-80634767D01*
X152377773Y-80629006D01*
X152373448Y-80627089D01*
X152363854Y-80620508D01*
X152352535Y-80617822D01*
X152352533Y-80617821D01*
X152339873Y-80614817D01*
X152322276Y-80609252D01*
X152307638Y-80603412D01*
X152307635Y-80603411D01*
X152299378Y-80600117D01*
X152293085Y-80599500D01*
X152290006Y-80599500D01*
X152286933Y-80599350D01*
X152286944Y-80599134D01*
X152275569Y-80597802D01*
X152266254Y-80597346D01*
X152254934Y-80594660D01*
X152243405Y-80596229D01*
X152243404Y-80596229D01*
X152227827Y-80598349D01*
X152210836Y-80599500D01*
X147652366Y-80599500D01*
X147649693Y-80599304D01*
X147644658Y-80597575D01*
X147633036Y-80598011D01*
X147633034Y-80598011D01*
X147595744Y-80599411D01*
X147591018Y-80599500D01*
X147572052Y-80599500D01*
X147567317Y-80600381D01*
X147563790Y-80600610D01*
X147559254Y-80600780D01*
X147532791Y-80601774D01*
X147522104Y-80606366D01*
X147517492Y-80607405D01*
X147505800Y-80610957D01*
X147501383Y-80612661D01*
X147489947Y-80614791D01*
X147468961Y-80627727D01*
X147452589Y-80636231D01*
X147438112Y-80642451D01*
X147438108Y-80642453D01*
X147429937Y-80645964D01*
X147425051Y-80649978D01*
X147422866Y-80652163D01*
X147420603Y-80654215D01*
X147420458Y-80654055D01*
X147411451Y-80661175D01*
X147404556Y-80667427D01*
X147394652Y-80673532D01*
X147378084Y-80695320D01*
X147366890Y-80708139D01*
X147324548Y-80750481D01*
X147322514Y-80752237D01*
X147317731Y-80754575D01*
X147309819Y-80763104D01*
X147309818Y-80763105D01*
X147284427Y-80790477D01*
X147281147Y-80793882D01*
X147279460Y-80795569D01*
X147217148Y-80829595D01*
X147146333Y-80824530D01*
X147089497Y-80781983D01*
X147067847Y-80735889D01*
X147033161Y-80591417D01*
X147031388Y-80584032D01*
X147023610Y-80568961D01*
X146957108Y-80440117D01*
X146957108Y-80440116D01*
X146953625Y-80433369D01*
X146948313Y-80427279D01*
X146847163Y-80311329D01*
X146842169Y-80305604D01*
X146703453Y-80208113D01*
X146699458Y-80206556D01*
X146649879Y-80157726D01*
X146644734Y-80134913D01*
X146594999Y-80153463D01*
X146554675Y-80149825D01*
X146552562Y-80149283D01*
X146545487Y-80146524D01*
X146416174Y-80129500D01*
X146327484Y-80129500D01*
X146201680Y-80144724D01*
X146194576Y-80147408D01*
X146187195Y-80149221D01*
X146186636Y-80146945D01*
X146127308Y-80151444D01*
X146095604Y-80134308D01*
X146075188Y-80179012D01*
X146042969Y-80204498D01*
X146043077Y-80204655D01*
X146040747Y-80206256D01*
X146040743Y-80206259D01*
X146036819Y-80208956D01*
X145911842Y-80294851D01*
X145903349Y-80300688D01*
X145898297Y-80306358D01*
X145898296Y-80306359D01*
X145795612Y-80421608D01*
X145795610Y-80421612D01*
X145790560Y-80427279D01*
X145787008Y-80433988D01*
X145787007Y-80433989D01*
X145780656Y-80445985D01*
X145711224Y-80577119D01*
X145669919Y-80741559D01*
X145669031Y-80911105D01*
X145670805Y-80918492D01*
X145670805Y-80918496D01*
X145686788Y-80985066D01*
X145708612Y-81075968D01*
X145712093Y-81082712D01*
X145712094Y-81082715D01*
X145777933Y-81210275D01*
X145786375Y-81226631D01*
X145791367Y-81232353D01*
X145791368Y-81232355D01*
X145821199Y-81266551D01*
X145897831Y-81354396D01*
X145904049Y-81358766D01*
X145920620Y-81370413D01*
X145964852Y-81425947D01*
X145972038Y-81496579D01*
X145939897Y-81559884D01*
X145878633Y-81595762D01*
X145848170Y-81599500D01*
X145576663Y-81599500D01*
X145508542Y-81579498D01*
X145487568Y-81562596D01*
X145237405Y-81312434D01*
X145203380Y-81250121D01*
X145200500Y-81223338D01*
X145200500Y-80752366D01*
X145200696Y-80749693D01*
X145202425Y-80744658D01*
X145200589Y-80695745D01*
X145200500Y-80691019D01*
X145200500Y-80672052D01*
X145199618Y-80667317D01*
X145199390Y-80663791D01*
X145198871Y-80649978D01*
X145198226Y-80632792D01*
X145193636Y-80622107D01*
X145192599Y-80617507D01*
X145189038Y-80605786D01*
X145187339Y-80601383D01*
X145185209Y-80589947D01*
X145172272Y-80568959D01*
X145163769Y-80552589D01*
X145157549Y-80538112D01*
X145157547Y-80538108D01*
X145154036Y-80529937D01*
X145150022Y-80525051D01*
X145147837Y-80522866D01*
X145145785Y-80520603D01*
X145145945Y-80520458D01*
X145138825Y-80511451D01*
X145132573Y-80504556D01*
X145126468Y-80494652D01*
X145104680Y-80478084D01*
X145091861Y-80466890D01*
X144635127Y-80010156D01*
X144601101Y-79947844D01*
X144606166Y-79877029D01*
X144648713Y-79820193D01*
X144715233Y-79795382D01*
X144743932Y-79796612D01*
X144790206Y-79803941D01*
X144790207Y-79803941D01*
X144800000Y-79805492D01*
X144809793Y-79803941D01*
X144915513Y-79787197D01*
X144915515Y-79787196D01*
X144925304Y-79785646D01*
X144934135Y-79781146D01*
X144934139Y-79781145D01*
X144944438Y-79775897D01*
X145014215Y-79762792D01*
X145080000Y-79789491D01*
X145120907Y-79847519D01*
X145125221Y-79863579D01*
X145128233Y-79878722D01*
X145135127Y-79889040D01*
X145135128Y-79889042D01*
X145154601Y-79918185D01*
X145161496Y-79928504D01*
X145171815Y-79935399D01*
X145200958Y-79954872D01*
X145200960Y-79954873D01*
X145211278Y-79961767D01*
X145255180Y-79970500D01*
X145979964Y-79970500D01*
X146035184Y-79986714D01*
X146035321Y-79984683D01*
X146064469Y-79939115D01*
X146068185Y-79935399D01*
X146078504Y-79928504D01*
X146085399Y-79918185D01*
X146104872Y-79889042D01*
X146104873Y-79889040D01*
X146111767Y-79878722D01*
X146120500Y-79834820D01*
X146619500Y-79834820D01*
X146628233Y-79878722D01*
X146635127Y-79889040D01*
X146635128Y-79889042D01*
X146654601Y-79918185D01*
X146661496Y-79928504D01*
X146671815Y-79935399D01*
X146675105Y-79938689D01*
X146702302Y-79988495D01*
X146715072Y-79978783D01*
X146760003Y-79970500D01*
X147484820Y-79970500D01*
X147528722Y-79961767D01*
X147539040Y-79954873D01*
X147539042Y-79954872D01*
X147568185Y-79935399D01*
X147578504Y-79928504D01*
X147585399Y-79918185D01*
X147604872Y-79889042D01*
X147604873Y-79889040D01*
X147611767Y-79878722D01*
X147619921Y-79837731D01*
X147652829Y-79774821D01*
X147714525Y-79739690D01*
X147785419Y-79743491D01*
X147843005Y-79785017D01*
X147868999Y-79851084D01*
X147869500Y-79862313D01*
X147869500Y-80134820D01*
X147878233Y-80178722D01*
X147885127Y-80189040D01*
X147885128Y-80189042D01*
X147900787Y-80212477D01*
X147911496Y-80228504D01*
X147921815Y-80235399D01*
X147950958Y-80254872D01*
X147950960Y-80254873D01*
X147961278Y-80261767D01*
X148005180Y-80270500D01*
X149034820Y-80270500D01*
X149078722Y-80261767D01*
X149089040Y-80254873D01*
X149089042Y-80254872D01*
X149118185Y-80235399D01*
X149128504Y-80228504D01*
X149139213Y-80212477D01*
X149154872Y-80189042D01*
X149154873Y-80189040D01*
X149161767Y-80178722D01*
X149170500Y-80134820D01*
X149170500Y-79597095D01*
X151692001Y-79597095D01*
X151692338Y-79603614D01*
X151702257Y-79699206D01*
X151705149Y-79712600D01*
X151756588Y-79866784D01*
X151762761Y-79879962D01*
X151848063Y-80017807D01*
X151857099Y-80029208D01*
X151971829Y-80143739D01*
X151983240Y-80152751D01*
X152121243Y-80237816D01*
X152134424Y-80243963D01*
X152288710Y-80295138D01*
X152302086Y-80298005D01*
X152396438Y-80307672D01*
X152402854Y-80308000D01*
X152927885Y-80308000D01*
X152943124Y-80303525D01*
X152944329Y-80302135D01*
X152946000Y-80294452D01*
X152946000Y-79572115D01*
X152941525Y-79556876D01*
X152940135Y-79555671D01*
X152932452Y-79554000D01*
X151710116Y-79554000D01*
X151694877Y-79558475D01*
X151693672Y-79559865D01*
X151692001Y-79567548D01*
X151692001Y-79597095D01*
X149170500Y-79597095D01*
X149170500Y-79305180D01*
X149161767Y-79261278D01*
X149154873Y-79250960D01*
X149154872Y-79250958D01*
X149135399Y-79221815D01*
X149128504Y-79211496D01*
X149118185Y-79204601D01*
X149089042Y-79185128D01*
X149089040Y-79185127D01*
X149078722Y-79178233D01*
X149034820Y-79169500D01*
X148005180Y-79169500D01*
X147961278Y-79178233D01*
X147950960Y-79185127D01*
X147950958Y-79185128D01*
X147921815Y-79204601D01*
X147911496Y-79211496D01*
X147904601Y-79221815D01*
X147885128Y-79250958D01*
X147885127Y-79250960D01*
X147878233Y-79261278D01*
X147875812Y-79273449D01*
X147870079Y-79302269D01*
X147837171Y-79365179D01*
X147775475Y-79400310D01*
X147704581Y-79396509D01*
X147646995Y-79354983D01*
X147621001Y-79288916D01*
X147620500Y-79277687D01*
X147620500Y-78406068D01*
X147640502Y-78337947D01*
X147657405Y-78316973D01*
X149899365Y-76075013D01*
X149961677Y-76040987D01*
X150032492Y-76046052D01*
X150089328Y-76088599D01*
X150114139Y-76155119D01*
X150112909Y-76183818D01*
X150096059Y-76290206D01*
X150094508Y-76300000D01*
X150096059Y-76309793D01*
X150109103Y-76392148D01*
X150114354Y-76425304D01*
X150171950Y-76538342D01*
X150261658Y-76628050D01*
X150374696Y-76685646D01*
X150384485Y-76687196D01*
X150384487Y-76687197D01*
X150490207Y-76703941D01*
X150500000Y-76705492D01*
X150509793Y-76703941D01*
X150615513Y-76687197D01*
X150615515Y-76687196D01*
X150625304Y-76685646D01*
X150723010Y-76635862D01*
X152694821Y-76635862D01*
X152697275Y-76642825D01*
X153187189Y-77132739D01*
X153201133Y-77140353D01*
X153202966Y-77140222D01*
X153209581Y-77135971D01*
X153697835Y-76647717D01*
X153704595Y-76635337D01*
X153699936Y-76629114D01*
X153597925Y-76573957D01*
X153586620Y-76569205D01*
X153409555Y-76514394D01*
X153397542Y-76511928D01*
X153213200Y-76492553D01*
X153200932Y-76492468D01*
X153016346Y-76509266D01*
X153004297Y-76511564D01*
X152826484Y-76563898D01*
X152815109Y-76568493D01*
X152704970Y-76626073D01*
X152694821Y-76635862D01*
X150723010Y-76635862D01*
X150738342Y-76628050D01*
X150828050Y-76538342D01*
X150885646Y-76425304D01*
X150890898Y-76392148D01*
X150903941Y-76309793D01*
X150905492Y-76300000D01*
X150903941Y-76290206D01*
X150903941Y-76290204D01*
X150903697Y-76288664D01*
X150903941Y-76286776D01*
X150903941Y-76280289D01*
X150904779Y-76280289D01*
X150912795Y-76218253D01*
X150939047Y-76179859D01*
X151911740Y-75207165D01*
X151974051Y-75173141D01*
X152000834Y-75170261D01*
X152503274Y-75170261D01*
X152571395Y-75190263D01*
X152614590Y-75238004D01*
X152616144Y-75242251D01*
X152620382Y-75248557D01*
X152620382Y-75248558D01*
X152628207Y-75260203D01*
X152703959Y-75372933D01*
X152726271Y-75393235D01*
X152812591Y-75471780D01*
X152820411Y-75478896D01*
X152827086Y-75482520D01*
X152952100Y-75550398D01*
X152952102Y-75550399D01*
X152958777Y-75554023D01*
X152966126Y-75555951D01*
X153103720Y-75592048D01*
X153103722Y-75592048D01*
X153111070Y-75593976D01*
X153194381Y-75595285D01*
X153260899Y-75596330D01*
X153260902Y-75596330D01*
X153268496Y-75596449D01*
X153421969Y-75561299D01*
X153562626Y-75490556D01*
X153627885Y-75434820D01*
X153676575Y-75393235D01*
X153676577Y-75393232D01*
X153682349Y-75388303D01*
X153774225Y-75260444D01*
X153832951Y-75114359D01*
X153846028Y-75022473D01*
X153854554Y-74962568D01*
X153854554Y-74962565D01*
X153855135Y-74958484D01*
X153855203Y-74952015D01*
X153855236Y-74948895D01*
X153855236Y-74948889D01*
X153855279Y-74944761D01*
X153836364Y-74788455D01*
X153822368Y-74751416D01*
X153783395Y-74648275D01*
X153783394Y-74648272D01*
X153780711Y-74641173D01*
X153691532Y-74511418D01*
X153615085Y-74443306D01*
X153579649Y-74411733D01*
X153579646Y-74411731D01*
X153573977Y-74406680D01*
X153562098Y-74400390D01*
X153441544Y-74336560D01*
X153441545Y-74336560D01*
X153434832Y-74333006D01*
X153380290Y-74319306D01*
X153289499Y-74296501D01*
X153289497Y-74296501D01*
X153282129Y-74294650D01*
X153274531Y-74294610D01*
X153274529Y-74294610D01*
X153207320Y-74294258D01*
X153124685Y-74293826D01*
X153117306Y-74295598D01*
X153117302Y-74295598D01*
X152978968Y-74328809D01*
X152978964Y-74328810D01*
X152971589Y-74330581D01*
X152831680Y-74402793D01*
X152825958Y-74407785D01*
X152825956Y-74407786D01*
X152718760Y-74501299D01*
X152718757Y-74501302D01*
X152713035Y-74506294D01*
X152707543Y-74514108D01*
X152639138Y-74611439D01*
X152622502Y-74635109D01*
X152619741Y-74642190D01*
X152616155Y-74648879D01*
X152614187Y-74647824D01*
X152577586Y-74695237D01*
X152503580Y-74719261D01*
X151864435Y-74719261D01*
X151857842Y-74719088D01*
X151832403Y-74717755D01*
X151819175Y-74717062D01*
X151801592Y-74723812D01*
X151800257Y-74724324D01*
X151781299Y-74729940D01*
X151761471Y-74734154D01*
X151750759Y-74741936D01*
X151746218Y-74743958D01*
X151742042Y-74746670D01*
X151729679Y-74751416D01*
X151715351Y-74765744D01*
X151700318Y-74778584D01*
X151683916Y-74790501D01*
X151677296Y-74801967D01*
X151668432Y-74811812D01*
X151668079Y-74811494D01*
X151663062Y-74818033D01*
X150620145Y-75860950D01*
X150557833Y-75894976D01*
X150511339Y-75896304D01*
X150500000Y-75894508D01*
X150490207Y-75896059D01*
X150490206Y-75896059D01*
X150383818Y-75912909D01*
X150313407Y-75903809D01*
X150259093Y-75858087D01*
X150238121Y-75790259D01*
X150257148Y-75721860D01*
X150275013Y-75699365D01*
X152924742Y-73049636D01*
X152987054Y-73015610D01*
X153045812Y-73016856D01*
X153103716Y-73032047D01*
X153103718Y-73032047D01*
X153111070Y-73033976D01*
X153194381Y-73035285D01*
X153260899Y-73036330D01*
X153260902Y-73036330D01*
X153268496Y-73036449D01*
X153421969Y-73001299D01*
X153562626Y-72930556D01*
X153599113Y-72899393D01*
X153676575Y-72833235D01*
X153676577Y-72833232D01*
X153682349Y-72828303D01*
X153774225Y-72700444D01*
X153832951Y-72554359D01*
X153848055Y-72448231D01*
X153854554Y-72402568D01*
X153854554Y-72402565D01*
X153855135Y-72398484D01*
X153855279Y-72384761D01*
X153836364Y-72228455D01*
X153796083Y-72121853D01*
X153783395Y-72088275D01*
X153783394Y-72088272D01*
X153780711Y-72081173D01*
X153691532Y-71951418D01*
X153591162Y-71861991D01*
X153579649Y-71851733D01*
X153579646Y-71851731D01*
X153573977Y-71846680D01*
X153434832Y-71773006D01*
X153414333Y-71767857D01*
X153289499Y-71736501D01*
X153289497Y-71736501D01*
X153282129Y-71734650D01*
X153274531Y-71734610D01*
X153274529Y-71734610D01*
X153207320Y-71734258D01*
X153124685Y-71733826D01*
X153117306Y-71735598D01*
X153117302Y-71735598D01*
X152978968Y-71768809D01*
X152978964Y-71768810D01*
X152971589Y-71770581D01*
X152964844Y-71774062D01*
X152964845Y-71774062D01*
X152880966Y-71817355D01*
X152831680Y-71842793D01*
X152825958Y-71847785D01*
X152825956Y-71847786D01*
X152718760Y-71941299D01*
X152718757Y-71941302D01*
X152713035Y-71946294D01*
X152684693Y-71986621D01*
X152627060Y-72068624D01*
X152622502Y-72075109D01*
X152565310Y-72221800D01*
X152564319Y-72229329D01*
X152547057Y-72360445D01*
X152544759Y-72377899D01*
X152562036Y-72534394D01*
X152564647Y-72541529D01*
X152565536Y-72545319D01*
X152561618Y-72616207D01*
X152531960Y-72663186D01*
X147062551Y-78132595D01*
X147000239Y-78166621D01*
X146973456Y-78169500D01*
X146755180Y-78169500D01*
X146711278Y-78178233D01*
X146700960Y-78185127D01*
X146700958Y-78185128D01*
X146678352Y-78200233D01*
X146661496Y-78211496D01*
X146654601Y-78221815D01*
X146635128Y-78250958D01*
X146635127Y-78250960D01*
X146628233Y-78261278D01*
X146619500Y-78305180D01*
X146619500Y-79834820D01*
X146120500Y-79834820D01*
X146120500Y-78305180D01*
X146111767Y-78261278D01*
X146104873Y-78250960D01*
X146104872Y-78250958D01*
X146085399Y-78221815D01*
X146078504Y-78211496D01*
X146061648Y-78200233D01*
X146039042Y-78185128D01*
X146039040Y-78185127D01*
X146028722Y-78178233D01*
X145984820Y-78169500D01*
X145255180Y-78169500D01*
X145211278Y-78178233D01*
X145200960Y-78185127D01*
X145200958Y-78185128D01*
X145178352Y-78200233D01*
X145161496Y-78211496D01*
X145154601Y-78221815D01*
X145135128Y-78250958D01*
X145135127Y-78250960D01*
X145128233Y-78261278D01*
X145119500Y-78305180D01*
X145119500Y-78907688D01*
X145099498Y-78975809D01*
X145045842Y-79022302D01*
X144975568Y-79032406D01*
X144936299Y-79019956D01*
X144934138Y-79018855D01*
X144934137Y-79018855D01*
X144925304Y-79014354D01*
X144915515Y-79012804D01*
X144915513Y-79012803D01*
X144809793Y-78996059D01*
X144800000Y-78994508D01*
X144790207Y-78996059D01*
X144684487Y-79012803D01*
X144684485Y-79012804D01*
X144674696Y-79014354D01*
X144561658Y-79071950D01*
X144471950Y-79161658D01*
X144414354Y-79274696D01*
X144394508Y-79400000D01*
X144396059Y-79409793D01*
X144396059Y-79409794D01*
X144403388Y-79456068D01*
X144394288Y-79526479D01*
X144348566Y-79580793D01*
X144280738Y-79601765D01*
X144212339Y-79582738D01*
X144189844Y-79564873D01*
X143519519Y-78894548D01*
X143517763Y-78892514D01*
X143515425Y-78887731D01*
X143506545Y-78879493D01*
X143479523Y-78854427D01*
X143476118Y-78851147D01*
X143462723Y-78837752D01*
X143458753Y-78835028D01*
X143456105Y-78832703D01*
X143441881Y-78819508D01*
X143441878Y-78819506D01*
X143433354Y-78811599D01*
X143422550Y-78807289D01*
X143418561Y-78804767D01*
X143407773Y-78799006D01*
X143403448Y-78797089D01*
X143393854Y-78790508D01*
X143382535Y-78787822D01*
X143382533Y-78787821D01*
X143369873Y-78784817D01*
X143352276Y-78779252D01*
X143337638Y-78773412D01*
X143337635Y-78773411D01*
X143329378Y-78770117D01*
X143323085Y-78769500D01*
X143320006Y-78769500D01*
X143316933Y-78769350D01*
X143316944Y-78769134D01*
X143305569Y-78767802D01*
X143296254Y-78767346D01*
X143284934Y-78764660D01*
X143273405Y-78766229D01*
X143273403Y-78766229D01*
X143263490Y-78767578D01*
X143193294Y-78756944D01*
X143139991Y-78710048D01*
X143120500Y-78642729D01*
X143120500Y-78305180D01*
X143111767Y-78261278D01*
X143104872Y-78250958D01*
X143100124Y-78239497D01*
X143101888Y-78238766D01*
X143085225Y-78185557D01*
X143104006Y-78117090D01*
X143145934Y-78075529D01*
X143160601Y-78066646D01*
X143172473Y-78057337D01*
X143275197Y-77954613D01*
X143284506Y-77942741D01*
X143316437Y-77890017D01*
X143368834Y-77842110D01*
X143438814Y-77830137D01*
X143457357Y-77833725D01*
X143464833Y-77835763D01*
X143473502Y-77839596D01*
X143482913Y-77840693D01*
X143482916Y-77840694D01*
X143495971Y-77842216D01*
X143495976Y-77842216D01*
X143499610Y-77842640D01*
X143900390Y-77842640D01*
X143904077Y-77842201D01*
X143904082Y-77842201D01*
X143917639Y-77840588D01*
X143917641Y-77840588D01*
X143927025Y-77839471D01*
X143988516Y-77812158D01*
X144020407Y-77797993D01*
X144020408Y-77797992D01*
X144031035Y-77793272D01*
X144056504Y-77767759D01*
X144093143Y-77731055D01*
X144111439Y-77712727D01*
X144116142Y-77702089D01*
X144116146Y-77702083D01*
X144139086Y-77650193D01*
X144184924Y-77595977D01*
X144254326Y-77575140D01*
X144356558Y-77575140D01*
X144424679Y-77595142D01*
X144445653Y-77612045D01*
X144461658Y-77628050D01*
X144574696Y-77685646D01*
X144584485Y-77687196D01*
X144584487Y-77687197D01*
X144690207Y-77703941D01*
X144700000Y-77705492D01*
X144709793Y-77703941D01*
X144815513Y-77687197D01*
X144815515Y-77687196D01*
X144825304Y-77685646D01*
X144938342Y-77628050D01*
X145028050Y-77538342D01*
X145030616Y-77540908D01*
X145072405Y-77508686D01*
X145143141Y-77502612D01*
X145205932Y-77535746D01*
X145239610Y-77592712D01*
X145241552Y-77599780D01*
X145242669Y-77609165D01*
X145246504Y-77617800D01*
X145246505Y-77617802D01*
X145276640Y-77685646D01*
X145288868Y-77713175D01*
X145297099Y-77721392D01*
X145297100Y-77721393D01*
X145298752Y-77723042D01*
X145369413Y-77793579D01*
X145473502Y-77839596D01*
X145490338Y-77841559D01*
X145495971Y-77842216D01*
X145495976Y-77842216D01*
X145499610Y-77842640D01*
X145900390Y-77842640D01*
X145904077Y-77842201D01*
X145904082Y-77842201D01*
X145917639Y-77840588D01*
X145917641Y-77840588D01*
X145927025Y-77839471D01*
X145988516Y-77812158D01*
X146020407Y-77797993D01*
X146020408Y-77797992D01*
X146031035Y-77793272D01*
X146056504Y-77767759D01*
X146093143Y-77731055D01*
X146111439Y-77712727D01*
X146116142Y-77702089D01*
X146116146Y-77702083D01*
X146139086Y-77650193D01*
X146184924Y-77595977D01*
X146254326Y-77575140D01*
X146256558Y-77575140D01*
X146324679Y-77595142D01*
X146345653Y-77612045D01*
X146361658Y-77628050D01*
X146474696Y-77685646D01*
X146484485Y-77687196D01*
X146484487Y-77687197D01*
X146590207Y-77703941D01*
X146600000Y-77705492D01*
X146609793Y-77703941D01*
X146715513Y-77687197D01*
X146715515Y-77687196D01*
X146725304Y-77685646D01*
X146838342Y-77628050D01*
X146928050Y-77538342D01*
X146985646Y-77425304D01*
X147005492Y-77300000D01*
X146997752Y-77251132D01*
X146987197Y-77184487D01*
X146987196Y-77184485D01*
X146985646Y-77174696D01*
X146928050Y-77061658D01*
X146838342Y-76971950D01*
X146725304Y-76914354D01*
X146715515Y-76912804D01*
X146715513Y-76912803D01*
X146609793Y-76896059D01*
X146600000Y-76894508D01*
X146590207Y-76896059D01*
X146484487Y-76912803D01*
X146484485Y-76912804D01*
X146474696Y-76914354D01*
X146361658Y-76971950D01*
X146328966Y-77004642D01*
X146266654Y-77038668D01*
X146195839Y-77033603D01*
X146139003Y-76991056D01*
X146124719Y-76966694D01*
X146115854Y-76946735D01*
X146115853Y-76946733D01*
X146111132Y-76936105D01*
X146100509Y-76925500D01*
X146067044Y-76892094D01*
X146030587Y-76855701D01*
X146030125Y-76855497D01*
X145989792Y-76806110D01*
X145981743Y-76735571D01*
X146013108Y-76671878D01*
X146026421Y-76660322D01*
X146031035Y-76658272D01*
X146111439Y-76577727D01*
X146157456Y-76473638D01*
X146160500Y-76447530D01*
X146160500Y-75931750D01*
X146159000Y-75919138D01*
X146158448Y-75914501D01*
X146158448Y-75914499D01*
X146157331Y-75905115D01*
X146111132Y-75801105D01*
X146030587Y-75720701D01*
X145926498Y-75674684D01*
X145909662Y-75672721D01*
X145904029Y-75672064D01*
X145904024Y-75672064D01*
X145900390Y-75671640D01*
X145499610Y-75671640D01*
X145495923Y-75672079D01*
X145495918Y-75672079D01*
X145482361Y-75673692D01*
X145482359Y-75673692D01*
X145472975Y-75674809D01*
X145448577Y-75685646D01*
X145379593Y-75716287D01*
X145379592Y-75716288D01*
X145368965Y-75721008D01*
X145288561Y-75801553D01*
X145283858Y-75812191D01*
X145283854Y-75812197D01*
X145260914Y-75864087D01*
X145215076Y-75918303D01*
X145145674Y-75939140D01*
X145057722Y-75939140D01*
X144989601Y-75919138D01*
X144968627Y-75902235D01*
X144938342Y-75871950D01*
X144919338Y-75862267D01*
X144867723Y-75813519D01*
X144850657Y-75744604D01*
X144873558Y-75677402D01*
X144919338Y-75637733D01*
X144929510Y-75632550D01*
X144929509Y-75632550D01*
X144938342Y-75628050D01*
X145028050Y-75538342D01*
X145085646Y-75425304D01*
X145087381Y-75414354D01*
X145103941Y-75309793D01*
X145105492Y-75300000D01*
X145098111Y-75253397D01*
X145087197Y-75184487D01*
X145087196Y-75184485D01*
X145085646Y-75174696D01*
X145028050Y-75061658D01*
X144938342Y-74971950D01*
X144825304Y-74914354D01*
X144815515Y-74912804D01*
X144815513Y-74912803D01*
X144709793Y-74896059D01*
X144700000Y-74894508D01*
X144688661Y-74896304D01*
X144686766Y-74896059D01*
X144680289Y-74896059D01*
X144680289Y-74895222D01*
X144618250Y-74887205D01*
X144579855Y-74860950D01*
X144378091Y-74659186D01*
X145267187Y-74659186D01*
X145267266Y-74660888D01*
X145272702Y-74720046D01*
X145275315Y-74733096D01*
X145319029Y-74872589D01*
X145325235Y-74886334D01*
X145400496Y-75010604D01*
X145409803Y-75022473D01*
X145512527Y-75125197D01*
X145524396Y-75134504D01*
X145648666Y-75209765D01*
X145662411Y-75215971D01*
X145801912Y-75259687D01*
X145813503Y-75262009D01*
X145827835Y-75259194D01*
X145831000Y-75247298D01*
X145831000Y-75245658D01*
X146339000Y-75245658D01*
X146343271Y-75260203D01*
X146355302Y-75262248D01*
X146368088Y-75259687D01*
X146507589Y-75215971D01*
X146521334Y-75209765D01*
X146645604Y-75134504D01*
X146657473Y-75125197D01*
X146760197Y-75022473D01*
X146769504Y-75010604D01*
X146844765Y-74886334D01*
X146850971Y-74872589D01*
X146894685Y-74733096D01*
X146897298Y-74720046D01*
X146902537Y-74663038D01*
X146898525Y-74649376D01*
X146897135Y-74648171D01*
X146889452Y-74646500D01*
X146357115Y-74646500D01*
X146341876Y-74650975D01*
X146340671Y-74652365D01*
X146339000Y-74660048D01*
X146339000Y-75245658D01*
X145831000Y-75245658D01*
X145831000Y-74664615D01*
X145826525Y-74649376D01*
X145825135Y-74648171D01*
X145817452Y-74646500D01*
X145285115Y-74646500D01*
X145269876Y-74650975D01*
X145268671Y-74652365D01*
X145267187Y-74659186D01*
X144378091Y-74659186D01*
X144360977Y-74642072D01*
X144356436Y-74637288D01*
X144348876Y-74628892D01*
X144330507Y-74608491D01*
X144311985Y-74600245D01*
X144294622Y-74590817D01*
X144277618Y-74579774D01*
X144264537Y-74577702D01*
X144259894Y-74575920D01*
X144255028Y-74574886D01*
X144242932Y-74569500D01*
X144222666Y-74569500D01*
X144202957Y-74567949D01*
X144182935Y-74564778D01*
X144170146Y-74568205D01*
X144156918Y-74568898D01*
X144156683Y-74564405D01*
X144111118Y-74563334D01*
X144052311Y-74523558D01*
X144024343Y-74458301D01*
X144023448Y-74443306D01*
X144023448Y-74115436D01*
X144043450Y-74047315D01*
X144073883Y-74014609D01*
X144175728Y-73938281D01*
X144188281Y-73925728D01*
X144264609Y-73823883D01*
X144321469Y-73781368D01*
X144365436Y-73773448D01*
X144736875Y-73773448D01*
X144754127Y-73775147D01*
X144757827Y-73775147D01*
X144769998Y-73777568D01*
X144785946Y-73774396D01*
X144789349Y-73773719D01*
X144828720Y-73765888D01*
X144838667Y-73761768D01*
X144855427Y-73754826D01*
X144861265Y-73752408D01*
X144861266Y-73752407D01*
X144866989Y-73750037D01*
X144916774Y-73716772D01*
X144928507Y-73699212D01*
X144946595Y-73672141D01*
X144946596Y-73672138D01*
X144950037Y-73666989D01*
X144953014Y-73659803D01*
X144963518Y-73634442D01*
X144965888Y-73628720D01*
X144968309Y-73616552D01*
X144975147Y-73582173D01*
X144977568Y-73570002D01*
X144975147Y-73557830D01*
X144975147Y-73554130D01*
X144973448Y-73536880D01*
X144973448Y-73503125D01*
X144975147Y-73485873D01*
X144975147Y-73482173D01*
X144977568Y-73470002D01*
X144970570Y-73434820D01*
X144967097Y-73417357D01*
X144967096Y-73417354D01*
X144965888Y-73411280D01*
X144966816Y-73411095D01*
X144966230Y-73345599D01*
X145004078Y-73285532D01*
X145031415Y-73268774D01*
X145031028Y-73268087D01*
X145053348Y-73255510D01*
X145161435Y-73173467D01*
X145173467Y-73161435D01*
X145255510Y-73053348D01*
X145263872Y-73038508D01*
X145314008Y-72911877D01*
X145317959Y-72896319D01*
X145327545Y-72817113D01*
X145328000Y-72809560D01*
X145328000Y-72721500D01*
X145348002Y-72653379D01*
X145401658Y-72606886D01*
X145454000Y-72595500D01*
X145643181Y-72595500D01*
X145711302Y-72615502D01*
X145757795Y-72669158D01*
X145767899Y-72739432D01*
X145738405Y-72804012D01*
X145732355Y-72810516D01*
X145673561Y-72869413D01*
X145668857Y-72880052D01*
X145668857Y-72880053D01*
X145662467Y-72894508D01*
X145627544Y-72973502D01*
X145624500Y-72999610D01*
X145624500Y-73515390D01*
X145623538Y-73515390D01*
X145608537Y-73580491D01*
X145563971Y-73626527D01*
X145524402Y-73650491D01*
X145512527Y-73659803D01*
X145409803Y-73762527D01*
X145400496Y-73774396D01*
X145325235Y-73898666D01*
X145319029Y-73912411D01*
X145275315Y-74051904D01*
X145272702Y-74064954D01*
X145267463Y-74121962D01*
X145271475Y-74135624D01*
X145272865Y-74136829D01*
X145280548Y-74138500D01*
X146884885Y-74138500D01*
X146900124Y-74134025D01*
X146901329Y-74132635D01*
X146902813Y-74125814D01*
X146902734Y-74124112D01*
X146897298Y-74064954D01*
X146894685Y-74051904D01*
X146850971Y-73912411D01*
X146844765Y-73898667D01*
X146839508Y-73889986D01*
X146821329Y-73821356D01*
X146843139Y-73753793D01*
X146898015Y-73708746D01*
X146966993Y-73700265D01*
X146990204Y-73703941D01*
X146990207Y-73703941D01*
X147000000Y-73705492D01*
X147009793Y-73703941D01*
X147115513Y-73687197D01*
X147115515Y-73687196D01*
X147125304Y-73685646D01*
X147238342Y-73628050D01*
X147328050Y-73538342D01*
X147385646Y-73425304D01*
X147387897Y-73411095D01*
X147403941Y-73309793D01*
X147405492Y-73300000D01*
X147397293Y-73248231D01*
X147387197Y-73184487D01*
X147387196Y-73184485D01*
X147385646Y-73174696D01*
X147328050Y-73061658D01*
X147238342Y-72971950D01*
X147125304Y-72914354D01*
X147115515Y-72912804D01*
X147115513Y-72912803D01*
X147009793Y-72896059D01*
X147000000Y-72894508D01*
X146990207Y-72896059D01*
X146884487Y-72912803D01*
X146884485Y-72912804D01*
X146874696Y-72914354D01*
X146812588Y-72946000D01*
X146768886Y-72968267D01*
X146711683Y-72982000D01*
X146628244Y-72982000D01*
X146560123Y-72961998D01*
X146513092Y-72907148D01*
X146500853Y-72879593D01*
X146500852Y-72879592D01*
X146496132Y-72868965D01*
X146487900Y-72860747D01*
X146423822Y-72796781D01*
X146423820Y-72796780D01*
X146415587Y-72788561D01*
X146412099Y-72787019D01*
X146370407Y-72735967D01*
X146360500Y-72686992D01*
X146360500Y-72663007D01*
X146380502Y-72594886D01*
X146411105Y-72563322D01*
X146416035Y-72561132D01*
X146496439Y-72480587D01*
X146501143Y-72469947D01*
X146501145Y-72469944D01*
X146513034Y-72443052D01*
X146558873Y-72388836D01*
X146628274Y-72368000D01*
X146649418Y-72368000D01*
X146717539Y-72388002D01*
X146738513Y-72404905D01*
X146761658Y-72428050D01*
X146874696Y-72485646D01*
X146884485Y-72487196D01*
X146884487Y-72487197D01*
X146990207Y-72503941D01*
X147000000Y-72505492D01*
X147009793Y-72503941D01*
X147115513Y-72487197D01*
X147115515Y-72487196D01*
X147125304Y-72485646D01*
X147238342Y-72428050D01*
X147328050Y-72338342D01*
X147385646Y-72225304D01*
X147390958Y-72191769D01*
X147403941Y-72109793D01*
X147405492Y-72100000D01*
X147401550Y-72075109D01*
X147387197Y-71984487D01*
X147387196Y-71984485D01*
X147385646Y-71974696D01*
X147328050Y-71861658D01*
X147238342Y-71771950D01*
X147125304Y-71714354D01*
X147115515Y-71712804D01*
X147115513Y-71712803D01*
X147009793Y-71696059D01*
X147000000Y-71694508D01*
X146990207Y-71696059D01*
X146990206Y-71696059D01*
X146933500Y-71705040D01*
X146863089Y-71695940D01*
X146808775Y-71650218D01*
X146787803Y-71582389D01*
X146806014Y-71515319D01*
X146844765Y-71451334D01*
X146850971Y-71437589D01*
X146894685Y-71298096D01*
X146897298Y-71285046D01*
X146902537Y-71228038D01*
X146898525Y-71214376D01*
X146897135Y-71213171D01*
X146889452Y-71211500D01*
X145285115Y-71211500D01*
X145269876Y-71215975D01*
X145268671Y-71217365D01*
X145267187Y-71224186D01*
X145267266Y-71225888D01*
X145272702Y-71285046D01*
X145275315Y-71298096D01*
X145319029Y-71437589D01*
X145325235Y-71451334D01*
X145400496Y-71575604D01*
X145409803Y-71587473D01*
X145512527Y-71690197D01*
X145524396Y-71699504D01*
X145563968Y-71723470D01*
X145611874Y-71775868D01*
X145623686Y-71834610D01*
X145624500Y-71834610D01*
X145624500Y-71918500D01*
X145604498Y-71986621D01*
X145550842Y-72033114D01*
X145498500Y-72044500D01*
X145099448Y-72044500D01*
X145031327Y-72024498D01*
X144984834Y-71970842D01*
X144973448Y-71918500D01*
X144973448Y-71903125D01*
X144975147Y-71885873D01*
X144975147Y-71882173D01*
X144977568Y-71870002D01*
X144965888Y-71811280D01*
X144963215Y-71804825D01*
X144961768Y-71801333D01*
X144952408Y-71778735D01*
X144952407Y-71778734D01*
X144950037Y-71773011D01*
X144931460Y-71745208D01*
X144923667Y-71733545D01*
X144916772Y-71723226D01*
X144876113Y-71696059D01*
X144872141Y-71693405D01*
X144872138Y-71693404D01*
X144866989Y-71689963D01*
X144828720Y-71674112D01*
X144822650Y-71672905D01*
X144822648Y-71672904D01*
X144782173Y-71664853D01*
X144770002Y-71662432D01*
X144757830Y-71664853D01*
X144754130Y-71664853D01*
X144736880Y-71666552D01*
X144656544Y-71666552D01*
X144588423Y-71646550D01*
X144541930Y-71592894D01*
X144531826Y-71522620D01*
X144561320Y-71458040D01*
X144567449Y-71451457D01*
X144569892Y-71449014D01*
X144584927Y-71436173D01*
X144590609Y-71432045D01*
X144590611Y-71432043D01*
X144601323Y-71424260D01*
X144607944Y-71412793D01*
X144616806Y-71402950D01*
X144617159Y-71403268D01*
X144622175Y-71396731D01*
X145278501Y-70740405D01*
X145340813Y-70706379D01*
X145367596Y-70703500D01*
X146884885Y-70703500D01*
X146900124Y-70699025D01*
X146901329Y-70697635D01*
X146902813Y-70690814D01*
X146902734Y-70689112D01*
X146897298Y-70629954D01*
X146894685Y-70616904D01*
X146850971Y-70477411D01*
X146844765Y-70463666D01*
X146769504Y-70339396D01*
X146760197Y-70327527D01*
X146657473Y-70224803D01*
X146645604Y-70215496D01*
X146521334Y-70140235D01*
X146507589Y-70134029D01*
X146368096Y-70090315D01*
X146355046Y-70087702D01*
X146295888Y-70082266D01*
X146290100Y-70082000D01*
X146241096Y-70082000D01*
X146172975Y-70061998D01*
X146126482Y-70008342D01*
X146116378Y-69938068D01*
X146145872Y-69873488D01*
X146152001Y-69866905D01*
X146279001Y-69739905D01*
X146341313Y-69705879D01*
X146368096Y-69703000D01*
X147640740Y-69703000D01*
X147708861Y-69723002D01*
X147755891Y-69777852D01*
X147777410Y-69826298D01*
X147789677Y-69853915D01*
X147797910Y-69862134D01*
X147797911Y-69862135D01*
X147815490Y-69879683D01*
X147871539Y-69935635D01*
X147882176Y-69940338D01*
X147882178Y-69940339D01*
X147968666Y-69978575D01*
X147968667Y-69978575D01*
X147977332Y-69982406D01*
X148003871Y-69985500D01*
X148208297Y-69985500D01*
X148416128Y-69985499D01*
X148443204Y-69982278D01*
X148493834Y-69959789D01*
X148538280Y-69940047D01*
X148548915Y-69935323D01*
X148630635Y-69853461D01*
X148654759Y-69798893D01*
X148700595Y-69744680D01*
X148768468Y-69723852D01*
X148836827Y-69743026D01*
X148885149Y-69798693D01*
X148909677Y-69853915D01*
X148917910Y-69862134D01*
X148917911Y-69862135D01*
X148935490Y-69879683D01*
X148991539Y-69935635D01*
X149000459Y-69939578D01*
X149044592Y-69993621D01*
X149054500Y-70042596D01*
X149054500Y-70226918D01*
X149034498Y-70295039D01*
X149017595Y-70316013D01*
X149001950Y-70331658D01*
X148944354Y-70444696D01*
X148942804Y-70454485D01*
X148942803Y-70454487D01*
X148928445Y-70545145D01*
X148924508Y-70570000D01*
X148926059Y-70579793D01*
X148942532Y-70683798D01*
X148944354Y-70695304D01*
X149001950Y-70808342D01*
X149091658Y-70898050D01*
X149204696Y-70955646D01*
X149214485Y-70957196D01*
X149214487Y-70957197D01*
X149320207Y-70973941D01*
X149330000Y-70975492D01*
X149339793Y-70973941D01*
X149445513Y-70957197D01*
X149445515Y-70957196D01*
X149455304Y-70955646D01*
X149568342Y-70898050D01*
X149658050Y-70808342D01*
X149715646Y-70695304D01*
X149717469Y-70683798D01*
X149733941Y-70579793D01*
X149735492Y-70570000D01*
X149731555Y-70545145D01*
X149717197Y-70454487D01*
X149717196Y-70454485D01*
X149715646Y-70444696D01*
X149658050Y-70331658D01*
X149642405Y-70316013D01*
X149608379Y-70253701D01*
X149605500Y-70226918D01*
X149605500Y-70042614D01*
X149625502Y-69974493D01*
X149659367Y-69939564D01*
X149668915Y-69935323D01*
X149750635Y-69853461D01*
X149755338Y-69842824D01*
X149755339Y-69842822D01*
X149793575Y-69756334D01*
X149793575Y-69756333D01*
X149797406Y-69747668D01*
X149800500Y-69721129D01*
X149800499Y-69233872D01*
X149797278Y-69206796D01*
X149774851Y-69156306D01*
X149755047Y-69111720D01*
X149755046Y-69111718D01*
X149750323Y-69101085D01*
X149720626Y-69071439D01*
X149676693Y-69027583D01*
X149668461Y-69019365D01*
X149613893Y-68995241D01*
X149559680Y-68949405D01*
X149538852Y-68881532D01*
X149558026Y-68813173D01*
X149613694Y-68764851D01*
X149621738Y-68761278D01*
X149668915Y-68740323D01*
X149689223Y-68719980D01*
X149751504Y-68685903D01*
X149778393Y-68683000D01*
X152291122Y-68683000D01*
X152348326Y-68696733D01*
X152424696Y-68735646D01*
X152434485Y-68737196D01*
X152434487Y-68737197D01*
X152456195Y-68740635D01*
X152518481Y-68750500D01*
X153299842Y-68750500D01*
X154081518Y-68750499D01*
X154086412Y-68749724D01*
X154165506Y-68737198D01*
X154165508Y-68737197D01*
X154175304Y-68735646D01*
X154199841Y-68723144D01*
X154222701Y-68711496D01*
X154288342Y-68678050D01*
X154314405Y-68651987D01*
X154376717Y-68617961D01*
X154447532Y-68623026D01*
G37*
%TD.AperFunction*%
%TA.AperFunction,Conductor*%
G36*
X140636509Y-78858761D02*
G01*
X140636652Y-78858403D01*
X140643135Y-78860990D01*
X140644551Y-78861555D01*
X140662247Y-78871004D01*
X140666552Y-78872911D01*
X140676146Y-78879493D01*
X140700099Y-78885177D01*
X140700136Y-78885186D01*
X140717732Y-78890751D01*
X140740622Y-78899883D01*
X140746915Y-78900500D01*
X140749997Y-78900500D01*
X140753067Y-78900650D01*
X140753056Y-78900866D01*
X140764431Y-78902198D01*
X140773745Y-78902653D01*
X140785066Y-78905340D01*
X140796595Y-78903771D01*
X140796596Y-78903771D01*
X140812173Y-78901651D01*
X140829164Y-78900500D01*
X141973339Y-78900500D01*
X142041460Y-78920502D01*
X142062434Y-78937405D01*
X142082595Y-78957566D01*
X142116621Y-79019878D01*
X142119500Y-79046661D01*
X142119500Y-79277687D01*
X142099498Y-79345808D01*
X142045842Y-79392301D01*
X141975568Y-79402405D01*
X141910988Y-79372911D01*
X141872604Y-79313185D01*
X141869921Y-79302269D01*
X141864188Y-79273449D01*
X141861767Y-79261278D01*
X141854873Y-79250960D01*
X141854872Y-79250958D01*
X141835399Y-79221815D01*
X141828504Y-79211496D01*
X141818185Y-79204601D01*
X141789042Y-79185128D01*
X141789040Y-79185127D01*
X141778722Y-79178233D01*
X141734820Y-79169500D01*
X140705180Y-79169500D01*
X140661278Y-79178233D01*
X140650960Y-79185127D01*
X140650958Y-79185128D01*
X140621815Y-79204601D01*
X140611496Y-79211496D01*
X140604601Y-79221815D01*
X140585128Y-79250958D01*
X140585127Y-79250960D01*
X140578233Y-79261278D01*
X140575812Y-79273448D01*
X140571062Y-79284916D01*
X140569805Y-79284395D01*
X140543073Y-79335495D01*
X140481376Y-79370624D01*
X140452405Y-79374000D01*
X139224500Y-79374000D01*
X139156379Y-79353998D01*
X139109886Y-79300342D01*
X139098500Y-79248000D01*
X139098500Y-78992000D01*
X139118502Y-78923879D01*
X139172158Y-78877386D01*
X139224500Y-78866000D01*
X140501878Y-78866000D01*
X140550165Y-78851822D01*
X140621162Y-78851822D01*
X140636509Y-78858761D01*
G37*
%TD.AperFunction*%
%TA.AperFunction,Conductor*%
G36*
X137988621Y-72966002D02*
G01*
X138035114Y-73019658D01*
X138046500Y-73072000D01*
X138046500Y-75018000D01*
X138043100Y-75018000D01*
X138043243Y-75022000D01*
X138046500Y-75022000D01*
X138046500Y-76968000D01*
X138026498Y-77036121D01*
X137972842Y-77082614D01*
X137920500Y-77094000D01*
X136965250Y-77094000D01*
X136897129Y-77073998D01*
X136882738Y-77063225D01*
X136871135Y-77053171D01*
X136863452Y-77051500D01*
X136542000Y-77051500D01*
X136473879Y-77031498D01*
X136427386Y-76977842D01*
X136416000Y-76925500D01*
X136416000Y-76669500D01*
X136436002Y-76601379D01*
X136489658Y-76554886D01*
X136542000Y-76543500D01*
X137449750Y-76543500D01*
X137517871Y-76563502D01*
X137532262Y-76574275D01*
X137537177Y-76578534D01*
X137538500Y-76572452D01*
X137538500Y-75022000D01*
X137541900Y-75022000D01*
X137541757Y-75018000D01*
X137538500Y-75018000D01*
X137538500Y-73472115D01*
X137535001Y-73460200D01*
X137533940Y-73460511D01*
X137485881Y-73491396D01*
X137450384Y-73496500D01*
X136542000Y-73496500D01*
X136473879Y-73476498D01*
X136427386Y-73422842D01*
X136416000Y-73370500D01*
X136416000Y-73114500D01*
X136436002Y-73046379D01*
X136489658Y-72999886D01*
X136542000Y-72988500D01*
X136858885Y-72988500D01*
X136881060Y-72981989D01*
X136929119Y-72951104D01*
X136964616Y-72946000D01*
X137920500Y-72946000D01*
X137988621Y-72966002D01*
G37*
%TD.AperFunction*%
%TA.AperFunction,Conductor*%
G36*
X152156381Y-67490502D02*
G01*
X152202874Y-67544158D01*
X152212978Y-67614432D01*
X152200527Y-67653703D01*
X152164354Y-67724696D01*
X152162804Y-67734485D01*
X152162803Y-67734487D01*
X152156274Y-67775711D01*
X152125861Y-67839864D01*
X152065593Y-67877391D01*
X152031825Y-67882000D01*
X149778323Y-67882000D01*
X149710202Y-67861998D01*
X149689305Y-67845172D01*
X149676696Y-67832585D01*
X149676694Y-67832583D01*
X149668461Y-67824365D01*
X149657824Y-67819662D01*
X149657822Y-67819661D01*
X149571334Y-67781425D01*
X149571333Y-67781425D01*
X149562668Y-67777594D01*
X149536129Y-67774500D01*
X149331703Y-67774500D01*
X149123872Y-67774501D01*
X149096796Y-67777722D01*
X148991085Y-67824677D01*
X148970777Y-67845020D01*
X148908496Y-67879097D01*
X148881607Y-67882000D01*
X148658323Y-67882000D01*
X148590202Y-67861998D01*
X148569305Y-67845172D01*
X148556696Y-67832585D01*
X148556694Y-67832583D01*
X148548461Y-67824365D01*
X148537824Y-67819662D01*
X148537822Y-67819661D01*
X148451334Y-67781425D01*
X148451333Y-67781425D01*
X148442668Y-67777594D01*
X148416129Y-67774500D01*
X148211703Y-67774500D01*
X148003872Y-67774501D01*
X147976796Y-67777722D01*
X147968151Y-67781562D01*
X147882378Y-67819661D01*
X147871085Y-67824677D01*
X147862866Y-67832910D01*
X147862865Y-67832911D01*
X147835708Y-67860115D01*
X147789365Y-67906539D01*
X147784662Y-67917176D01*
X147784661Y-67917178D01*
X147746425Y-68003666D01*
X147742594Y-68012332D01*
X147739500Y-68038871D01*
X147739501Y-68526128D01*
X147742722Y-68553204D01*
X147789677Y-68658915D01*
X147797910Y-68667134D01*
X147797911Y-68667135D01*
X147824701Y-68693878D01*
X147871539Y-68740635D01*
X147926107Y-68764759D01*
X147980320Y-68810595D01*
X148001148Y-68878468D01*
X147981974Y-68946827D01*
X147926307Y-68995149D01*
X147871085Y-69019677D01*
X147789365Y-69101539D01*
X147784663Y-69112175D01*
X147784660Y-69112180D01*
X147756027Y-69176947D01*
X147710189Y-69231163D01*
X147640787Y-69252000D01*
X146231708Y-69252000D01*
X146225114Y-69251827D01*
X146199663Y-69250493D01*
X146199662Y-69250493D01*
X146186436Y-69249800D01*
X146174074Y-69254546D01*
X146174071Y-69254546D01*
X146167512Y-69257064D01*
X146148553Y-69262680D01*
X146141687Y-69264139D01*
X146141685Y-69264140D01*
X146128732Y-69266893D01*
X146118017Y-69274678D01*
X146113469Y-69276703D01*
X146109302Y-69279409D01*
X146096941Y-69284154D01*
X146082612Y-69298483D01*
X146067579Y-69311323D01*
X146051177Y-69323240D01*
X146044557Y-69334706D01*
X146035693Y-69344551D01*
X146035340Y-69344233D01*
X146030323Y-69350772D01*
X145382788Y-69998307D01*
X145320476Y-70032333D01*
X145249661Y-70027268D01*
X145192825Y-69984721D01*
X145181426Y-69966414D01*
X145132551Y-69870490D01*
X145132548Y-69870486D01*
X145128050Y-69861658D01*
X145125121Y-69858729D01*
X145102338Y-69794878D01*
X145118419Y-69725726D01*
X145138960Y-69698668D01*
X145143121Y-69694500D01*
X145211439Y-69626062D01*
X145217773Y-69611736D01*
X145244901Y-69550372D01*
X145257456Y-69521973D01*
X145260500Y-69495865D01*
X145260500Y-68980085D01*
X145261462Y-68980085D01*
X145276463Y-68914984D01*
X145321029Y-68868948D01*
X145360598Y-68844984D01*
X145372473Y-68835672D01*
X145475197Y-68732948D01*
X145484504Y-68721079D01*
X145559765Y-68596809D01*
X145565971Y-68583064D01*
X145609685Y-68443571D01*
X145612298Y-68430521D01*
X145617537Y-68373513D01*
X145613525Y-68359851D01*
X145612135Y-68358646D01*
X145604452Y-68356975D01*
X142915824Y-68356975D01*
X142847703Y-68336973D01*
X142836762Y-68328783D01*
X142828452Y-68326975D01*
X142472000Y-68326975D01*
X142403879Y-68306973D01*
X142357386Y-68253317D01*
X142346000Y-68200975D01*
X142346000Y-67944975D01*
X142366002Y-67876854D01*
X142419658Y-67830361D01*
X142472000Y-67818975D01*
X143394176Y-67818975D01*
X143462297Y-67838977D01*
X143473238Y-67847167D01*
X143481548Y-67848975D01*
X145599885Y-67848975D01*
X145615124Y-67844500D01*
X145616329Y-67843110D01*
X145617813Y-67836289D01*
X145617734Y-67834587D01*
X145612298Y-67775429D01*
X145609685Y-67762379D01*
X145569510Y-67634179D01*
X145568226Y-67563194D01*
X145605523Y-67502783D01*
X145669560Y-67472127D01*
X145689744Y-67470500D01*
X152088260Y-67470500D01*
X152156381Y-67490502D01*
G37*
%TD.AperFunction*%
%TD*%
M02*
