M48
; DRILL file {KiCad (6.0.9)} date Sun Jun 25 00:46:38 2023
; FORMAT={-:-/ absolute / metric / decimal}
; #@! TF.CreationDate,2023-06-25T00:46:38+02:00
; #@! TF.GenerationSoftware,Kicad,Pcbnew,(6.0.9)
; #@! TF.FileFunction,MixedPlating,1,4
FMAT,2
METRIC
; #@! TA.AperFunction,Plated,PTH,ViaDrill
T1C0.250
; #@! TA.AperFunction,NonPlated,NPTH,ComponentDrill
T2C0.650
; #@! TA.AperFunction,NonPlated,NPTH,ComponentDrill
T3C0.900
%
G90
G05
T1
X130.1Y-75.8
X131.0Y-82.1
X133.0Y-68.7
X133.0Y-69.4
X133.0Y-70.2
X133.2Y-82.1
X135.4Y-82.1
X137.1Y-71.0
X137.8Y-75.0
X139.5Y-67.9
X140.48Y-73.12
X140.5Y-76.9
X140.506Y-73.807
X140.6Y-68.073
X141.5Y-70.1
X141.5Y-75.2
X141.8Y-78.05
X142.6Y-70.1
X142.6Y-75.3
X143.7Y-70.1
X143.7Y-75.3
X144.7Y-75.3
X144.7Y-76.2
X144.7Y-77.3
X144.8Y-70.1
X144.8Y-79.4
X145.3Y-73.1
X146.5Y-67.9
X146.5Y-68.6
X146.6Y-77.3
X147.0Y-72.1
X147.0Y-73.3
X147.1Y-70.9
X147.1Y-74.4
X149.33Y-70.57
X150.5Y-76.3
X150.5Y-77.4
X150.5Y-78.1
X153.3Y-69.6
T2
X134.105Y-72.13
X134.105Y-77.91
T3
X143.37Y-80.83
X146.37Y-80.83
T0
M30
