%TF.GenerationSoftware,KiCad,Pcbnew,(6.0.9)*%
%TF.CreationDate,2023-06-25T00:46:12+02:00*%
%TF.ProjectId,keyring_beerclock,6b657972-696e-4675-9f62-656572636c6f,rev?*%
%TF.SameCoordinates,Original*%
%TF.FileFunction,Legend,Top*%
%TF.FilePolarity,Positive*%
%FSLAX46Y46*%
G04 Gerber Fmt 4.6, Leading zero omitted, Abs format (unit mm)*
G04 Created by KiCad (PCBNEW (6.0.9)) date 2023-06-25 00:46:12*
%MOMM*%
%LPD*%
G01*
G04 APERTURE LIST*
G04 Aperture macros list*
%AMRoundRect*
0 Rectangle with rounded corners*
0 $1 Rounding radius*
0 $2 $3 $4 $5 $6 $7 $8 $9 X,Y pos of 4 corners*
0 Add a 4 corners polygon primitive as box body*
4,1,4,$2,$3,$4,$5,$6,$7,$8,$9,$2,$3,0*
0 Add four circle primitives for the rounded corners*
1,1,$1+$1,$2,$3*
1,1,$1+$1,$4,$5*
1,1,$1+$1,$6,$7*
1,1,$1+$1,$8,$9*
0 Add four rect primitives between the rounded corners*
20,1,$1+$1,$2,$3,$4,$5,0*
20,1,$1+$1,$4,$5,$6,$7,0*
20,1,$1+$1,$6,$7,$8,$9,0*
20,1,$1+$1,$8,$9,$2,$3,0*%
%AMFreePoly0*
4,1,14,0.334644,0.085355,0.385355,0.034644,0.400000,-0.000711,0.400000,-0.050000,0.385355,-0.085355,0.350000,-0.100000,-0.350000,-0.100000,-0.385355,-0.085355,-0.400000,-0.050000,-0.400000,0.050000,-0.385355,0.085355,-0.350000,0.100000,0.299289,0.100000,0.334644,0.085355,0.334644,0.085355,$1*%
%AMFreePoly1*
4,1,14,0.385355,0.085355,0.400000,0.050000,0.400000,0.000711,0.385355,-0.034644,0.334644,-0.085355,0.299289,-0.100000,-0.350000,-0.100000,-0.385355,-0.085355,-0.400000,-0.050000,-0.400000,0.050000,-0.385355,0.085355,-0.350000,0.100000,0.350000,0.100000,0.385355,0.085355,0.385355,0.085355,$1*%
%AMFreePoly2*
4,1,14,0.085355,0.385355,0.100000,0.350000,0.100000,-0.350000,0.085355,-0.385355,0.050000,-0.400000,-0.050000,-0.400000,-0.085355,-0.385355,-0.100000,-0.350000,-0.100000,0.299289,-0.085355,0.334644,-0.034644,0.385355,0.000711,0.400000,0.050000,0.400000,0.085355,0.385355,0.085355,0.385355,$1*%
%AMFreePoly3*
4,1,14,0.034644,0.385355,0.085355,0.334644,0.100000,0.299289,0.100000,-0.350000,0.085355,-0.385355,0.050000,-0.400000,-0.050000,-0.400000,-0.085355,-0.385355,-0.100000,-0.350000,-0.100000,0.350000,-0.085355,0.385355,-0.050000,0.400000,-0.000711,0.400000,0.034644,0.385355,0.034644,0.385355,$1*%
%AMFreePoly4*
4,1,14,0.385355,0.085355,0.400000,0.050000,0.400000,-0.050000,0.385355,-0.085355,0.350000,-0.100000,-0.299289,-0.100000,-0.334644,-0.085355,-0.385355,-0.034644,-0.400000,0.000711,-0.400000,0.050000,-0.385355,0.085355,-0.350000,0.100000,0.350000,0.100000,0.385355,0.085355,0.385355,0.085355,$1*%
%AMFreePoly5*
4,1,14,0.385355,0.085355,0.400000,0.050000,0.400000,-0.050000,0.385355,-0.085355,0.350000,-0.100000,-0.350000,-0.100000,-0.385355,-0.085355,-0.400000,-0.050000,-0.400000,-0.000711,-0.385355,0.034644,-0.334644,0.085355,-0.299289,0.100000,0.350000,0.100000,0.385355,0.085355,0.385355,0.085355,$1*%
%AMFreePoly6*
4,1,14,0.085355,0.385355,0.100000,0.350000,0.100000,-0.299289,0.085355,-0.334644,0.034644,-0.385355,-0.000711,-0.400000,-0.050000,-0.400000,-0.085355,-0.385355,-0.100000,-0.350000,-0.100000,0.350000,-0.085355,0.385355,-0.050000,0.400000,0.050000,0.400000,0.085355,0.385355,0.085355,0.385355,$1*%
%AMFreePoly7*
4,1,14,0.085355,0.385355,0.100000,0.350000,0.100000,-0.350000,0.085355,-0.385355,0.050000,-0.400000,0.000711,-0.400000,-0.034644,-0.385355,-0.085355,-0.334644,-0.100000,-0.299289,-0.100000,0.350000,-0.085355,0.385355,-0.050000,0.400000,0.050000,0.400000,0.085355,0.385355,0.085355,0.385355,$1*%
G04 Aperture macros list end*
%ADD10C,0.150000*%
%ADD11C,0.120000*%
%ADD12RoundRect,0.250000X0.750000X-0.250000X0.750000X0.250000X-0.750000X0.250000X-0.750000X-0.250000X0*%
%ADD13C,1.000000*%
%ADD14R,1.000000X0.800000*%
%ADD15C,0.900000*%
%ADD16R,0.700000X1.500000*%
%ADD17RoundRect,0.150000X0.512500X0.150000X-0.512500X0.150000X-0.512500X-0.150000X0.512500X-0.150000X0*%
%ADD18RoundRect,0.155000X0.155000X-0.212500X0.155000X0.212500X-0.155000X0.212500X-0.155000X-0.212500X0*%
%ADD19FreePoly0,180.000000*%
%ADD20RoundRect,0.050000X0.350000X0.050000X-0.350000X0.050000X-0.350000X-0.050000X0.350000X-0.050000X0*%
%ADD21FreePoly1,180.000000*%
%ADD22FreePoly2,180.000000*%
%ADD23RoundRect,0.050000X0.050000X0.350000X-0.050000X0.350000X-0.050000X-0.350000X0.050000X-0.350000X0*%
%ADD24FreePoly3,180.000000*%
%ADD25FreePoly4,180.000000*%
%ADD26FreePoly5,180.000000*%
%ADD27FreePoly6,180.000000*%
%ADD28FreePoly7,180.000000*%
%ADD29R,1.700000X1.700000*%
%ADD30RoundRect,0.155000X-0.212500X-0.155000X0.212500X-0.155000X0.212500X0.155000X-0.212500X0.155000X0*%
%ADD31RoundRect,0.160000X0.160000X-0.197500X0.160000X0.197500X-0.160000X0.197500X-0.160000X-0.197500X0*%
%ADD32RoundRect,0.160000X-0.160000X0.197500X-0.160000X-0.197500X0.160000X-0.197500X0.160000X0.197500X0*%
%ADD33RoundRect,0.155000X0.212500X0.155000X-0.212500X0.155000X-0.212500X-0.155000X0.212500X-0.155000X0*%
%ADD34RoundRect,0.160000X-0.197500X-0.160000X0.197500X-0.160000X0.197500X0.160000X-0.197500X0.160000X0*%
%ADD35RoundRect,0.155000X-0.155000X0.212500X-0.155000X-0.212500X0.155000X-0.212500X0.155000X0.212500X0*%
%ADD36C,0.650000*%
%ADD37R,1.150000X0.600000*%
%ADD38R,1.150000X0.300000*%
%ADD39R,2.000000X2.180000*%
G04 APERTURE END LIST*
D10*
X149352380Y-74109523D02*
X150352380Y-73776190D01*
X149352380Y-73442857D01*
X150352380Y-72585714D02*
X150352380Y-73157142D01*
X150352380Y-72871428D02*
X149352380Y-72871428D01*
X149495238Y-72966666D01*
X149590476Y-73061904D01*
X149638095Y-73157142D01*
X148466666Y-77595238D02*
X148466666Y-77119047D01*
X148752380Y-77690476D02*
X147752380Y-77357142D01*
X148752380Y-77023809D01*
X148752380Y-76261904D02*
X147752380Y-76261904D01*
X148704761Y-76261904D02*
X148752380Y-76357142D01*
X148752380Y-76547619D01*
X148704761Y-76642857D01*
X148657142Y-76690476D01*
X148561904Y-76738095D01*
X148276190Y-76738095D01*
X148180952Y-76690476D01*
X148133333Y-76642857D01*
X148085714Y-76547619D01*
X148085714Y-76357142D01*
X148133333Y-76261904D01*
X148752380Y-75642857D02*
X148704761Y-75738095D01*
X148609523Y-75785714D01*
X147752380Y-75785714D01*
X148704761Y-74880952D02*
X148752380Y-74976190D01*
X148752380Y-75166666D01*
X148704761Y-75261904D01*
X148609523Y-75309523D01*
X148228571Y-75309523D01*
X148133333Y-75261904D01*
X148085714Y-75166666D01*
X148085714Y-74976190D01*
X148133333Y-74880952D01*
X148228571Y-74833333D01*
X148323809Y-74833333D01*
X148419047Y-75309523D01*
X148752380Y-74404761D02*
X148085714Y-74404761D01*
X148276190Y-74404761D02*
X148180952Y-74357142D01*
X148133333Y-74309523D01*
X148085714Y-74214285D01*
X148085714Y-74119047D01*
X147847619Y-73833333D02*
X147800000Y-73785714D01*
X147752380Y-73690476D01*
X147752380Y-73452380D01*
X147800000Y-73357142D01*
X147847619Y-73309523D01*
X147942857Y-73261904D01*
X148038095Y-73261904D01*
X148180952Y-73309523D01*
X148752380Y-73880952D01*
X148752380Y-73261904D01*
X147752380Y-72642857D02*
X147752380Y-72547619D01*
X147800000Y-72452380D01*
X147847619Y-72404761D01*
X147942857Y-72357142D01*
X148133333Y-72309523D01*
X148371428Y-72309523D01*
X148561904Y-72357142D01*
X148657142Y-72404761D01*
X148704761Y-72452380D01*
X148752380Y-72547619D01*
X148752380Y-72642857D01*
X148704761Y-72738095D01*
X148657142Y-72785714D01*
X148561904Y-72833333D01*
X148371428Y-72880952D01*
X148133333Y-72880952D01*
X147942857Y-72833333D01*
X147847619Y-72785714D01*
X147800000Y-72738095D01*
X147752380Y-72642857D01*
X147847619Y-71928571D02*
X147800000Y-71880952D01*
X147752380Y-71785714D01*
X147752380Y-71547619D01*
X147800000Y-71452380D01*
X147847619Y-71404761D01*
X147942857Y-71357142D01*
X148038095Y-71357142D01*
X148180952Y-71404761D01*
X148752380Y-71976190D01*
X148752380Y-71357142D01*
X147752380Y-71023809D02*
X147752380Y-70404761D01*
X148133333Y-70738095D01*
X148133333Y-70595238D01*
X148180952Y-70500000D01*
X148228571Y-70452380D01*
X148323809Y-70404761D01*
X148561904Y-70404761D01*
X148657142Y-70452380D01*
X148704761Y-70500000D01*
X148752380Y-70595238D01*
X148752380Y-70880952D01*
X148704761Y-70976190D01*
X148657142Y-71023809D01*
X150252380Y-79228571D02*
X150395238Y-79276190D01*
X150442857Y-79323809D01*
X150490476Y-79419047D01*
X150490476Y-79561904D01*
X150442857Y-79657142D01*
X150395238Y-79704761D01*
X150300000Y-79752380D01*
X149919047Y-79752380D01*
X149919047Y-78752380D01*
X150252380Y-78752380D01*
X150347619Y-78800000D01*
X150395238Y-78847619D01*
X150442857Y-78942857D01*
X150442857Y-79038095D01*
X150395238Y-79133333D01*
X150347619Y-79180952D01*
X150252380Y-79228571D01*
X149919047Y-79228571D01*
X150919047Y-79371428D02*
X151680952Y-79371428D01*
X150252380Y-81788571D02*
X150395238Y-81836190D01*
X150442857Y-81883809D01*
X150490476Y-81979047D01*
X150490476Y-82121904D01*
X150442857Y-82217142D01*
X150395238Y-82264761D01*
X150300000Y-82312380D01*
X149919047Y-82312380D01*
X149919047Y-81312380D01*
X150252380Y-81312380D01*
X150347619Y-81360000D01*
X150395238Y-81407619D01*
X150442857Y-81502857D01*
X150442857Y-81598095D01*
X150395238Y-81693333D01*
X150347619Y-81740952D01*
X150252380Y-81788571D01*
X149919047Y-81788571D01*
X150919047Y-81931428D02*
X151680952Y-81931428D01*
X151300000Y-82312380D02*
X151300000Y-81550476D01*
X150019047Y-71112380D02*
X150019047Y-70112380D01*
X150400000Y-70112380D01*
X150495238Y-70160000D01*
X150542857Y-70207619D01*
X150590476Y-70302857D01*
X150590476Y-70445714D01*
X150542857Y-70540952D01*
X150495238Y-70588571D01*
X150400000Y-70636190D01*
X150019047Y-70636190D01*
X151019047Y-70731428D02*
X151780952Y-70731428D01*
X151400000Y-71112380D02*
X151400000Y-70350476D01*
X150019047Y-68552380D02*
X150019047Y-67552380D01*
X150400000Y-67552380D01*
X150495238Y-67600000D01*
X150542857Y-67647619D01*
X150590476Y-67742857D01*
X150590476Y-67885714D01*
X150542857Y-67980952D01*
X150495238Y-68028571D01*
X150400000Y-68076190D01*
X150019047Y-68076190D01*
X151019047Y-68171428D02*
X151780952Y-68171428D01*
X151366667Y-71837141D02*
X151700001Y-72837141D01*
X152033334Y-71837141D01*
X151961905Y-77004761D02*
X151866667Y-76957141D01*
X151723810Y-76957141D01*
X151580953Y-77004761D01*
X151485715Y-77099999D01*
X151438096Y-77195237D01*
X151390477Y-77385713D01*
X151390477Y-77528570D01*
X151438096Y-77719046D01*
X151485715Y-77814284D01*
X151580953Y-77909522D01*
X151723810Y-77957141D01*
X151819048Y-77957141D01*
X151961905Y-77909522D01*
X152009524Y-77861903D01*
X152009524Y-77528570D01*
X151819048Y-77528570D01*
X151414286Y-74457141D02*
X151414286Y-75266665D01*
X151461905Y-75361903D01*
X151509524Y-75409522D01*
X151604762Y-75457141D01*
X151795239Y-75457141D01*
X151890477Y-75409522D01*
X151938096Y-75361903D01*
X151985715Y-75266665D01*
X151985715Y-74457141D01*
%TO.C,J8*%
X133102619Y-74686666D02*
X132388333Y-74686666D01*
X132245476Y-74639047D01*
X132150238Y-74543809D01*
X132102619Y-74400952D01*
X132102619Y-74305714D01*
X132674047Y-75305714D02*
X132721666Y-75210476D01*
X132769285Y-75162857D01*
X132864523Y-75115238D01*
X132912142Y-75115238D01*
X133007380Y-75162857D01*
X133055000Y-75210476D01*
X133102619Y-75305714D01*
X133102619Y-75496190D01*
X133055000Y-75591428D01*
X133007380Y-75639047D01*
X132912142Y-75686666D01*
X132864523Y-75686666D01*
X132769285Y-75639047D01*
X132721666Y-75591428D01*
X132674047Y-75496190D01*
X132674047Y-75305714D01*
X132626428Y-75210476D01*
X132578809Y-75162857D01*
X132483571Y-75115238D01*
X132293095Y-75115238D01*
X132197857Y-75162857D01*
X132150238Y-75210476D01*
X132102619Y-75305714D01*
X132102619Y-75496190D01*
X132150238Y-75591428D01*
X132197857Y-75639047D01*
X132293095Y-75686666D01*
X132483571Y-75686666D01*
X132578809Y-75639047D01*
X132626428Y-75591428D01*
X132674047Y-75496190D01*
D11*
%TO.C,J5*%
X153900001Y-77504761D02*
G75*
G03*
X153900001Y-77504761I-700000J0D01*
G01*
%TO.C,J4*%
X153900001Y-74944761D02*
G75*
G03*
X153900001Y-74944761I-700000J0D01*
G01*
%TO.C,J3*%
X153900001Y-72384761D02*
G75*
G03*
X153900001Y-72384761I-700000J0D01*
G01*
%TO.C,SW1*%
X146270000Y-79380000D02*
X146470000Y-79380000D01*
X142020000Y-82230000D02*
X147720000Y-82230000D01*
X148320000Y-81220000D02*
X148320000Y-80430000D01*
X143270000Y-79380000D02*
X144970000Y-79380000D01*
X141420000Y-80430000D02*
X141420000Y-81220000D01*
%TO.C,U3*%
X138260000Y-72480000D02*
X140060000Y-72480000D01*
X138260000Y-69360000D02*
X139060000Y-69360000D01*
X138260000Y-69360000D02*
X137460000Y-69360000D01*
X138260000Y-72480000D02*
X137460000Y-72480000D01*
%TO.C,C12*%
X145725000Y-71640835D02*
X145725000Y-71409165D01*
X146445000Y-71640835D02*
X146445000Y-71409165D01*
%TO.C,C5*%
X144060000Y-68786310D02*
X144060000Y-68554640D01*
X143340000Y-68786310D02*
X143340000Y-68554640D01*
%TO.C,U4*%
X141810000Y-71110000D02*
X141360000Y-71110000D01*
X141360000Y-74330000D02*
X141360000Y-73880000D01*
X141360000Y-71110000D02*
X141360000Y-71560000D01*
X144580000Y-71110000D02*
X144580000Y-71560000D01*
X144130000Y-71110000D02*
X144580000Y-71110000D01*
X144130000Y-74330000D02*
X144580000Y-74330000D01*
X141810000Y-74330000D02*
X141360000Y-74330000D01*
%TO.C,C8*%
X137154165Y-69020000D02*
X137385835Y-69020000D01*
X137154165Y-68300000D02*
X137385835Y-68300000D01*
%TO.C,C2*%
X144060000Y-76872975D02*
X144060000Y-76641305D01*
X143340000Y-76872975D02*
X143340000Y-76641305D01*
%TO.C,R3*%
X141880000Y-76924761D02*
X141880000Y-76589519D01*
X141120000Y-76924761D02*
X141120000Y-76589519D01*
%TO.C,C6*%
X145160000Y-68786310D02*
X145160000Y-68554640D01*
X144440000Y-68786310D02*
X144440000Y-68554640D01*
%TO.C,R10*%
X137050000Y-76032379D02*
X137050000Y-76367621D01*
X136290000Y-76032379D02*
X136290000Y-76367621D01*
%TO.C,C4*%
X138475835Y-77200000D02*
X138244165Y-77200000D01*
X138475835Y-76480000D02*
X138244165Y-76480000D01*
%TO.C,R4*%
X141880000Y-68502854D02*
X141880000Y-68838096D01*
X141120000Y-68502854D02*
X141120000Y-68838096D01*
%TO.C,R11*%
X136290000Y-74007621D02*
X136290000Y-73672379D01*
X137050000Y-74007621D02*
X137050000Y-73672379D01*
%TO.C,U2*%
X138215000Y-80680000D02*
X140015000Y-80680000D01*
X138215000Y-77560000D02*
X137415000Y-77560000D01*
X138215000Y-80680000D02*
X137415000Y-80680000D01*
X138215000Y-77560000D02*
X139015000Y-77560000D01*
%TO.C,C10*%
X138475835Y-72840000D02*
X138244165Y-72840000D01*
X138475835Y-73560000D02*
X138244165Y-73560000D01*
%TO.C,R1*%
X137102379Y-81010000D02*
X137437621Y-81010000D01*
X137102379Y-81770000D02*
X137437621Y-81770000D01*
%TO.C,C1*%
X145340000Y-76872975D02*
X145340000Y-76641305D01*
X146060000Y-76872975D02*
X146060000Y-76641305D01*
%TO.C,C7*%
X138475835Y-75480000D02*
X138244165Y-75480000D01*
X138475835Y-76200000D02*
X138244165Y-76200000D01*
%TO.C,R8*%
X147830000Y-69047621D02*
X147830000Y-68712379D01*
X148590000Y-69047621D02*
X148590000Y-68712379D01*
%TO.C,C9*%
X142960000Y-76641305D02*
X142960000Y-76872975D01*
X142240000Y-76641305D02*
X142240000Y-76872975D01*
%TO.C,C11*%
X146445000Y-73709165D02*
X146445000Y-73940835D01*
X145725000Y-73709165D02*
X145725000Y-73940835D01*
%TO.C,R2*%
X142980000Y-68838096D02*
X142980000Y-68502854D01*
X142220000Y-68838096D02*
X142220000Y-68502854D01*
%TO.C,C3*%
X138475835Y-74560000D02*
X138244165Y-74560000D01*
X138475835Y-73840000D02*
X138244165Y-73840000D01*
%TO.C,R9*%
X148950000Y-68712379D02*
X148950000Y-69047621D01*
X149710000Y-68712379D02*
X149710000Y-69047621D01*
%TD*%
%LPC*%
D12*
%TO.C,J7*%
X153300000Y-68100000D03*
%TD*%
%TO.C,J6*%
X153300000Y-70660000D03*
%TD*%
D13*
%TO.C,J5*%
X153200001Y-77504761D03*
%TD*%
%TO.C,J4*%
X153200001Y-74944761D03*
%TD*%
%TO.C,J3*%
X153200001Y-72384761D03*
%TD*%
D12*
%TO.C,J2*%
X153200000Y-79300000D03*
%TD*%
%TO.C,J1*%
X153200000Y-81860000D03*
%TD*%
D14*
%TO.C,SW1*%
X148520000Y-79720000D03*
X148520000Y-81930000D03*
D15*
X143370000Y-80830000D03*
D14*
X141220000Y-79720000D03*
X141220000Y-81930000D03*
D15*
X146370000Y-80830000D03*
D16*
X142620000Y-79070000D03*
X145620000Y-79070000D03*
X147120000Y-79070000D03*
%TD*%
D17*
%TO.C,U3*%
X139397500Y-71870000D03*
X139397500Y-70920000D03*
X139397500Y-69970000D03*
X137122500Y-69970000D03*
X137122500Y-71870000D03*
%TD*%
D18*
%TO.C,C12*%
X146085000Y-72092500D03*
X146085000Y-70957500D03*
%TD*%
%TO.C,C5*%
X143700000Y-68102975D03*
X143700000Y-69237975D03*
%TD*%
D19*
%TO.C,U4*%
X144420000Y-73520000D03*
D20*
X144420000Y-73120000D03*
X144420000Y-72720000D03*
X144420000Y-72320000D03*
D21*
X144420000Y-71920000D03*
D22*
X143770000Y-71270000D03*
D23*
X143370000Y-71270000D03*
X142970000Y-71270000D03*
X142570000Y-71270000D03*
D24*
X142170000Y-71270000D03*
D25*
X141520000Y-71920000D03*
D20*
X141520000Y-72320000D03*
X141520000Y-72720000D03*
X141520000Y-73120000D03*
D26*
X141520000Y-73520000D03*
D27*
X142170000Y-74170000D03*
D23*
X142570000Y-74170000D03*
X142970000Y-74170000D03*
X143370000Y-74170000D03*
D28*
X143770000Y-74170000D03*
D29*
X142970000Y-72720000D03*
%TD*%
D30*
%TO.C,C8*%
X136702500Y-68660000D03*
X137837500Y-68660000D03*
%TD*%
D18*
%TO.C,C2*%
X143700000Y-76189640D03*
X143700000Y-77324640D03*
%TD*%
D31*
%TO.C,R3*%
X141500000Y-76159640D03*
X141500000Y-77354640D03*
%TD*%
D18*
%TO.C,C6*%
X144800000Y-69237975D03*
X144800000Y-68102975D03*
%TD*%
D32*
%TO.C,R10*%
X136670000Y-75602500D03*
X136670000Y-76797500D03*
%TD*%
D33*
%TO.C,C4*%
X138927500Y-76840000D03*
X137792500Y-76840000D03*
%TD*%
D32*
%TO.C,R4*%
X141500000Y-68072975D03*
X141500000Y-69267975D03*
%TD*%
D31*
%TO.C,R11*%
X136670000Y-73242500D03*
X136670000Y-74437500D03*
%TD*%
D17*
%TO.C,U2*%
X139352500Y-80070000D03*
X139352500Y-79120000D03*
X139352500Y-78170000D03*
X137077500Y-78170000D03*
X137077500Y-80070000D03*
%TD*%
D33*
%TO.C,C10*%
X137792500Y-73200000D03*
X138927500Y-73200000D03*
%TD*%
D34*
%TO.C,R1*%
X136672500Y-81390000D03*
X137867500Y-81390000D03*
%TD*%
D18*
%TO.C,C1*%
X145700000Y-77324640D03*
X145700000Y-76189640D03*
%TD*%
D33*
%TO.C,C7*%
X137792500Y-75840000D03*
X138927500Y-75840000D03*
%TD*%
D31*
%TO.C,R8*%
X148210000Y-69477500D03*
X148210000Y-68282500D03*
%TD*%
D35*
%TO.C,C9*%
X142600000Y-77324640D03*
X142600000Y-76189640D03*
%TD*%
%TO.C,C11*%
X146085000Y-73257500D03*
X146085000Y-74392500D03*
%TD*%
D36*
%TO.C,J8*%
X134105000Y-77910000D03*
X134105000Y-72130000D03*
D37*
X135175000Y-71820000D03*
X135175000Y-78220000D03*
X135175000Y-72620000D03*
X135175000Y-77420000D03*
D38*
X135175000Y-73770000D03*
X135175000Y-74770000D03*
X135175000Y-75270000D03*
X135175000Y-76270000D03*
X135175000Y-76770000D03*
X135175000Y-75770000D03*
X135175000Y-74270000D03*
X135175000Y-73270000D03*
D39*
X130705000Y-80130000D03*
X130705000Y-69910000D03*
X134605000Y-80130000D03*
X134605000Y-69910000D03*
%TD*%
D31*
%TO.C,R2*%
X142600000Y-68072975D03*
X142600000Y-69267975D03*
%TD*%
D33*
%TO.C,C3*%
X138927500Y-74200000D03*
X137792500Y-74200000D03*
%TD*%
D32*
%TO.C,R9*%
X149330000Y-68282500D03*
X149330000Y-69477500D03*
%TD*%
M02*
