%TF.GenerationSoftware,KiCad,Pcbnew,(6.0.9)*%
%TF.CreationDate,2023-06-25T00:46:12+02:00*%
%TF.ProjectId,keyring_beerclock,6b657972-696e-4675-9f62-656572636c6f,rev?*%
%TF.SameCoordinates,Original*%
%TF.FileFunction,Copper,L4,Bot*%
%TF.FilePolarity,Positive*%
%FSLAX46Y46*%
G04 Gerber Fmt 4.6, Leading zero omitted, Abs format (unit mm)*
G04 Created by KiCad (PCBNEW (6.0.9)) date 2023-06-25 00:46:12*
%MOMM*%
%LPD*%
G01*
G04 APERTURE LIST*
G04 Aperture macros list*
%AMRoundRect*
0 Rectangle with rounded corners*
0 $1 Rounding radius*
0 $2 $3 $4 $5 $6 $7 $8 $9 X,Y pos of 4 corners*
0 Add a 4 corners polygon primitive as box body*
4,1,4,$2,$3,$4,$5,$6,$7,$8,$9,$2,$3,0*
0 Add four circle primitives for the rounded corners*
1,1,$1+$1,$2,$3*
1,1,$1+$1,$4,$5*
1,1,$1+$1,$6,$7*
1,1,$1+$1,$8,$9*
0 Add four rect primitives between the rounded corners*
20,1,$1+$1,$2,$3,$4,$5,0*
20,1,$1+$1,$4,$5,$6,$7,0*
20,1,$1+$1,$6,$7,$8,$9,0*
20,1,$1+$1,$8,$9,$2,$3,0*%
G04 Aperture macros list end*
%TA.AperFunction,SMDPad,CuDef*%
%ADD10R,0.900000X1.700000*%
%TD*%
%TA.AperFunction,SMDPad,CuDef*%
%ADD11RoundRect,0.160000X0.160000X-0.197500X0.160000X0.197500X-0.160000X0.197500X-0.160000X-0.197500X0*%
%TD*%
%TA.AperFunction,SMDPad,CuDef*%
%ADD12R,2.000000X0.350000*%
%TD*%
%TA.AperFunction,ViaPad*%
%ADD13C,0.500000*%
%TD*%
%TA.AperFunction,Conductor*%
%ADD14C,0.150000*%
%TD*%
%TA.AperFunction,Conductor*%
%ADD15C,0.250000*%
%TD*%
%TA.AperFunction,Conductor*%
%ADD16C,0.200000*%
%TD*%
G04 APERTURE END LIST*
D10*
%TO.P,SW3,1,1*%
%TO.N,BTN_RIGHT*%
X135120000Y-69340000D03*
%TO.P,SW3,2,2*%
%TO.N,GND*%
X131720000Y-69340000D03*
%TD*%
D11*
%TO.P,R7,1*%
%TO.N,+3V3*%
X130450000Y-69348928D03*
%TO.P,R7,2*%
%TO.N,BTN_RIGHT*%
X130450000Y-68153928D03*
%TD*%
D12*
%TO.P,U1,1,C2P*%
%TO.N,/C2P*%
X131690000Y-80150000D03*
%TO.P,U1,2,C2N*%
%TO.N,/C2N*%
X131690000Y-79530000D03*
%TO.P,U1,3,C1P*%
%TO.N,/C1P*%
X131690000Y-78910000D03*
%TO.P,U1,4,C1N*%
%TO.N,/C1N*%
X131690000Y-78290000D03*
%TO.P,U1,5,VBAT*%
%TO.N,/VBAT*%
X131690000Y-77670000D03*
%TO.P,U1,6,NC*%
%TO.N,unconnected-(U1-Pad6)*%
X131690000Y-77050000D03*
%TO.P,U1,7,VSS*%
%TO.N,GND*%
X131690000Y-76430000D03*
%TO.P,U1,8,VDD*%
%TO.N,+3V3*%
X131690000Y-75810000D03*
%TO.P,U1,9,~{RES}*%
%TO.N,~{RES}*%
X131690000Y-75190000D03*
%TO.P,U1,10,SCL*%
%TO.N,SCL*%
X131690000Y-74570000D03*
%TO.P,U1,11,SDA*%
%TO.N,SDA*%
X131690000Y-73950000D03*
%TO.P,U1,12,IREF*%
%TO.N,/IREF*%
X131690000Y-73330000D03*
%TO.P,U1,13,VCOMM*%
%TO.N,/VCOMM*%
X131690000Y-72710000D03*
%TO.P,U1,14,VCC*%
%TO.N,/VCC_CAP*%
X131690000Y-72090000D03*
%TD*%
D13*
%TO.N,GND*%
X150500000Y-78100000D03*
X150500000Y-77400000D03*
%TO.N,UDPI*%
X144700000Y-75300000D03*
X150500000Y-76300000D03*
%TO.N,BTN_RIGHT*%
X133000000Y-70200000D03*
%TO.N,GND*%
X133000000Y-69400000D03*
X133000000Y-68700000D03*
X147100000Y-74400000D03*
X147100000Y-70900000D03*
X135400000Y-82100000D03*
X133200000Y-82100000D03*
X131000000Y-82100000D03*
X146500000Y-68600000D03*
X146500000Y-67900000D03*
X139500000Y-67900000D03*
%TO.N,+3V3*%
X141800000Y-78050500D03*
%TO.N,BTN_RIGHT*%
X141500000Y-75200000D03*
%TO.N,GND*%
X137800000Y-75000000D03*
%TO.N,/PWR_IN*%
X140500000Y-76900000D03*
X144800000Y-79400000D03*
%TO.N,GND*%
X145300000Y-73100000D03*
%TO.N,+3V3*%
X130100000Y-75800000D03*
X137100000Y-71000000D03*
X140600000Y-68072975D03*
X153300000Y-69600000D03*
X149330000Y-70570000D03*
X147000000Y-73300000D03*
X147000000Y-72100000D03*
%TO.N,~{RES}*%
X140505741Y-73807176D03*
%TO.N,SCL*%
X140480000Y-73120000D03*
%TO.N,/C2P*%
X146600000Y-77300000D03*
%TO.N,/C2N*%
X144700000Y-76200000D03*
%TO.N,/C1P*%
X144700000Y-77300000D03*
%TO.N,/C1N*%
X143700000Y-75300000D03*
%TO.N,/VBAT*%
X142600000Y-75300000D03*
%TO.N,/VCC_CAP*%
X144800000Y-70100000D03*
%TO.N,/VCOMM*%
X143700000Y-70100000D03*
%TO.N,/IREF*%
X142600000Y-70100000D03*
%TO.N,SDA*%
X141500000Y-70100000D03*
%TD*%
D14*
%TO.N,BTN_RIGHT*%
X133860000Y-69340000D02*
X133000000Y-70200000D01*
X135120000Y-69340000D02*
X133860000Y-69340000D01*
D15*
%TO.N,+3V3*%
X130100000Y-69698928D02*
X130450000Y-69348928D01*
X130100000Y-75800000D02*
X130100000Y-69698928D01*
D14*
%TO.N,BTN_RIGHT*%
X133933928Y-68153928D02*
X135120000Y-69340000D01*
X130450000Y-68153928D02*
X133933928Y-68153928D01*
%TO.N,/VCC_CAP*%
X135171473Y-71179999D02*
X132600001Y-71179999D01*
X137751472Y-68600000D02*
X135171473Y-71179999D01*
X144300000Y-68600000D02*
X137751472Y-68600000D01*
X144800000Y-69100000D02*
X144300000Y-68600000D01*
X144800000Y-70100000D02*
X144800000Y-69100000D01*
X132600001Y-71179999D02*
X131690000Y-72090000D01*
%TO.N,/VCOMM*%
X132605759Y-72710000D02*
X131690000Y-72710000D01*
X135295737Y-71479999D02*
X133835760Y-71479999D01*
X133835760Y-71479999D02*
X132605759Y-72710000D01*
X137575736Y-69200000D02*
X135295737Y-71479999D01*
X143600000Y-69200000D02*
X137575736Y-69200000D01*
X143700000Y-69300000D02*
X143600000Y-69200000D01*
X143700000Y-70100000D02*
X143700000Y-69300000D01*
%TO.N,/IREF*%
X133870000Y-73330000D02*
X131690000Y-73330000D01*
X137600000Y-69600000D02*
X133870000Y-73330000D01*
X142100000Y-69600000D02*
X137600000Y-69600000D01*
X142600000Y-70100000D02*
X142100000Y-69600000D01*
%TO.N,~{RES}*%
X134000000Y-75200000D02*
X131700000Y-75200000D01*
X131700000Y-75200000D02*
X131690000Y-75190000D01*
X134600000Y-75800000D02*
X134000000Y-75200000D01*
X138512917Y-75800000D02*
X134600000Y-75800000D01*
X140505741Y-73807176D02*
X138512917Y-75800000D01*
%TO.N,SCL*%
X138524264Y-73500000D02*
X137774264Y-74250000D01*
X140100000Y-73500000D02*
X138524264Y-73500000D01*
X134550000Y-74250000D02*
X134230000Y-74570000D01*
X134230000Y-74570000D02*
X131690000Y-74570000D01*
X140480000Y-73120000D02*
X140100000Y-73500000D01*
X137774264Y-74250000D02*
X134550000Y-74250000D01*
D15*
%TO.N,+3V3*%
X130110000Y-75810000D02*
X130100000Y-75800000D01*
X131690000Y-75810000D02*
X130110000Y-75810000D01*
D16*
%TO.N,/C2P*%
X131740000Y-80200000D02*
X131690000Y-80150000D01*
X144368627Y-78700000D02*
X142868627Y-80200000D01*
X145200000Y-78700000D02*
X144368627Y-78700000D01*
X146600000Y-77300000D02*
X145200000Y-78700000D01*
X142868627Y-80200000D02*
X131740000Y-80200000D01*
%TO.N,/C2N*%
X144700000Y-78100000D02*
X143700000Y-78100000D01*
X145400000Y-77400000D02*
X144700000Y-78100000D01*
X145400000Y-76900000D02*
X145400000Y-77400000D01*
X143700000Y-78100000D02*
X142270000Y-79530000D01*
X144700000Y-76200000D02*
X145400000Y-76900000D01*
X142270000Y-79530000D02*
X131690000Y-79530000D01*
%TO.N,/C1P*%
X141964999Y-78935001D02*
X131715001Y-78935001D01*
X143600000Y-77300000D02*
X141964999Y-78935001D01*
X131715001Y-78935001D02*
X131690000Y-78910000D01*
X144700000Y-77300000D02*
X143600000Y-77300000D01*
%TO.N,/C1N*%
X132990000Y-78290000D02*
X131690000Y-78290000D01*
X133285001Y-78585001D02*
X132990000Y-78290000D01*
X135085001Y-78200000D02*
X134700000Y-78585001D01*
X140800000Y-78200000D02*
X135085001Y-78200000D01*
X134700000Y-78585001D02*
X133285001Y-78585001D01*
X143700000Y-75300000D02*
X140800000Y-78200000D01*
D15*
%TO.N,/VBAT*%
X134370000Y-76300000D02*
X133000000Y-77670000D01*
X141600000Y-76300000D02*
X134370000Y-76300000D01*
X133000000Y-77670000D02*
X131690000Y-77670000D01*
X142600000Y-75300000D02*
X141600000Y-76300000D01*
D14*
%TO.N,SDA*%
X137650000Y-73950000D02*
X131690000Y-73950000D01*
X141500000Y-70100000D02*
X137650000Y-73950000D01*
%TD*%
%TA.AperFunction,Conductor*%
%TO.N,GND*%
G36*
X130105438Y-67490502D02*
G01*
X130151931Y-67544158D01*
X130162035Y-67614432D01*
X130132541Y-67679012D01*
X130115728Y-67694042D01*
X130111085Y-67696105D01*
X130029365Y-67777967D01*
X130024662Y-67788604D01*
X130024661Y-67788606D01*
X130004313Y-67834633D01*
X129982594Y-67883760D01*
X129979500Y-67910299D01*
X129979501Y-68397556D01*
X129982722Y-68424632D01*
X130029677Y-68530343D01*
X130111539Y-68612063D01*
X130166107Y-68636187D01*
X130220320Y-68682023D01*
X130241148Y-68749896D01*
X130221974Y-68818255D01*
X130166307Y-68866577D01*
X130111085Y-68891105D01*
X130029365Y-68972967D01*
X130024662Y-68983604D01*
X130024661Y-68983606D01*
X129986425Y-69070094D01*
X129982594Y-69078760D01*
X129979500Y-69105299D01*
X129979501Y-69267450D01*
X129979501Y-69377621D01*
X129959499Y-69445741D01*
X129942596Y-69466716D01*
X129933156Y-69476156D01*
X129914064Y-69491826D01*
X129901376Y-69500304D01*
X129840485Y-69591433D01*
X129824500Y-69671795D01*
X129819103Y-69698928D01*
X129821524Y-69711099D01*
X129822079Y-69713889D01*
X129824500Y-69738471D01*
X129824500Y-75456918D01*
X129804498Y-75525039D01*
X129787595Y-75546013D01*
X129771950Y-75561658D01*
X129714354Y-75674696D01*
X129712804Y-75684485D01*
X129712803Y-75684487D01*
X129701339Y-75756869D01*
X129694508Y-75800000D01*
X129696059Y-75809793D01*
X129712620Y-75914354D01*
X129714354Y-75925304D01*
X129771950Y-76038342D01*
X129861658Y-76128050D01*
X129974696Y-76185646D01*
X129984485Y-76187196D01*
X129984487Y-76187197D01*
X130100000Y-76205492D01*
X130099518Y-76208535D01*
X130151994Y-76223943D01*
X130166386Y-76234717D01*
X130187865Y-76253329D01*
X130195548Y-76255000D01*
X133179884Y-76255000D01*
X133195123Y-76250525D01*
X133196328Y-76249135D01*
X133197999Y-76241452D01*
X133197999Y-76210331D01*
X133197629Y-76203510D01*
X133192105Y-76152648D01*
X133188479Y-76137396D01*
X133143324Y-76016946D01*
X133134786Y-76001351D01*
X133058285Y-75899276D01*
X133045724Y-75886715D01*
X132943649Y-75810214D01*
X132928055Y-75801676D01*
X132922273Y-75799509D01*
X132865508Y-75756869D01*
X132840806Y-75690308D01*
X132840500Y-75681526D01*
X132840500Y-75620180D01*
X132831767Y-75576278D01*
X132836231Y-75575390D01*
X132831285Y-75529028D01*
X132863116Y-75465567D01*
X132924203Y-75429389D01*
X132955265Y-75425500D01*
X133854403Y-75425500D01*
X133922524Y-75445502D01*
X133943498Y-75462404D01*
X134171403Y-75690308D01*
X134314210Y-75833115D01*
X134348235Y-75895428D01*
X134343171Y-75966243D01*
X134300624Y-76023079D01*
X134274114Y-76038175D01*
X134262506Y-76040484D01*
X134194378Y-76086006D01*
X134194377Y-76086007D01*
X134171376Y-76101376D01*
X134164485Y-76111689D01*
X134162898Y-76114064D01*
X134147228Y-76133156D01*
X133378225Y-76902159D01*
X133315913Y-76936185D01*
X133245098Y-76931120D01*
X133188262Y-76888573D01*
X133163451Y-76822053D01*
X133171148Y-76768834D01*
X133188478Y-76722606D01*
X133192105Y-76707351D01*
X133197631Y-76656486D01*
X133198000Y-76649672D01*
X133198000Y-76623115D01*
X133193525Y-76607876D01*
X133192135Y-76606671D01*
X133184452Y-76605000D01*
X130200116Y-76605000D01*
X130184877Y-76609475D01*
X130183672Y-76610865D01*
X130182001Y-76618548D01*
X130182001Y-76649669D01*
X130182371Y-76656490D01*
X130187895Y-76707352D01*
X130191521Y-76722604D01*
X130236676Y-76843054D01*
X130245214Y-76858649D01*
X130321715Y-76960724D01*
X130334276Y-76973285D01*
X130436351Y-77049786D01*
X130451945Y-77058324D01*
X130457727Y-77060491D01*
X130514492Y-77103131D01*
X130539194Y-77169692D01*
X130539500Y-77178474D01*
X130539500Y-77239820D01*
X130548233Y-77283722D01*
X130555128Y-77294042D01*
X130559876Y-77305503D01*
X130557580Y-77306454D01*
X130573642Y-77357753D01*
X130557294Y-77413428D01*
X130559876Y-77414497D01*
X130555128Y-77425958D01*
X130548233Y-77436278D01*
X130539500Y-77480180D01*
X130539500Y-77859820D01*
X130548233Y-77903722D01*
X130555128Y-77914042D01*
X130559876Y-77925503D01*
X130557580Y-77926454D01*
X130573642Y-77977753D01*
X130557294Y-78033428D01*
X130559876Y-78034497D01*
X130555128Y-78045958D01*
X130548233Y-78056278D01*
X130539500Y-78100180D01*
X130539500Y-78479820D01*
X130548233Y-78523722D01*
X130555128Y-78534042D01*
X130559876Y-78545503D01*
X130557580Y-78546454D01*
X130573642Y-78597753D01*
X130557294Y-78653428D01*
X130559876Y-78654497D01*
X130555128Y-78665958D01*
X130548233Y-78676278D01*
X130539500Y-78720180D01*
X130539500Y-79099820D01*
X130548233Y-79143722D01*
X130555128Y-79154042D01*
X130559876Y-79165503D01*
X130557580Y-79166454D01*
X130573642Y-79217753D01*
X130557294Y-79273428D01*
X130559876Y-79274497D01*
X130555128Y-79285958D01*
X130548233Y-79296278D01*
X130539500Y-79340180D01*
X130539500Y-79719820D01*
X130548233Y-79763722D01*
X130555128Y-79774042D01*
X130559876Y-79785503D01*
X130557580Y-79786454D01*
X130573642Y-79837753D01*
X130557294Y-79893428D01*
X130559876Y-79894497D01*
X130555128Y-79905958D01*
X130548233Y-79916278D01*
X130539500Y-79960180D01*
X130539500Y-80339820D01*
X130548233Y-80383722D01*
X130555127Y-80394040D01*
X130555128Y-80394042D01*
X130573547Y-80421608D01*
X130581496Y-80433504D01*
X130591815Y-80440399D01*
X130620958Y-80459872D01*
X130620960Y-80459873D01*
X130631278Y-80466767D01*
X130675180Y-80475500D01*
X132704820Y-80475500D01*
X132748722Y-80466767D01*
X132758797Y-80460035D01*
X132806730Y-80450500D01*
X142581465Y-80450500D01*
X142649586Y-80470502D01*
X142696079Y-80524158D01*
X142706183Y-80594432D01*
X142703669Y-80607196D01*
X142669919Y-80741559D01*
X142669031Y-80911105D01*
X142708612Y-81075968D01*
X142786375Y-81226631D01*
X142791367Y-81232353D01*
X142791368Y-81232355D01*
X142853808Y-81303931D01*
X142897831Y-81354396D01*
X142904045Y-81358763D01*
X143030330Y-81447518D01*
X143030332Y-81447519D01*
X143036547Y-81451887D01*
X143194513Y-81513476D01*
X143202046Y-81514468D01*
X143202047Y-81514468D01*
X143319739Y-81529962D01*
X143323826Y-81530500D01*
X143412516Y-81530500D01*
X143538320Y-81515276D01*
X143696923Y-81455345D01*
X143836651Y-81359312D01*
X143846132Y-81348671D01*
X143944388Y-81238392D01*
X143944390Y-81238388D01*
X143949440Y-81232721D01*
X143956238Y-81219883D01*
X144025224Y-81089589D01*
X144028776Y-81082881D01*
X144070081Y-80918441D01*
X144070119Y-80911105D01*
X145669031Y-80911105D01*
X145708612Y-81075968D01*
X145786375Y-81226631D01*
X145791367Y-81232353D01*
X145791368Y-81232355D01*
X145853808Y-81303931D01*
X145897831Y-81354396D01*
X145904045Y-81358763D01*
X146030330Y-81447518D01*
X146030332Y-81447519D01*
X146036547Y-81451887D01*
X146194513Y-81513476D01*
X146202046Y-81514468D01*
X146202047Y-81514468D01*
X146319739Y-81529962D01*
X146323826Y-81530500D01*
X146412516Y-81530500D01*
X146538320Y-81515276D01*
X146696923Y-81455345D01*
X146836651Y-81359312D01*
X146846132Y-81348671D01*
X146944388Y-81238392D01*
X146944390Y-81238388D01*
X146949440Y-81232721D01*
X146956238Y-81219883D01*
X147025224Y-81089589D01*
X147028776Y-81082881D01*
X147070081Y-80918441D01*
X147070969Y-80748895D01*
X147031388Y-80584032D01*
X146975371Y-80475500D01*
X146957108Y-80440117D01*
X146957108Y-80440116D01*
X146953625Y-80433369D01*
X146948313Y-80427279D01*
X146847163Y-80311329D01*
X146842169Y-80305604D01*
X146783649Y-80264475D01*
X146709670Y-80212482D01*
X146709668Y-80212481D01*
X146703453Y-80208113D01*
X146545487Y-80146524D01*
X146537954Y-80145532D01*
X146537953Y-80145532D01*
X146420261Y-80130038D01*
X146420260Y-80130038D01*
X146416174Y-80129500D01*
X146327484Y-80129500D01*
X146201680Y-80144724D01*
X146043077Y-80204655D01*
X145903349Y-80300688D01*
X145898297Y-80306358D01*
X145898296Y-80306359D01*
X145795612Y-80421608D01*
X145795610Y-80421612D01*
X145790560Y-80427279D01*
X145787008Y-80433988D01*
X145787007Y-80433989D01*
X145783613Y-80440399D01*
X145711224Y-80577119D01*
X145669919Y-80741559D01*
X145669031Y-80911105D01*
X144070119Y-80911105D01*
X144070969Y-80748895D01*
X144031388Y-80584032D01*
X143975371Y-80475500D01*
X143957108Y-80440117D01*
X143957108Y-80440116D01*
X143953625Y-80433369D01*
X143948313Y-80427279D01*
X143847163Y-80311329D01*
X143842169Y-80305604D01*
X143783649Y-80264475D01*
X143709670Y-80212482D01*
X143709668Y-80212481D01*
X143703453Y-80208113D01*
X143545487Y-80146524D01*
X143542776Y-80146167D01*
X143483551Y-80110915D01*
X143451862Y-80047383D01*
X143459550Y-79976804D01*
X143486796Y-79936091D01*
X144190236Y-79232651D01*
X144252548Y-79198625D01*
X144323363Y-79203690D01*
X144380199Y-79246237D01*
X144405010Y-79312757D01*
X144403780Y-79341456D01*
X144396059Y-79390206D01*
X144394508Y-79400000D01*
X144414354Y-79525304D01*
X144471950Y-79638342D01*
X144561658Y-79728050D01*
X144674696Y-79785646D01*
X144684485Y-79787196D01*
X144684487Y-79787197D01*
X144790207Y-79803941D01*
X144800000Y-79805492D01*
X144809793Y-79803941D01*
X144915513Y-79787197D01*
X144915515Y-79787196D01*
X144925304Y-79785646D01*
X145038342Y-79728050D01*
X145128050Y-79638342D01*
X145185646Y-79525304D01*
X145205492Y-79400000D01*
X145203941Y-79390206D01*
X145187197Y-79284487D01*
X145187196Y-79284485D01*
X145185646Y-79274696D01*
X145156632Y-79217753D01*
X145132551Y-79170491D01*
X145132550Y-79170489D01*
X145128050Y-79161658D01*
X145121039Y-79154647D01*
X145119878Y-79153049D01*
X145096019Y-79086182D01*
X145112098Y-79017030D01*
X145163012Y-78967549D01*
X145200565Y-78958249D01*
X145200000Y-78955408D01*
X145297741Y-78935966D01*
X145327536Y-78916057D01*
X145380601Y-78880601D01*
X145387493Y-78870286D01*
X145387495Y-78870284D01*
X145387688Y-78869995D01*
X145403358Y-78850902D01*
X146513414Y-77740846D01*
X146575726Y-77706820D01*
X146595181Y-77704729D01*
X146600000Y-77705492D01*
X146609793Y-77703941D01*
X146715513Y-77687197D01*
X146715515Y-77687196D01*
X146725304Y-77685646D01*
X146838342Y-77628050D01*
X146928050Y-77538342D01*
X146985646Y-77425304D01*
X146993562Y-77375327D01*
X147003941Y-77309793D01*
X147005492Y-77300000D01*
X147000986Y-77271551D01*
X146987197Y-77184487D01*
X146987196Y-77184485D01*
X146985646Y-77174696D01*
X146928050Y-77061658D01*
X146838342Y-76971950D01*
X146725304Y-76914354D01*
X146715515Y-76912804D01*
X146715513Y-76912803D01*
X146609793Y-76896059D01*
X146600000Y-76894508D01*
X146590207Y-76896059D01*
X146484487Y-76912803D01*
X146484485Y-76912804D01*
X146474696Y-76914354D01*
X146361658Y-76971950D01*
X146271950Y-77061658D01*
X146214354Y-77174696D01*
X146212804Y-77184485D01*
X146212803Y-77184487D01*
X146199014Y-77271551D01*
X146194508Y-77300000D01*
X146194793Y-77301801D01*
X146176057Y-77365612D01*
X146159154Y-77386586D01*
X145133145Y-78412595D01*
X145070833Y-78446621D01*
X145044050Y-78449500D01*
X145008950Y-78449500D01*
X144940829Y-78429498D01*
X144894336Y-78375842D01*
X144884232Y-78305568D01*
X144913726Y-78240988D01*
X144919855Y-78234405D01*
X145550902Y-77603358D01*
X145569995Y-77587688D01*
X145570284Y-77587495D01*
X145570286Y-77587493D01*
X145580601Y-77580601D01*
X145635966Y-77497740D01*
X145650500Y-77424674D01*
X145650500Y-77424673D01*
X145655408Y-77400000D01*
X145652921Y-77387497D01*
X145650500Y-77362915D01*
X145650500Y-76937085D01*
X145652921Y-76912502D01*
X145652987Y-76912170D01*
X145655408Y-76900000D01*
X145638754Y-76816278D01*
X145635966Y-76802260D01*
X145580601Y-76719399D01*
X145570286Y-76712507D01*
X145570284Y-76712505D01*
X145569995Y-76712312D01*
X145550902Y-76696642D01*
X145154260Y-76300000D01*
X150094508Y-76300000D01*
X150114354Y-76425304D01*
X150171950Y-76538342D01*
X150261658Y-76628050D01*
X150374696Y-76685646D01*
X150384485Y-76687196D01*
X150384487Y-76687197D01*
X150490207Y-76703941D01*
X150500000Y-76705492D01*
X150509793Y-76703941D01*
X150615513Y-76687197D01*
X150615515Y-76687196D01*
X150625304Y-76685646D01*
X150738342Y-76628050D01*
X150828050Y-76538342D01*
X150885646Y-76425304D01*
X150905492Y-76300000D01*
X150903941Y-76290207D01*
X150887197Y-76184487D01*
X150887196Y-76184485D01*
X150885646Y-76174696D01*
X150828050Y-76061658D01*
X150738342Y-75971950D01*
X150625304Y-75914354D01*
X150615515Y-75912804D01*
X150615513Y-75912803D01*
X150509793Y-75896059D01*
X150500000Y-75894508D01*
X150490207Y-75896059D01*
X150384487Y-75912803D01*
X150384485Y-75912804D01*
X150374696Y-75914354D01*
X150261658Y-75971950D01*
X150171950Y-76061658D01*
X150114354Y-76174696D01*
X150112804Y-76184485D01*
X150112803Y-76184487D01*
X150096059Y-76290207D01*
X150094508Y-76300000D01*
X145154260Y-76300000D01*
X145140846Y-76286586D01*
X145106820Y-76224274D01*
X145104729Y-76204819D01*
X145105492Y-76200000D01*
X145094809Y-76132550D01*
X145087197Y-76084487D01*
X145087196Y-76084485D01*
X145085646Y-76074696D01*
X145028050Y-75961658D01*
X144938342Y-75871950D01*
X144919338Y-75862267D01*
X144867723Y-75813519D01*
X144850657Y-75744604D01*
X144873558Y-75677402D01*
X144919338Y-75637733D01*
X144929510Y-75632550D01*
X144929509Y-75632550D01*
X144938342Y-75628050D01*
X145028050Y-75538342D01*
X145085646Y-75425304D01*
X145087909Y-75411019D01*
X145103941Y-75309793D01*
X145105492Y-75300000D01*
X145088103Y-75190207D01*
X145087197Y-75184487D01*
X145087196Y-75184485D01*
X145085646Y-75174696D01*
X145028050Y-75061658D01*
X144938342Y-74971950D01*
X144825304Y-74914354D01*
X144815515Y-74912804D01*
X144815513Y-74912803D01*
X144709793Y-74896059D01*
X144700000Y-74894508D01*
X144690207Y-74896059D01*
X144584487Y-74912803D01*
X144584485Y-74912804D01*
X144574696Y-74914354D01*
X144461658Y-74971950D01*
X144371950Y-75061658D01*
X144314354Y-75174696D01*
X144312412Y-75173706D01*
X144279759Y-75221458D01*
X144214362Y-75249095D01*
X144144405Y-75236988D01*
X144092100Y-75188981D01*
X144085683Y-75174932D01*
X144085646Y-75174696D01*
X144028050Y-75061658D01*
X143938342Y-74971950D01*
X143825304Y-74914354D01*
X143815515Y-74912804D01*
X143815513Y-74912803D01*
X143709793Y-74896059D01*
X143700000Y-74894508D01*
X143690207Y-74896059D01*
X143584487Y-74912803D01*
X143584485Y-74912804D01*
X143574696Y-74914354D01*
X143461658Y-74971950D01*
X143371950Y-75061658D01*
X143314354Y-75174696D01*
X143312804Y-75184485D01*
X143312803Y-75184487D01*
X143311897Y-75190207D01*
X143294508Y-75300000D01*
X143294793Y-75301801D01*
X143276057Y-75365612D01*
X143259154Y-75386586D01*
X143215668Y-75430072D01*
X143153356Y-75464098D01*
X143082541Y-75459033D01*
X143025705Y-75416486D01*
X143000894Y-75349966D01*
X143002124Y-75321267D01*
X143003941Y-75309794D01*
X143003941Y-75309793D01*
X143005492Y-75300000D01*
X142988103Y-75190207D01*
X142987197Y-75184487D01*
X142987196Y-75184485D01*
X142985646Y-75174696D01*
X142928050Y-75061658D01*
X142838342Y-74971950D01*
X142725304Y-74914354D01*
X142715515Y-74912804D01*
X142715513Y-74912803D01*
X142609793Y-74896059D01*
X142600000Y-74894508D01*
X142590207Y-74896059D01*
X142484487Y-74912803D01*
X142484485Y-74912804D01*
X142474696Y-74914354D01*
X142361658Y-74971950D01*
X142271950Y-75061658D01*
X142214354Y-75174696D01*
X142212804Y-75184485D01*
X142212803Y-75184487D01*
X142197924Y-75278430D01*
X142162570Y-75347814D01*
X142103503Y-75406881D01*
X142041191Y-75440907D01*
X141970376Y-75435842D01*
X141913540Y-75393295D01*
X141888729Y-75326775D01*
X141889959Y-75298076D01*
X141903941Y-75209794D01*
X141903941Y-75209793D01*
X141905492Y-75200000D01*
X141901484Y-75174696D01*
X141887197Y-75084487D01*
X141887196Y-75084485D01*
X141885646Y-75074696D01*
X141828050Y-74961658D01*
X141738342Y-74871950D01*
X141625304Y-74814354D01*
X141615515Y-74812804D01*
X141615513Y-74812803D01*
X141509793Y-74796059D01*
X141500000Y-74794508D01*
X141490207Y-74796059D01*
X141384487Y-74812803D01*
X141384485Y-74812804D01*
X141374696Y-74814354D01*
X141261658Y-74871950D01*
X141171950Y-74961658D01*
X141114354Y-75074696D01*
X141112804Y-75084485D01*
X141112803Y-75084487D01*
X141098516Y-75174696D01*
X141094508Y-75200000D01*
X141096059Y-75209793D01*
X141110042Y-75298076D01*
X141114354Y-75325304D01*
X141171950Y-75438342D01*
X141261658Y-75528050D01*
X141374696Y-75585646D01*
X141384485Y-75587196D01*
X141384487Y-75587197D01*
X141490207Y-75603941D01*
X141500000Y-75605492D01*
X141509793Y-75603941D01*
X141509794Y-75603941D01*
X141598076Y-75589959D01*
X141668487Y-75599059D01*
X141722801Y-75644781D01*
X141743773Y-75712609D01*
X141724745Y-75781009D01*
X141706881Y-75803503D01*
X141522789Y-75987595D01*
X141460477Y-76021621D01*
X141433694Y-76024500D01*
X138911513Y-76024500D01*
X138843392Y-76004498D01*
X138796899Y-75950842D01*
X138786795Y-75880568D01*
X138816289Y-75815988D01*
X138822418Y-75809405D01*
X140385597Y-74246226D01*
X140447909Y-74212200D01*
X140494405Y-74210873D01*
X140495945Y-74211117D01*
X140495949Y-74211117D01*
X140505741Y-74212668D01*
X140515534Y-74211117D01*
X140621254Y-74194373D01*
X140621256Y-74194372D01*
X140631045Y-74192822D01*
X140744083Y-74135226D01*
X140833791Y-74045518D01*
X140891387Y-73932480D01*
X140911233Y-73807176D01*
X140897683Y-73721621D01*
X140892938Y-73691663D01*
X140892937Y-73691661D01*
X140891387Y-73681872D01*
X140833791Y-73568834D01*
X140804770Y-73539813D01*
X140770744Y-73477501D01*
X140775809Y-73406686D01*
X140796576Y-73374366D01*
X140795211Y-73373374D01*
X140801038Y-73365354D01*
X140808050Y-73358342D01*
X140837777Y-73300000D01*
X146594508Y-73300000D01*
X146614354Y-73425304D01*
X146671950Y-73538342D01*
X146761658Y-73628050D01*
X146874696Y-73685646D01*
X146884485Y-73687196D01*
X146884487Y-73687197D01*
X146990207Y-73703941D01*
X147000000Y-73705492D01*
X147009793Y-73703941D01*
X147115513Y-73687197D01*
X147115515Y-73687196D01*
X147125304Y-73685646D01*
X147238342Y-73628050D01*
X147328050Y-73538342D01*
X147385646Y-73425304D01*
X147405492Y-73300000D01*
X147396829Y-73245304D01*
X147387197Y-73184487D01*
X147387196Y-73184485D01*
X147385646Y-73174696D01*
X147328050Y-73061658D01*
X147238342Y-72971950D01*
X147125304Y-72914354D01*
X147115515Y-72912804D01*
X147115513Y-72912803D01*
X147009793Y-72896059D01*
X147000000Y-72894508D01*
X146990207Y-72896059D01*
X146884487Y-72912803D01*
X146884485Y-72912804D01*
X146874696Y-72914354D01*
X146761658Y-72971950D01*
X146671950Y-73061658D01*
X146614354Y-73174696D01*
X146612804Y-73184485D01*
X146612803Y-73184487D01*
X146603171Y-73245304D01*
X146594508Y-73300000D01*
X140837777Y-73300000D01*
X140865646Y-73245304D01*
X140875279Y-73184487D01*
X140883941Y-73129793D01*
X140885492Y-73120000D01*
X140877192Y-73067595D01*
X140867197Y-73004487D01*
X140867196Y-73004485D01*
X140865646Y-72994696D01*
X140808050Y-72881658D01*
X140718342Y-72791950D01*
X140605304Y-72734354D01*
X140595515Y-72732804D01*
X140595513Y-72732803D01*
X140489793Y-72716059D01*
X140480000Y-72714508D01*
X140470207Y-72716059D01*
X140364487Y-72732803D01*
X140364485Y-72732804D01*
X140354696Y-72734354D01*
X140241658Y-72791950D01*
X140151950Y-72881658D01*
X140094354Y-72994696D01*
X140092804Y-73004485D01*
X140092803Y-73004487D01*
X140082808Y-73067595D01*
X140074508Y-73120000D01*
X140076059Y-73129793D01*
X140076059Y-73139711D01*
X140074489Y-73139711D01*
X140066800Y-73199201D01*
X140021078Y-73253515D01*
X139951451Y-73274500D01*
X138948596Y-73274500D01*
X138880475Y-73254498D01*
X138833982Y-73200842D01*
X138823878Y-73130568D01*
X138853372Y-73065988D01*
X138859501Y-73059405D01*
X139818906Y-72100000D01*
X146594508Y-72100000D01*
X146596059Y-72109793D01*
X146603434Y-72156354D01*
X146614354Y-72225304D01*
X146671950Y-72338342D01*
X146761658Y-72428050D01*
X146874696Y-72485646D01*
X146884485Y-72487196D01*
X146884487Y-72487197D01*
X146990207Y-72503941D01*
X147000000Y-72505492D01*
X147009793Y-72503941D01*
X147115513Y-72487197D01*
X147115515Y-72487196D01*
X147125304Y-72485646D01*
X147238342Y-72428050D01*
X147328050Y-72338342D01*
X147385646Y-72225304D01*
X147396567Y-72156354D01*
X147403941Y-72109793D01*
X147405492Y-72100000D01*
X147397110Y-72047075D01*
X147387197Y-71984487D01*
X147387196Y-71984485D01*
X147385646Y-71974696D01*
X147328050Y-71861658D01*
X147238342Y-71771950D01*
X147125304Y-71714354D01*
X147115515Y-71712804D01*
X147115513Y-71712803D01*
X147009793Y-71696059D01*
X147000000Y-71694508D01*
X146990207Y-71696059D01*
X146884487Y-71712803D01*
X146884485Y-71712804D01*
X146874696Y-71714354D01*
X146761658Y-71771950D01*
X146671950Y-71861658D01*
X146614354Y-71974696D01*
X146612804Y-71984485D01*
X146612803Y-71984487D01*
X146602890Y-72047075D01*
X146594508Y-72100000D01*
X139818906Y-72100000D01*
X141348905Y-70570000D01*
X148924508Y-70570000D01*
X148926059Y-70579793D01*
X148941912Y-70679884D01*
X148944354Y-70695304D01*
X149001950Y-70808342D01*
X149091658Y-70898050D01*
X149204696Y-70955646D01*
X149214485Y-70957196D01*
X149214487Y-70957197D01*
X149320207Y-70973941D01*
X149330000Y-70975492D01*
X149339793Y-70973941D01*
X149445513Y-70957197D01*
X149445515Y-70957196D01*
X149455304Y-70955646D01*
X149568342Y-70898050D01*
X149658050Y-70808342D01*
X149715646Y-70695304D01*
X149718089Y-70679884D01*
X149733941Y-70579793D01*
X149735492Y-70570000D01*
X149733637Y-70558285D01*
X149717197Y-70454487D01*
X149717196Y-70454485D01*
X149715646Y-70444696D01*
X149658050Y-70331658D01*
X149568342Y-70241950D01*
X149455304Y-70184354D01*
X149445515Y-70182804D01*
X149445513Y-70182803D01*
X149339793Y-70166059D01*
X149330000Y-70164508D01*
X149320207Y-70166059D01*
X149214487Y-70182803D01*
X149214485Y-70182804D01*
X149204696Y-70184354D01*
X149091658Y-70241950D01*
X149001950Y-70331658D01*
X148944354Y-70444696D01*
X148942804Y-70454485D01*
X148942803Y-70454487D01*
X148926363Y-70558285D01*
X148924508Y-70570000D01*
X141348905Y-70570000D01*
X141379855Y-70539050D01*
X141442167Y-70505025D01*
X141488661Y-70503696D01*
X141500000Y-70505492D01*
X141509793Y-70503941D01*
X141615513Y-70487197D01*
X141615515Y-70487196D01*
X141625304Y-70485646D01*
X141738342Y-70428050D01*
X141828050Y-70338342D01*
X141885646Y-70225304D01*
X141887930Y-70210887D01*
X141903941Y-70109793D01*
X141903941Y-70109791D01*
X141905492Y-70100000D01*
X141903941Y-70090206D01*
X141895471Y-70036726D01*
X141904571Y-69966315D01*
X141950293Y-69912001D01*
X142018122Y-69891029D01*
X142086521Y-69910057D01*
X142109015Y-69927921D01*
X142160950Y-69979856D01*
X142194976Y-70042168D01*
X142196303Y-70088664D01*
X142196059Y-70090204D01*
X142196059Y-70090206D01*
X142194508Y-70100000D01*
X142196059Y-70109791D01*
X142196059Y-70109793D01*
X142212071Y-70210887D01*
X142214354Y-70225304D01*
X142271950Y-70338342D01*
X142361658Y-70428050D01*
X142474696Y-70485646D01*
X142484485Y-70487196D01*
X142484487Y-70487197D01*
X142590207Y-70503941D01*
X142600000Y-70505492D01*
X142609793Y-70503941D01*
X142715513Y-70487197D01*
X142715515Y-70487196D01*
X142725304Y-70485646D01*
X142838342Y-70428050D01*
X142928050Y-70338342D01*
X142985646Y-70225304D01*
X142987930Y-70210887D01*
X143003941Y-70109793D01*
X143003941Y-70109791D01*
X143005492Y-70100000D01*
X143003941Y-70090206D01*
X142987197Y-69984487D01*
X142987196Y-69984485D01*
X142985646Y-69974696D01*
X142928050Y-69861658D01*
X142838342Y-69771950D01*
X142725304Y-69714354D01*
X142715515Y-69712804D01*
X142715513Y-69712803D01*
X142609793Y-69696059D01*
X142600000Y-69694508D01*
X142588661Y-69696304D01*
X142586766Y-69696059D01*
X142580289Y-69696059D01*
X142580289Y-69695222D01*
X142518250Y-69687205D01*
X142479855Y-69660950D01*
X142459500Y-69640595D01*
X142425474Y-69578283D01*
X142430539Y-69507468D01*
X142473086Y-69450632D01*
X142539606Y-69425821D01*
X142548595Y-69425500D01*
X143348500Y-69425500D01*
X143416621Y-69445502D01*
X143463114Y-69499158D01*
X143474500Y-69551500D01*
X143474500Y-69706918D01*
X143454498Y-69775039D01*
X143437595Y-69796013D01*
X143371950Y-69861658D01*
X143314354Y-69974696D01*
X143312804Y-69984485D01*
X143312803Y-69984487D01*
X143296059Y-70090206D01*
X143294508Y-70100000D01*
X143296059Y-70109791D01*
X143296059Y-70109793D01*
X143312071Y-70210887D01*
X143314354Y-70225304D01*
X143371950Y-70338342D01*
X143461658Y-70428050D01*
X143574696Y-70485646D01*
X143584485Y-70487196D01*
X143584487Y-70487197D01*
X143690207Y-70503941D01*
X143700000Y-70505492D01*
X143709793Y-70503941D01*
X143815513Y-70487197D01*
X143815515Y-70487196D01*
X143825304Y-70485646D01*
X143938342Y-70428050D01*
X144028050Y-70338342D01*
X144085646Y-70225304D01*
X144087930Y-70210887D01*
X144103941Y-70109793D01*
X144103941Y-70109791D01*
X144105492Y-70100000D01*
X144103941Y-70090206D01*
X144087197Y-69984487D01*
X144087196Y-69984485D01*
X144085646Y-69974696D01*
X144028050Y-69861658D01*
X143962405Y-69796013D01*
X143928379Y-69733701D01*
X143925500Y-69706918D01*
X143925500Y-69309196D01*
X143925673Y-69302603D01*
X143927006Y-69277164D01*
X143927699Y-69263936D01*
X143920437Y-69245018D01*
X143914821Y-69226059D01*
X143913360Y-69219185D01*
X143910607Y-69206232D01*
X143902825Y-69195520D01*
X143900803Y-69190979D01*
X143898091Y-69186803D01*
X143893345Y-69174440D01*
X143879017Y-69160112D01*
X143866176Y-69145078D01*
X143862043Y-69139389D01*
X143862042Y-69139388D01*
X143854260Y-69128677D01*
X143842794Y-69122057D01*
X143832949Y-69113193D01*
X143833267Y-69112840D01*
X143826728Y-69107823D01*
X143765977Y-69047072D01*
X143761436Y-69042288D01*
X143755604Y-69035811D01*
X143724887Y-68971804D01*
X143733650Y-68901350D01*
X143779113Y-68846819D01*
X143849240Y-68825500D01*
X144154404Y-68825500D01*
X144222525Y-68845502D01*
X144243499Y-68862405D01*
X144537595Y-69156501D01*
X144571621Y-69218813D01*
X144574500Y-69245596D01*
X144574500Y-69706918D01*
X144554498Y-69775039D01*
X144537595Y-69796013D01*
X144471950Y-69861658D01*
X144414354Y-69974696D01*
X144412804Y-69984485D01*
X144412803Y-69984487D01*
X144396059Y-70090206D01*
X144394508Y-70100000D01*
X144396059Y-70109791D01*
X144396059Y-70109793D01*
X144412071Y-70210887D01*
X144414354Y-70225304D01*
X144471950Y-70338342D01*
X144561658Y-70428050D01*
X144674696Y-70485646D01*
X144684485Y-70487196D01*
X144684487Y-70487197D01*
X144790207Y-70503941D01*
X144800000Y-70505492D01*
X144809793Y-70503941D01*
X144915513Y-70487197D01*
X144915515Y-70487196D01*
X144925304Y-70485646D01*
X145038342Y-70428050D01*
X145128050Y-70338342D01*
X145185646Y-70225304D01*
X145187930Y-70210887D01*
X145203941Y-70109793D01*
X145203941Y-70109791D01*
X145205492Y-70100000D01*
X145203941Y-70090206D01*
X145187197Y-69984487D01*
X145187196Y-69984485D01*
X145185646Y-69974696D01*
X145128050Y-69861658D01*
X145062405Y-69796013D01*
X145028379Y-69733701D01*
X145025500Y-69706918D01*
X145025500Y-69600000D01*
X152894508Y-69600000D01*
X152896059Y-69609793D01*
X152912620Y-69714354D01*
X152914354Y-69725304D01*
X152971950Y-69838342D01*
X153061658Y-69928050D01*
X153174696Y-69985646D01*
X153184485Y-69987196D01*
X153184487Y-69987197D01*
X153290207Y-70003941D01*
X153300000Y-70005492D01*
X153309793Y-70003941D01*
X153415513Y-69987197D01*
X153415515Y-69987196D01*
X153425304Y-69985646D01*
X153538342Y-69928050D01*
X153628050Y-69838342D01*
X153685646Y-69725304D01*
X153687381Y-69714354D01*
X153703941Y-69609793D01*
X153705492Y-69600000D01*
X153700028Y-69565500D01*
X153687197Y-69484487D01*
X153687196Y-69484485D01*
X153685646Y-69474696D01*
X153628050Y-69361658D01*
X153538342Y-69271950D01*
X153425304Y-69214354D01*
X153415515Y-69212804D01*
X153415513Y-69212803D01*
X153309793Y-69196059D01*
X153300000Y-69194508D01*
X153290207Y-69196059D01*
X153184487Y-69212803D01*
X153184485Y-69212804D01*
X153174696Y-69214354D01*
X153061658Y-69271950D01*
X152971950Y-69361658D01*
X152914354Y-69474696D01*
X152912804Y-69484485D01*
X152912803Y-69484487D01*
X152899972Y-69565500D01*
X152894508Y-69600000D01*
X145025500Y-69600000D01*
X145025500Y-69109208D01*
X145025673Y-69102614D01*
X145027007Y-69077163D01*
X145027007Y-69077162D01*
X145027700Y-69063936D01*
X145022954Y-69051574D01*
X145022954Y-69051571D01*
X145020436Y-69045012D01*
X145014820Y-69026053D01*
X145013361Y-69019187D01*
X145013360Y-69019185D01*
X145010607Y-69006232D01*
X145002822Y-68995517D01*
X145000797Y-68990969D01*
X144998091Y-68986802D01*
X144993346Y-68974441D01*
X144979017Y-68960112D01*
X144966176Y-68945078D01*
X144962043Y-68939389D01*
X144962042Y-68939388D01*
X144954260Y-68928677D01*
X144942794Y-68922057D01*
X144932949Y-68913193D01*
X144933267Y-68912840D01*
X144926728Y-68907823D01*
X144465977Y-68447072D01*
X144461436Y-68442288D01*
X144453322Y-68433277D01*
X144435507Y-68413491D01*
X144416985Y-68405245D01*
X144399622Y-68395817D01*
X144382618Y-68384774D01*
X144369537Y-68382702D01*
X144364894Y-68380920D01*
X144360028Y-68379886D01*
X144347932Y-68374500D01*
X144327666Y-68374500D01*
X144307957Y-68372949D01*
X144287935Y-68369778D01*
X144275146Y-68373205D01*
X144261918Y-68373898D01*
X144261893Y-68373424D01*
X144253723Y-68374500D01*
X141100182Y-68374500D01*
X141032061Y-68354498D01*
X140985568Y-68300842D01*
X140975464Y-68230568D01*
X140980349Y-68209565D01*
X140981147Y-68207109D01*
X140985646Y-68198279D01*
X141005492Y-68072975D01*
X141003941Y-68063182D01*
X140987197Y-67957462D01*
X140987196Y-67957460D01*
X140985646Y-67947671D01*
X140928050Y-67834633D01*
X140838342Y-67744925D01*
X140767378Y-67708767D01*
X140715763Y-67660019D01*
X140698697Y-67591104D01*
X140721598Y-67523902D01*
X140777195Y-67479750D01*
X140824581Y-67470500D01*
X154403500Y-67470500D01*
X154471621Y-67490502D01*
X154518114Y-67544158D01*
X154529500Y-67596500D01*
X154529500Y-82443500D01*
X154509498Y-82511621D01*
X154455842Y-82558114D01*
X154403500Y-82569500D01*
X129556500Y-82569500D01*
X129488379Y-82549498D01*
X129441886Y-82495842D01*
X129430500Y-82443500D01*
X129430500Y-67596500D01*
X129450502Y-67528379D01*
X129504158Y-67481886D01*
X129556500Y-67470500D01*
X130037317Y-67470500D01*
X130105438Y-67490502D01*
G37*
%TD.AperFunction*%
%TA.AperFunction,Conductor*%
G36*
X140032443Y-73745502D02*
G01*
X140078936Y-73799158D01*
X140089040Y-73869432D01*
X140059546Y-73934012D01*
X140053417Y-73940595D01*
X138456417Y-75537595D01*
X138394105Y-75571621D01*
X138367322Y-75574500D01*
X134745597Y-75574500D01*
X134677476Y-75554498D01*
X134656502Y-75537596D01*
X134165968Y-75047063D01*
X134161427Y-75042278D01*
X134135507Y-75013491D01*
X134136296Y-75012781D01*
X134101158Y-74967216D01*
X134095081Y-74896480D01*
X134128212Y-74833687D01*
X134190031Y-74798775D01*
X134218572Y-74795500D01*
X134220792Y-74795500D01*
X134227386Y-74795673D01*
X134252836Y-74797007D01*
X134252837Y-74797007D01*
X134266064Y-74797700D01*
X134284984Y-74790437D01*
X134303942Y-74784821D01*
X134310816Y-74783360D01*
X134323768Y-74780607D01*
X134334481Y-74772824D01*
X134339029Y-74770799D01*
X134343198Y-74768092D01*
X134355560Y-74763346D01*
X134369892Y-74749014D01*
X134384927Y-74736173D01*
X134390609Y-74732045D01*
X134390611Y-74732043D01*
X134401323Y-74724260D01*
X134407944Y-74712793D01*
X134416806Y-74702950D01*
X134417159Y-74703267D01*
X134422173Y-74696733D01*
X134606500Y-74512405D01*
X134668812Y-74478380D01*
X134695596Y-74475500D01*
X137765056Y-74475500D01*
X137771650Y-74475673D01*
X137797100Y-74477007D01*
X137797101Y-74477007D01*
X137810328Y-74477700D01*
X137829248Y-74470437D01*
X137848206Y-74464821D01*
X137855080Y-74463360D01*
X137868032Y-74460607D01*
X137878745Y-74452824D01*
X137883293Y-74450799D01*
X137887462Y-74448092D01*
X137899824Y-74443346D01*
X137914156Y-74429014D01*
X137929191Y-74416173D01*
X137934873Y-74412045D01*
X137934875Y-74412043D01*
X137945587Y-74404260D01*
X137952208Y-74392793D01*
X137961070Y-74382950D01*
X137961423Y-74383268D01*
X137966436Y-74376734D01*
X138580764Y-73762405D01*
X138643077Y-73728380D01*
X138669860Y-73725500D01*
X139964322Y-73725500D01*
X140032443Y-73745502D01*
G37*
%TD.AperFunction*%
%TA.AperFunction,Conductor*%
G36*
X133856452Y-68399430D02*
G01*
X133877426Y-68416332D01*
X134143118Y-68682023D01*
X134360499Y-68899404D01*
X134394524Y-68961717D01*
X134389460Y-69032532D01*
X134346913Y-69089368D01*
X134280393Y-69114179D01*
X134271404Y-69114500D01*
X133869208Y-69114500D01*
X133862614Y-69114327D01*
X133837163Y-69112993D01*
X133837162Y-69112993D01*
X133823936Y-69112300D01*
X133811574Y-69117046D01*
X133811571Y-69117046D01*
X133805012Y-69119564D01*
X133786053Y-69125180D01*
X133779187Y-69126639D01*
X133779185Y-69126640D01*
X133766232Y-69129393D01*
X133755517Y-69137178D01*
X133750969Y-69139203D01*
X133746802Y-69141909D01*
X133734441Y-69146654D01*
X133720112Y-69160983D01*
X133705079Y-69173823D01*
X133688677Y-69185740D01*
X133682057Y-69197206D01*
X133673193Y-69207051D01*
X133672840Y-69206733D01*
X133667823Y-69213272D01*
X133120145Y-69760950D01*
X133057833Y-69794976D01*
X133011339Y-69796304D01*
X133000000Y-69794508D01*
X132990207Y-69796059D01*
X132884487Y-69812803D01*
X132884485Y-69812804D01*
X132874696Y-69814354D01*
X132861882Y-69820883D01*
X132861203Y-69821229D01*
X132791426Y-69834333D01*
X132725641Y-69807633D01*
X132684735Y-69749605D01*
X132678000Y-69708962D01*
X132678000Y-69612115D01*
X132673525Y-69596876D01*
X132672135Y-69595671D01*
X132664452Y-69594000D01*
X131992115Y-69594000D01*
X131976876Y-69598475D01*
X131975671Y-69599865D01*
X131974000Y-69607548D01*
X131974000Y-70679884D01*
X131978475Y-70695123D01*
X131979865Y-70696328D01*
X131987548Y-70697999D01*
X132214669Y-70697999D01*
X132221490Y-70697629D01*
X132272352Y-70692105D01*
X132287604Y-70688479D01*
X132408054Y-70643324D01*
X132423649Y-70634786D01*
X132525724Y-70558285D01*
X132538285Y-70545724D01*
X132554391Y-70524234D01*
X132611250Y-70481719D01*
X132682069Y-70476693D01*
X132744312Y-70510704D01*
X132761658Y-70528050D01*
X132874696Y-70585646D01*
X132884485Y-70587196D01*
X132884487Y-70587197D01*
X132990207Y-70603941D01*
X133000000Y-70605492D01*
X133009793Y-70603941D01*
X133115513Y-70587197D01*
X133115515Y-70587196D01*
X133125304Y-70585646D01*
X133238342Y-70528050D01*
X133328050Y-70438342D01*
X133385646Y-70325304D01*
X133388450Y-70307604D01*
X133403941Y-70209793D01*
X133405492Y-70200000D01*
X133403696Y-70188661D01*
X133403941Y-70186766D01*
X133403941Y-70180289D01*
X133404778Y-70180289D01*
X133412795Y-70118250D01*
X133439050Y-70079855D01*
X133916500Y-69602405D01*
X133978812Y-69568379D01*
X134005595Y-69565500D01*
X134393500Y-69565500D01*
X134461621Y-69585502D01*
X134508114Y-69639158D01*
X134519500Y-69691500D01*
X134519500Y-70204820D01*
X134528233Y-70248722D01*
X134535127Y-70259040D01*
X134535128Y-70259042D01*
X134554601Y-70288185D01*
X134561496Y-70298504D01*
X134571815Y-70305399D01*
X134600958Y-70324872D01*
X134600960Y-70324873D01*
X134611278Y-70331767D01*
X134655180Y-70340500D01*
X135387877Y-70340500D01*
X135455998Y-70360502D01*
X135502491Y-70414158D01*
X135512595Y-70484432D01*
X135483101Y-70549012D01*
X135476972Y-70555595D01*
X135114973Y-70917594D01*
X135052661Y-70951620D01*
X135025878Y-70954499D01*
X132609209Y-70954499D01*
X132602615Y-70954326D01*
X132577164Y-70952992D01*
X132577163Y-70952992D01*
X132563937Y-70952299D01*
X132551575Y-70957045D01*
X132551572Y-70957045D01*
X132545013Y-70959563D01*
X132526054Y-70965179D01*
X132519188Y-70966638D01*
X132519186Y-70966639D01*
X132506233Y-70969392D01*
X132495518Y-70977177D01*
X132490970Y-70979202D01*
X132486803Y-70981908D01*
X132474442Y-70986653D01*
X132460113Y-71000982D01*
X132445080Y-71013822D01*
X132428678Y-71025739D01*
X132422058Y-71037205D01*
X132413194Y-71047050D01*
X132412841Y-71046732D01*
X132407824Y-71053271D01*
X131733500Y-71727595D01*
X131671188Y-71761621D01*
X131644405Y-71764500D01*
X130675180Y-71764500D01*
X130631278Y-71773233D01*
X130620960Y-71780127D01*
X130620958Y-71780128D01*
X130610322Y-71787235D01*
X130581496Y-71806496D01*
X130581150Y-71805978D01*
X130528283Y-71834847D01*
X130457468Y-71829782D01*
X130400632Y-71787235D01*
X130375821Y-71720715D01*
X130375500Y-71711726D01*
X130375500Y-69982928D01*
X130395502Y-69914807D01*
X130449158Y-69868314D01*
X130501499Y-69856928D01*
X130617473Y-69856927D01*
X130636000Y-69856927D01*
X130704121Y-69876929D01*
X130750614Y-69930584D01*
X130762001Y-69982927D01*
X130762001Y-70234669D01*
X130762371Y-70241490D01*
X130767895Y-70292352D01*
X130771521Y-70307604D01*
X130816674Y-70428050D01*
X130825214Y-70443649D01*
X130901715Y-70545724D01*
X130914276Y-70558285D01*
X131016351Y-70634786D01*
X131031946Y-70643324D01*
X131152394Y-70688478D01*
X131167649Y-70692105D01*
X131218514Y-70697631D01*
X131225328Y-70698000D01*
X131447885Y-70698000D01*
X131463124Y-70693525D01*
X131464329Y-70692135D01*
X131466000Y-70684452D01*
X131466000Y-69212000D01*
X131486002Y-69143879D01*
X131539658Y-69097386D01*
X131592000Y-69086000D01*
X132659884Y-69086000D01*
X132675123Y-69081525D01*
X132676328Y-69080135D01*
X132677999Y-69072452D01*
X132677999Y-68505428D01*
X132698001Y-68437307D01*
X132751657Y-68390814D01*
X132803999Y-68379428D01*
X133788331Y-68379428D01*
X133856452Y-68399430D01*
G37*
%TD.AperFunction*%
%TA.AperFunction,Conductor*%
G36*
X140443540Y-67490502D02*
G01*
X140490033Y-67544158D01*
X140500137Y-67614432D01*
X140470643Y-67679012D01*
X140432622Y-67708767D01*
X140361658Y-67744925D01*
X140271950Y-67834633D01*
X140214354Y-67947671D01*
X140212804Y-67957460D01*
X140212803Y-67957462D01*
X140196059Y-68063182D01*
X140194508Y-68072975D01*
X140214354Y-68198279D01*
X140218853Y-68207109D01*
X140219651Y-68209565D01*
X140221678Y-68280533D01*
X140185015Y-68341330D01*
X140121303Y-68372655D01*
X140099818Y-68374500D01*
X137760680Y-68374500D01*
X137754086Y-68374327D01*
X137728635Y-68372993D01*
X137728634Y-68372993D01*
X137715408Y-68372300D01*
X137703046Y-68377046D01*
X137703043Y-68377046D01*
X137696484Y-68379564D01*
X137677525Y-68385180D01*
X137670659Y-68386639D01*
X137670657Y-68386640D01*
X137657704Y-68389393D01*
X137646989Y-68397178D01*
X137642441Y-68399203D01*
X137638274Y-68401909D01*
X137625913Y-68406654D01*
X137611584Y-68420983D01*
X137596551Y-68433823D01*
X137580149Y-68445740D01*
X137573529Y-68457206D01*
X137564665Y-68467051D01*
X137564312Y-68466733D01*
X137559295Y-68473272D01*
X135935595Y-70096972D01*
X135873283Y-70130998D01*
X135802468Y-70125933D01*
X135745632Y-70083386D01*
X135720821Y-70016866D01*
X135720500Y-70007877D01*
X135720500Y-68475180D01*
X135711767Y-68431278D01*
X135704873Y-68420960D01*
X135704872Y-68420958D01*
X135685399Y-68391815D01*
X135678504Y-68381496D01*
X135667133Y-68373898D01*
X135639042Y-68355128D01*
X135639040Y-68355127D01*
X135628722Y-68348233D01*
X135584820Y-68339500D01*
X134655180Y-68339500D01*
X134611278Y-68348233D01*
X134598861Y-68356530D01*
X134593593Y-68358179D01*
X134589497Y-68359876D01*
X134589345Y-68359509D01*
X134531111Y-68377745D01*
X134462643Y-68358963D01*
X134439765Y-68340860D01*
X134099905Y-68001000D01*
X134095364Y-67996216D01*
X134069435Y-67967419D01*
X134050913Y-67959173D01*
X134033550Y-67949745D01*
X134016546Y-67938702D01*
X134003465Y-67936630D01*
X133998822Y-67934848D01*
X133993956Y-67933814D01*
X133981860Y-67928428D01*
X133961594Y-67928428D01*
X133941885Y-67926877D01*
X133921863Y-67923706D01*
X133909074Y-67927133D01*
X133895846Y-67927826D01*
X133895821Y-67927352D01*
X133887651Y-67928428D01*
X131019260Y-67928428D01*
X130951139Y-67908426D01*
X130904109Y-67853576D01*
X130875047Y-67788148D01*
X130870323Y-67777513D01*
X130788461Y-67695793D01*
X130787268Y-67695265D01*
X130746606Y-67645475D01*
X130738558Y-67574936D01*
X130769923Y-67511243D01*
X130830744Y-67474619D01*
X130862699Y-67470500D01*
X140375419Y-67470500D01*
X140443540Y-67490502D01*
G37*
%TD.AperFunction*%
%TD*%
M02*
