%TF.GenerationSoftware,KiCad,Pcbnew,(6.0.9)*%
%TF.CreationDate,2023-06-25T00:46:12+02:00*%
%TF.ProjectId,keyring_beerclock,6b657972-696e-4675-9f62-656572636c6f,rev?*%
%TF.SameCoordinates,Original*%
%TF.FileFunction,Paste,Top*%
%TF.FilePolarity,Positive*%
%FSLAX46Y46*%
G04 Gerber Fmt 4.6, Leading zero omitted, Abs format (unit mm)*
G04 Created by KiCad (PCBNEW (6.0.9)) date 2023-06-25 00:46:12*
%MOMM*%
%LPD*%
G01*
G04 APERTURE LIST*
G04 Aperture macros list*
%AMRoundRect*
0 Rectangle with rounded corners*
0 $1 Rounding radius*
0 $2 $3 $4 $5 $6 $7 $8 $9 X,Y pos of 4 corners*
0 Add a 4 corners polygon primitive as box body*
4,1,4,$2,$3,$4,$5,$6,$7,$8,$9,$2,$3,0*
0 Add four circle primitives for the rounded corners*
1,1,$1+$1,$2,$3*
1,1,$1+$1,$4,$5*
1,1,$1+$1,$6,$7*
1,1,$1+$1,$8,$9*
0 Add four rect primitives between the rounded corners*
20,1,$1+$1,$2,$3,$4,$5,0*
20,1,$1+$1,$4,$5,$6,$7,0*
20,1,$1+$1,$6,$7,$8,$9,0*
20,1,$1+$1,$8,$9,$2,$3,0*%
%AMFreePoly0*
4,1,14,0.334644,0.085355,0.385355,0.034644,0.400000,-0.000711,0.400000,-0.050000,0.385355,-0.085355,0.350000,-0.100000,-0.350000,-0.100000,-0.385355,-0.085355,-0.400000,-0.050000,-0.400000,0.050000,-0.385355,0.085355,-0.350000,0.100000,0.299289,0.100000,0.334644,0.085355,0.334644,0.085355,$1*%
%AMFreePoly1*
4,1,14,0.385355,0.085355,0.400000,0.050000,0.400000,0.000711,0.385355,-0.034644,0.334644,-0.085355,0.299289,-0.100000,-0.350000,-0.100000,-0.385355,-0.085355,-0.400000,-0.050000,-0.400000,0.050000,-0.385355,0.085355,-0.350000,0.100000,0.350000,0.100000,0.385355,0.085355,0.385355,0.085355,$1*%
%AMFreePoly2*
4,1,14,0.085355,0.385355,0.100000,0.350000,0.100000,-0.350000,0.085355,-0.385355,0.050000,-0.400000,-0.050000,-0.400000,-0.085355,-0.385355,-0.100000,-0.350000,-0.100000,0.299289,-0.085355,0.334644,-0.034644,0.385355,0.000711,0.400000,0.050000,0.400000,0.085355,0.385355,0.085355,0.385355,$1*%
%AMFreePoly3*
4,1,14,0.034644,0.385355,0.085355,0.334644,0.100000,0.299289,0.100000,-0.350000,0.085355,-0.385355,0.050000,-0.400000,-0.050000,-0.400000,-0.085355,-0.385355,-0.100000,-0.350000,-0.100000,0.350000,-0.085355,0.385355,-0.050000,0.400000,-0.000711,0.400000,0.034644,0.385355,0.034644,0.385355,$1*%
%AMFreePoly4*
4,1,14,0.385355,0.085355,0.400000,0.050000,0.400000,-0.050000,0.385355,-0.085355,0.350000,-0.100000,-0.299289,-0.100000,-0.334644,-0.085355,-0.385355,-0.034644,-0.400000,0.000711,-0.400000,0.050000,-0.385355,0.085355,-0.350000,0.100000,0.350000,0.100000,0.385355,0.085355,0.385355,0.085355,$1*%
%AMFreePoly5*
4,1,14,0.385355,0.085355,0.400000,0.050000,0.400000,-0.050000,0.385355,-0.085355,0.350000,-0.100000,-0.350000,-0.100000,-0.385355,-0.085355,-0.400000,-0.050000,-0.400000,-0.000711,-0.385355,0.034644,-0.334644,0.085355,-0.299289,0.100000,0.350000,0.100000,0.385355,0.085355,0.385355,0.085355,$1*%
%AMFreePoly6*
4,1,14,0.085355,0.385355,0.100000,0.350000,0.100000,-0.299289,0.085355,-0.334644,0.034644,-0.385355,-0.000711,-0.400000,-0.050000,-0.400000,-0.085355,-0.385355,-0.100000,-0.350000,-0.100000,0.350000,-0.085355,0.385355,-0.050000,0.400000,0.050000,0.400000,0.085355,0.385355,0.085355,0.385355,$1*%
%AMFreePoly7*
4,1,14,0.085355,0.385355,0.100000,0.350000,0.100000,-0.350000,0.085355,-0.385355,0.050000,-0.400000,0.000711,-0.400000,-0.034644,-0.385355,-0.085355,-0.334644,-0.100000,-0.299289,-0.100000,0.350000,-0.085355,0.385355,-0.050000,0.400000,0.050000,0.400000,0.085355,0.385355,0.085355,0.385355,$1*%
G04 Aperture macros list end*
%ADD10RoundRect,0.250000X0.750000X-0.250000X0.750000X0.250000X-0.750000X0.250000X-0.750000X-0.250000X0*%
%ADD11R,1.000000X0.800000*%
%ADD12R,0.700000X1.500000*%
%ADD13RoundRect,0.150000X0.512500X0.150000X-0.512500X0.150000X-0.512500X-0.150000X0.512500X-0.150000X0*%
%ADD14RoundRect,0.155000X0.155000X-0.212500X0.155000X0.212500X-0.155000X0.212500X-0.155000X-0.212500X0*%
%ADD15RoundRect,0.172500X0.172500X0.172500X-0.172500X0.172500X-0.172500X-0.172500X0.172500X-0.172500X0*%
%ADD16FreePoly0,180.000000*%
%ADD17RoundRect,0.050000X0.350000X0.050000X-0.350000X0.050000X-0.350000X-0.050000X0.350000X-0.050000X0*%
%ADD18FreePoly1,180.000000*%
%ADD19FreePoly2,180.000000*%
%ADD20RoundRect,0.050000X0.050000X0.350000X-0.050000X0.350000X-0.050000X-0.350000X0.050000X-0.350000X0*%
%ADD21FreePoly3,180.000000*%
%ADD22FreePoly4,180.000000*%
%ADD23FreePoly5,180.000000*%
%ADD24FreePoly6,180.000000*%
%ADD25FreePoly7,180.000000*%
%ADD26RoundRect,0.155000X-0.212500X-0.155000X0.212500X-0.155000X0.212500X0.155000X-0.212500X0.155000X0*%
%ADD27RoundRect,0.160000X0.160000X-0.197500X0.160000X0.197500X-0.160000X0.197500X-0.160000X-0.197500X0*%
%ADD28RoundRect,0.160000X-0.160000X0.197500X-0.160000X-0.197500X0.160000X-0.197500X0.160000X0.197500X0*%
%ADD29RoundRect,0.155000X0.212500X0.155000X-0.212500X0.155000X-0.212500X-0.155000X0.212500X-0.155000X0*%
%ADD30RoundRect,0.160000X-0.197500X-0.160000X0.197500X-0.160000X0.197500X0.160000X-0.197500X0.160000X0*%
%ADD31RoundRect,0.155000X-0.155000X0.212500X-0.155000X-0.212500X0.155000X-0.212500X0.155000X0.212500X0*%
%ADD32R,1.150000X0.600000*%
%ADD33R,1.150000X0.300000*%
%ADD34R,2.000000X2.180000*%
G04 APERTURE END LIST*
D10*
%TO.C,J7*%
X153300000Y-68100000D03*
%TD*%
%TO.C,J6*%
X153300000Y-70660000D03*
%TD*%
%TO.C,J2*%
X153200000Y-79300000D03*
%TD*%
%TO.C,J1*%
X153200000Y-81860000D03*
%TD*%
D11*
%TO.C,SW1*%
X148520000Y-79720000D03*
X148520000Y-81930000D03*
X141220000Y-79720000D03*
X141220000Y-81930000D03*
D12*
X142620000Y-79070000D03*
X145620000Y-79070000D03*
X147120000Y-79070000D03*
%TD*%
D13*
%TO.C,U3*%
X139397500Y-71870000D03*
X139397500Y-70920000D03*
X139397500Y-69970000D03*
X137122500Y-69970000D03*
X137122500Y-71870000D03*
%TD*%
D14*
%TO.C,C12*%
X146085000Y-72092500D03*
X146085000Y-70957500D03*
%TD*%
%TO.C,C5*%
X143700000Y-68102975D03*
X143700000Y-69237975D03*
%TD*%
D15*
%TO.C,U4*%
X142545000Y-73145000D03*
X143395000Y-72295000D03*
X142545000Y-72295000D03*
X143395000Y-73145000D03*
D16*
X144420000Y-73520000D03*
D17*
X144420000Y-73120000D03*
X144420000Y-72720000D03*
X144420000Y-72320000D03*
D18*
X144420000Y-71920000D03*
D19*
X143770000Y-71270000D03*
D20*
X143370000Y-71270000D03*
X142970000Y-71270000D03*
X142570000Y-71270000D03*
D21*
X142170000Y-71270000D03*
D22*
X141520000Y-71920000D03*
D17*
X141520000Y-72320000D03*
X141520000Y-72720000D03*
X141520000Y-73120000D03*
D23*
X141520000Y-73520000D03*
D24*
X142170000Y-74170000D03*
D20*
X142570000Y-74170000D03*
X142970000Y-74170000D03*
X143370000Y-74170000D03*
D25*
X143770000Y-74170000D03*
%TD*%
D26*
%TO.C,C8*%
X136702500Y-68660000D03*
X137837500Y-68660000D03*
%TD*%
D14*
%TO.C,C2*%
X143700000Y-76189640D03*
X143700000Y-77324640D03*
%TD*%
D27*
%TO.C,R3*%
X141500000Y-76159640D03*
X141500000Y-77354640D03*
%TD*%
D14*
%TO.C,C6*%
X144800000Y-69237975D03*
X144800000Y-68102975D03*
%TD*%
D28*
%TO.C,R10*%
X136670000Y-75602500D03*
X136670000Y-76797500D03*
%TD*%
D29*
%TO.C,C4*%
X138927500Y-76840000D03*
X137792500Y-76840000D03*
%TD*%
D28*
%TO.C,R4*%
X141500000Y-68072975D03*
X141500000Y-69267975D03*
%TD*%
D27*
%TO.C,R11*%
X136670000Y-73242500D03*
X136670000Y-74437500D03*
%TD*%
D13*
%TO.C,U2*%
X139352500Y-80070000D03*
X139352500Y-79120000D03*
X139352500Y-78170000D03*
X137077500Y-78170000D03*
X137077500Y-80070000D03*
%TD*%
D29*
%TO.C,C10*%
X137792500Y-73200000D03*
X138927500Y-73200000D03*
%TD*%
D30*
%TO.C,R1*%
X136672500Y-81390000D03*
X137867500Y-81390000D03*
%TD*%
D14*
%TO.C,C1*%
X145700000Y-77324640D03*
X145700000Y-76189640D03*
%TD*%
D29*
%TO.C,C7*%
X137792500Y-75840000D03*
X138927500Y-75840000D03*
%TD*%
D27*
%TO.C,R8*%
X148210000Y-69477500D03*
X148210000Y-68282500D03*
%TD*%
D31*
%TO.C,C9*%
X142600000Y-77324640D03*
X142600000Y-76189640D03*
%TD*%
%TO.C,C11*%
X146085000Y-73257500D03*
X146085000Y-74392500D03*
%TD*%
D32*
%TO.C,J8*%
X135175000Y-71820000D03*
X135175000Y-78220000D03*
X135175000Y-72620000D03*
X135175000Y-77420000D03*
D33*
X135175000Y-73770000D03*
X135175000Y-74770000D03*
X135175000Y-75270000D03*
X135175000Y-76270000D03*
X135175000Y-76770000D03*
X135175000Y-75770000D03*
X135175000Y-74270000D03*
X135175000Y-73270000D03*
D34*
X130705000Y-80130000D03*
X130705000Y-69910000D03*
X134605000Y-80130000D03*
X134605000Y-69910000D03*
%TD*%
D27*
%TO.C,R2*%
X142600000Y-68072975D03*
X142600000Y-69267975D03*
%TD*%
D29*
%TO.C,C3*%
X138927500Y-74200000D03*
X137792500Y-74200000D03*
%TD*%
D28*
%TO.C,R9*%
X149330000Y-68282500D03*
X149330000Y-69477500D03*
%TD*%
M02*
